%TF.GenerationSoftware,KiCad,Pcbnew,7.0.10*%
%TF.CreationDate,2024-02-26T10:06:05+01:00*%
%TF.ProjectId,Legacy-LedPanel-HAT,4c656761-6379-42d4-9c65-6450616e656c,rev?*%
%TF.SameCoordinates,Original*%
%TF.FileFunction,Soldermask,Bot*%
%TF.FilePolarity,Negative*%
%FSLAX46Y46*%
G04 Gerber Fmt 4.6, Leading zero omitted, Abs format (unit mm)*
G04 Created by KiCad (PCBNEW 7.0.10) date 2024-02-26 10:06:05*
%MOMM*%
%LPD*%
G01*
G04 APERTURE LIST*
G04 Aperture macros list*
%AMRoundRect*
0 Rectangle with rounded corners*
0 $1 Rounding radius*
0 $2 $3 $4 $5 $6 $7 $8 $9 X,Y pos of 4 corners*
0 Add a 4 corners polygon primitive as box body*
4,1,4,$2,$3,$4,$5,$6,$7,$8,$9,$2,$3,0*
0 Add four circle primitives for the rounded corners*
1,1,$1+$1,$2,$3*
1,1,$1+$1,$4,$5*
1,1,$1+$1,$6,$7*
1,1,$1+$1,$8,$9*
0 Add four rect primitives between the rounded corners*
20,1,$1+$1,$2,$3,$4,$5,0*
20,1,$1+$1,$4,$5,$6,$7,0*
20,1,$1+$1,$6,$7,$8,$9,0*
20,1,$1+$1,$8,$9,$2,$3,0*%
G04 Aperture macros list end*
%ADD10R,1.700000X1.700000*%
%ADD11O,1.700000X1.700000*%
%ADD12RoundRect,0.250000X-0.600000X-0.750000X0.600000X-0.750000X0.600000X0.750000X-0.600000X0.750000X0*%
%ADD13O,1.700000X2.000000*%
%ADD14RoundRect,0.250000X-0.350000X-0.625000X0.350000X-0.625000X0.350000X0.625000X-0.350000X0.625000X0*%
%ADD15O,1.200000X1.750000*%
%ADD16C,1.600000*%
%ADD17C,1.700000*%
%ADD18RoundRect,0.250000X0.725000X-0.600000X0.725000X0.600000X-0.725000X0.600000X-0.725000X-0.600000X0*%
%ADD19O,1.950000X1.700000*%
%ADD20RoundRect,0.250000X0.600000X0.725000X-0.600000X0.725000X-0.600000X-0.725000X0.600000X-0.725000X0*%
%ADD21O,1.700000X1.950000*%
%ADD22RoundRect,0.250000X0.625000X-0.350000X0.625000X0.350000X-0.625000X0.350000X-0.625000X-0.350000X0*%
%ADD23O,1.750000X1.200000*%
G04 APERTURE END LIST*
D10*
%TO.C,JP2*%
X133322400Y-140762000D03*
D11*
X133322400Y-143302000D03*
X133322400Y-145842000D03*
%TD*%
D10*
%TO.C,JP7*%
X107465200Y-101417400D03*
D11*
X104925200Y-101417400D03*
X102385200Y-101417400D03*
%TD*%
D10*
%TO.C,JP15*%
X77442400Y-99817200D03*
D11*
X74902400Y-99817200D03*
X72362400Y-99817200D03*
%TD*%
D10*
%TO.C,JP1*%
X85331400Y-134564400D03*
D11*
X87871400Y-134564400D03*
X90411400Y-134564400D03*
%TD*%
D10*
%TO.C,J5*%
X73485000Y-127808000D03*
D11*
X70945000Y-127808000D03*
%TD*%
D12*
%TO.C,J6_STOP2*%
X122288000Y-104236800D03*
D13*
X124788000Y-104236800D03*
%TD*%
D14*
%TO.C,J4*%
X113415400Y-101493600D03*
D15*
X115415400Y-101493600D03*
%TD*%
D10*
%TO.C,J14*%
X86561000Y-105481400D03*
D11*
X89101000Y-105481400D03*
%TD*%
D12*
%TO.C,J5_STOP1*%
X113194800Y-104186000D03*
D13*
X115694800Y-104186000D03*
%TD*%
D16*
%TO.C,J3*%
X113513800Y-99029800D03*
X115313800Y-99029800D03*
%TD*%
D14*
%TO.C,J7*%
X122502000Y-101493600D03*
D15*
X124502000Y-101493600D03*
%TD*%
D10*
%TO.C,J1*%
X114820000Y-141360000D03*
D11*
X114820000Y-143900000D03*
X112280000Y-141360000D03*
X112280000Y-143900000D03*
X109740000Y-141360000D03*
X109740000Y-143900000D03*
X107200000Y-141360000D03*
X107200000Y-143900000D03*
X104660000Y-141360000D03*
X104660000Y-143900000D03*
X102120000Y-141360000D03*
X102120000Y-143900000D03*
X99580000Y-141360000D03*
X99580000Y-143900000D03*
X97040000Y-141360000D03*
X97040000Y-143900000D03*
X94500000Y-141360000D03*
X94500000Y-143900000D03*
X91960000Y-141360000D03*
X91960000Y-143900000D03*
X89420000Y-141360000D03*
X89420000Y-143900000D03*
X86880000Y-141360000D03*
X86880000Y-143900000D03*
X84340000Y-141360000D03*
X84340000Y-143900000D03*
X81800000Y-141360000D03*
X81800000Y-143900000D03*
X79260000Y-141360000D03*
X79260000Y-143900000D03*
X76720000Y-141360000D03*
X76720000Y-143900000D03*
X74180000Y-141360000D03*
X74180000Y-143900000D03*
X71640000Y-141360000D03*
X71640000Y-143900000D03*
X69100000Y-141360000D03*
X69100000Y-143900000D03*
X66560000Y-141360000D03*
X66560000Y-143900000D03*
%TD*%
D16*
%TO.C,J8*%
X122581600Y-99004400D03*
X124381600Y-99004400D03*
%TD*%
D10*
%TO.C,JP8*%
X130645000Y-101493600D03*
D11*
X133185000Y-101493600D03*
X135725000Y-101493600D03*
%TD*%
D10*
%TO.C,J13*%
X96822600Y-105481400D03*
D11*
X94282600Y-105481400D03*
%TD*%
D16*
%TO.C,J9*%
X53134600Y-135947800D03*
X53134600Y-134147800D03*
X53134600Y-132347800D03*
X53134600Y-130547800D03*
X53134600Y-128747800D03*
X53134600Y-126947800D03*
X53134600Y-125147800D03*
X53134600Y-123347800D03*
X53134600Y-121547800D03*
%TD*%
D10*
%TO.C,U3*%
X147145000Y-79695000D03*
D17*
X144605000Y-79695000D03*
X142065000Y-79695000D03*
X139525000Y-79695000D03*
X136985000Y-79695000D03*
X134445000Y-79695000D03*
X131905000Y-79695000D03*
X129365000Y-79695000D03*
X126825000Y-79695000D03*
X124285000Y-79695000D03*
X121745000Y-79695000D03*
X119205000Y-79695000D03*
X116665000Y-79695000D03*
X114125000Y-79695000D03*
X111585000Y-79695000D03*
X109045000Y-79695000D03*
X106505000Y-79695000D03*
X103965000Y-79695000D03*
X101425000Y-79695000D03*
X98885000Y-79695000D03*
X98885000Y-64455000D03*
X101425000Y-64455000D03*
X103965000Y-64455000D03*
X106505000Y-64455000D03*
X109045000Y-64455000D03*
X111585000Y-64455000D03*
X114125000Y-64455000D03*
X116665000Y-64455000D03*
X119205000Y-64455000D03*
X121745000Y-64455000D03*
X124285000Y-64455000D03*
X126825000Y-64455000D03*
X129365000Y-64455000D03*
X131905000Y-64455000D03*
X134445000Y-64455000D03*
X136985000Y-64455000D03*
X139525000Y-64455000D03*
X142065000Y-64455000D03*
X144605000Y-64455000D03*
X147145000Y-64455000D03*
%TD*%
D18*
%TO.C,J11*%
X62126200Y-135703600D03*
D19*
X62126200Y-133203600D03*
X62126200Y-130703600D03*
X62126200Y-128203600D03*
X62126200Y-125703600D03*
X62126200Y-123203600D03*
X62126200Y-120703600D03*
X62126200Y-118203600D03*
X62126200Y-115703600D03*
%TD*%
D10*
%TO.C,U1*%
X96200000Y-116900000D03*
D17*
X98740000Y-116900000D03*
X101280000Y-116900000D03*
X103820000Y-116900000D03*
X106360000Y-116900000D03*
X108900000Y-116900000D03*
X111440000Y-116900000D03*
X113980000Y-116900000D03*
X116520000Y-116900000D03*
X119060000Y-116900000D03*
X121600000Y-116900000D03*
X124140000Y-116900000D03*
X126680000Y-116900000D03*
X129220000Y-116900000D03*
X131760000Y-116900000D03*
X134300000Y-116900000D03*
X136840000Y-116900000D03*
X139380000Y-116900000D03*
X141920000Y-116900000D03*
X144460000Y-116900000D03*
X144460000Y-132140000D03*
X141920000Y-132140000D03*
X139380000Y-132140000D03*
X136840000Y-132140000D03*
X134300000Y-132140000D03*
X131760000Y-132140000D03*
X129220000Y-132140000D03*
X126680000Y-132140000D03*
X124140000Y-132140000D03*
X121600000Y-132140000D03*
X119060000Y-132140000D03*
X116520000Y-132140000D03*
X113980000Y-132140000D03*
X111440000Y-132140000D03*
X108900000Y-132140000D03*
X106360000Y-132140000D03*
X103820000Y-132140000D03*
X101280000Y-132140000D03*
X98740000Y-132140000D03*
X96200000Y-132140000D03*
X140650000Y-128330000D03*
X140650000Y-125790000D03*
X140650000Y-123250000D03*
X140650000Y-120710000D03*
%TD*%
D20*
%TO.C,J2*%
X146149400Y-139669800D03*
D21*
X143649400Y-139669800D03*
X141149400Y-139669800D03*
X138649400Y-139669800D03*
%TD*%
D10*
%TO.C,J16*%
X139621600Y-105633800D03*
D11*
X139621600Y-103093800D03*
%TD*%
D10*
%TO.C,J12*%
X60576800Y-99766400D03*
D11*
X60576800Y-102306400D03*
%TD*%
D10*
%TO.C,U8*%
X147145000Y-90935000D03*
D17*
X144605000Y-90935000D03*
X142065000Y-90935000D03*
X139525000Y-90935000D03*
X136985000Y-90935000D03*
X134445000Y-90935000D03*
X131905000Y-90935000D03*
X129365000Y-90935000D03*
X126825000Y-90935000D03*
X124285000Y-90935000D03*
X121745000Y-90935000D03*
X119205000Y-90935000D03*
X116665000Y-90935000D03*
X114125000Y-90935000D03*
X111585000Y-90935000D03*
X109045000Y-90935000D03*
X106505000Y-90935000D03*
X103965000Y-90935000D03*
X101425000Y-90935000D03*
X98885000Y-90935000D03*
X98885000Y-75695000D03*
X101425000Y-75695000D03*
X103965000Y-75695000D03*
X106505000Y-75695000D03*
X109045000Y-75695000D03*
X111585000Y-75695000D03*
X114125000Y-75695000D03*
X116665000Y-75695000D03*
X119205000Y-75695000D03*
X121745000Y-75695000D03*
X124285000Y-75695000D03*
X126825000Y-75695000D03*
X129365000Y-75695000D03*
X131905000Y-75695000D03*
X134445000Y-75695000D03*
X136985000Y-75695000D03*
X139525000Y-75695000D03*
X142065000Y-75695000D03*
X144605000Y-75695000D03*
X147145000Y-75695000D03*
%TD*%
D22*
%TO.C,J10*%
X57249400Y-135857800D03*
D23*
X57249400Y-133857800D03*
X57249400Y-131857800D03*
X57249400Y-129857800D03*
X57249400Y-127857800D03*
X57249400Y-125857800D03*
X57249400Y-123857800D03*
X57249400Y-121857800D03*
X57249400Y-119857800D03*
%TD*%
M02*
