%TF.GenerationSoftware,KiCad,Pcbnew,9.0.1*%
%TF.CreationDate,2025-05-26T12:01:48+02:00*%
%TF.ProjectId,Legacy-LedPanel-HAT,4c656761-6379-42d4-9c65-6450616e656c,rev?*%
%TF.SameCoordinates,Original*%
%TF.FileFunction,Legend,Bot*%
%TF.FilePolarity,Positive*%
%FSLAX46Y46*%
G04 Gerber Fmt 4.6, Leading zero omitted, Abs format (unit mm)*
G04 Created by KiCad (PCBNEW 9.0.1) date 2025-05-26 12:01:48*
%MOMM*%
%LPD*%
G01*
G04 APERTURE LIST*
%ADD10C,0.300000*%
%ADD11C,0.150000*%
%ADD12C,0.100000*%
%ADD13C,0.120000*%
%ADD14C,1.700000*%
G04 APERTURE END LIST*
D10*
X134645489Y-135465114D02*
X134431203Y-135536542D01*
X134431203Y-135536542D02*
X134359774Y-135607971D01*
X134359774Y-135607971D02*
X134288346Y-135750828D01*
X134288346Y-135750828D02*
X134288346Y-135965114D01*
X134288346Y-135965114D02*
X134359774Y-136107971D01*
X134359774Y-136107971D02*
X134431203Y-136179400D01*
X134431203Y-136179400D02*
X134574060Y-136250828D01*
X134574060Y-136250828D02*
X135145489Y-136250828D01*
X135145489Y-136250828D02*
X135145489Y-134750828D01*
X135145489Y-134750828D02*
X134645489Y-134750828D01*
X134645489Y-134750828D02*
X134502632Y-134822257D01*
X134502632Y-134822257D02*
X134431203Y-134893685D01*
X134431203Y-134893685D02*
X134359774Y-135036542D01*
X134359774Y-135036542D02*
X134359774Y-135179400D01*
X134359774Y-135179400D02*
X134431203Y-135322257D01*
X134431203Y-135322257D02*
X134502632Y-135393685D01*
X134502632Y-135393685D02*
X134645489Y-135465114D01*
X134645489Y-135465114D02*
X135145489Y-135465114D01*
X133359774Y-134750828D02*
X133074060Y-134750828D01*
X133074060Y-134750828D02*
X132931203Y-134822257D01*
X132931203Y-134822257D02*
X132788346Y-134965114D01*
X132788346Y-134965114D02*
X132716917Y-135250828D01*
X132716917Y-135250828D02*
X132716917Y-135750828D01*
X132716917Y-135750828D02*
X132788346Y-136036542D01*
X132788346Y-136036542D02*
X132931203Y-136179400D01*
X132931203Y-136179400D02*
X133074060Y-136250828D01*
X133074060Y-136250828D02*
X133359774Y-136250828D01*
X133359774Y-136250828D02*
X133502632Y-136179400D01*
X133502632Y-136179400D02*
X133645489Y-136036542D01*
X133645489Y-136036542D02*
X133716917Y-135750828D01*
X133716917Y-135750828D02*
X133716917Y-135250828D01*
X133716917Y-135250828D02*
X133645489Y-134965114D01*
X133645489Y-134965114D02*
X133502632Y-134822257D01*
X133502632Y-134822257D02*
X133359774Y-134750828D01*
X132288345Y-134750828D02*
X131431203Y-134750828D01*
X131859774Y-136250828D02*
X131859774Y-134750828D01*
X131145488Y-134750828D02*
X130288346Y-134750828D01*
X130716917Y-136250828D02*
X130716917Y-134750828D01*
X129502631Y-134750828D02*
X129216917Y-134750828D01*
X129216917Y-134750828D02*
X129074060Y-134822257D01*
X129074060Y-134822257D02*
X128931203Y-134965114D01*
X128931203Y-134965114D02*
X128859774Y-135250828D01*
X128859774Y-135250828D02*
X128859774Y-135750828D01*
X128859774Y-135750828D02*
X128931203Y-136036542D01*
X128931203Y-136036542D02*
X129074060Y-136179400D01*
X129074060Y-136179400D02*
X129216917Y-136250828D01*
X129216917Y-136250828D02*
X129502631Y-136250828D01*
X129502631Y-136250828D02*
X129645489Y-136179400D01*
X129645489Y-136179400D02*
X129788346Y-136036542D01*
X129788346Y-136036542D02*
X129859774Y-135750828D01*
X129859774Y-135750828D02*
X129859774Y-135250828D01*
X129859774Y-135250828D02*
X129788346Y-134965114D01*
X129788346Y-134965114D02*
X129645489Y-134822257D01*
X129645489Y-134822257D02*
X129502631Y-134750828D01*
X128216917Y-136250828D02*
X128216917Y-134750828D01*
X128216917Y-134750828D02*
X127716917Y-135822257D01*
X127716917Y-135822257D02*
X127216917Y-134750828D01*
X127216917Y-134750828D02*
X127216917Y-136250828D01*
X124931202Y-136822257D02*
X125002631Y-136750828D01*
X125002631Y-136750828D02*
X125145488Y-136536542D01*
X125145488Y-136536542D02*
X125216917Y-136393685D01*
X125216917Y-136393685D02*
X125288345Y-136179400D01*
X125288345Y-136179400D02*
X125359774Y-135822257D01*
X125359774Y-135822257D02*
X125359774Y-135536542D01*
X125359774Y-135536542D02*
X125288345Y-135179400D01*
X125288345Y-135179400D02*
X125216917Y-134965114D01*
X125216917Y-134965114D02*
X125145488Y-134822257D01*
X125145488Y-134822257D02*
X125002631Y-134607971D01*
X125002631Y-134607971D02*
X124931202Y-134536542D01*
X123716917Y-135250828D02*
X123716917Y-136250828D01*
X124359774Y-135250828D02*
X124359774Y-136036542D01*
X124359774Y-136036542D02*
X124288345Y-136179400D01*
X124288345Y-136179400D02*
X124145488Y-136250828D01*
X124145488Y-136250828D02*
X123931202Y-136250828D01*
X123931202Y-136250828D02*
X123788345Y-136179400D01*
X123788345Y-136179400D02*
X123716917Y-136107971D01*
X122145488Y-136107971D02*
X122216916Y-136179400D01*
X122216916Y-136179400D02*
X122431202Y-136250828D01*
X122431202Y-136250828D02*
X122574059Y-136250828D01*
X122574059Y-136250828D02*
X122788345Y-136179400D01*
X122788345Y-136179400D02*
X122931202Y-136036542D01*
X122931202Y-136036542D02*
X123002631Y-135893685D01*
X123002631Y-135893685D02*
X123074059Y-135607971D01*
X123074059Y-135607971D02*
X123074059Y-135393685D01*
X123074059Y-135393685D02*
X123002631Y-135107971D01*
X123002631Y-135107971D02*
X122931202Y-134965114D01*
X122931202Y-134965114D02*
X122788345Y-134822257D01*
X122788345Y-134822257D02*
X122574059Y-134750828D01*
X122574059Y-134750828D02*
X122431202Y-134750828D01*
X122431202Y-134750828D02*
X122216916Y-134822257D01*
X122216916Y-134822257D02*
X122145488Y-134893685D01*
X121645488Y-136822257D02*
X121574059Y-136750828D01*
X121574059Y-136750828D02*
X121431202Y-136536542D01*
X121431202Y-136536542D02*
X121359774Y-136393685D01*
X121359774Y-136393685D02*
X121288345Y-136179400D01*
X121288345Y-136179400D02*
X121216916Y-135822257D01*
X121216916Y-135822257D02*
X121216916Y-135536542D01*
X121216916Y-135536542D02*
X121288345Y-135179400D01*
X121288345Y-135179400D02*
X121359774Y-134965114D01*
X121359774Y-134965114D02*
X121431202Y-134822257D01*
X121431202Y-134822257D02*
X121574059Y-134607971D01*
X121574059Y-134607971D02*
X121645488Y-134536542D01*
X119359774Y-135679400D02*
X118216917Y-135679400D01*
X116574059Y-135250828D02*
X116002631Y-135250828D01*
X116359774Y-136250828D02*
X116359774Y-134965114D01*
X116359774Y-134965114D02*
X116288345Y-134822257D01*
X116288345Y-134822257D02*
X116145488Y-134750828D01*
X116145488Y-134750828D02*
X116002631Y-134750828D01*
X114859774Y-136250828D02*
X114859774Y-135465114D01*
X114859774Y-135465114D02*
X114931202Y-135322257D01*
X114931202Y-135322257D02*
X115074059Y-135250828D01*
X115074059Y-135250828D02*
X115359774Y-135250828D01*
X115359774Y-135250828D02*
X115502631Y-135322257D01*
X114859774Y-136179400D02*
X115002631Y-136250828D01*
X115002631Y-136250828D02*
X115359774Y-136250828D01*
X115359774Y-136250828D02*
X115502631Y-136179400D01*
X115502631Y-136179400D02*
X115574059Y-136036542D01*
X115574059Y-136036542D02*
X115574059Y-135893685D01*
X115574059Y-135893685D02*
X115502631Y-135750828D01*
X115502631Y-135750828D02*
X115359774Y-135679400D01*
X115359774Y-135679400D02*
X115002631Y-135679400D01*
X115002631Y-135679400D02*
X114859774Y-135607971D01*
X113502631Y-136179400D02*
X113645488Y-136250828D01*
X113645488Y-136250828D02*
X113931202Y-136250828D01*
X113931202Y-136250828D02*
X114074059Y-136179400D01*
X114074059Y-136179400D02*
X114145488Y-136107971D01*
X114145488Y-136107971D02*
X114216916Y-135965114D01*
X114216916Y-135965114D02*
X114216916Y-135536542D01*
X114216916Y-135536542D02*
X114145488Y-135393685D01*
X114145488Y-135393685D02*
X114074059Y-135322257D01*
X114074059Y-135322257D02*
X113931202Y-135250828D01*
X113931202Y-135250828D02*
X113645488Y-135250828D01*
X113645488Y-135250828D02*
X113502631Y-135322257D01*
X112859774Y-136250828D02*
X112859774Y-135250828D01*
X112859774Y-134750828D02*
X112931202Y-134822257D01*
X112931202Y-134822257D02*
X112859774Y-134893685D01*
X112859774Y-134893685D02*
X112788345Y-134822257D01*
X112788345Y-134822257D02*
X112859774Y-134750828D01*
X112859774Y-134750828D02*
X112859774Y-134893685D01*
X112145488Y-135250828D02*
X112145488Y-136250828D01*
X112145488Y-135393685D02*
X112074059Y-135322257D01*
X112074059Y-135322257D02*
X111931202Y-135250828D01*
X111931202Y-135250828D02*
X111716916Y-135250828D01*
X111716916Y-135250828D02*
X111574059Y-135322257D01*
X111574059Y-135322257D02*
X111502631Y-135465114D01*
X111502631Y-135465114D02*
X111502631Y-136250828D01*
X110145488Y-135250828D02*
X110145488Y-136465114D01*
X110145488Y-136465114D02*
X110216916Y-136607971D01*
X110216916Y-136607971D02*
X110288345Y-136679400D01*
X110288345Y-136679400D02*
X110431202Y-136750828D01*
X110431202Y-136750828D02*
X110645488Y-136750828D01*
X110645488Y-136750828D02*
X110788345Y-136679400D01*
X110145488Y-136179400D02*
X110288345Y-136250828D01*
X110288345Y-136250828D02*
X110574059Y-136250828D01*
X110574059Y-136250828D02*
X110716916Y-136179400D01*
X110716916Y-136179400D02*
X110788345Y-136107971D01*
X110788345Y-136107971D02*
X110859773Y-135965114D01*
X110859773Y-135965114D02*
X110859773Y-135536542D01*
X110859773Y-135536542D02*
X110788345Y-135393685D01*
X110788345Y-135393685D02*
X110716916Y-135322257D01*
X110716916Y-135322257D02*
X110574059Y-135250828D01*
X110574059Y-135250828D02*
X110288345Y-135250828D01*
X110288345Y-135250828D02*
X110145488Y-135322257D01*
X107431202Y-136107971D02*
X107502630Y-136179400D01*
X107502630Y-136179400D02*
X107716916Y-136250828D01*
X107716916Y-136250828D02*
X107859773Y-136250828D01*
X107859773Y-136250828D02*
X108074059Y-136179400D01*
X108074059Y-136179400D02*
X108216916Y-136036542D01*
X108216916Y-136036542D02*
X108288345Y-135893685D01*
X108288345Y-135893685D02*
X108359773Y-135607971D01*
X108359773Y-135607971D02*
X108359773Y-135393685D01*
X108359773Y-135393685D02*
X108288345Y-135107971D01*
X108288345Y-135107971D02*
X108216916Y-134965114D01*
X108216916Y-134965114D02*
X108074059Y-134822257D01*
X108074059Y-134822257D02*
X107859773Y-134750828D01*
X107859773Y-134750828D02*
X107716916Y-134750828D01*
X107716916Y-134750828D02*
X107502630Y-134822257D01*
X107502630Y-134822257D02*
X107431202Y-134893685D01*
X106574059Y-136250828D02*
X106716916Y-136179400D01*
X106716916Y-136179400D02*
X106788345Y-136107971D01*
X106788345Y-136107971D02*
X106859773Y-135965114D01*
X106859773Y-135965114D02*
X106859773Y-135536542D01*
X106859773Y-135536542D02*
X106788345Y-135393685D01*
X106788345Y-135393685D02*
X106716916Y-135322257D01*
X106716916Y-135322257D02*
X106574059Y-135250828D01*
X106574059Y-135250828D02*
X106359773Y-135250828D01*
X106359773Y-135250828D02*
X106216916Y-135322257D01*
X106216916Y-135322257D02*
X106145488Y-135393685D01*
X106145488Y-135393685D02*
X106074059Y-135536542D01*
X106074059Y-135536542D02*
X106074059Y-135965114D01*
X106074059Y-135965114D02*
X106145488Y-136107971D01*
X106145488Y-136107971D02*
X106216916Y-136179400D01*
X106216916Y-136179400D02*
X106359773Y-136250828D01*
X106359773Y-136250828D02*
X106574059Y-136250828D01*
X105574059Y-135250828D02*
X105216916Y-136250828D01*
X105216916Y-136250828D02*
X104859773Y-135250828D01*
X103716916Y-136179400D02*
X103859773Y-136250828D01*
X103859773Y-136250828D02*
X104145488Y-136250828D01*
X104145488Y-136250828D02*
X104288345Y-136179400D01*
X104288345Y-136179400D02*
X104359773Y-136036542D01*
X104359773Y-136036542D02*
X104359773Y-135465114D01*
X104359773Y-135465114D02*
X104288345Y-135322257D01*
X104288345Y-135322257D02*
X104145488Y-135250828D01*
X104145488Y-135250828D02*
X103859773Y-135250828D01*
X103859773Y-135250828D02*
X103716916Y-135322257D01*
X103716916Y-135322257D02*
X103645488Y-135465114D01*
X103645488Y-135465114D02*
X103645488Y-135607971D01*
X103645488Y-135607971D02*
X104359773Y-135750828D01*
X103002631Y-136250828D02*
X103002631Y-135250828D01*
X103002631Y-135536542D02*
X102931202Y-135393685D01*
X102931202Y-135393685D02*
X102859774Y-135322257D01*
X102859774Y-135322257D02*
X102716916Y-135250828D01*
X102716916Y-135250828D02*
X102574059Y-135250828D01*
X102074060Y-134750828D02*
X102074060Y-135965114D01*
X102074060Y-135965114D02*
X102002631Y-136107971D01*
X102002631Y-136107971D02*
X101931203Y-136179400D01*
X101931203Y-136179400D02*
X101788345Y-136250828D01*
X101788345Y-136250828D02*
X101502631Y-136250828D01*
X101502631Y-136250828D02*
X101359774Y-136179400D01*
X101359774Y-136179400D02*
X101288345Y-136107971D01*
X101288345Y-136107971D02*
X101216917Y-135965114D01*
X101216917Y-135965114D02*
X101216917Y-134750828D01*
X100502631Y-136250828D02*
X100502631Y-134750828D01*
D11*
X64684819Y-84420476D02*
X65399104Y-84420476D01*
X65399104Y-84420476D02*
X65541961Y-84372857D01*
X65541961Y-84372857D02*
X65637200Y-84277619D01*
X65637200Y-84277619D02*
X65684819Y-84134762D01*
X65684819Y-84134762D02*
X65684819Y-84039524D01*
X65684819Y-85420476D02*
X65684819Y-84849048D01*
X65684819Y-85134762D02*
X64684819Y-85134762D01*
X64684819Y-85134762D02*
X64827676Y-85039524D01*
X64827676Y-85039524D02*
X64922914Y-84944286D01*
X64922914Y-84944286D02*
X64970533Y-84849048D01*
X65684819Y-86372857D02*
X65684819Y-85801429D01*
X65684819Y-86087143D02*
X64684819Y-86087143D01*
X64684819Y-86087143D02*
X64827676Y-85991905D01*
X64827676Y-85991905D02*
X64922914Y-85896667D01*
X64922914Y-85896667D02*
X64970533Y-85801429D01*
X91904819Y-106908095D02*
X92714342Y-106908095D01*
X92714342Y-106908095D02*
X92809580Y-106955714D01*
X92809580Y-106955714D02*
X92857200Y-107003333D01*
X92857200Y-107003333D02*
X92904819Y-107098571D01*
X92904819Y-107098571D02*
X92904819Y-107289047D01*
X92904819Y-107289047D02*
X92857200Y-107384285D01*
X92857200Y-107384285D02*
X92809580Y-107431904D01*
X92809580Y-107431904D02*
X92714342Y-107479523D01*
X92714342Y-107479523D02*
X91904819Y-107479523D01*
X92904819Y-108479523D02*
X92904819Y-107908095D01*
X92904819Y-108193809D02*
X91904819Y-108193809D01*
X91904819Y-108193809D02*
X92047676Y-108098571D01*
X92047676Y-108098571D02*
X92142914Y-108003333D01*
X92142914Y-108003333D02*
X92190533Y-107908095D01*
D12*
X126550853Y-123392300D02*
X126479425Y-123416109D01*
X126479425Y-123416109D02*
X126360377Y-123416109D01*
X126360377Y-123416109D02*
X126312758Y-123392300D01*
X126312758Y-123392300D02*
X126288949Y-123368490D01*
X126288949Y-123368490D02*
X126265139Y-123320871D01*
X126265139Y-123320871D02*
X126265139Y-123273252D01*
X126265139Y-123273252D02*
X126288949Y-123225633D01*
X126288949Y-123225633D02*
X126312758Y-123201823D01*
X126312758Y-123201823D02*
X126360377Y-123178014D01*
X126360377Y-123178014D02*
X126455615Y-123154204D01*
X126455615Y-123154204D02*
X126503234Y-123130395D01*
X126503234Y-123130395D02*
X126527044Y-123106585D01*
X126527044Y-123106585D02*
X126550853Y-123058966D01*
X126550853Y-123058966D02*
X126550853Y-123011347D01*
X126550853Y-123011347D02*
X126527044Y-122963728D01*
X126527044Y-122963728D02*
X126503234Y-122939919D01*
X126503234Y-122939919D02*
X126455615Y-122916109D01*
X126455615Y-122916109D02*
X126336568Y-122916109D01*
X126336568Y-122916109D02*
X126265139Y-122939919D01*
X126122282Y-122916109D02*
X125836568Y-122916109D01*
X125979425Y-123416109D02*
X125979425Y-122916109D01*
X125669902Y-123416109D02*
X125669902Y-122916109D01*
X125669902Y-122916109D02*
X125503235Y-123273252D01*
X125503235Y-123273252D02*
X125336569Y-122916109D01*
X125336569Y-122916109D02*
X125336569Y-123416109D01*
X125146092Y-122916109D02*
X124836568Y-122916109D01*
X124836568Y-122916109D02*
X125003235Y-123106585D01*
X125003235Y-123106585D02*
X124931806Y-123106585D01*
X124931806Y-123106585D02*
X124884187Y-123130395D01*
X124884187Y-123130395D02*
X124860378Y-123154204D01*
X124860378Y-123154204D02*
X124836568Y-123201823D01*
X124836568Y-123201823D02*
X124836568Y-123320871D01*
X124836568Y-123320871D02*
X124860378Y-123368490D01*
X124860378Y-123368490D02*
X124884187Y-123392300D01*
X124884187Y-123392300D02*
X124931806Y-123416109D01*
X124931806Y-123416109D02*
X125074663Y-123416109D01*
X125074663Y-123416109D02*
X125122282Y-123392300D01*
X125122282Y-123392300D02*
X125146092Y-123368490D01*
X124646092Y-122963728D02*
X124622283Y-122939919D01*
X124622283Y-122939919D02*
X124574664Y-122916109D01*
X124574664Y-122916109D02*
X124455616Y-122916109D01*
X124455616Y-122916109D02*
X124407997Y-122939919D01*
X124407997Y-122939919D02*
X124384188Y-122963728D01*
X124384188Y-122963728D02*
X124360378Y-123011347D01*
X124360378Y-123011347D02*
X124360378Y-123058966D01*
X124360378Y-123058966D02*
X124384188Y-123130395D01*
X124384188Y-123130395D02*
X124669902Y-123416109D01*
X124669902Y-123416109D02*
X124360378Y-123416109D01*
X123765141Y-123416109D02*
X123765141Y-122916109D01*
X123765141Y-123106585D02*
X123717522Y-123082776D01*
X123717522Y-123082776D02*
X123622284Y-123082776D01*
X123622284Y-123082776D02*
X123574665Y-123106585D01*
X123574665Y-123106585D02*
X123550855Y-123130395D01*
X123550855Y-123130395D02*
X123527046Y-123178014D01*
X123527046Y-123178014D02*
X123527046Y-123320871D01*
X123527046Y-123320871D02*
X123550855Y-123368490D01*
X123550855Y-123368490D02*
X123574665Y-123392300D01*
X123574665Y-123392300D02*
X123622284Y-123416109D01*
X123622284Y-123416109D02*
X123717522Y-123416109D01*
X123717522Y-123416109D02*
X123765141Y-123392300D01*
X123241331Y-123416109D02*
X123288950Y-123392300D01*
X123288950Y-123392300D02*
X123312760Y-123344680D01*
X123312760Y-123344680D02*
X123312760Y-122916109D01*
X122836569Y-123416109D02*
X122836569Y-123154204D01*
X122836569Y-123154204D02*
X122860379Y-123106585D01*
X122860379Y-123106585D02*
X122907998Y-123082776D01*
X122907998Y-123082776D02*
X123003236Y-123082776D01*
X123003236Y-123082776D02*
X123050855Y-123106585D01*
X122836569Y-123392300D02*
X122884188Y-123416109D01*
X122884188Y-123416109D02*
X123003236Y-123416109D01*
X123003236Y-123416109D02*
X123050855Y-123392300D01*
X123050855Y-123392300D02*
X123074664Y-123344680D01*
X123074664Y-123344680D02*
X123074664Y-123297061D01*
X123074664Y-123297061D02*
X123050855Y-123249442D01*
X123050855Y-123249442D02*
X123003236Y-123225633D01*
X123003236Y-123225633D02*
X122884188Y-123225633D01*
X122884188Y-123225633D02*
X122836569Y-123201823D01*
X122384188Y-123392300D02*
X122431807Y-123416109D01*
X122431807Y-123416109D02*
X122527045Y-123416109D01*
X122527045Y-123416109D02*
X122574664Y-123392300D01*
X122574664Y-123392300D02*
X122598474Y-123368490D01*
X122598474Y-123368490D02*
X122622283Y-123320871D01*
X122622283Y-123320871D02*
X122622283Y-123178014D01*
X122622283Y-123178014D02*
X122598474Y-123130395D01*
X122598474Y-123130395D02*
X122574664Y-123106585D01*
X122574664Y-123106585D02*
X122527045Y-123082776D01*
X122527045Y-123082776D02*
X122431807Y-123082776D01*
X122431807Y-123082776D02*
X122384188Y-123106585D01*
X122169903Y-123416109D02*
X122169903Y-122916109D01*
X122122284Y-123225633D02*
X121979427Y-123416109D01*
X121979427Y-123082776D02*
X122169903Y-123273252D01*
X121384189Y-123082776D02*
X121384189Y-123582776D01*
X121384189Y-123106585D02*
X121336570Y-123082776D01*
X121336570Y-123082776D02*
X121241332Y-123082776D01*
X121241332Y-123082776D02*
X121193713Y-123106585D01*
X121193713Y-123106585D02*
X121169903Y-123130395D01*
X121169903Y-123130395D02*
X121146094Y-123178014D01*
X121146094Y-123178014D02*
X121146094Y-123320871D01*
X121146094Y-123320871D02*
X121169903Y-123368490D01*
X121169903Y-123368490D02*
X121193713Y-123392300D01*
X121193713Y-123392300D02*
X121241332Y-123416109D01*
X121241332Y-123416109D02*
X121336570Y-123416109D01*
X121336570Y-123416109D02*
X121384189Y-123392300D01*
X120931808Y-123416109D02*
X120931808Y-123082776D01*
X120931808Y-122916109D02*
X120955617Y-122939919D01*
X120955617Y-122939919D02*
X120931808Y-122963728D01*
X120931808Y-122963728D02*
X120907998Y-122939919D01*
X120907998Y-122939919D02*
X120931808Y-122916109D01*
X120931808Y-122916109D02*
X120931808Y-122963728D01*
X120622284Y-123416109D02*
X120669903Y-123392300D01*
X120669903Y-123392300D02*
X120693713Y-123344680D01*
X120693713Y-123344680D02*
X120693713Y-122916109D01*
X120360379Y-123416109D02*
X120407998Y-123392300D01*
X120407998Y-123392300D02*
X120431808Y-123344680D01*
X120431808Y-123344680D02*
X120431808Y-122916109D01*
X119622284Y-123154204D02*
X119788951Y-123154204D01*
X119788951Y-123416109D02*
X119788951Y-122916109D01*
X119788951Y-122916109D02*
X119550856Y-122916109D01*
X119146094Y-123082776D02*
X119146094Y-123416109D01*
X119265142Y-122892300D02*
X119384189Y-123249442D01*
X119384189Y-123249442D02*
X119074666Y-123249442D01*
X118788952Y-122916109D02*
X118741333Y-122916109D01*
X118741333Y-122916109D02*
X118693714Y-122939919D01*
X118693714Y-122939919D02*
X118669904Y-122963728D01*
X118669904Y-122963728D02*
X118646095Y-123011347D01*
X118646095Y-123011347D02*
X118622285Y-123106585D01*
X118622285Y-123106585D02*
X118622285Y-123225633D01*
X118622285Y-123225633D02*
X118646095Y-123320871D01*
X118646095Y-123320871D02*
X118669904Y-123368490D01*
X118669904Y-123368490D02*
X118693714Y-123392300D01*
X118693714Y-123392300D02*
X118741333Y-123416109D01*
X118741333Y-123416109D02*
X118788952Y-123416109D01*
X118788952Y-123416109D02*
X118836571Y-123392300D01*
X118836571Y-123392300D02*
X118860380Y-123368490D01*
X118860380Y-123368490D02*
X118884190Y-123320871D01*
X118884190Y-123320871D02*
X118907999Y-123225633D01*
X118907999Y-123225633D02*
X118907999Y-123106585D01*
X118907999Y-123106585D02*
X118884190Y-123011347D01*
X118884190Y-123011347D02*
X118860380Y-122963728D01*
X118860380Y-122963728D02*
X118836571Y-122939919D01*
X118836571Y-122939919D02*
X118788952Y-122916109D01*
X118146095Y-123416109D02*
X118431809Y-123416109D01*
X118288952Y-123416109D02*
X118288952Y-122916109D01*
X118288952Y-122916109D02*
X118336571Y-122987538D01*
X118336571Y-122987538D02*
X118384190Y-123035157D01*
X118384190Y-123035157D02*
X118431809Y-123058966D01*
X117574667Y-122892300D02*
X118003238Y-123535157D01*
X117241333Y-123154204D02*
X117408000Y-123154204D01*
X117408000Y-123416109D02*
X117408000Y-122916109D01*
X117408000Y-122916109D02*
X117169905Y-122916109D01*
X116765143Y-123082776D02*
X116765143Y-123416109D01*
X116884191Y-122892300D02*
X117003238Y-123249442D01*
X117003238Y-123249442D02*
X116693715Y-123249442D01*
X116241334Y-123416109D02*
X116527048Y-123416109D01*
X116384191Y-123416109D02*
X116384191Y-122916109D01*
X116384191Y-122916109D02*
X116431810Y-122987538D01*
X116431810Y-122987538D02*
X116479429Y-123035157D01*
X116479429Y-123035157D02*
X116527048Y-123058966D01*
X115765144Y-123416109D02*
X116050858Y-123416109D01*
X115908001Y-123416109D02*
X115908001Y-122916109D01*
X115908001Y-122916109D02*
X115955620Y-122987538D01*
X115955620Y-122987538D02*
X116003239Y-123035157D01*
X116003239Y-123035157D02*
X116050858Y-123058966D01*
D13*
%TO.C,J2*%
X136090000Y-137240000D02*
X137510000Y-137240000D01*
X136090000Y-148960000D02*
X136090000Y-137240000D01*
X137510000Y-137240000D02*
X137510000Y-141740000D01*
X137510000Y-141740000D02*
X142400000Y-141740000D01*
X138400000Y-142850000D02*
X138900000Y-142850000D01*
X138400000Y-148350000D02*
X138400000Y-142850000D01*
X138900000Y-142850000D02*
X138900000Y-148350000D01*
X138900000Y-148350000D02*
X138400000Y-148350000D01*
X140900000Y-142850000D02*
X141400000Y-142850000D01*
X140900000Y-148350000D02*
X140900000Y-142850000D01*
X141400000Y-142850000D02*
X141400000Y-148350000D01*
X141400000Y-148350000D02*
X140900000Y-148350000D01*
X142400000Y-148960000D02*
X136090000Y-148960000D01*
X142400000Y-148960000D02*
X148710000Y-148960000D01*
X143400000Y-142850000D02*
X143900000Y-142850000D01*
X143400000Y-148350000D02*
X143400000Y-142850000D01*
X143900000Y-142850000D02*
X143900000Y-148350000D01*
X143900000Y-148350000D02*
X143400000Y-148350000D01*
X145850000Y-137550000D02*
X146150000Y-138150000D01*
X145900000Y-142850000D02*
X146400000Y-142850000D01*
X145900000Y-148350000D02*
X145900000Y-142850000D01*
X146150000Y-138150000D02*
X146450000Y-137550000D01*
X146400000Y-142850000D02*
X146400000Y-148350000D01*
X146400000Y-148350000D02*
X145900000Y-148350000D01*
X146450000Y-137550000D02*
X145850000Y-137550000D01*
X147290000Y-137240000D02*
X147290000Y-141740000D01*
X147290000Y-141740000D02*
X142400000Y-141740000D01*
X148710000Y-137240000D02*
X147290000Y-137240000D01*
X148710000Y-148960000D02*
X148710000Y-137240000D01*
%TO.C,U1*%
X93815000Y-96295000D02*
X146965000Y-96295000D01*
X93815000Y-119045000D02*
X93815000Y-96295000D01*
X94930000Y-98720000D02*
X96260000Y-98720000D01*
X94930000Y-100050000D02*
X94930000Y-98720000D01*
X94990000Y-114020000D02*
X145790000Y-114020000D01*
X94990000Y-116560000D02*
X94990000Y-114020000D01*
X97530000Y-98720000D02*
X145850000Y-98720000D01*
X97530000Y-101380000D02*
X97530000Y-98720000D01*
X139379000Y-102532000D02*
X139379000Y-112812000D01*
X139379000Y-112812000D02*
X142039000Y-112812000D01*
X142039000Y-102532000D02*
X139379000Y-102532000D01*
X142039000Y-112812000D02*
X142039000Y-102532000D01*
X145790000Y-114020000D02*
X145790000Y-116560000D01*
X145790000Y-116560000D02*
X94990000Y-116560000D01*
X145850000Y-98720000D02*
X145850000Y-101380000D01*
X145850000Y-101380000D02*
X97530000Y-101380000D01*
X146965000Y-96295000D02*
X146965000Y-119045000D01*
X146965000Y-119045000D02*
X93815000Y-119045000D01*
%TD*%
D14*
%TO.C,U1*%
X140709000Y-111482000D03*
%TD*%
M02*
