%TF.GenerationSoftware,KiCad,Pcbnew,9.0.1*%
%TF.CreationDate,2025-05-26T12:01:48+02:00*%
%TF.ProjectId,Legacy-LedPanel-HAT,4c656761-6379-42d4-9c65-6450616e656c,rev?*%
%TF.SameCoordinates,Original*%
%TF.FileFunction,Legend,Top*%
%TF.FilePolarity,Positive*%
%FSLAX46Y46*%
G04 Gerber Fmt 4.6, Leading zero omitted, Abs format (unit mm)*
G04 Created by KiCad (PCBNEW 9.0.1) date 2025-05-26 12:01:48*
%MOMM*%
%LPD*%
G01*
G04 APERTURE LIST*
%ADD10C,0.300000*%
%ADD11C,0.150000*%
%ADD12C,0.120000*%
G04 APERTURE END LIST*
D10*
X145104225Y-135532257D02*
X144961368Y-135460828D01*
X144961368Y-135460828D02*
X144747082Y-135460828D01*
X144747082Y-135460828D02*
X144532796Y-135532257D01*
X144532796Y-135532257D02*
X144389939Y-135675114D01*
X144389939Y-135675114D02*
X144318510Y-135817971D01*
X144318510Y-135817971D02*
X144247082Y-136103685D01*
X144247082Y-136103685D02*
X144247082Y-136317971D01*
X144247082Y-136317971D02*
X144318510Y-136603685D01*
X144318510Y-136603685D02*
X144389939Y-136746542D01*
X144389939Y-136746542D02*
X144532796Y-136889400D01*
X144532796Y-136889400D02*
X144747082Y-136960828D01*
X144747082Y-136960828D02*
X144889939Y-136960828D01*
X144889939Y-136960828D02*
X145104225Y-136889400D01*
X145104225Y-136889400D02*
X145175653Y-136817971D01*
X145175653Y-136817971D02*
X145175653Y-136317971D01*
X145175653Y-136317971D02*
X144889939Y-136317971D01*
X145818510Y-136960828D02*
X145818510Y-135460828D01*
X145818510Y-135460828D02*
X146675653Y-136960828D01*
X146675653Y-136960828D02*
X146675653Y-135460828D01*
X147389939Y-136960828D02*
X147389939Y-135460828D01*
X147389939Y-135460828D02*
X147747082Y-135460828D01*
X147747082Y-135460828D02*
X147961368Y-135532257D01*
X147961368Y-135532257D02*
X148104225Y-135675114D01*
X148104225Y-135675114D02*
X148175654Y-135817971D01*
X148175654Y-135817971D02*
X148247082Y-136103685D01*
X148247082Y-136103685D02*
X148247082Y-136317971D01*
X148247082Y-136317971D02*
X148175654Y-136603685D01*
X148175654Y-136603685D02*
X148104225Y-136746542D01*
X148104225Y-136746542D02*
X147961368Y-136889400D01*
X147961368Y-136889400D02*
X147747082Y-136960828D01*
X147747082Y-136960828D02*
X147389939Y-136960828D01*
X138428796Y-135460828D02*
X137714510Y-135460828D01*
X137714510Y-135460828D02*
X137643082Y-136175114D01*
X137643082Y-136175114D02*
X137714510Y-136103685D01*
X137714510Y-136103685D02*
X137857368Y-136032257D01*
X137857368Y-136032257D02*
X138214510Y-136032257D01*
X138214510Y-136032257D02*
X138357368Y-136103685D01*
X138357368Y-136103685D02*
X138428796Y-136175114D01*
X138428796Y-136175114D02*
X138500225Y-136317971D01*
X138500225Y-136317971D02*
X138500225Y-136675114D01*
X138500225Y-136675114D02*
X138428796Y-136817971D01*
X138428796Y-136817971D02*
X138357368Y-136889400D01*
X138357368Y-136889400D02*
X138214510Y-136960828D01*
X138214510Y-136960828D02*
X137857368Y-136960828D01*
X137857368Y-136960828D02*
X137714510Y-136889400D01*
X137714510Y-136889400D02*
X137643082Y-136817971D01*
X138928796Y-135460828D02*
X139428796Y-136960828D01*
X139428796Y-136960828D02*
X139928796Y-135460828D01*
X142397653Y-102948828D02*
X143326225Y-102948828D01*
X143326225Y-102948828D02*
X142826225Y-103520257D01*
X142826225Y-103520257D02*
X143040510Y-103520257D01*
X143040510Y-103520257D02*
X143183368Y-103591685D01*
X143183368Y-103591685D02*
X143254796Y-103663114D01*
X143254796Y-103663114D02*
X143326225Y-103805971D01*
X143326225Y-103805971D02*
X143326225Y-104163114D01*
X143326225Y-104163114D02*
X143254796Y-104305971D01*
X143254796Y-104305971D02*
X143183368Y-104377400D01*
X143183368Y-104377400D02*
X143040510Y-104448828D01*
X143040510Y-104448828D02*
X142611939Y-104448828D01*
X142611939Y-104448828D02*
X142469082Y-104377400D01*
X142469082Y-104377400D02*
X142397653Y-104305971D01*
X143754796Y-102948828D02*
X144254796Y-104448828D01*
X144254796Y-104448828D02*
X144754796Y-102948828D01*
X145111938Y-102948828D02*
X146040510Y-102948828D01*
X146040510Y-102948828D02*
X145540510Y-103520257D01*
X145540510Y-103520257D02*
X145754795Y-103520257D01*
X145754795Y-103520257D02*
X145897653Y-103591685D01*
X145897653Y-103591685D02*
X145969081Y-103663114D01*
X145969081Y-103663114D02*
X146040510Y-103805971D01*
X146040510Y-103805971D02*
X146040510Y-104163114D01*
X146040510Y-104163114D02*
X145969081Y-104305971D01*
X145969081Y-104305971D02*
X145897653Y-104377400D01*
X145897653Y-104377400D02*
X145754795Y-104448828D01*
X145754795Y-104448828D02*
X145326224Y-104448828D01*
X145326224Y-104448828D02*
X145183367Y-104377400D01*
X145183367Y-104377400D02*
X145111938Y-104305971D01*
X142469082Y-107171400D02*
X142683368Y-107242828D01*
X142683368Y-107242828D02*
X143040510Y-107242828D01*
X143040510Y-107242828D02*
X143183368Y-107171400D01*
X143183368Y-107171400D02*
X143254796Y-107099971D01*
X143254796Y-107099971D02*
X143326225Y-106957114D01*
X143326225Y-106957114D02*
X143326225Y-106814257D01*
X143326225Y-106814257D02*
X143254796Y-106671400D01*
X143254796Y-106671400D02*
X143183368Y-106599971D01*
X143183368Y-106599971D02*
X143040510Y-106528542D01*
X143040510Y-106528542D02*
X142754796Y-106457114D01*
X142754796Y-106457114D02*
X142611939Y-106385685D01*
X142611939Y-106385685D02*
X142540510Y-106314257D01*
X142540510Y-106314257D02*
X142469082Y-106171400D01*
X142469082Y-106171400D02*
X142469082Y-106028542D01*
X142469082Y-106028542D02*
X142540510Y-105885685D01*
X142540510Y-105885685D02*
X142611939Y-105814257D01*
X142611939Y-105814257D02*
X142754796Y-105742828D01*
X142754796Y-105742828D02*
X143111939Y-105742828D01*
X143111939Y-105742828D02*
X143326225Y-105814257D01*
X143826224Y-105742828D02*
X144183367Y-107242828D01*
X144183367Y-107242828D02*
X144469081Y-106171400D01*
X144469081Y-106171400D02*
X144754796Y-107242828D01*
X144754796Y-107242828D02*
X145111939Y-105742828D01*
X146540510Y-107099971D02*
X146469082Y-107171400D01*
X146469082Y-107171400D02*
X146254796Y-107242828D01*
X146254796Y-107242828D02*
X146111939Y-107242828D01*
X146111939Y-107242828D02*
X145897653Y-107171400D01*
X145897653Y-107171400D02*
X145754796Y-107028542D01*
X145754796Y-107028542D02*
X145683367Y-106885685D01*
X145683367Y-106885685D02*
X145611939Y-106599971D01*
X145611939Y-106599971D02*
X145611939Y-106385685D01*
X145611939Y-106385685D02*
X145683367Y-106099971D01*
X145683367Y-106099971D02*
X145754796Y-105957114D01*
X145754796Y-105957114D02*
X145897653Y-105814257D01*
X145897653Y-105814257D02*
X146111939Y-105742828D01*
X146111939Y-105742828D02*
X146254796Y-105742828D01*
X146254796Y-105742828D02*
X146469082Y-105814257D01*
X146469082Y-105814257D02*
X146540510Y-105885685D01*
X147897653Y-107242828D02*
X147183367Y-107242828D01*
X147183367Y-107242828D02*
X147183367Y-105742828D01*
X148397653Y-107242828D02*
X148397653Y-105742828D01*
X149254796Y-107242828D02*
X148611939Y-106385685D01*
X149254796Y-105742828D02*
X148397653Y-106599971D01*
X142469082Y-109711400D02*
X142683368Y-109782828D01*
X142683368Y-109782828D02*
X143040510Y-109782828D01*
X143040510Y-109782828D02*
X143183368Y-109711400D01*
X143183368Y-109711400D02*
X143254796Y-109639971D01*
X143254796Y-109639971D02*
X143326225Y-109497114D01*
X143326225Y-109497114D02*
X143326225Y-109354257D01*
X143326225Y-109354257D02*
X143254796Y-109211400D01*
X143254796Y-109211400D02*
X143183368Y-109139971D01*
X143183368Y-109139971D02*
X143040510Y-109068542D01*
X143040510Y-109068542D02*
X142754796Y-108997114D01*
X142754796Y-108997114D02*
X142611939Y-108925685D01*
X142611939Y-108925685D02*
X142540510Y-108854257D01*
X142540510Y-108854257D02*
X142469082Y-108711400D01*
X142469082Y-108711400D02*
X142469082Y-108568542D01*
X142469082Y-108568542D02*
X142540510Y-108425685D01*
X142540510Y-108425685D02*
X142611939Y-108354257D01*
X142611939Y-108354257D02*
X142754796Y-108282828D01*
X142754796Y-108282828D02*
X143111939Y-108282828D01*
X143111939Y-108282828D02*
X143326225Y-108354257D01*
X143826224Y-108282828D02*
X144183367Y-109782828D01*
X144183367Y-109782828D02*
X144469081Y-108711400D01*
X144469081Y-108711400D02*
X144754796Y-109782828D01*
X144754796Y-109782828D02*
X145111939Y-108282828D01*
X145683367Y-109782828D02*
X145683367Y-108282828D01*
X145683367Y-108282828D02*
X146040510Y-108282828D01*
X146040510Y-108282828D02*
X146254796Y-108354257D01*
X146254796Y-108354257D02*
X146397653Y-108497114D01*
X146397653Y-108497114D02*
X146469082Y-108639971D01*
X146469082Y-108639971D02*
X146540510Y-108925685D01*
X146540510Y-108925685D02*
X146540510Y-109139971D01*
X146540510Y-109139971D02*
X146469082Y-109425685D01*
X146469082Y-109425685D02*
X146397653Y-109568542D01*
X146397653Y-109568542D02*
X146254796Y-109711400D01*
X146254796Y-109711400D02*
X146040510Y-109782828D01*
X146040510Y-109782828D02*
X145683367Y-109782828D01*
X147183367Y-109782828D02*
X147183367Y-108282828D01*
X148183368Y-108282828D02*
X148469082Y-108282828D01*
X148469082Y-108282828D02*
X148611939Y-108354257D01*
X148611939Y-108354257D02*
X148754796Y-108497114D01*
X148754796Y-108497114D02*
X148826225Y-108782828D01*
X148826225Y-108782828D02*
X148826225Y-109282828D01*
X148826225Y-109282828D02*
X148754796Y-109568542D01*
X148754796Y-109568542D02*
X148611939Y-109711400D01*
X148611939Y-109711400D02*
X148469082Y-109782828D01*
X148469082Y-109782828D02*
X148183368Y-109782828D01*
X148183368Y-109782828D02*
X148040511Y-109711400D01*
X148040511Y-109711400D02*
X147897653Y-109568542D01*
X147897653Y-109568542D02*
X147826225Y-109282828D01*
X147826225Y-109282828D02*
X147826225Y-108782828D01*
X147826225Y-108782828D02*
X147897653Y-108497114D01*
X147897653Y-108497114D02*
X148040511Y-108354257D01*
X148040511Y-108354257D02*
X148183368Y-108282828D01*
X143326225Y-110894257D02*
X143183368Y-110822828D01*
X143183368Y-110822828D02*
X142969082Y-110822828D01*
X142969082Y-110822828D02*
X142754796Y-110894257D01*
X142754796Y-110894257D02*
X142611939Y-111037114D01*
X142611939Y-111037114D02*
X142540510Y-111179971D01*
X142540510Y-111179971D02*
X142469082Y-111465685D01*
X142469082Y-111465685D02*
X142469082Y-111679971D01*
X142469082Y-111679971D02*
X142540510Y-111965685D01*
X142540510Y-111965685D02*
X142611939Y-112108542D01*
X142611939Y-112108542D02*
X142754796Y-112251400D01*
X142754796Y-112251400D02*
X142969082Y-112322828D01*
X142969082Y-112322828D02*
X143111939Y-112322828D01*
X143111939Y-112322828D02*
X143326225Y-112251400D01*
X143326225Y-112251400D02*
X143397653Y-112179971D01*
X143397653Y-112179971D02*
X143397653Y-111679971D01*
X143397653Y-111679971D02*
X143111939Y-111679971D01*
X144040510Y-112322828D02*
X144040510Y-110822828D01*
X144040510Y-110822828D02*
X144897653Y-112322828D01*
X144897653Y-112322828D02*
X144897653Y-110822828D01*
X145611939Y-112322828D02*
X145611939Y-110822828D01*
X145611939Y-110822828D02*
X145969082Y-110822828D01*
X145969082Y-110822828D02*
X146183368Y-110894257D01*
X146183368Y-110894257D02*
X146326225Y-111037114D01*
X146326225Y-111037114D02*
X146397654Y-111179971D01*
X146397654Y-111179971D02*
X146469082Y-111465685D01*
X146469082Y-111465685D02*
X146469082Y-111679971D01*
X146469082Y-111679971D02*
X146397654Y-111965685D01*
X146397654Y-111965685D02*
X146326225Y-112108542D01*
X146326225Y-112108542D02*
X146183368Y-112251400D01*
X146183368Y-112251400D02*
X145969082Y-112322828D01*
X145969082Y-112322828D02*
X145611939Y-112322828D01*
D11*
X129168237Y-142735500D02*
G75*
G02*
X123242763Y-142735500I-2962737J0D01*
G01*
X123242763Y-142735500D02*
G75*
G02*
X129168237Y-142735500I2962737J0D01*
G01*
X121668000Y-139748000D02*
X126218000Y-139748000D01*
X124660830Y-142735500D02*
G75*
G02*
X118675170Y-142735500I-2992830J0D01*
G01*
X118675170Y-142735500D02*
G75*
G02*
X124660830Y-142735500I2992830J0D01*
G01*
X121668000Y-145723000D02*
X126193000Y-145723000D01*
X121775000Y-145650000D02*
X126300000Y-145650000D01*
X55000000Y-145625000D02*
X59525000Y-145625000D01*
X57992830Y-142637500D02*
G75*
G02*
X52007170Y-142637500I-2992830J0D01*
G01*
X52007170Y-142637500D02*
G75*
G02*
X57992830Y-142637500I2992830J0D01*
G01*
X55000000Y-139650000D02*
X59550000Y-139650000D01*
X62500237Y-142637500D02*
G75*
G02*
X56574763Y-142637500I-2962737J0D01*
G01*
X56574763Y-142637500D02*
G75*
G02*
X62500237Y-142637500I2962737J0D01*
G01*
X129278748Y-142650000D02*
G75*
G02*
X123271252Y-142650000I-3003748J0D01*
G01*
X123271252Y-142650000D02*
G75*
G02*
X129278748Y-142650000I3003748J0D01*
G01*
X124783841Y-142650000D02*
G75*
G02*
X118766159Y-142650000I-3008841J0D01*
G01*
X118766159Y-142650000D02*
G75*
G02*
X124783841Y-142650000I3008841J0D01*
G01*
X121775000Y-139650000D02*
X126250000Y-139650000D01*
D10*
X122006225Y-134952828D02*
X122863368Y-134952828D01*
X122434796Y-136452828D02*
X122434796Y-134952828D01*
X123649082Y-134952828D02*
X123934796Y-134952828D01*
X123934796Y-134952828D02*
X124077653Y-135024257D01*
X124077653Y-135024257D02*
X124220510Y-135167114D01*
X124220510Y-135167114D02*
X124291939Y-135452828D01*
X124291939Y-135452828D02*
X124291939Y-135952828D01*
X124291939Y-135952828D02*
X124220510Y-136238542D01*
X124220510Y-136238542D02*
X124077653Y-136381400D01*
X124077653Y-136381400D02*
X123934796Y-136452828D01*
X123934796Y-136452828D02*
X123649082Y-136452828D01*
X123649082Y-136452828D02*
X123506225Y-136381400D01*
X123506225Y-136381400D02*
X123363367Y-136238542D01*
X123363367Y-136238542D02*
X123291939Y-135952828D01*
X123291939Y-135952828D02*
X123291939Y-135452828D01*
X123291939Y-135452828D02*
X123363367Y-135167114D01*
X123363367Y-135167114D02*
X123506225Y-135024257D01*
X123506225Y-135024257D02*
X123649082Y-134952828D01*
X124934796Y-136452828D02*
X124934796Y-134952828D01*
X124934796Y-134952828D02*
X125506225Y-134952828D01*
X125506225Y-134952828D02*
X125649082Y-135024257D01*
X125649082Y-135024257D02*
X125720511Y-135095685D01*
X125720511Y-135095685D02*
X125791939Y-135238542D01*
X125791939Y-135238542D02*
X125791939Y-135452828D01*
X125791939Y-135452828D02*
X125720511Y-135595685D01*
X125720511Y-135595685D02*
X125649082Y-135667114D01*
X125649082Y-135667114D02*
X125506225Y-135738542D01*
X125506225Y-135738542D02*
X124934796Y-135738542D01*
D11*
X148002666Y-142710819D02*
X148002666Y-143425104D01*
X148002666Y-143425104D02*
X147955047Y-143567961D01*
X147955047Y-143567961D02*
X147859809Y-143663200D01*
X147859809Y-143663200D02*
X147716952Y-143710819D01*
X147716952Y-143710819D02*
X147621714Y-143710819D01*
X148431238Y-142806057D02*
X148478857Y-142758438D01*
X148478857Y-142758438D02*
X148574095Y-142710819D01*
X148574095Y-142710819D02*
X148812190Y-142710819D01*
X148812190Y-142710819D02*
X148907428Y-142758438D01*
X148907428Y-142758438D02*
X148955047Y-142806057D01*
X148955047Y-142806057D02*
X149002666Y-142901295D01*
X149002666Y-142901295D02*
X149002666Y-142996533D01*
X149002666Y-142996533D02*
X148955047Y-143139390D01*
X148955047Y-143139390D02*
X148383619Y-143710819D01*
X148383619Y-143710819D02*
X149002666Y-143710819D01*
X82319905Y-102562819D02*
X82319905Y-101562819D01*
X82319905Y-101562819D02*
X82558000Y-101562819D01*
X82558000Y-101562819D02*
X82700857Y-101610438D01*
X82700857Y-101610438D02*
X82796095Y-101705676D01*
X82796095Y-101705676D02*
X82843714Y-101800914D01*
X82843714Y-101800914D02*
X82891333Y-101991390D01*
X82891333Y-101991390D02*
X82891333Y-102134247D01*
X82891333Y-102134247D02*
X82843714Y-102324723D01*
X82843714Y-102324723D02*
X82796095Y-102419961D01*
X82796095Y-102419961D02*
X82700857Y-102515200D01*
X82700857Y-102515200D02*
X82558000Y-102562819D01*
X82558000Y-102562819D02*
X82319905Y-102562819D01*
X83843714Y-102562819D02*
X83272286Y-102562819D01*
X83558000Y-102562819D02*
X83558000Y-101562819D01*
X83558000Y-101562819D02*
X83462762Y-101705676D01*
X83462762Y-101705676D02*
X83367524Y-101800914D01*
X83367524Y-101800914D02*
X83272286Y-101848533D01*
X132489066Y-137886819D02*
X132489066Y-138601104D01*
X132489066Y-138601104D02*
X132441447Y-138743961D01*
X132441447Y-138743961D02*
X132346209Y-138839200D01*
X132346209Y-138839200D02*
X132203352Y-138886819D01*
X132203352Y-138886819D02*
X132108114Y-138886819D01*
X132965257Y-138886819D02*
X132965257Y-137886819D01*
X132965257Y-137886819D02*
X133346209Y-137886819D01*
X133346209Y-137886819D02*
X133441447Y-137934438D01*
X133441447Y-137934438D02*
X133489066Y-137982057D01*
X133489066Y-137982057D02*
X133536685Y-138077295D01*
X133536685Y-138077295D02*
X133536685Y-138220152D01*
X133536685Y-138220152D02*
X133489066Y-138315390D01*
X133489066Y-138315390D02*
X133441447Y-138363009D01*
X133441447Y-138363009D02*
X133346209Y-138410628D01*
X133346209Y-138410628D02*
X132965257Y-138410628D01*
X133917638Y-137982057D02*
X133965257Y-137934438D01*
X133965257Y-137934438D02*
X134060495Y-137886819D01*
X134060495Y-137886819D02*
X134298590Y-137886819D01*
X134298590Y-137886819D02*
X134393828Y-137934438D01*
X134393828Y-137934438D02*
X134441447Y-137982057D01*
X134441447Y-137982057D02*
X134489066Y-138077295D01*
X134489066Y-138077295D02*
X134489066Y-138172533D01*
X134489066Y-138172533D02*
X134441447Y-138315390D01*
X134441447Y-138315390D02*
X133870019Y-138886819D01*
X133870019Y-138886819D02*
X134489066Y-138886819D01*
X59652819Y-117879428D02*
X60367104Y-117879428D01*
X60367104Y-117879428D02*
X60509961Y-117927047D01*
X60509961Y-117927047D02*
X60605200Y-118022285D01*
X60605200Y-118022285D02*
X60652819Y-118165142D01*
X60652819Y-118165142D02*
X60652819Y-118260380D01*
X59652819Y-116974666D02*
X59652819Y-117165142D01*
X59652819Y-117165142D02*
X59700438Y-117260380D01*
X59700438Y-117260380D02*
X59748057Y-117307999D01*
X59748057Y-117307999D02*
X59890914Y-117403237D01*
X59890914Y-117403237D02*
X60081390Y-117450856D01*
X60081390Y-117450856D02*
X60462342Y-117450856D01*
X60462342Y-117450856D02*
X60557580Y-117403237D01*
X60557580Y-117403237D02*
X60605200Y-117355618D01*
X60605200Y-117355618D02*
X60652819Y-117260380D01*
X60652819Y-117260380D02*
X60652819Y-117069904D01*
X60652819Y-117069904D02*
X60605200Y-116974666D01*
X60605200Y-116974666D02*
X60557580Y-116927047D01*
X60557580Y-116927047D02*
X60462342Y-116879428D01*
X60462342Y-116879428D02*
X60224247Y-116879428D01*
X60224247Y-116879428D02*
X60129009Y-116927047D01*
X60129009Y-116927047D02*
X60081390Y-116974666D01*
X60081390Y-116974666D02*
X60033771Y-117069904D01*
X60033771Y-117069904D02*
X60033771Y-117260380D01*
X60033771Y-117260380D02*
X60081390Y-117355618D01*
X60081390Y-117355618D02*
X60129009Y-117403237D01*
X60129009Y-117403237D02*
X60224247Y-117450856D01*
X60748057Y-116688952D02*
X60748057Y-115927047D01*
X60605200Y-115736570D02*
X60652819Y-115593713D01*
X60652819Y-115593713D02*
X60652819Y-115355618D01*
X60652819Y-115355618D02*
X60605200Y-115260380D01*
X60605200Y-115260380D02*
X60557580Y-115212761D01*
X60557580Y-115212761D02*
X60462342Y-115165142D01*
X60462342Y-115165142D02*
X60367104Y-115165142D01*
X60367104Y-115165142D02*
X60271866Y-115212761D01*
X60271866Y-115212761D02*
X60224247Y-115260380D01*
X60224247Y-115260380D02*
X60176628Y-115355618D01*
X60176628Y-115355618D02*
X60129009Y-115546094D01*
X60129009Y-115546094D02*
X60081390Y-115641332D01*
X60081390Y-115641332D02*
X60033771Y-115688951D01*
X60033771Y-115688951D02*
X59938533Y-115736570D01*
X59938533Y-115736570D02*
X59843295Y-115736570D01*
X59843295Y-115736570D02*
X59748057Y-115688951D01*
X59748057Y-115688951D02*
X59700438Y-115641332D01*
X59700438Y-115641332D02*
X59652819Y-115546094D01*
X59652819Y-115546094D02*
X59652819Y-115307999D01*
X59652819Y-115307999D02*
X59700438Y-115165142D01*
X59652819Y-114879427D02*
X59652819Y-114307999D01*
X60652819Y-114593713D02*
X59652819Y-114593713D01*
X59652819Y-113784189D02*
X59652819Y-113593713D01*
X59652819Y-113593713D02*
X59700438Y-113498475D01*
X59700438Y-113498475D02*
X59795676Y-113403237D01*
X59795676Y-113403237D02*
X59986152Y-113355618D01*
X59986152Y-113355618D02*
X60319485Y-113355618D01*
X60319485Y-113355618D02*
X60509961Y-113403237D01*
X60509961Y-113403237D02*
X60605200Y-113498475D01*
X60605200Y-113498475D02*
X60652819Y-113593713D01*
X60652819Y-113593713D02*
X60652819Y-113784189D01*
X60652819Y-113784189D02*
X60605200Y-113879427D01*
X60605200Y-113879427D02*
X60509961Y-113974665D01*
X60509961Y-113974665D02*
X60319485Y-114022284D01*
X60319485Y-114022284D02*
X59986152Y-114022284D01*
X59986152Y-114022284D02*
X59795676Y-113974665D01*
X59795676Y-113974665D02*
X59700438Y-113879427D01*
X59700438Y-113879427D02*
X59652819Y-113784189D01*
X60652819Y-112927046D02*
X59652819Y-112927046D01*
X59652819Y-112927046D02*
X59652819Y-112546094D01*
X59652819Y-112546094D02*
X59700438Y-112450856D01*
X59700438Y-112450856D02*
X59748057Y-112403237D01*
X59748057Y-112403237D02*
X59843295Y-112355618D01*
X59843295Y-112355618D02*
X59986152Y-112355618D01*
X59986152Y-112355618D02*
X60081390Y-112403237D01*
X60081390Y-112403237D02*
X60129009Y-112450856D01*
X60129009Y-112450856D02*
X60176628Y-112546094D01*
X60176628Y-112546094D02*
X60176628Y-112927046D01*
X59748057Y-111974665D02*
X59700438Y-111927046D01*
X59700438Y-111927046D02*
X59652819Y-111831808D01*
X59652819Y-111831808D02*
X59652819Y-111593713D01*
X59652819Y-111593713D02*
X59700438Y-111498475D01*
X59700438Y-111498475D02*
X59748057Y-111450856D01*
X59748057Y-111450856D02*
X59843295Y-111403237D01*
X59843295Y-111403237D02*
X59938533Y-111403237D01*
X59938533Y-111403237D02*
X60081390Y-111450856D01*
X60081390Y-111450856D02*
X60652819Y-112022284D01*
X60652819Y-112022284D02*
X60652819Y-111403237D01*
X89495333Y-102562819D02*
X89162000Y-102086628D01*
X88923905Y-102562819D02*
X88923905Y-101562819D01*
X88923905Y-101562819D02*
X89304857Y-101562819D01*
X89304857Y-101562819D02*
X89400095Y-101610438D01*
X89400095Y-101610438D02*
X89447714Y-101658057D01*
X89447714Y-101658057D02*
X89495333Y-101753295D01*
X89495333Y-101753295D02*
X89495333Y-101896152D01*
X89495333Y-101896152D02*
X89447714Y-101991390D01*
X89447714Y-101991390D02*
X89400095Y-102039009D01*
X89400095Y-102039009D02*
X89304857Y-102086628D01*
X89304857Y-102086628D02*
X88923905Y-102086628D01*
X90447714Y-102562819D02*
X89876286Y-102562819D01*
X90162000Y-102562819D02*
X90162000Y-101562819D01*
X90162000Y-101562819D02*
X90066762Y-101705676D01*
X90066762Y-101705676D02*
X89971524Y-101800914D01*
X89971524Y-101800914D02*
X89876286Y-101848533D01*
X65144819Y-125359523D02*
X65859104Y-125359523D01*
X65859104Y-125359523D02*
X66001961Y-125407142D01*
X66001961Y-125407142D02*
X66097200Y-125502380D01*
X66097200Y-125502380D02*
X66144819Y-125645237D01*
X66144819Y-125645237D02*
X66144819Y-125740475D01*
X66144819Y-124359523D02*
X66144819Y-124930951D01*
X66144819Y-124645237D02*
X65144819Y-124645237D01*
X65144819Y-124645237D02*
X65287676Y-124740475D01*
X65287676Y-124740475D02*
X65382914Y-124835713D01*
X65382914Y-124835713D02*
X65430533Y-124930951D01*
X65240057Y-123978570D02*
X65192438Y-123930951D01*
X65192438Y-123930951D02*
X65144819Y-123835713D01*
X65144819Y-123835713D02*
X65144819Y-123597618D01*
X65144819Y-123597618D02*
X65192438Y-123502380D01*
X65192438Y-123502380D02*
X65240057Y-123454761D01*
X65240057Y-123454761D02*
X65335295Y-123407142D01*
X65335295Y-123407142D02*
X65430533Y-123407142D01*
X65430533Y-123407142D02*
X65573390Y-123454761D01*
X65573390Y-123454761D02*
X66144819Y-124026189D01*
X66144819Y-124026189D02*
X66144819Y-123407142D01*
X85314819Y-134393333D02*
X86029104Y-134393333D01*
X86029104Y-134393333D02*
X86171961Y-134440952D01*
X86171961Y-134440952D02*
X86267200Y-134536190D01*
X86267200Y-134536190D02*
X86314819Y-134679047D01*
X86314819Y-134679047D02*
X86314819Y-134774285D01*
X86314819Y-133917142D02*
X85314819Y-133917142D01*
X85314819Y-133917142D02*
X85314819Y-133536190D01*
X85314819Y-133536190D02*
X85362438Y-133440952D01*
X85362438Y-133440952D02*
X85410057Y-133393333D01*
X85410057Y-133393333D02*
X85505295Y-133345714D01*
X85505295Y-133345714D02*
X85648152Y-133345714D01*
X85648152Y-133345714D02*
X85743390Y-133393333D01*
X85743390Y-133393333D02*
X85791009Y-133440952D01*
X85791009Y-133440952D02*
X85838628Y-133536190D01*
X85838628Y-133536190D02*
X85838628Y-133917142D01*
X86314819Y-132393333D02*
X86314819Y-132964761D01*
X86314819Y-132679047D02*
X85314819Y-132679047D01*
X85314819Y-132679047D02*
X85457676Y-132774285D01*
X85457676Y-132774285D02*
X85552914Y-132869523D01*
X85552914Y-132869523D02*
X85600533Y-132964761D01*
X84145713Y-136519580D02*
X84098094Y-136567200D01*
X84098094Y-136567200D02*
X83955237Y-136614819D01*
X83955237Y-136614819D02*
X83859999Y-136614819D01*
X83859999Y-136614819D02*
X83717142Y-136567200D01*
X83717142Y-136567200D02*
X83621904Y-136471961D01*
X83621904Y-136471961D02*
X83574285Y-136376723D01*
X83574285Y-136376723D02*
X83526666Y-136186247D01*
X83526666Y-136186247D02*
X83526666Y-136043390D01*
X83526666Y-136043390D02*
X83574285Y-135852914D01*
X83574285Y-135852914D02*
X83621904Y-135757676D01*
X83621904Y-135757676D02*
X83717142Y-135662438D01*
X83717142Y-135662438D02*
X83859999Y-135614819D01*
X83859999Y-135614819D02*
X83955237Y-135614819D01*
X83955237Y-135614819D02*
X84098094Y-135662438D01*
X84098094Y-135662438D02*
X84145713Y-135710057D01*
X84717142Y-136614819D02*
X84621904Y-136567200D01*
X84621904Y-136567200D02*
X84574285Y-136519580D01*
X84574285Y-136519580D02*
X84526666Y-136424342D01*
X84526666Y-136424342D02*
X84526666Y-136138628D01*
X84526666Y-136138628D02*
X84574285Y-136043390D01*
X84574285Y-136043390D02*
X84621904Y-135995771D01*
X84621904Y-135995771D02*
X84717142Y-135948152D01*
X84717142Y-135948152D02*
X84859999Y-135948152D01*
X84859999Y-135948152D02*
X84955237Y-135995771D01*
X84955237Y-135995771D02*
X85002856Y-136043390D01*
X85002856Y-136043390D02*
X85050475Y-136138628D01*
X85050475Y-136138628D02*
X85050475Y-136424342D01*
X85050475Y-136424342D02*
X85002856Y-136519580D01*
X85002856Y-136519580D02*
X84955237Y-136567200D01*
X84955237Y-136567200D02*
X84859999Y-136614819D01*
X84859999Y-136614819D02*
X84717142Y-136614819D01*
X85383809Y-135948152D02*
X85621904Y-136614819D01*
X85621904Y-136614819D02*
X85859999Y-135948152D01*
X86621904Y-136567200D02*
X86526666Y-136614819D01*
X86526666Y-136614819D02*
X86336190Y-136614819D01*
X86336190Y-136614819D02*
X86240952Y-136567200D01*
X86240952Y-136567200D02*
X86193333Y-136471961D01*
X86193333Y-136471961D02*
X86193333Y-136091009D01*
X86193333Y-136091009D02*
X86240952Y-135995771D01*
X86240952Y-135995771D02*
X86336190Y-135948152D01*
X86336190Y-135948152D02*
X86526666Y-135948152D01*
X86526666Y-135948152D02*
X86621904Y-135995771D01*
X86621904Y-135995771D02*
X86669523Y-136091009D01*
X86669523Y-136091009D02*
X86669523Y-136186247D01*
X86669523Y-136186247D02*
X86193333Y-136281485D01*
X87098095Y-136614819D02*
X87098095Y-135948152D01*
X87098095Y-136138628D02*
X87145714Y-136043390D01*
X87145714Y-136043390D02*
X87193333Y-135995771D01*
X87193333Y-135995771D02*
X87288571Y-135948152D01*
X87288571Y-135948152D02*
X87383809Y-135948152D01*
X87717143Y-135614819D02*
X87717143Y-136424342D01*
X87717143Y-136424342D02*
X87764762Y-136519580D01*
X87764762Y-136519580D02*
X87812381Y-136567200D01*
X87812381Y-136567200D02*
X87907619Y-136614819D01*
X87907619Y-136614819D02*
X88098095Y-136614819D01*
X88098095Y-136614819D02*
X88193333Y-136567200D01*
X88193333Y-136567200D02*
X88240952Y-136519580D01*
X88240952Y-136519580D02*
X88288571Y-136424342D01*
X88288571Y-136424342D02*
X88288571Y-135614819D01*
X88764762Y-136614819D02*
X88764762Y-135614819D01*
X90479047Y-135614819D02*
X90002857Y-135614819D01*
X90002857Y-135614819D02*
X89955238Y-136091009D01*
X89955238Y-136091009D02*
X90002857Y-136043390D01*
X90002857Y-136043390D02*
X90098095Y-135995771D01*
X90098095Y-135995771D02*
X90336190Y-135995771D01*
X90336190Y-135995771D02*
X90431428Y-136043390D01*
X90431428Y-136043390D02*
X90479047Y-136091009D01*
X90479047Y-136091009D02*
X90526666Y-136186247D01*
X90526666Y-136186247D02*
X90526666Y-136424342D01*
X90526666Y-136424342D02*
X90479047Y-136519580D01*
X90479047Y-136519580D02*
X90431428Y-136567200D01*
X90431428Y-136567200D02*
X90336190Y-136614819D01*
X90336190Y-136614819D02*
X90098095Y-136614819D01*
X90098095Y-136614819D02*
X90002857Y-136567200D01*
X90002857Y-136567200D02*
X89955238Y-136519580D01*
X90812381Y-135614819D02*
X91145714Y-136614819D01*
X91145714Y-136614819D02*
X91479047Y-135614819D01*
X92717143Y-136614819D02*
X92621905Y-136567200D01*
X92621905Y-136567200D02*
X92574286Y-136519580D01*
X92574286Y-136519580D02*
X92526667Y-136424342D01*
X92526667Y-136424342D02*
X92526667Y-136138628D01*
X92526667Y-136138628D02*
X92574286Y-136043390D01*
X92574286Y-136043390D02*
X92621905Y-135995771D01*
X92621905Y-135995771D02*
X92717143Y-135948152D01*
X92717143Y-135948152D02*
X92860000Y-135948152D01*
X92860000Y-135948152D02*
X92955238Y-135995771D01*
X92955238Y-135995771D02*
X93002857Y-136043390D01*
X93002857Y-136043390D02*
X93050476Y-136138628D01*
X93050476Y-136138628D02*
X93050476Y-136424342D01*
X93050476Y-136424342D02*
X93002857Y-136519580D01*
X93002857Y-136519580D02*
X92955238Y-136567200D01*
X92955238Y-136567200D02*
X92860000Y-136614819D01*
X92860000Y-136614819D02*
X92717143Y-136614819D01*
X93479048Y-136614819D02*
X93479048Y-135948152D01*
X93479048Y-136138628D02*
X93526667Y-136043390D01*
X93526667Y-136043390D02*
X93574286Y-135995771D01*
X93574286Y-135995771D02*
X93669524Y-135948152D01*
X93669524Y-135948152D02*
X93764762Y-135948152D01*
X94764763Y-135614819D02*
X95383810Y-135614819D01*
X95383810Y-135614819D02*
X95050477Y-135995771D01*
X95050477Y-135995771D02*
X95193334Y-135995771D01*
X95193334Y-135995771D02*
X95288572Y-136043390D01*
X95288572Y-136043390D02*
X95336191Y-136091009D01*
X95336191Y-136091009D02*
X95383810Y-136186247D01*
X95383810Y-136186247D02*
X95383810Y-136424342D01*
X95383810Y-136424342D02*
X95336191Y-136519580D01*
X95336191Y-136519580D02*
X95288572Y-136567200D01*
X95288572Y-136567200D02*
X95193334Y-136614819D01*
X95193334Y-136614819D02*
X94907620Y-136614819D01*
X94907620Y-136614819D02*
X94812382Y-136567200D01*
X94812382Y-136567200D02*
X94764763Y-136519580D01*
X95669525Y-135614819D02*
X96002858Y-136614819D01*
X96002858Y-136614819D02*
X96336191Y-135614819D01*
X96574287Y-135614819D02*
X97193334Y-135614819D01*
X97193334Y-135614819D02*
X96860001Y-135995771D01*
X96860001Y-135995771D02*
X97002858Y-135995771D01*
X97002858Y-135995771D02*
X97098096Y-136043390D01*
X97098096Y-136043390D02*
X97145715Y-136091009D01*
X97145715Y-136091009D02*
X97193334Y-136186247D01*
X97193334Y-136186247D02*
X97193334Y-136424342D01*
X97193334Y-136424342D02*
X97145715Y-136519580D01*
X97145715Y-136519580D02*
X97098096Y-136567200D01*
X97098096Y-136567200D02*
X97002858Y-136614819D01*
X97002858Y-136614819D02*
X96717144Y-136614819D01*
X96717144Y-136614819D02*
X96621906Y-136567200D01*
X96621906Y-136567200D02*
X96574287Y-136519580D01*
X52786666Y-132354819D02*
X52786666Y-133069104D01*
X52786666Y-133069104D02*
X52739047Y-133211961D01*
X52739047Y-133211961D02*
X52643809Y-133307200D01*
X52643809Y-133307200D02*
X52500952Y-133354819D01*
X52500952Y-133354819D02*
X52405714Y-133354819D01*
X53739047Y-132354819D02*
X53262857Y-132354819D01*
X53262857Y-132354819D02*
X53215238Y-132831009D01*
X53215238Y-132831009D02*
X53262857Y-132783390D01*
X53262857Y-132783390D02*
X53358095Y-132735771D01*
X53358095Y-132735771D02*
X53596190Y-132735771D01*
X53596190Y-132735771D02*
X53691428Y-132783390D01*
X53691428Y-132783390D02*
X53739047Y-132831009D01*
X53739047Y-132831009D02*
X53786666Y-132926247D01*
X53786666Y-132926247D02*
X53786666Y-133164342D01*
X53786666Y-133164342D02*
X53739047Y-133259580D01*
X53739047Y-133259580D02*
X53691428Y-133307200D01*
X53691428Y-133307200D02*
X53596190Y-133354819D01*
X53596190Y-133354819D02*
X53358095Y-133354819D01*
X53358095Y-133354819D02*
X53262857Y-133307200D01*
X53262857Y-133307200D02*
X53215238Y-133259580D01*
X54944819Y-130351905D02*
X54944819Y-130828095D01*
X54944819Y-130828095D02*
X55421009Y-130875714D01*
X55421009Y-130875714D02*
X55373390Y-130828095D01*
X55373390Y-130828095D02*
X55325771Y-130732857D01*
X55325771Y-130732857D02*
X55325771Y-130494762D01*
X55325771Y-130494762D02*
X55373390Y-130399524D01*
X55373390Y-130399524D02*
X55421009Y-130351905D01*
X55421009Y-130351905D02*
X55516247Y-130304286D01*
X55516247Y-130304286D02*
X55754342Y-130304286D01*
X55754342Y-130304286D02*
X55849580Y-130351905D01*
X55849580Y-130351905D02*
X55897200Y-130399524D01*
X55897200Y-130399524D02*
X55944819Y-130494762D01*
X55944819Y-130494762D02*
X55944819Y-130732857D01*
X55944819Y-130732857D02*
X55897200Y-130828095D01*
X55897200Y-130828095D02*
X55849580Y-130875714D01*
X54944819Y-130018571D02*
X55944819Y-129685238D01*
X55944819Y-129685238D02*
X54944819Y-129351905D01*
X55944819Y-128113809D02*
X55897200Y-128209047D01*
X55897200Y-128209047D02*
X55849580Y-128256666D01*
X55849580Y-128256666D02*
X55754342Y-128304285D01*
X55754342Y-128304285D02*
X55468628Y-128304285D01*
X55468628Y-128304285D02*
X55373390Y-128256666D01*
X55373390Y-128256666D02*
X55325771Y-128209047D01*
X55325771Y-128209047D02*
X55278152Y-128113809D01*
X55278152Y-128113809D02*
X55278152Y-127970952D01*
X55278152Y-127970952D02*
X55325771Y-127875714D01*
X55325771Y-127875714D02*
X55373390Y-127828095D01*
X55373390Y-127828095D02*
X55468628Y-127780476D01*
X55468628Y-127780476D02*
X55754342Y-127780476D01*
X55754342Y-127780476D02*
X55849580Y-127828095D01*
X55849580Y-127828095D02*
X55897200Y-127875714D01*
X55897200Y-127875714D02*
X55944819Y-127970952D01*
X55944819Y-127970952D02*
X55944819Y-128113809D01*
X55278152Y-126923333D02*
X55944819Y-126923333D01*
X55278152Y-127351904D02*
X55801961Y-127351904D01*
X55801961Y-127351904D02*
X55897200Y-127304285D01*
X55897200Y-127304285D02*
X55944819Y-127209047D01*
X55944819Y-127209047D02*
X55944819Y-127066190D01*
X55944819Y-127066190D02*
X55897200Y-126970952D01*
X55897200Y-126970952D02*
X55849580Y-126923333D01*
X55278152Y-126589999D02*
X55278152Y-126209047D01*
X54944819Y-126447142D02*
X55801961Y-126447142D01*
X55801961Y-126447142D02*
X55897200Y-126399523D01*
X55897200Y-126399523D02*
X55944819Y-126304285D01*
X55944819Y-126304285D02*
X55944819Y-126209047D01*
X59652819Y-127277428D02*
X60367104Y-127277428D01*
X60367104Y-127277428D02*
X60509961Y-127325047D01*
X60509961Y-127325047D02*
X60605200Y-127420285D01*
X60605200Y-127420285D02*
X60652819Y-127563142D01*
X60652819Y-127563142D02*
X60652819Y-127658380D01*
X59652819Y-126325047D02*
X59652819Y-126801237D01*
X59652819Y-126801237D02*
X60129009Y-126848856D01*
X60129009Y-126848856D02*
X60081390Y-126801237D01*
X60081390Y-126801237D02*
X60033771Y-126705999D01*
X60033771Y-126705999D02*
X60033771Y-126467904D01*
X60033771Y-126467904D02*
X60081390Y-126372666D01*
X60081390Y-126372666D02*
X60129009Y-126325047D01*
X60129009Y-126325047D02*
X60224247Y-126277428D01*
X60224247Y-126277428D02*
X60462342Y-126277428D01*
X60462342Y-126277428D02*
X60557580Y-126325047D01*
X60557580Y-126325047D02*
X60605200Y-126372666D01*
X60605200Y-126372666D02*
X60652819Y-126467904D01*
X60652819Y-126467904D02*
X60652819Y-126705999D01*
X60652819Y-126705999D02*
X60605200Y-126801237D01*
X60605200Y-126801237D02*
X60557580Y-126848856D01*
X60748057Y-126086952D02*
X60748057Y-125325047D01*
X60605200Y-125134570D02*
X60652819Y-124991713D01*
X60652819Y-124991713D02*
X60652819Y-124753618D01*
X60652819Y-124753618D02*
X60605200Y-124658380D01*
X60605200Y-124658380D02*
X60557580Y-124610761D01*
X60557580Y-124610761D02*
X60462342Y-124563142D01*
X60462342Y-124563142D02*
X60367104Y-124563142D01*
X60367104Y-124563142D02*
X60271866Y-124610761D01*
X60271866Y-124610761D02*
X60224247Y-124658380D01*
X60224247Y-124658380D02*
X60176628Y-124753618D01*
X60176628Y-124753618D02*
X60129009Y-124944094D01*
X60129009Y-124944094D02*
X60081390Y-125039332D01*
X60081390Y-125039332D02*
X60033771Y-125086951D01*
X60033771Y-125086951D02*
X59938533Y-125134570D01*
X59938533Y-125134570D02*
X59843295Y-125134570D01*
X59843295Y-125134570D02*
X59748057Y-125086951D01*
X59748057Y-125086951D02*
X59700438Y-125039332D01*
X59700438Y-125039332D02*
X59652819Y-124944094D01*
X59652819Y-124944094D02*
X59652819Y-124705999D01*
X59652819Y-124705999D02*
X59700438Y-124563142D01*
X59652819Y-124277427D02*
X59652819Y-123705999D01*
X60652819Y-123991713D02*
X59652819Y-123991713D01*
X59652819Y-123182189D02*
X59652819Y-122991713D01*
X59652819Y-122991713D02*
X59700438Y-122896475D01*
X59700438Y-122896475D02*
X59795676Y-122801237D01*
X59795676Y-122801237D02*
X59986152Y-122753618D01*
X59986152Y-122753618D02*
X60319485Y-122753618D01*
X60319485Y-122753618D02*
X60509961Y-122801237D01*
X60509961Y-122801237D02*
X60605200Y-122896475D01*
X60605200Y-122896475D02*
X60652819Y-122991713D01*
X60652819Y-122991713D02*
X60652819Y-123182189D01*
X60652819Y-123182189D02*
X60605200Y-123277427D01*
X60605200Y-123277427D02*
X60509961Y-123372665D01*
X60509961Y-123372665D02*
X60319485Y-123420284D01*
X60319485Y-123420284D02*
X59986152Y-123420284D01*
X59986152Y-123420284D02*
X59795676Y-123372665D01*
X59795676Y-123372665D02*
X59700438Y-123277427D01*
X59700438Y-123277427D02*
X59652819Y-123182189D01*
X60652819Y-122325046D02*
X59652819Y-122325046D01*
X59652819Y-122325046D02*
X59652819Y-121944094D01*
X59652819Y-121944094D02*
X59700438Y-121848856D01*
X59700438Y-121848856D02*
X59748057Y-121801237D01*
X59748057Y-121801237D02*
X59843295Y-121753618D01*
X59843295Y-121753618D02*
X59986152Y-121753618D01*
X59986152Y-121753618D02*
X60081390Y-121801237D01*
X60081390Y-121801237D02*
X60129009Y-121848856D01*
X60129009Y-121848856D02*
X60176628Y-121944094D01*
X60176628Y-121944094D02*
X60176628Y-122325046D01*
X60652819Y-120801237D02*
X60652819Y-121372665D01*
X60652819Y-121086951D02*
X59652819Y-121086951D01*
X59652819Y-121086951D02*
X59795676Y-121182189D01*
X59795676Y-121182189D02*
X59890914Y-121277427D01*
X59890914Y-121277427D02*
X59938533Y-121372665D01*
X117124819Y-129073333D02*
X117839104Y-129073333D01*
X117839104Y-129073333D02*
X117981961Y-129120952D01*
X117981961Y-129120952D02*
X118077200Y-129216190D01*
X118077200Y-129216190D02*
X118124819Y-129359047D01*
X118124819Y-129359047D02*
X118124819Y-129454285D01*
X117553390Y-128454285D02*
X117505771Y-128549523D01*
X117505771Y-128549523D02*
X117458152Y-128597142D01*
X117458152Y-128597142D02*
X117362914Y-128644761D01*
X117362914Y-128644761D02*
X117315295Y-128644761D01*
X117315295Y-128644761D02*
X117220057Y-128597142D01*
X117220057Y-128597142D02*
X117172438Y-128549523D01*
X117172438Y-128549523D02*
X117124819Y-128454285D01*
X117124819Y-128454285D02*
X117124819Y-128263809D01*
X117124819Y-128263809D02*
X117172438Y-128168571D01*
X117172438Y-128168571D02*
X117220057Y-128120952D01*
X117220057Y-128120952D02*
X117315295Y-128073333D01*
X117315295Y-128073333D02*
X117362914Y-128073333D01*
X117362914Y-128073333D02*
X117458152Y-128120952D01*
X117458152Y-128120952D02*
X117505771Y-128168571D01*
X117505771Y-128168571D02*
X117553390Y-128263809D01*
X117553390Y-128263809D02*
X117553390Y-128454285D01*
X117553390Y-128454285D02*
X117601009Y-128549523D01*
X117601009Y-128549523D02*
X117648628Y-128597142D01*
X117648628Y-128597142D02*
X117743866Y-128644761D01*
X117743866Y-128644761D02*
X117934342Y-128644761D01*
X117934342Y-128644761D02*
X118029580Y-128597142D01*
X118029580Y-128597142D02*
X118077200Y-128549523D01*
X118077200Y-128549523D02*
X118124819Y-128454285D01*
X118124819Y-128454285D02*
X118124819Y-128263809D01*
X118124819Y-128263809D02*
X118077200Y-128168571D01*
X118077200Y-128168571D02*
X118029580Y-128120952D01*
X118029580Y-128120952D02*
X117934342Y-128073333D01*
X117934342Y-128073333D02*
X117743866Y-128073333D01*
X117743866Y-128073333D02*
X117648628Y-128120952D01*
X117648628Y-128120952D02*
X117601009Y-128168571D01*
X117601009Y-128168571D02*
X117553390Y-128263809D01*
X121364666Y-125486438D02*
X121269428Y-125438819D01*
X121269428Y-125438819D02*
X121126571Y-125438819D01*
X121126571Y-125438819D02*
X120983714Y-125486438D01*
X120983714Y-125486438D02*
X120888476Y-125581676D01*
X120888476Y-125581676D02*
X120840857Y-125676914D01*
X120840857Y-125676914D02*
X120793238Y-125867390D01*
X120793238Y-125867390D02*
X120793238Y-126010247D01*
X120793238Y-126010247D02*
X120840857Y-126200723D01*
X120840857Y-126200723D02*
X120888476Y-126295961D01*
X120888476Y-126295961D02*
X120983714Y-126391200D01*
X120983714Y-126391200D02*
X121126571Y-126438819D01*
X121126571Y-126438819D02*
X121221809Y-126438819D01*
X121221809Y-126438819D02*
X121364666Y-126391200D01*
X121364666Y-126391200D02*
X121412285Y-126343580D01*
X121412285Y-126343580D02*
X121412285Y-126010247D01*
X121412285Y-126010247D02*
X121221809Y-126010247D01*
X121840857Y-126438819D02*
X121840857Y-125438819D01*
X121840857Y-125438819D02*
X122412285Y-126438819D01*
X122412285Y-126438819D02*
X122412285Y-125438819D01*
X122888476Y-126438819D02*
X122888476Y-125438819D01*
X122888476Y-125438819D02*
X123126571Y-125438819D01*
X123126571Y-125438819D02*
X123269428Y-125486438D01*
X123269428Y-125486438D02*
X123364666Y-125581676D01*
X123364666Y-125581676D02*
X123412285Y-125676914D01*
X123412285Y-125676914D02*
X123459904Y-125867390D01*
X123459904Y-125867390D02*
X123459904Y-126010247D01*
X123459904Y-126010247D02*
X123412285Y-126200723D01*
X123412285Y-126200723D02*
X123364666Y-126295961D01*
X123364666Y-126295961D02*
X123269428Y-126391200D01*
X123269428Y-126391200D02*
X123126571Y-126438819D01*
X123126571Y-126438819D02*
X122888476Y-126438819D01*
X124793238Y-126438819D02*
X124698000Y-126391200D01*
X124698000Y-126391200D02*
X124650381Y-126343580D01*
X124650381Y-126343580D02*
X124602762Y-126248342D01*
X124602762Y-126248342D02*
X124602762Y-125962628D01*
X124602762Y-125962628D02*
X124650381Y-125867390D01*
X124650381Y-125867390D02*
X124698000Y-125819771D01*
X124698000Y-125819771D02*
X124793238Y-125772152D01*
X124793238Y-125772152D02*
X124936095Y-125772152D01*
X124936095Y-125772152D02*
X125031333Y-125819771D01*
X125031333Y-125819771D02*
X125078952Y-125867390D01*
X125078952Y-125867390D02*
X125126571Y-125962628D01*
X125126571Y-125962628D02*
X125126571Y-126248342D01*
X125126571Y-126248342D02*
X125078952Y-126343580D01*
X125078952Y-126343580D02*
X125031333Y-126391200D01*
X125031333Y-126391200D02*
X124936095Y-126438819D01*
X124936095Y-126438819D02*
X124793238Y-126438819D01*
X125983714Y-125772152D02*
X125983714Y-126438819D01*
X125555143Y-125772152D02*
X125555143Y-126295961D01*
X125555143Y-126295961D02*
X125602762Y-126391200D01*
X125602762Y-126391200D02*
X125698000Y-126438819D01*
X125698000Y-126438819D02*
X125840857Y-126438819D01*
X125840857Y-126438819D02*
X125936095Y-126391200D01*
X125936095Y-126391200D02*
X125983714Y-126343580D01*
X126317048Y-125772152D02*
X126698000Y-125772152D01*
X126459905Y-125438819D02*
X126459905Y-126295961D01*
X126459905Y-126295961D02*
X126507524Y-126391200D01*
X126507524Y-126391200D02*
X126602762Y-126438819D01*
X126602762Y-126438819D02*
X126698000Y-126438819D01*
X65004819Y-116609523D02*
X65719104Y-116609523D01*
X65719104Y-116609523D02*
X65861961Y-116657142D01*
X65861961Y-116657142D02*
X65957200Y-116752380D01*
X65957200Y-116752380D02*
X66004819Y-116895237D01*
X66004819Y-116895237D02*
X66004819Y-116990475D01*
X66004819Y-115609523D02*
X66004819Y-116180951D01*
X66004819Y-115895237D02*
X65004819Y-115895237D01*
X65004819Y-115895237D02*
X65147676Y-115990475D01*
X65147676Y-115990475D02*
X65242914Y-116085713D01*
X65242914Y-116085713D02*
X65290533Y-116180951D01*
X65004819Y-115276189D02*
X65004819Y-114657142D01*
X65004819Y-114657142D02*
X65385771Y-114990475D01*
X65385771Y-114990475D02*
X65385771Y-114847618D01*
X65385771Y-114847618D02*
X65433390Y-114752380D01*
X65433390Y-114752380D02*
X65481009Y-114704761D01*
X65481009Y-114704761D02*
X65576247Y-114657142D01*
X65576247Y-114657142D02*
X65814342Y-114657142D01*
X65814342Y-114657142D02*
X65909580Y-114704761D01*
X65909580Y-114704761D02*
X65957200Y-114752380D01*
X65957200Y-114752380D02*
X66004819Y-114847618D01*
X66004819Y-114847618D02*
X66004819Y-115133332D01*
X66004819Y-115133332D02*
X65957200Y-115228570D01*
X65957200Y-115228570D02*
X65909580Y-115276189D01*
X78827333Y-102467580D02*
X78779714Y-102515200D01*
X78779714Y-102515200D02*
X78636857Y-102562819D01*
X78636857Y-102562819D02*
X78541619Y-102562819D01*
X78541619Y-102562819D02*
X78398762Y-102515200D01*
X78398762Y-102515200D02*
X78303524Y-102419961D01*
X78303524Y-102419961D02*
X78255905Y-102324723D01*
X78255905Y-102324723D02*
X78208286Y-102134247D01*
X78208286Y-102134247D02*
X78208286Y-101991390D01*
X78208286Y-101991390D02*
X78255905Y-101800914D01*
X78255905Y-101800914D02*
X78303524Y-101705676D01*
X78303524Y-101705676D02*
X78398762Y-101610438D01*
X78398762Y-101610438D02*
X78541619Y-101562819D01*
X78541619Y-101562819D02*
X78636857Y-101562819D01*
X78636857Y-101562819D02*
X78779714Y-101610438D01*
X78779714Y-101610438D02*
X78827333Y-101658057D01*
X79779714Y-102562819D02*
X79208286Y-102562819D01*
X79494000Y-102562819D02*
X79494000Y-101562819D01*
X79494000Y-101562819D02*
X79398762Y-101705676D01*
X79398762Y-101705676D02*
X79303524Y-101800914D01*
X79303524Y-101800914D02*
X79208286Y-101848533D01*
X90215466Y-145703219D02*
X90215466Y-146417504D01*
X90215466Y-146417504D02*
X90167847Y-146560361D01*
X90167847Y-146560361D02*
X90072609Y-146655600D01*
X90072609Y-146655600D02*
X89929752Y-146703219D01*
X89929752Y-146703219D02*
X89834514Y-146703219D01*
X91215466Y-146703219D02*
X90644038Y-146703219D01*
X90929752Y-146703219D02*
X90929752Y-145703219D01*
X90929752Y-145703219D02*
X90834514Y-145846076D01*
X90834514Y-145846076D02*
X90739276Y-145941314D01*
X90739276Y-145941314D02*
X90644038Y-145988933D01*
X82166666Y-105372819D02*
X82166666Y-106087104D01*
X82166666Y-106087104D02*
X82119047Y-106229961D01*
X82119047Y-106229961D02*
X82023809Y-106325200D01*
X82023809Y-106325200D02*
X81880952Y-106372819D01*
X81880952Y-106372819D02*
X81785714Y-106372819D01*
X83071428Y-105706152D02*
X83071428Y-106372819D01*
X82833333Y-105325200D02*
X82595238Y-106039485D01*
X82595238Y-106039485D02*
X83214285Y-106039485D01*
X83963048Y-106325200D02*
X84105905Y-106372819D01*
X84105905Y-106372819D02*
X84344000Y-106372819D01*
X84344000Y-106372819D02*
X84439238Y-106325200D01*
X84439238Y-106325200D02*
X84486857Y-106277580D01*
X84486857Y-106277580D02*
X84534476Y-106182342D01*
X84534476Y-106182342D02*
X84534476Y-106087104D01*
X84534476Y-106087104D02*
X84486857Y-105991866D01*
X84486857Y-105991866D02*
X84439238Y-105944247D01*
X84439238Y-105944247D02*
X84344000Y-105896628D01*
X84344000Y-105896628D02*
X84153524Y-105849009D01*
X84153524Y-105849009D02*
X84058286Y-105801390D01*
X84058286Y-105801390D02*
X84010667Y-105753771D01*
X84010667Y-105753771D02*
X83963048Y-105658533D01*
X83963048Y-105658533D02*
X83963048Y-105563295D01*
X83963048Y-105563295D02*
X84010667Y-105468057D01*
X84010667Y-105468057D02*
X84058286Y-105420438D01*
X84058286Y-105420438D02*
X84153524Y-105372819D01*
X84153524Y-105372819D02*
X84391619Y-105372819D01*
X84391619Y-105372819D02*
X84534476Y-105420438D01*
X84867810Y-105372819D02*
X85105905Y-106372819D01*
X85105905Y-106372819D02*
X85296381Y-105658533D01*
X85296381Y-105658533D02*
X85486857Y-106372819D01*
X85486857Y-106372819D02*
X85724953Y-105372819D01*
X86296381Y-105372819D02*
X86486857Y-105372819D01*
X86486857Y-105372819D02*
X86582095Y-105420438D01*
X86582095Y-105420438D02*
X86677333Y-105515676D01*
X86677333Y-105515676D02*
X86724952Y-105706152D01*
X86724952Y-105706152D02*
X86724952Y-106039485D01*
X86724952Y-106039485D02*
X86677333Y-106229961D01*
X86677333Y-106229961D02*
X86582095Y-106325200D01*
X86582095Y-106325200D02*
X86486857Y-106372819D01*
X86486857Y-106372819D02*
X86296381Y-106372819D01*
X86296381Y-106372819D02*
X86201143Y-106325200D01*
X86201143Y-106325200D02*
X86105905Y-106229961D01*
X86105905Y-106229961D02*
X86058286Y-106039485D01*
X86058286Y-106039485D02*
X86058286Y-105706152D01*
X86058286Y-105706152D02*
X86105905Y-105515676D01*
X86105905Y-105515676D02*
X86201143Y-105420438D01*
X86201143Y-105420438D02*
X86296381Y-105372819D01*
X85314819Y-129733333D02*
X86029104Y-129733333D01*
X86029104Y-129733333D02*
X86171961Y-129780952D01*
X86171961Y-129780952D02*
X86267200Y-129876190D01*
X86267200Y-129876190D02*
X86314819Y-130019047D01*
X86314819Y-130019047D02*
X86314819Y-130114285D01*
X85314819Y-128828571D02*
X85314819Y-129019047D01*
X85314819Y-129019047D02*
X85362438Y-129114285D01*
X85362438Y-129114285D02*
X85410057Y-129161904D01*
X85410057Y-129161904D02*
X85552914Y-129257142D01*
X85552914Y-129257142D02*
X85743390Y-129304761D01*
X85743390Y-129304761D02*
X86124342Y-129304761D01*
X86124342Y-129304761D02*
X86219580Y-129257142D01*
X86219580Y-129257142D02*
X86267200Y-129209523D01*
X86267200Y-129209523D02*
X86314819Y-129114285D01*
X86314819Y-129114285D02*
X86314819Y-128923809D01*
X86314819Y-128923809D02*
X86267200Y-128828571D01*
X86267200Y-128828571D02*
X86219580Y-128780952D01*
X86219580Y-128780952D02*
X86124342Y-128733333D01*
X86124342Y-128733333D02*
X85886247Y-128733333D01*
X85886247Y-128733333D02*
X85791009Y-128780952D01*
X85791009Y-128780952D02*
X85743390Y-128828571D01*
X85743390Y-128828571D02*
X85695771Y-128923809D01*
X85695771Y-128923809D02*
X85695771Y-129114285D01*
X85695771Y-129114285D02*
X85743390Y-129209523D01*
X85743390Y-129209523D02*
X85791009Y-129257142D01*
X85791009Y-129257142D02*
X85886247Y-129304761D01*
X87360476Y-125946819D02*
X87979523Y-125946819D01*
X87979523Y-125946819D02*
X87646190Y-126327771D01*
X87646190Y-126327771D02*
X87789047Y-126327771D01*
X87789047Y-126327771D02*
X87884285Y-126375390D01*
X87884285Y-126375390D02*
X87931904Y-126423009D01*
X87931904Y-126423009D02*
X87979523Y-126518247D01*
X87979523Y-126518247D02*
X87979523Y-126756342D01*
X87979523Y-126756342D02*
X87931904Y-126851580D01*
X87931904Y-126851580D02*
X87884285Y-126899200D01*
X87884285Y-126899200D02*
X87789047Y-126946819D01*
X87789047Y-126946819D02*
X87503333Y-126946819D01*
X87503333Y-126946819D02*
X87408095Y-126899200D01*
X87408095Y-126899200D02*
X87360476Y-126851580D01*
X88265238Y-125946819D02*
X88598571Y-126946819D01*
X88598571Y-126946819D02*
X88931904Y-125946819D01*
X89170000Y-125946819D02*
X89789047Y-125946819D01*
X89789047Y-125946819D02*
X89455714Y-126327771D01*
X89455714Y-126327771D02*
X89598571Y-126327771D01*
X89598571Y-126327771D02*
X89693809Y-126375390D01*
X89693809Y-126375390D02*
X89741428Y-126423009D01*
X89741428Y-126423009D02*
X89789047Y-126518247D01*
X89789047Y-126518247D02*
X89789047Y-126756342D01*
X89789047Y-126756342D02*
X89741428Y-126851580D01*
X89741428Y-126851580D02*
X89693809Y-126899200D01*
X89693809Y-126899200D02*
X89598571Y-126946819D01*
X89598571Y-126946819D02*
X89312857Y-126946819D01*
X89312857Y-126946819D02*
X89217619Y-126899200D01*
X89217619Y-126899200D02*
X89170000Y-126851580D01*
X91122381Y-126946819D02*
X91027143Y-126899200D01*
X91027143Y-126899200D02*
X90979524Y-126851580D01*
X90979524Y-126851580D02*
X90931905Y-126756342D01*
X90931905Y-126756342D02*
X90931905Y-126470628D01*
X90931905Y-126470628D02*
X90979524Y-126375390D01*
X90979524Y-126375390D02*
X91027143Y-126327771D01*
X91027143Y-126327771D02*
X91122381Y-126280152D01*
X91122381Y-126280152D02*
X91265238Y-126280152D01*
X91265238Y-126280152D02*
X91360476Y-126327771D01*
X91360476Y-126327771D02*
X91408095Y-126375390D01*
X91408095Y-126375390D02*
X91455714Y-126470628D01*
X91455714Y-126470628D02*
X91455714Y-126756342D01*
X91455714Y-126756342D02*
X91408095Y-126851580D01*
X91408095Y-126851580D02*
X91360476Y-126899200D01*
X91360476Y-126899200D02*
X91265238Y-126946819D01*
X91265238Y-126946819D02*
X91122381Y-126946819D01*
X92312857Y-126280152D02*
X92312857Y-126946819D01*
X91884286Y-126280152D02*
X91884286Y-126803961D01*
X91884286Y-126803961D02*
X91931905Y-126899200D01*
X91931905Y-126899200D02*
X92027143Y-126946819D01*
X92027143Y-126946819D02*
X92170000Y-126946819D01*
X92170000Y-126946819D02*
X92265238Y-126899200D01*
X92265238Y-126899200D02*
X92312857Y-126851580D01*
X92646191Y-126280152D02*
X93027143Y-126280152D01*
X92789048Y-125946819D02*
X92789048Y-126803961D01*
X92789048Y-126803961D02*
X92836667Y-126899200D01*
X92836667Y-126899200D02*
X92931905Y-126946819D01*
X92931905Y-126946819D02*
X93027143Y-126946819D01*
X63510476Y-95114819D02*
X63510476Y-95829104D01*
X63510476Y-95829104D02*
X63462857Y-95971961D01*
X63462857Y-95971961D02*
X63367619Y-96067200D01*
X63367619Y-96067200D02*
X63224762Y-96114819D01*
X63224762Y-96114819D02*
X63129524Y-96114819D01*
X64510476Y-96114819D02*
X63939048Y-96114819D01*
X64224762Y-96114819D02*
X64224762Y-95114819D01*
X64224762Y-95114819D02*
X64129524Y-95257676D01*
X64129524Y-95257676D02*
X64034286Y-95352914D01*
X64034286Y-95352914D02*
X63939048Y-95400533D01*
X65129524Y-95114819D02*
X65224762Y-95114819D01*
X65224762Y-95114819D02*
X65320000Y-95162438D01*
X65320000Y-95162438D02*
X65367619Y-95210057D01*
X65367619Y-95210057D02*
X65415238Y-95305295D01*
X65415238Y-95305295D02*
X65462857Y-95495771D01*
X65462857Y-95495771D02*
X65462857Y-95733866D01*
X65462857Y-95733866D02*
X65415238Y-95924342D01*
X65415238Y-95924342D02*
X65367619Y-96019580D01*
X65367619Y-96019580D02*
X65320000Y-96067200D01*
X65320000Y-96067200D02*
X65224762Y-96114819D01*
X65224762Y-96114819D02*
X65129524Y-96114819D01*
X65129524Y-96114819D02*
X65034286Y-96067200D01*
X65034286Y-96067200D02*
X64986667Y-96019580D01*
X64986667Y-96019580D02*
X64939048Y-95924342D01*
X64939048Y-95924342D02*
X64891429Y-95733866D01*
X64891429Y-95733866D02*
X64891429Y-95495771D01*
X64891429Y-95495771D02*
X64939048Y-95305295D01*
X64939048Y-95305295D02*
X64986667Y-95210057D01*
X64986667Y-95210057D02*
X65034286Y-95162438D01*
X65034286Y-95162438D02*
X65129524Y-95114819D01*
D12*
%TO.C,D1*%
X87450000Y-101287500D02*
X87450000Y-96077500D01*
X83530000Y-101287500D02*
X87450000Y-101287500D01*
X83530000Y-96077500D02*
X83530000Y-101287500D01*
%TO.C,JP2*%
X131992400Y-139432000D02*
X133322400Y-139432000D01*
X131992400Y-140762000D02*
X131992400Y-139432000D01*
X131992400Y-142032000D02*
X131992400Y-147172000D01*
X131992400Y-142032000D02*
X134652400Y-142032000D01*
X131992400Y-147172000D02*
X134652400Y-147172000D01*
X134652400Y-142032000D02*
X134652400Y-147172000D01*
%TO.C,J6_STOP2*%
X61835000Y-118120000D02*
X61835000Y-119370000D01*
X61835000Y-119370000D02*
X63085000Y-119370000D01*
X62125000Y-111460000D02*
X62125000Y-119080000D01*
X62125000Y-119080000D02*
X68095000Y-119080000D01*
X62135000Y-111470000D02*
X62135000Y-113270000D01*
X62135000Y-113270000D02*
X62885000Y-113270000D01*
X62135000Y-114770000D02*
X62135000Y-115770000D01*
X62135000Y-115770000D02*
X62885000Y-115770000D01*
X62135000Y-117270000D02*
X62135000Y-119070000D01*
X62135000Y-119070000D02*
X62885000Y-119070000D01*
X62885000Y-111470000D02*
X62135000Y-111470000D01*
X62885000Y-113270000D02*
X62885000Y-111470000D01*
X62885000Y-114770000D02*
X62135000Y-114770000D01*
X62885000Y-115770000D02*
X62885000Y-114770000D01*
X62885000Y-117270000D02*
X62135000Y-117270000D01*
X62885000Y-119070000D02*
X62885000Y-117270000D01*
X64385000Y-111470000D02*
X64385000Y-112220000D01*
X64385000Y-112220000D02*
X67335000Y-112220000D01*
X64385000Y-118320000D02*
X67335000Y-118320000D01*
X64385000Y-119070000D02*
X64385000Y-118320000D01*
X67335000Y-112220000D02*
X67335000Y-115270000D01*
X67335000Y-118320000D02*
X67335000Y-115270000D01*
X68095000Y-111460000D02*
X62125000Y-111460000D01*
X68095000Y-119080000D02*
X68095000Y-111460000D01*
%TO.C,R1*%
X88270000Y-99631252D02*
X88270000Y-96858748D01*
X91690000Y-99631252D02*
X91690000Y-96858748D01*
%TO.C,J12*%
X66480000Y-126660000D02*
X66480000Y-127910000D01*
X66480000Y-127910000D02*
X67730000Y-127910000D01*
X66580000Y-125850000D02*
X66580000Y-126150000D01*
X66580000Y-126150000D02*
X66780000Y-126150000D01*
X66680000Y-125850000D02*
X66680000Y-126150000D01*
X66780000Y-121490000D02*
X66780000Y-127610000D01*
X66780000Y-125050000D02*
X67390000Y-125050000D01*
X66780000Y-125850000D02*
X66580000Y-125850000D01*
X66780000Y-127610000D02*
X71500000Y-127610000D01*
X67390000Y-122100000D02*
X67390000Y-124050000D01*
X67390000Y-124050000D02*
X66780000Y-124050000D01*
X67390000Y-125050000D02*
X67390000Y-127000000D01*
X67390000Y-127000000D02*
X70890000Y-127000000D01*
X68090000Y-121490000D02*
X68090000Y-122100000D01*
X68090000Y-127610000D02*
X68090000Y-127000000D01*
X69390000Y-121490000D02*
X69390000Y-122100000D01*
X69390000Y-127610000D02*
X69390000Y-127000000D01*
X70390000Y-124450000D02*
X70890000Y-124450000D01*
X70390000Y-124650000D02*
X70390000Y-124450000D01*
X70890000Y-122100000D02*
X67390000Y-122100000D01*
X70890000Y-124550000D02*
X70390000Y-124550000D01*
X70890000Y-124650000D02*
X70390000Y-124650000D01*
X70890000Y-127000000D02*
X70890000Y-122100000D01*
X71500000Y-121490000D02*
X66780000Y-121490000D01*
X71500000Y-127610000D02*
X71500000Y-121490000D01*
%TO.C,JP1*%
X86860000Y-134890000D02*
X86860000Y-133560000D01*
X88190000Y-134890000D02*
X86860000Y-134890000D01*
X89460000Y-132230000D02*
X94600000Y-132230000D01*
X89460000Y-134890000D02*
X89460000Y-132230000D01*
X89460000Y-134890000D02*
X94600000Y-134890000D01*
X94600000Y-134890000D02*
X94600000Y-132230000D01*
%TO.C,J5*%
X51790000Y-129300000D02*
X51790000Y-124160000D01*
X54450000Y-124160000D02*
X51790000Y-124160000D01*
X54450000Y-129300000D02*
X51790000Y-129300000D01*
X54450000Y-129300000D02*
X54450000Y-124160000D01*
X54450000Y-130570000D02*
X54450000Y-131900000D01*
X54450000Y-131900000D02*
X53120000Y-131900000D01*
%TO.C,J5_STOP1*%
X61950000Y-126770000D02*
X61950000Y-128020000D01*
X61950000Y-128020000D02*
X63200000Y-128020000D01*
X62240000Y-120110000D02*
X62240000Y-127730000D01*
X62240000Y-127730000D02*
X68210000Y-127730000D01*
X62250000Y-120120000D02*
X62250000Y-121920000D01*
X62250000Y-121920000D02*
X63000000Y-121920000D01*
X62250000Y-123420000D02*
X62250000Y-124420000D01*
X62250000Y-124420000D02*
X63000000Y-124420000D01*
X62250000Y-125920000D02*
X62250000Y-127720000D01*
X62250000Y-127720000D02*
X63000000Y-127720000D01*
X63000000Y-120120000D02*
X62250000Y-120120000D01*
X63000000Y-121920000D02*
X63000000Y-120120000D01*
X63000000Y-123420000D02*
X62250000Y-123420000D01*
X63000000Y-124420000D02*
X63000000Y-123420000D01*
X63000000Y-125920000D02*
X62250000Y-125920000D01*
X63000000Y-127720000D02*
X63000000Y-125920000D01*
X64500000Y-120120000D02*
X64500000Y-120870000D01*
X64500000Y-120870000D02*
X67450000Y-120870000D01*
X64500000Y-126970000D02*
X67450000Y-126970000D01*
X64500000Y-127720000D02*
X64500000Y-126970000D01*
X67450000Y-120870000D02*
X67450000Y-123920000D01*
X67450000Y-126970000D02*
X67450000Y-123920000D01*
X68210000Y-120110000D02*
X62240000Y-120110000D01*
X68210000Y-127730000D02*
X68210000Y-120110000D01*
%TO.C,J8*%
X118670000Y-130070000D02*
X118670000Y-128740000D01*
X120000000Y-130070000D02*
X118670000Y-130070000D01*
X121270000Y-127410000D02*
X126410000Y-127410000D01*
X121270000Y-130070000D02*
X121270000Y-127410000D01*
X121270000Y-130070000D02*
X126410000Y-130070000D01*
X126410000Y-130070000D02*
X126410000Y-127410000D01*
%TO.C,J3*%
X94930000Y-118980000D02*
X94930000Y-121640000D01*
X143250000Y-118980000D02*
X94930000Y-118980000D01*
X143250000Y-118980000D02*
X143250000Y-121640000D01*
X143250000Y-121640000D02*
X94930000Y-121640000D01*
X144520000Y-118980000D02*
X145850000Y-118980000D01*
X145850000Y-118980000D02*
X145850000Y-120310000D01*
%TO.C,J13*%
X66340000Y-117910000D02*
X66340000Y-119160000D01*
X66340000Y-119160000D02*
X67590000Y-119160000D01*
X66440000Y-117100000D02*
X66440000Y-117400000D01*
X66440000Y-117400000D02*
X66640000Y-117400000D01*
X66540000Y-117100000D02*
X66540000Y-117400000D01*
X66640000Y-112740000D02*
X66640000Y-118860000D01*
X66640000Y-116300000D02*
X67250000Y-116300000D01*
X66640000Y-117100000D02*
X66440000Y-117100000D01*
X66640000Y-118860000D02*
X71360000Y-118860000D01*
X67250000Y-113350000D02*
X67250000Y-115300000D01*
X67250000Y-115300000D02*
X66640000Y-115300000D01*
X67250000Y-116300000D02*
X67250000Y-118250000D01*
X67250000Y-118250000D02*
X70750000Y-118250000D01*
X67950000Y-112740000D02*
X67950000Y-113350000D01*
X67950000Y-118860000D02*
X67950000Y-118250000D01*
X69250000Y-112740000D02*
X69250000Y-113350000D01*
X69250000Y-118860000D02*
X69250000Y-118250000D01*
X70250000Y-115700000D02*
X70750000Y-115700000D01*
X70250000Y-115900000D02*
X70250000Y-115700000D01*
X70750000Y-113350000D02*
X67250000Y-113350000D01*
X70750000Y-115800000D02*
X70250000Y-115800000D01*
X70750000Y-115900000D02*
X70250000Y-115900000D01*
X70750000Y-118250000D02*
X70750000Y-113350000D01*
X71360000Y-112740000D02*
X66640000Y-112740000D01*
X71360000Y-118860000D02*
X71360000Y-112740000D01*
%TO.C,C1*%
X79530000Y-99401252D02*
X79530000Y-97078748D01*
X82950000Y-99401252D02*
X82950000Y-97078748D01*
%TO.C,J1*%
X65230000Y-140030000D02*
X65230000Y-145230000D01*
X113550000Y-140030000D02*
X65230000Y-140030000D01*
X113550000Y-140030000D02*
X113550000Y-142630000D01*
X113550000Y-142630000D02*
X116150000Y-142630000D01*
X114820000Y-140030000D02*
X116150000Y-140030000D01*
X116150000Y-140030000D02*
X116150000Y-141360000D01*
X116150000Y-142630000D02*
X116150000Y-145230000D01*
X116150000Y-145230000D02*
X65230000Y-145230000D01*
%TO.C,J4*%
X83990000Y-101880000D02*
X85370000Y-101880000D01*
X83990000Y-103260000D02*
X83990000Y-101880000D01*
X83990000Y-104530000D02*
X83990000Y-104640000D01*
X83990000Y-104530000D02*
X86750000Y-104530000D01*
X83990000Y-104640000D02*
X86750000Y-104640000D01*
X86750000Y-104530000D02*
X86750000Y-104640000D01*
%TO.C,J6*%
X86860000Y-130730000D02*
X86860000Y-129400000D01*
X88190000Y-130730000D02*
X86860000Y-130730000D01*
X89460000Y-128070000D02*
X94600000Y-128070000D01*
X89460000Y-130730000D02*
X89460000Y-128070000D01*
X89460000Y-130730000D02*
X94600000Y-130730000D01*
X94600000Y-130730000D02*
X94600000Y-128070000D01*
%TO.C,J11*%
X50900000Y-100025000D02*
X50900000Y-98775000D01*
X50900000Y-98775000D02*
X52150000Y-98775000D01*
X51190000Y-105035000D02*
X51190000Y-99065000D01*
X51190000Y-99065000D02*
X76310000Y-99065000D01*
X51200000Y-99825000D02*
X51200000Y-99075000D01*
X51200000Y-99075000D02*
X53000000Y-99075000D01*
X51950000Y-104275000D02*
X51950000Y-101325000D01*
X51950000Y-101325000D02*
X51200000Y-101325000D01*
X53000000Y-99825000D02*
X51200000Y-99825000D01*
X53000000Y-99075000D02*
X53000000Y-99825000D01*
X54500000Y-99825000D02*
X54500000Y-99075000D01*
X54500000Y-99075000D02*
X73000000Y-99075000D01*
X63750000Y-104275000D02*
X51950000Y-104275000D01*
X63750000Y-104275000D02*
X75550000Y-104275000D01*
X73000000Y-99825000D02*
X54500000Y-99825000D01*
X73000000Y-99075000D02*
X73000000Y-99825000D01*
X74500000Y-99825000D02*
X74500000Y-99075000D01*
X74500000Y-99075000D02*
X76300000Y-99075000D01*
X75550000Y-104275000D02*
X75550000Y-101325000D01*
X75550000Y-101325000D02*
X76300000Y-101325000D01*
X76300000Y-99825000D02*
X74500000Y-99825000D01*
X76300000Y-99075000D02*
X76300000Y-99825000D01*
X76310000Y-105035000D02*
X51190000Y-105035000D01*
X76310000Y-99065000D02*
X76310000Y-105035000D01*
%TO.C,J10*%
X53960000Y-97700000D02*
X53960000Y-96450000D01*
X53960000Y-96450000D02*
X55210000Y-96450000D01*
X54260000Y-101470000D02*
X54260000Y-96750000D01*
X54260000Y-96750000D02*
X74380000Y-96750000D01*
X54870000Y-100860000D02*
X54870000Y-97360000D01*
X54870000Y-99360000D02*
X54260000Y-99360000D01*
X54870000Y-98060000D02*
X54260000Y-98060000D01*
X54870000Y-97360000D02*
X56820000Y-97360000D01*
X55720000Y-96750000D02*
X55720000Y-96550000D01*
X55720000Y-96650000D02*
X56020000Y-96650000D01*
X55720000Y-96550000D02*
X56020000Y-96550000D01*
X56020000Y-96550000D02*
X56020000Y-96750000D01*
X56820000Y-97360000D02*
X56820000Y-96750000D01*
X57220000Y-100360000D02*
X57220000Y-100860000D01*
X57320000Y-100360000D02*
X57320000Y-100860000D01*
X57420000Y-100860000D02*
X57420000Y-100360000D01*
X57420000Y-100360000D02*
X57220000Y-100360000D01*
X59220000Y-100360000D02*
X59220000Y-100860000D01*
X59320000Y-100360000D02*
X59320000Y-100860000D01*
X59420000Y-100860000D02*
X59420000Y-100360000D01*
X59420000Y-100360000D02*
X59220000Y-100360000D01*
X61220000Y-100360000D02*
X61220000Y-100860000D01*
X61320000Y-100360000D02*
X61320000Y-100860000D01*
X61420000Y-100860000D02*
X61420000Y-100360000D01*
X61420000Y-100360000D02*
X61220000Y-100360000D01*
X63220000Y-100360000D02*
X63220000Y-100860000D01*
X63320000Y-100360000D02*
X63320000Y-100860000D01*
X63420000Y-100860000D02*
X63420000Y-100360000D01*
X63420000Y-100360000D02*
X63220000Y-100360000D01*
X65220000Y-100360000D02*
X65220000Y-100860000D01*
X65320000Y-100360000D02*
X65320000Y-100860000D01*
X65420000Y-100860000D02*
X65420000Y-100360000D01*
X65420000Y-100360000D02*
X65220000Y-100360000D01*
X67220000Y-100360000D02*
X67220000Y-100860000D01*
X67320000Y-100360000D02*
X67320000Y-100860000D01*
X67420000Y-100860000D02*
X67420000Y-100360000D01*
X67420000Y-100360000D02*
X67220000Y-100360000D01*
X69220000Y-100360000D02*
X69220000Y-100860000D01*
X69320000Y-100360000D02*
X69320000Y-100860000D01*
X69420000Y-100860000D02*
X69420000Y-100360000D01*
X69420000Y-100360000D02*
X69220000Y-100360000D01*
X71220000Y-100360000D02*
X71220000Y-100860000D01*
X71320000Y-100360000D02*
X71320000Y-100860000D01*
X71420000Y-100860000D02*
X71420000Y-100360000D01*
X71420000Y-100360000D02*
X71220000Y-100360000D01*
X71820000Y-97360000D02*
X73770000Y-97360000D01*
X71820000Y-96750000D02*
X71820000Y-97360000D01*
X73770000Y-100860000D02*
X54870000Y-100860000D01*
X73770000Y-99360000D02*
X74380000Y-99360000D01*
X73770000Y-98060000D02*
X74380000Y-98060000D01*
X73770000Y-97360000D02*
X73770000Y-100860000D01*
X74380000Y-101470000D02*
X54260000Y-101470000D01*
X74380000Y-96750000D02*
X74380000Y-101470000D01*
%TD*%
M02*
