%TF.GenerationSoftware,KiCad,Pcbnew,9.0.1*%
%TF.CreationDate,2025-05-26T12:01:48+02:00*%
%TF.ProjectId,Legacy-LedPanel-HAT,4c656761-6379-42d4-9c65-6450616e656c,rev?*%
%TF.SameCoordinates,Original*%
%TF.FileFunction,Copper,L2,Bot*%
%TF.FilePolarity,Positive*%
%FSLAX46Y46*%
G04 Gerber Fmt 4.6, Leading zero omitted, Abs format (unit mm)*
G04 Created by KiCad (PCBNEW 9.0.1) date 2025-05-26 12:01:48*
%MOMM*%
%LPD*%
G01*
G04 APERTURE LIST*
G04 Aperture macros list*
%AMRoundRect*
0 Rectangle with rounded corners*
0 $1 Rounding radius*
0 $2 $3 $4 $5 $6 $7 $8 $9 X,Y pos of 4 corners*
0 Add a 4 corners polygon primitive as box body*
4,1,4,$2,$3,$4,$5,$6,$7,$8,$9,$2,$3,0*
0 Add four circle primitives for the rounded corners*
1,1,$1+$1,$2,$3*
1,1,$1+$1,$4,$5*
1,1,$1+$1,$6,$7*
1,1,$1+$1,$8,$9*
0 Add four rect primitives between the rounded corners*
20,1,$1+$1,$2,$3,$4,$5,0*
20,1,$1+$1,$4,$5,$6,$7,0*
20,1,$1+$1,$6,$7,$8,$9,0*
20,1,$1+$1,$8,$9,$2,$3,0*%
G04 Aperture macros list end*
%TA.AperFunction,ComponentPad*%
%ADD10RoundRect,0.250000X0.600000X0.725000X-0.600000X0.725000X-0.600000X-0.725000X0.600000X-0.725000X0*%
%TD*%
%TA.AperFunction,ComponentPad*%
%ADD11O,1.700000X1.950000*%
%TD*%
%TA.AperFunction,ComponentPad*%
%ADD12R,1.700000X1.700000*%
%TD*%
%TA.AperFunction,ComponentPad*%
%ADD13O,1.700000X1.700000*%
%TD*%
%TA.AperFunction,ComponentPad*%
%ADD14RoundRect,0.250000X0.750000X-0.600000X0.750000X0.600000X-0.750000X0.600000X-0.750000X-0.600000X0*%
%TD*%
%TA.AperFunction,ComponentPad*%
%ADD15O,2.000000X1.700000*%
%TD*%
%TA.AperFunction,ComponentPad*%
%ADD16RoundRect,0.250000X0.625000X-0.350000X0.625000X0.350000X-0.625000X0.350000X-0.625000X-0.350000X0*%
%TD*%
%TA.AperFunction,ComponentPad*%
%ADD17O,1.750000X1.200000*%
%TD*%
%TA.AperFunction,ComponentPad*%
%ADD18RoundRect,0.250000X-0.600000X-0.725000X0.600000X-0.725000X0.600000X0.725000X-0.600000X0.725000X0*%
%TD*%
%TA.AperFunction,ComponentPad*%
%ADD19C,1.700000*%
%TD*%
%TA.AperFunction,ComponentPad*%
%ADD20RoundRect,0.250000X-0.350000X-0.625000X0.350000X-0.625000X0.350000X0.625000X-0.350000X0.625000X0*%
%TD*%
%TA.AperFunction,ComponentPad*%
%ADD21O,1.200000X1.750000*%
%TD*%
G04 APERTURE END LIST*
D10*
%TO.P,J2,1,Pin_1*%
%TO.N,GND*%
X146150000Y-139650000D03*
D11*
%TO.P,J2,2,Pin_2*%
%TO.N,/Pico-RX_STM32-TX*%
X143650000Y-139650000D03*
%TO.P,J2,3,Pin_3*%
%TO.N,/Pico-TX_STM32-RX*%
X141150000Y-139650000D03*
%TO.P,J2,4,Pin_4*%
%TO.N,+5V*%
X138650000Y-139650000D03*
%TD*%
D12*
%TO.P,JP2,1,A*%
%TO.N,+5V*%
X133322400Y-140762000D03*
D13*
%TO.P,JP2,2,C*%
%TO.N,/VCC*%
X133322400Y-143302000D03*
%TO.P,JP2,3,B*%
%TO.N,/3V3*%
X133322400Y-145842000D03*
%TD*%
D14*
%TO.P,J6_STOP2,1,Pin_1*%
%TO.N,GND*%
X64585000Y-116520000D03*
D15*
%TO.P,J6_STOP2,2,Pin_2*%
%TO.N,/JP6-2 STOP2*%
X64585000Y-114020000D03*
%TD*%
D16*
%TO.P,J12,1,Pin_1*%
%TO.N,GND*%
X68590000Y-125550000D03*
D17*
%TO.P,J12,2,Pin_2*%
%TO.N,/JP5-2 STOP1*%
X68590000Y-123550000D03*
%TD*%
D12*
%TO.P,JP1,1,A*%
%TO.N,/3V3*%
X88190000Y-133560000D03*
D13*
%TO.P,JP1,2,C*%
%TO.N,/VCC*%
X90730000Y-133560000D03*
%TO.P,JP1,3,B*%
%TO.N,+5V*%
X93270000Y-133560000D03*
%TD*%
D12*
%TO.P,J5,1,Pin_1*%
%TO.N,+5V*%
X53120000Y-130570000D03*
D13*
%TO.P,J5,2,Pin_2*%
X53120000Y-128030000D03*
%TO.P,J5,3,Pin_3*%
X53120000Y-125490000D03*
%TD*%
D14*
%TO.P,J5_STOP1,1,Pin_1*%
%TO.N,GND*%
X64700000Y-125170000D03*
D15*
%TO.P,J5_STOP1,2,Pin_2*%
%TO.N,/JP5-2 STOP1*%
X64700000Y-122670000D03*
%TD*%
D12*
%TO.P,J8,1,Pin_1*%
%TO.N,GND*%
X120000000Y-128740000D03*
D13*
%TO.P,J8,2,Pin_2*%
X122540000Y-128740000D03*
%TO.P,J8,3,Pin_3*%
X125080000Y-128740000D03*
%TD*%
D12*
%TO.P,J3,1,Pin_1*%
%TO.N,Net-(J3-Pin_1)*%
X144520000Y-120310000D03*
D13*
%TO.P,J3,2,Pin_2*%
%TO.N,/LED1 - D1*%
X141980000Y-120310000D03*
%TO.P,J3,3,Pin_3*%
%TO.N,/LED3 - D3*%
X139440000Y-120310000D03*
%TO.P,J3,4,Pin_4*%
%TO.N,/LED2 - D2*%
X136900000Y-120310000D03*
%TO.P,J3,5,Pin_5*%
%TO.N,Net-(J3-Pin_5)*%
X134360000Y-120310000D03*
%TO.P,J3,6,Pin_6*%
%TO.N,/LED5 - D5*%
X131820000Y-120310000D03*
%TO.P,J3,7,Pin_7*%
%TO.N,/LED4 - D4*%
X129280000Y-120310000D03*
%TO.P,J3,8,Pin_8*%
%TO.N,/Pico-RX_STM32-TX*%
X126740000Y-120310000D03*
%TO.P,J3,9,Pin_9*%
%TO.N,/Pico-TX_STM32-RX*%
X124200000Y-120310000D03*
%TO.P,J3,10,Pin_10*%
%TO.N,/LED6 - D6*%
X121660000Y-120310000D03*
%TO.P,J3,11,Pin_11*%
%TO.N,/LED7 - D7*%
X119120000Y-120310000D03*
%TO.P,J3,12,Pin_12*%
%TO.N,/S3 (button)*%
X116580000Y-120310000D03*
%TO.P,J3,13,Pin_13*%
%TO.N,/LED8 - D8*%
X114040000Y-120310000D03*
%TO.P,J3,14,Pin_14*%
%TO.N,/S5 (button)*%
X111500000Y-120310000D03*
%TO.P,J3,15,Pin_15*%
%TO.N,/RAIN*%
X108960000Y-120310000D03*
%TO.P,J3,16,Pin_16*%
%TO.N,/LED10 - D10*%
X106420000Y-120310000D03*
%TO.P,J3,17,Pin_17*%
%TO.N,/LED11 - D11 (S2 LED)*%
X103880000Y-120310000D03*
%TO.P,J3,18,Pin_18*%
%TO.N,/3V3*%
X101340000Y-120310000D03*
%TO.P,J3,19,Pin_19*%
%TO.N,GND*%
X98800000Y-120310000D03*
%TO.P,J3,20,Pin_20*%
%TO.N,+5V*%
X96260000Y-120310000D03*
%TD*%
D16*
%TO.P,J13,1,Pin_1*%
%TO.N,GND*%
X68450000Y-116800000D03*
D17*
%TO.P,J13,2,Pin_2*%
%TO.N,/JP6-2 STOP2*%
X68450000Y-114800000D03*
%TD*%
D12*
%TO.P,J1,1,Pin_1*%
%TO.N,GND*%
X114820000Y-141360000D03*
D13*
%TO.P,J1,2,Pin_2*%
%TO.N,/VCC*%
X114820000Y-143900000D03*
%TO.P,J1,3,Pin_3*%
%TO.N,/LED1 - D1*%
X112280000Y-141360000D03*
%TO.P,J1,4,Pin_4*%
%TO.N,unconnected-(J1-Pin_4-Pad4)*%
X112280000Y-143900000D03*
%TO.P,J1,5,Pin_5*%
%TO.N,/LED2 - D2*%
X109740000Y-141360000D03*
%TO.P,J1,6,Pin_6*%
%TO.N,/LED3 - D3*%
X109740000Y-143900000D03*
%TO.P,J1,7,Pin_7*%
%TO.N,/LED4 - D4*%
X107200000Y-141360000D03*
%TO.P,J1,8,Pin_8*%
%TO.N,/LED5 - D5*%
X107200000Y-143900000D03*
%TO.P,J1,9,Pin_9*%
%TO.N,/S2 (button)*%
X104660000Y-141360000D03*
%TO.P,J1,10,Pin_10*%
%TO.N,/LED6 - D6*%
X104660000Y-143900000D03*
%TO.P,J1,11,Pin_11*%
%TO.N,/S3 (button)*%
X102120000Y-141360000D03*
%TO.P,J1,12,Pin_12*%
%TO.N,/LED7 - D7*%
X102120000Y-143900000D03*
%TO.P,J1,13,Pin_13*%
%TO.N,/S5 (button)*%
X99580000Y-141360000D03*
%TO.P,J1,14,Pin_14*%
%TO.N,/LED8 - D8*%
X99580000Y-143900000D03*
%TO.P,J1,15,Pin_15*%
%TO.N,/LED10 - D10*%
X97040000Y-141360000D03*
%TO.P,J1,16,Pin_16*%
%TO.N,/LED9 - D9*%
X97040000Y-143900000D03*
%TO.P,J1,17,Pin_17*%
%TO.N,/LED11 - D11 (S2 LED)*%
X94500000Y-141360000D03*
%TO.P,J1,18,Pin_18*%
%TO.N,unconnected-(J1-Pin_18-Pad18)*%
X94500000Y-143900000D03*
%TO.P,J1,19,Pin_19*%
%TO.N,unconnected-(J1-Pin_19-Pad19)*%
X91960000Y-141360000D03*
%TO.P,J1,20,Pin_20*%
%TO.N,unconnected-(J1-Pin_20-Pad20)*%
X91960000Y-143900000D03*
%TO.P,J1,21,Pin_21*%
%TO.N,GND*%
X89420000Y-141360000D03*
%TO.P,J1,22,Pin_22*%
%TO.N,/S1 (button)*%
X89420000Y-143900000D03*
%TO.P,J1,23,Pin_23*%
%TO.N,/VCC*%
X86880000Y-141360000D03*
%TO.P,J1,24,Pin_24*%
%TO.N,unconnected-(J1-Pin_24-Pad24)*%
X86880000Y-143900000D03*
%TO.P,J1,25,Pin_25*%
%TO.N,/S7 (button)*%
X84340000Y-141360000D03*
%TO.P,J1,26,Pin_26*%
%TO.N,unconnected-(J1-Pin_26-Pad26)*%
X84340000Y-143900000D03*
%TO.P,J1,27,Pin_27*%
%TO.N,/S9 (button)*%
X81800000Y-141360000D03*
%TO.P,J1,28,Pin_28*%
%TO.N,/S8 (button)*%
X81800000Y-143900000D03*
%TO.P,J1,29,Pin_29*%
%TO.N,/S4 (button)*%
X79260000Y-141360000D03*
%TO.P,J1,30,Pin_30*%
%TO.N,/JP5-2 STOP1*%
X79260000Y-143900000D03*
%TO.P,J1,31,Pin_31*%
%TO.N,/S6 (button)*%
X76720000Y-141360000D03*
%TO.P,J1,32,Pin_32*%
%TO.N,unconnected-(J1-Pin_32-Pad32)*%
X76720000Y-143900000D03*
%TO.P,J1,33,Pin_33*%
%TO.N,unconnected-(J1-Pin_33-Pad33)*%
X74180000Y-141360000D03*
%TO.P,J1,34,Pin_34*%
%TO.N,/JP1-10 LiftX*%
X74180000Y-143900000D03*
%TO.P,J1,35,Pin_35*%
%TO.N,unconnected-(J1-Pin_35-Pad35)*%
X71640000Y-141360000D03*
%TO.P,J1,36,Pin_36*%
%TO.N,/JP1-7 Left Bumper*%
X71640000Y-143900000D03*
%TO.P,J1,37,Pin_37*%
%TO.N,unconnected-(J1-Pin_37-Pad37)*%
X69100000Y-141360000D03*
%TO.P,J1,38,Pin_38*%
%TO.N,/JP6-2 STOP2*%
X69100000Y-143900000D03*
%TO.P,J1,39,Pin_39*%
%TO.N,/JP1-1 Right Bumper*%
X66560000Y-141360000D03*
%TO.P,J1,40,Pin_40*%
%TO.N,/JP1-4 Lift*%
X66560000Y-143900000D03*
%TD*%
D12*
%TO.P,J4,1,Pin_1*%
%TO.N,Net-(J4-Pin_1)*%
X85370000Y-103260000D03*
%TD*%
%TO.P,J6,1,Pin_1*%
%TO.N,/3V3*%
X88190000Y-129400000D03*
D13*
%TO.P,J6,2,Pin_2*%
X90730000Y-129400000D03*
%TO.P,J6,3,Pin_3*%
X93270000Y-129400000D03*
%TD*%
D18*
%TO.P,J11,1,Pin_1*%
%TO.N,+5V*%
X53750000Y-101525000D03*
D11*
%TO.P,J11,2,Pin_2*%
%TO.N,GND*%
X56250000Y-101525000D03*
%TO.P,J11,3,Pin_3*%
%TO.N,/SOUT_5V*%
X58750000Y-101525000D03*
%TO.P,J11,4,Pin_4*%
%TO.N,/S1_5V*%
X61250000Y-101525000D03*
%TO.P,J11,5,Pin_5*%
%TO.N,/S2_5V*%
X63750000Y-101525000D03*
%TO.P,J11,6,Pin_6*%
%TO.N,/GAIN*%
X66250000Y-101525000D03*
%TO.P,J11,7,Pin_7*%
%TO.N,/RAIN_5V*%
X68750000Y-101525000D03*
%TO.P,J11,8,Pin_8*%
%TO.N,/ESTOP1*%
X71250000Y-101525000D03*
%TO.P,J11,9,Pin_9*%
%TO.N,/ESTOP2*%
X73750000Y-101525000D03*
%TD*%
D12*
%TO.P,U1,1,PB12*%
%TO.N,/ESTOP1*%
X96260000Y-100050000D03*
D19*
%TO.P,U1,2,PB13*%
%TO.N,/ESTOP2*%
X98800000Y-100050000D03*
%TO.P,U1,3,PB14*%
%TO.N,/JP1-4 Lift*%
X101340000Y-100050000D03*
%TO.P,U1,4,PB15*%
%TO.N,/JP1-1 Right Bumper*%
X103880000Y-100050000D03*
%TO.P,U1,5,PA8*%
%TO.N,/JP6-2 STOP2*%
X106420000Y-100050000D03*
%TO.P,U1,6,PA9*%
%TO.N,/JP5-2 STOP1*%
X108960000Y-100050000D03*
%TO.P,U1,7,PA10*%
%TO.N,/JP1-10 LiftX*%
X111500000Y-100050000D03*
%TO.P,U1,8,PA11*%
%TO.N,/S6 (button)*%
X114040000Y-100050000D03*
%TO.P,U1,9,PA12*%
%TO.N,/JP1-7 Left Bumper*%
X116580000Y-100050000D03*
%TO.P,U1,10,PA15*%
%TO.N,/S4 (button)*%
X119120000Y-100050000D03*
%TO.P,U1,11,PB3*%
%TO.N,Net-(J4-Pin_1)*%
X121660000Y-100050000D03*
%TO.P,U1,12,PB4*%
%TO.N,/S9 (button)*%
X124200000Y-100050000D03*
%TO.P,U1,13,PB5*%
%TO.N,/S8 (button)*%
X126740000Y-100050000D03*
%TO.P,U1,14,PB6*%
%TO.N,/S7 (button)*%
X129280000Y-100050000D03*
%TO.P,U1,15,PB7*%
%TO.N,/S1 (button)*%
X131820000Y-100050000D03*
%TO.P,U1,16,PB8*%
%TO.N,/LED9 - D9*%
X134360000Y-100050000D03*
%TO.P,U1,17,PB9*%
%TO.N,/S2 (button)*%
X136900000Y-100050000D03*
%TO.P,U1,18,5V*%
%TO.N,+5V*%
X139440000Y-100050000D03*
%TO.P,U1,19,GND*%
%TO.N,GND*%
X141980000Y-100050000D03*
%TO.P,U1,20,3V3*%
%TO.N,/3V3*%
X144520000Y-100050000D03*
%TO.P,U1,21,VBat*%
%TO.N,Net-(J3-Pin_1)*%
X144520000Y-115290000D03*
%TO.P,U1,22,PC13*%
%TO.N,/LED1 - D1*%
X141980000Y-115290000D03*
%TO.P,U1,23,PC14*%
%TO.N,/LED3 - D3*%
X139440000Y-115290000D03*
%TO.P,U1,24,PC15*%
%TO.N,/LED2 - D2*%
X136900000Y-115290000D03*
%TO.P,U1,25,RST*%
%TO.N,Net-(J3-Pin_5)*%
X134360000Y-115290000D03*
%TO.P,U1,26,PA0*%
%TO.N,/LED5 - D5*%
X131820000Y-115290000D03*
%TO.P,U1,27,PA1*%
%TO.N,/LED4 - D4*%
X129280000Y-115290000D03*
%TO.P,U1,28,PA2*%
%TO.N,/Pico-RX_STM32-TX*%
X126740000Y-115290000D03*
%TO.P,U1,29,PA3*%
%TO.N,/Pico-TX_STM32-RX*%
X124200000Y-115290000D03*
%TO.P,U1,30,PA4*%
%TO.N,/LED6 - D6*%
X121660000Y-115290000D03*
%TO.P,U1,31,PA5*%
%TO.N,/LED7 - D7*%
X119120000Y-115290000D03*
%TO.P,U1,32,PA6*%
%TO.N,/S3 (button)*%
X116580000Y-115290000D03*
%TO.P,U1,33,PA7*%
%TO.N,/LED8 - D8*%
X114040000Y-115290000D03*
%TO.P,U1,34,PB0*%
%TO.N,/S5 (button)*%
X111500000Y-115290000D03*
%TO.P,U1,35,PB1*%
%TO.N,/RAIN*%
X108960000Y-115290000D03*
%TO.P,U1,36,PB2*%
%TO.N,/LED10 - D10*%
X106420000Y-115290000D03*
%TO.P,U1,37,PB10*%
%TO.N,/LED11 - D11 (S2 LED)*%
X103880000Y-115290000D03*
%TO.P,U1,38,3V3*%
%TO.N,/3V3*%
X101340000Y-115290000D03*
%TO.P,U1,39,GND*%
%TO.N,GND*%
X98800000Y-115290000D03*
%TO.P,U1,40,5V*%
%TO.N,+5V*%
X96260000Y-115290000D03*
%TO.P,U1,41,GND*%
%TO.N,GND*%
X140709000Y-111482000D03*
%TO.P,U1,42,SWDIO*%
%TO.N,unconnected-(U1-SWDIO-Pad42)*%
X140709000Y-108942000D03*
%TO.P,U1,43,SWDCLK*%
%TO.N,unconnected-(U1-SWDCLK-Pad43)*%
X140709000Y-106402000D03*
%TO.P,U1,44,3V3*%
%TO.N,unconnected-(U1-3V3-Pad44)*%
X140709000Y-103862000D03*
%TD*%
D20*
%TO.P,J10,1,Pin_1*%
%TO.N,+5V*%
X56320000Y-98560000D03*
D21*
%TO.P,J10,2,Pin_2*%
%TO.N,GND*%
X58320000Y-98560000D03*
%TO.P,J10,3,Pin_3*%
%TO.N,/SOUT_5V*%
X60320000Y-98560000D03*
%TO.P,J10,4,Pin_4*%
%TO.N,/S1_5V*%
X62320000Y-98560000D03*
%TO.P,J10,5,Pin_5*%
%TO.N,/S2_5V*%
X64320000Y-98560000D03*
%TO.P,J10,6,Pin_6*%
%TO.N,/GAIN*%
X66320000Y-98560000D03*
%TO.P,J10,7,Pin_7*%
%TO.N,/RAIN_5V*%
X68320000Y-98560000D03*
%TO.P,J10,8,Pin_8*%
%TO.N,/ESTOP1*%
X70320000Y-98560000D03*
%TO.P,J10,9,Pin_9*%
%TO.N,/ESTOP2*%
X72320000Y-98560000D03*
%TD*%
M02*
