%TF.GenerationSoftware,KiCad,Pcbnew,9.0.1*%
%TF.CreationDate,2025-05-26T12:01:48+02:00*%
%TF.ProjectId,Legacy-LedPanel-HAT,4c656761-6379-42d4-9c65-6450616e656c,rev?*%
%TF.SameCoordinates,Original*%
%TF.FileFunction,Paste,Top*%
%TF.FilePolarity,Positive*%
%FSLAX46Y46*%
G04 Gerber Fmt 4.6, Leading zero omitted, Abs format (unit mm)*
G04 Created by KiCad (PCBNEW 9.0.1) date 2025-05-26 12:01:48*
%MOMM*%
%LPD*%
G01*
G04 APERTURE LIST*
G04 Aperture macros list*
%AMRoundRect*
0 Rectangle with rounded corners*
0 $1 Rounding radius*
0 $2 $3 $4 $5 $6 $7 $8 $9 X,Y pos of 4 corners*
0 Add a 4 corners polygon primitive as box body*
4,1,4,$2,$3,$4,$5,$6,$7,$8,$9,$2,$3,0*
0 Add four circle primitives for the rounded corners*
1,1,$1+$1,$2,$3*
1,1,$1+$1,$4,$5*
1,1,$1+$1,$6,$7*
1,1,$1+$1,$8,$9*
0 Add four rect primitives between the rounded corners*
20,1,$1+$1,$2,$3,$4,$5,0*
20,1,$1+$1,$4,$5,$6,$7,0*
20,1,$1+$1,$6,$7,$8,$9,0*
20,1,$1+$1,$8,$9,$2,$3,0*%
G04 Aperture macros list end*
%ADD10C,0.150000*%
%ADD11RoundRect,0.250000X1.450000X-0.312500X1.450000X0.312500X-1.450000X0.312500X-1.450000X-0.312500X0*%
%ADD12RoundRect,0.250000X1.450000X-0.400000X1.450000X0.400000X-1.450000X0.400000X-1.450000X-0.400000X0*%
%ADD13RoundRect,0.249999X1.450001X-0.450001X1.450001X0.450001X-1.450001X0.450001X-1.450001X-0.450001X0*%
G04 APERTURE END LIST*
D10*
X138886314Y-147285019D02*
X139076790Y-147285019D01*
X139076790Y-147285019D02*
X139172028Y-147332638D01*
X139172028Y-147332638D02*
X139267266Y-147427876D01*
X139267266Y-147427876D02*
X139314885Y-147618352D01*
X139314885Y-147618352D02*
X139314885Y-147951685D01*
X139314885Y-147951685D02*
X139267266Y-148142161D01*
X139267266Y-148142161D02*
X139172028Y-148237400D01*
X139172028Y-148237400D02*
X139076790Y-148285019D01*
X139076790Y-148285019D02*
X138886314Y-148285019D01*
X138886314Y-148285019D02*
X138791076Y-148237400D01*
X138791076Y-148237400D02*
X138695838Y-148142161D01*
X138695838Y-148142161D02*
X138648219Y-147951685D01*
X138648219Y-147951685D02*
X138648219Y-147618352D01*
X138648219Y-147618352D02*
X138695838Y-147427876D01*
X138695838Y-147427876D02*
X138791076Y-147332638D01*
X138791076Y-147332638D02*
X138886314Y-147285019D01*
X139743457Y-148285019D02*
X139743457Y-147285019D01*
X139743457Y-147285019D02*
X140076790Y-147999304D01*
X140076790Y-147999304D02*
X140410123Y-147285019D01*
X140410123Y-147285019D02*
X140410123Y-148285019D01*
X140648219Y-148380257D02*
X141410123Y-148380257D01*
X141600600Y-148237400D02*
X141743457Y-148285019D01*
X141743457Y-148285019D02*
X141981552Y-148285019D01*
X141981552Y-148285019D02*
X142076790Y-148237400D01*
X142076790Y-148237400D02*
X142124409Y-148189780D01*
X142124409Y-148189780D02*
X142172028Y-148094542D01*
X142172028Y-148094542D02*
X142172028Y-147999304D01*
X142172028Y-147999304D02*
X142124409Y-147904066D01*
X142124409Y-147904066D02*
X142076790Y-147856447D01*
X142076790Y-147856447D02*
X141981552Y-147808828D01*
X141981552Y-147808828D02*
X141791076Y-147761209D01*
X141791076Y-147761209D02*
X141695838Y-147713590D01*
X141695838Y-147713590D02*
X141648219Y-147665971D01*
X141648219Y-147665971D02*
X141600600Y-147570733D01*
X141600600Y-147570733D02*
X141600600Y-147475495D01*
X141600600Y-147475495D02*
X141648219Y-147380257D01*
X141648219Y-147380257D02*
X141695838Y-147332638D01*
X141695838Y-147332638D02*
X141791076Y-147285019D01*
X141791076Y-147285019D02*
X142029171Y-147285019D01*
X142029171Y-147285019D02*
X142172028Y-147332638D01*
X142981552Y-148237400D02*
X142886314Y-148285019D01*
X142886314Y-148285019D02*
X142695838Y-148285019D01*
X142695838Y-148285019D02*
X142600600Y-148237400D01*
X142600600Y-148237400D02*
X142552981Y-148142161D01*
X142552981Y-148142161D02*
X142552981Y-147761209D01*
X142552981Y-147761209D02*
X142600600Y-147665971D01*
X142600600Y-147665971D02*
X142695838Y-147618352D01*
X142695838Y-147618352D02*
X142886314Y-147618352D01*
X142886314Y-147618352D02*
X142981552Y-147665971D01*
X142981552Y-147665971D02*
X143029171Y-147761209D01*
X143029171Y-147761209D02*
X143029171Y-147856447D01*
X143029171Y-147856447D02*
X142552981Y-147951685D01*
X143457743Y-148285019D02*
X143457743Y-147618352D01*
X143457743Y-147808828D02*
X143505362Y-147713590D01*
X143505362Y-147713590D02*
X143552981Y-147665971D01*
X143552981Y-147665971D02*
X143648219Y-147618352D01*
X143648219Y-147618352D02*
X143743457Y-147618352D01*
X144076791Y-148285019D02*
X144076791Y-147618352D01*
X144076791Y-147285019D02*
X144029172Y-147332638D01*
X144029172Y-147332638D02*
X144076791Y-147380257D01*
X144076791Y-147380257D02*
X144124410Y-147332638D01*
X144124410Y-147332638D02*
X144076791Y-147285019D01*
X144076791Y-147285019D02*
X144076791Y-147380257D01*
X144981552Y-148285019D02*
X144981552Y-147761209D01*
X144981552Y-147761209D02*
X144933933Y-147665971D01*
X144933933Y-147665971D02*
X144838695Y-147618352D01*
X144838695Y-147618352D02*
X144648219Y-147618352D01*
X144648219Y-147618352D02*
X144552981Y-147665971D01*
X144981552Y-148237400D02*
X144886314Y-148285019D01*
X144886314Y-148285019D02*
X144648219Y-148285019D01*
X144648219Y-148285019D02*
X144552981Y-148237400D01*
X144552981Y-148237400D02*
X144505362Y-148142161D01*
X144505362Y-148142161D02*
X144505362Y-148046923D01*
X144505362Y-148046923D02*
X144552981Y-147951685D01*
X144552981Y-147951685D02*
X144648219Y-147904066D01*
X144648219Y-147904066D02*
X144886314Y-147904066D01*
X144886314Y-147904066D02*
X144981552Y-147856447D01*
X145600600Y-148285019D02*
X145505362Y-148237400D01*
X145505362Y-148237400D02*
X145457743Y-148142161D01*
X145457743Y-148142161D02*
X145457743Y-147285019D01*
D11*
%TO.C,D1*%
X85490000Y-96190000D03*
X85490000Y-100465000D03*
%TD*%
D12*
%TO.C,R1*%
X89980000Y-100470000D03*
X89980000Y-96020000D03*
%TD*%
D13*
%TO.C,C1*%
X81240000Y-100290000D03*
X81240000Y-96190000D03*
%TD*%
M02*
