%TF.GenerationSoftware,KiCad,Pcbnew,9.0.1*%
%TF.CreationDate,2025-05-26T12:01:48+02:00*%
%TF.ProjectId,Legacy-LedPanel-HAT,4c656761-6379-42d4-9c65-6450616e656c,rev?*%
%TF.SameCoordinates,Original*%
%TF.FileFunction,Soldermask,Bot*%
%TF.FilePolarity,Negative*%
%FSLAX46Y46*%
G04 Gerber Fmt 4.6, Leading zero omitted, Abs format (unit mm)*
G04 Created by KiCad (PCBNEW 9.0.1) date 2025-05-26 12:01:48*
%MOMM*%
%LPD*%
G01*
G04 APERTURE LIST*
G04 Aperture macros list*
%AMRoundRect*
0 Rectangle with rounded corners*
0 $1 Rounding radius*
0 $2 $3 $4 $5 $6 $7 $8 $9 X,Y pos of 4 corners*
0 Add a 4 corners polygon primitive as box body*
4,1,4,$2,$3,$4,$5,$6,$7,$8,$9,$2,$3,0*
0 Add four circle primitives for the rounded corners*
1,1,$1+$1,$2,$3*
1,1,$1+$1,$4,$5*
1,1,$1+$1,$6,$7*
1,1,$1+$1,$8,$9*
0 Add four rect primitives between the rounded corners*
20,1,$1+$1,$2,$3,$4,$5,0*
20,1,$1+$1,$4,$5,$6,$7,0*
20,1,$1+$1,$6,$7,$8,$9,0*
20,1,$1+$1,$8,$9,$2,$3,0*%
G04 Aperture macros list end*
%ADD10RoundRect,0.250000X0.600000X0.725000X-0.600000X0.725000X-0.600000X-0.725000X0.600000X-0.725000X0*%
%ADD11O,1.700000X1.950000*%
%ADD12R,1.700000X1.700000*%
%ADD13O,1.700000X1.700000*%
%ADD14RoundRect,0.250000X0.750000X-0.600000X0.750000X0.600000X-0.750000X0.600000X-0.750000X-0.600000X0*%
%ADD15O,2.000000X1.700000*%
%ADD16RoundRect,0.250000X0.625000X-0.350000X0.625000X0.350000X-0.625000X0.350000X-0.625000X-0.350000X0*%
%ADD17O,1.750000X1.200000*%
%ADD18RoundRect,0.250000X-0.600000X-0.725000X0.600000X-0.725000X0.600000X0.725000X-0.600000X0.725000X0*%
%ADD19C,1.700000*%
%ADD20RoundRect,0.250000X-0.350000X-0.625000X0.350000X-0.625000X0.350000X0.625000X-0.350000X0.625000X0*%
%ADD21O,1.200000X1.750000*%
G04 APERTURE END LIST*
D10*
%TO.C,J2*%
X146150000Y-139650000D03*
D11*
X143650000Y-139650000D03*
X141150000Y-139650000D03*
X138650000Y-139650000D03*
%TD*%
D12*
%TO.C,JP2*%
X133322400Y-140762000D03*
D13*
X133322400Y-143302000D03*
X133322400Y-145842000D03*
%TD*%
D14*
%TO.C,J6_STOP2*%
X64585000Y-116520000D03*
D15*
X64585000Y-114020000D03*
%TD*%
D16*
%TO.C,J12*%
X68590000Y-125550000D03*
D17*
X68590000Y-123550000D03*
%TD*%
D12*
%TO.C,JP1*%
X88190000Y-133560000D03*
D13*
X90730000Y-133560000D03*
X93270000Y-133560000D03*
%TD*%
D12*
%TO.C,J5*%
X53120000Y-130570000D03*
D13*
X53120000Y-128030000D03*
X53120000Y-125490000D03*
%TD*%
D14*
%TO.C,J5_STOP1*%
X64700000Y-125170000D03*
D15*
X64700000Y-122670000D03*
%TD*%
D12*
%TO.C,J8*%
X120000000Y-128740000D03*
D13*
X122540000Y-128740000D03*
X125080000Y-128740000D03*
%TD*%
D12*
%TO.C,J3*%
X144520000Y-120310000D03*
D13*
X141980000Y-120310000D03*
X139440000Y-120310000D03*
X136900000Y-120310000D03*
X134360000Y-120310000D03*
X131820000Y-120310000D03*
X129280000Y-120310000D03*
X126740000Y-120310000D03*
X124200000Y-120310000D03*
X121660000Y-120310000D03*
X119120000Y-120310000D03*
X116580000Y-120310000D03*
X114040000Y-120310000D03*
X111500000Y-120310000D03*
X108960000Y-120310000D03*
X106420000Y-120310000D03*
X103880000Y-120310000D03*
X101340000Y-120310000D03*
X98800000Y-120310000D03*
X96260000Y-120310000D03*
%TD*%
D16*
%TO.C,J13*%
X68450000Y-116800000D03*
D17*
X68450000Y-114800000D03*
%TD*%
D12*
%TO.C,J1*%
X114820000Y-141360000D03*
D13*
X114820000Y-143900000D03*
X112280000Y-141360000D03*
X112280000Y-143900000D03*
X109740000Y-141360000D03*
X109740000Y-143900000D03*
X107200000Y-141360000D03*
X107200000Y-143900000D03*
X104660000Y-141360000D03*
X104660000Y-143900000D03*
X102120000Y-141360000D03*
X102120000Y-143900000D03*
X99580000Y-141360000D03*
X99580000Y-143900000D03*
X97040000Y-141360000D03*
X97040000Y-143900000D03*
X94500000Y-141360000D03*
X94500000Y-143900000D03*
X91960000Y-141360000D03*
X91960000Y-143900000D03*
X89420000Y-141360000D03*
X89420000Y-143900000D03*
X86880000Y-141360000D03*
X86880000Y-143900000D03*
X84340000Y-141360000D03*
X84340000Y-143900000D03*
X81800000Y-141360000D03*
X81800000Y-143900000D03*
X79260000Y-141360000D03*
X79260000Y-143900000D03*
X76720000Y-141360000D03*
X76720000Y-143900000D03*
X74180000Y-141360000D03*
X74180000Y-143900000D03*
X71640000Y-141360000D03*
X71640000Y-143900000D03*
X69100000Y-141360000D03*
X69100000Y-143900000D03*
X66560000Y-141360000D03*
X66560000Y-143900000D03*
%TD*%
D12*
%TO.C,J4*%
X85370000Y-103260000D03*
%TD*%
%TO.C,J6*%
X88190000Y-129400000D03*
D13*
X90730000Y-129400000D03*
X93270000Y-129400000D03*
%TD*%
D18*
%TO.C,J11*%
X53750000Y-101525000D03*
D11*
X56250000Y-101525000D03*
X58750000Y-101525000D03*
X61250000Y-101525000D03*
X63750000Y-101525000D03*
X66250000Y-101525000D03*
X68750000Y-101525000D03*
X71250000Y-101525000D03*
X73750000Y-101525000D03*
%TD*%
D12*
%TO.C,U1*%
X96260000Y-100050000D03*
D19*
X98800000Y-100050000D03*
X101340000Y-100050000D03*
X103880000Y-100050000D03*
X106420000Y-100050000D03*
X108960000Y-100050000D03*
X111500000Y-100050000D03*
X114040000Y-100050000D03*
X116580000Y-100050000D03*
X119120000Y-100050000D03*
X121660000Y-100050000D03*
X124200000Y-100050000D03*
X126740000Y-100050000D03*
X129280000Y-100050000D03*
X131820000Y-100050000D03*
X134360000Y-100050000D03*
X136900000Y-100050000D03*
X139440000Y-100050000D03*
X141980000Y-100050000D03*
X144520000Y-100050000D03*
X144520000Y-115290000D03*
X141980000Y-115290000D03*
X139440000Y-115290000D03*
X136900000Y-115290000D03*
X134360000Y-115290000D03*
X131820000Y-115290000D03*
X129280000Y-115290000D03*
X126740000Y-115290000D03*
X124200000Y-115290000D03*
X121660000Y-115290000D03*
X119120000Y-115290000D03*
X116580000Y-115290000D03*
X114040000Y-115290000D03*
X111500000Y-115290000D03*
X108960000Y-115290000D03*
X106420000Y-115290000D03*
X103880000Y-115290000D03*
X101340000Y-115290000D03*
X98800000Y-115290000D03*
X96260000Y-115290000D03*
X140709000Y-111482000D03*
X140709000Y-108942000D03*
X140709000Y-106402000D03*
X140709000Y-103862000D03*
%TD*%
D20*
%TO.C,J10*%
X56320000Y-98560000D03*
D21*
X58320000Y-98560000D03*
X60320000Y-98560000D03*
X62320000Y-98560000D03*
X64320000Y-98560000D03*
X66320000Y-98560000D03*
X68320000Y-98560000D03*
X70320000Y-98560000D03*
X72320000Y-98560000D03*
%TD*%
M02*
