%TF.GenerationSoftware,KiCad,Pcbnew,7.0.10*%
%TF.CreationDate,2024-02-26T10:06:05+01:00*%
%TF.ProjectId,Legacy-LedPanel-HAT,4c656761-6379-42d4-9c65-6450616e656c,rev?*%
%TF.SameCoordinates,Original*%
%TF.FileFunction,Legend,Bot*%
%TF.FilePolarity,Positive*%
%FSLAX46Y46*%
G04 Gerber Fmt 4.6, Leading zero omitted, Abs format (unit mm)*
G04 Created by KiCad (PCBNEW 7.0.10) date 2024-02-26 10:06:05*
%MOMM*%
%LPD*%
G01*
G04 APERTURE LIST*
%ADD10C,0.150000*%
%ADD11C,0.120000*%
%ADD12C,0.100000*%
G04 APERTURE END LIST*
D10*
X100761285Y-75339819D02*
X100204142Y-75339819D01*
X100204142Y-75339819D02*
X100504142Y-75720771D01*
X100504142Y-75720771D02*
X100375571Y-75720771D01*
X100375571Y-75720771D02*
X100289857Y-75768390D01*
X100289857Y-75768390D02*
X100246999Y-75816009D01*
X100246999Y-75816009D02*
X100204142Y-75911247D01*
X100204142Y-75911247D02*
X100204142Y-76149342D01*
X100204142Y-76149342D02*
X100246999Y-76244580D01*
X100246999Y-76244580D02*
X100289857Y-76292200D01*
X100289857Y-76292200D02*
X100375571Y-76339819D01*
X100375571Y-76339819D02*
X100632714Y-76339819D01*
X100632714Y-76339819D02*
X100718428Y-76292200D01*
X100718428Y-76292200D02*
X100761285Y-76244580D01*
X99946999Y-75339819D02*
X99646999Y-76339819D01*
X99646999Y-76339819D02*
X99346999Y-75339819D01*
X99132713Y-75339819D02*
X98575570Y-75339819D01*
X98575570Y-75339819D02*
X98875570Y-75720771D01*
X98875570Y-75720771D02*
X98746999Y-75720771D01*
X98746999Y-75720771D02*
X98661285Y-75768390D01*
X98661285Y-75768390D02*
X98618427Y-75816009D01*
X98618427Y-75816009D02*
X98575570Y-75911247D01*
X98575570Y-75911247D02*
X98575570Y-76149342D01*
X98575570Y-76149342D02*
X98618427Y-76244580D01*
X98618427Y-76244580D02*
X98661285Y-76292200D01*
X98661285Y-76292200D02*
X98746999Y-76339819D01*
X98746999Y-76339819D02*
X99004142Y-76339819D01*
X99004142Y-76339819D02*
X99089856Y-76292200D01*
X99089856Y-76292200D02*
X99132713Y-76244580D01*
X142424286Y-125382800D02*
X142552858Y-125335180D01*
X142552858Y-125335180D02*
X142767143Y-125335180D01*
X142767143Y-125335180D02*
X142852858Y-125382800D01*
X142852858Y-125382800D02*
X142895715Y-125430419D01*
X142895715Y-125430419D02*
X142938572Y-125525657D01*
X142938572Y-125525657D02*
X142938572Y-125620895D01*
X142938572Y-125620895D02*
X142895715Y-125716133D01*
X142895715Y-125716133D02*
X142852858Y-125763752D01*
X142852858Y-125763752D02*
X142767143Y-125811371D01*
X142767143Y-125811371D02*
X142595715Y-125858990D01*
X142595715Y-125858990D02*
X142510000Y-125906609D01*
X142510000Y-125906609D02*
X142467143Y-125954228D01*
X142467143Y-125954228D02*
X142424286Y-126049466D01*
X142424286Y-126049466D02*
X142424286Y-126144704D01*
X142424286Y-126144704D02*
X142467143Y-126239942D01*
X142467143Y-126239942D02*
X142510000Y-126287561D01*
X142510000Y-126287561D02*
X142595715Y-126335180D01*
X142595715Y-126335180D02*
X142810000Y-126335180D01*
X142810000Y-126335180D02*
X142938572Y-126287561D01*
X143238572Y-126335180D02*
X143452858Y-125335180D01*
X143452858Y-125335180D02*
X143624286Y-126049466D01*
X143624286Y-126049466D02*
X143795715Y-125335180D01*
X143795715Y-125335180D02*
X144010001Y-126335180D01*
X144867143Y-125430419D02*
X144824286Y-125382800D01*
X144824286Y-125382800D02*
X144695714Y-125335180D01*
X144695714Y-125335180D02*
X144610000Y-125335180D01*
X144610000Y-125335180D02*
X144481429Y-125382800D01*
X144481429Y-125382800D02*
X144395714Y-125478038D01*
X144395714Y-125478038D02*
X144352857Y-125573276D01*
X144352857Y-125573276D02*
X144310000Y-125763752D01*
X144310000Y-125763752D02*
X144310000Y-125906609D01*
X144310000Y-125906609D02*
X144352857Y-126097085D01*
X144352857Y-126097085D02*
X144395714Y-126192323D01*
X144395714Y-126192323D02*
X144481429Y-126287561D01*
X144481429Y-126287561D02*
X144610000Y-126335180D01*
X144610000Y-126335180D02*
X144695714Y-126335180D01*
X144695714Y-126335180D02*
X144824286Y-126287561D01*
X144824286Y-126287561D02*
X144867143Y-126239942D01*
X145681429Y-125335180D02*
X145252857Y-125335180D01*
X145252857Y-125335180D02*
X145252857Y-126335180D01*
X145981428Y-125335180D02*
X145981428Y-126335180D01*
X146495714Y-125335180D02*
X146110000Y-125906609D01*
X146495714Y-126335180D02*
X145981428Y-125763752D01*
X142583714Y-121255180D02*
X143140857Y-121255180D01*
X143140857Y-121255180D02*
X142840857Y-120874228D01*
X142840857Y-120874228D02*
X142969428Y-120874228D01*
X142969428Y-120874228D02*
X143055143Y-120826609D01*
X143055143Y-120826609D02*
X143098000Y-120778990D01*
X143098000Y-120778990D02*
X143140857Y-120683752D01*
X143140857Y-120683752D02*
X143140857Y-120445657D01*
X143140857Y-120445657D02*
X143098000Y-120350419D01*
X143098000Y-120350419D02*
X143055143Y-120302800D01*
X143055143Y-120302800D02*
X142969428Y-120255180D01*
X142969428Y-120255180D02*
X142712285Y-120255180D01*
X142712285Y-120255180D02*
X142626571Y-120302800D01*
X142626571Y-120302800D02*
X142583714Y-120350419D01*
X143398000Y-121255180D02*
X143698000Y-120255180D01*
X143698000Y-120255180D02*
X143998000Y-121255180D01*
X144212286Y-121255180D02*
X144769429Y-121255180D01*
X144769429Y-121255180D02*
X144469429Y-120874228D01*
X144469429Y-120874228D02*
X144598000Y-120874228D01*
X144598000Y-120874228D02*
X144683715Y-120826609D01*
X144683715Y-120826609D02*
X144726572Y-120778990D01*
X144726572Y-120778990D02*
X144769429Y-120683752D01*
X144769429Y-120683752D02*
X144769429Y-120445657D01*
X144769429Y-120445657D02*
X144726572Y-120350419D01*
X144726572Y-120350419D02*
X144683715Y-120302800D01*
X144683715Y-120302800D02*
X144598000Y-120255180D01*
X144598000Y-120255180D02*
X144340857Y-120255180D01*
X144340857Y-120255180D02*
X144255143Y-120302800D01*
X144255143Y-120302800D02*
X144212286Y-120350419D01*
X142455143Y-122842800D02*
X142583715Y-122795180D01*
X142583715Y-122795180D02*
X142798000Y-122795180D01*
X142798000Y-122795180D02*
X142883715Y-122842800D01*
X142883715Y-122842800D02*
X142926572Y-122890419D01*
X142926572Y-122890419D02*
X142969429Y-122985657D01*
X142969429Y-122985657D02*
X142969429Y-123080895D01*
X142969429Y-123080895D02*
X142926572Y-123176133D01*
X142926572Y-123176133D02*
X142883715Y-123223752D01*
X142883715Y-123223752D02*
X142798000Y-123271371D01*
X142798000Y-123271371D02*
X142626572Y-123318990D01*
X142626572Y-123318990D02*
X142540857Y-123366609D01*
X142540857Y-123366609D02*
X142498000Y-123414228D01*
X142498000Y-123414228D02*
X142455143Y-123509466D01*
X142455143Y-123509466D02*
X142455143Y-123604704D01*
X142455143Y-123604704D02*
X142498000Y-123699942D01*
X142498000Y-123699942D02*
X142540857Y-123747561D01*
X142540857Y-123747561D02*
X142626572Y-123795180D01*
X142626572Y-123795180D02*
X142840857Y-123795180D01*
X142840857Y-123795180D02*
X142969429Y-123747561D01*
X143269429Y-123795180D02*
X143483715Y-122795180D01*
X143483715Y-122795180D02*
X143655143Y-123509466D01*
X143655143Y-123509466D02*
X143826572Y-122795180D01*
X143826572Y-122795180D02*
X144040858Y-123795180D01*
X144555143Y-123795180D02*
X144726571Y-123795180D01*
X144726571Y-123795180D02*
X144812286Y-123747561D01*
X144812286Y-123747561D02*
X144898000Y-123652323D01*
X144898000Y-123652323D02*
X144940857Y-123461847D01*
X144940857Y-123461847D02*
X144940857Y-123128514D01*
X144940857Y-123128514D02*
X144898000Y-122938038D01*
X144898000Y-122938038D02*
X144812286Y-122842800D01*
X144812286Y-122842800D02*
X144726571Y-122795180D01*
X144726571Y-122795180D02*
X144555143Y-122795180D01*
X144555143Y-122795180D02*
X144469429Y-122842800D01*
X144469429Y-122842800D02*
X144383714Y-122938038D01*
X144383714Y-122938038D02*
X144340857Y-123128514D01*
X144340857Y-123128514D02*
X144340857Y-123461847D01*
X144340857Y-123461847D02*
X144383714Y-123652323D01*
X144383714Y-123652323D02*
X144469429Y-123747561D01*
X144469429Y-123747561D02*
X144555143Y-123795180D01*
X143012286Y-128827561D02*
X142926572Y-128875180D01*
X142926572Y-128875180D02*
X142798000Y-128875180D01*
X142798000Y-128875180D02*
X142669429Y-128827561D01*
X142669429Y-128827561D02*
X142583714Y-128732323D01*
X142583714Y-128732323D02*
X142540857Y-128637085D01*
X142540857Y-128637085D02*
X142498000Y-128446609D01*
X142498000Y-128446609D02*
X142498000Y-128303752D01*
X142498000Y-128303752D02*
X142540857Y-128113276D01*
X142540857Y-128113276D02*
X142583714Y-128018038D01*
X142583714Y-128018038D02*
X142669429Y-127922800D01*
X142669429Y-127922800D02*
X142798000Y-127875180D01*
X142798000Y-127875180D02*
X142883714Y-127875180D01*
X142883714Y-127875180D02*
X143012286Y-127922800D01*
X143012286Y-127922800D02*
X143055143Y-127970419D01*
X143055143Y-127970419D02*
X143055143Y-128303752D01*
X143055143Y-128303752D02*
X142883714Y-128303752D01*
X143440857Y-127875180D02*
X143440857Y-128875180D01*
X143440857Y-128875180D02*
X143955143Y-127875180D01*
X143955143Y-127875180D02*
X143955143Y-128875180D01*
X144383714Y-127875180D02*
X144383714Y-128875180D01*
X144383714Y-128875180D02*
X144598000Y-128875180D01*
X144598000Y-128875180D02*
X144726571Y-128827561D01*
X144726571Y-128827561D02*
X144812286Y-128732323D01*
X144812286Y-128732323D02*
X144855143Y-128637085D01*
X144855143Y-128637085D02*
X144898000Y-128446609D01*
X144898000Y-128446609D02*
X144898000Y-128303752D01*
X144898000Y-128303752D02*
X144855143Y-128113276D01*
X144855143Y-128113276D02*
X144812286Y-128018038D01*
X144812286Y-128018038D02*
X144726571Y-127922800D01*
X144726571Y-127922800D02*
X144598000Y-127875180D01*
X144598000Y-127875180D02*
X144383714Y-127875180D01*
X142732733Y-135624619D02*
X142732733Y-136338904D01*
X142732733Y-136338904D02*
X142780352Y-136481761D01*
X142780352Y-136481761D02*
X142875590Y-136577000D01*
X142875590Y-136577000D02*
X143018447Y-136624619D01*
X143018447Y-136624619D02*
X143113685Y-136624619D01*
X142304161Y-135719857D02*
X142256542Y-135672238D01*
X142256542Y-135672238D02*
X142161304Y-135624619D01*
X142161304Y-135624619D02*
X141923209Y-135624619D01*
X141923209Y-135624619D02*
X141827971Y-135672238D01*
X141827971Y-135672238D02*
X141780352Y-135719857D01*
X141780352Y-135719857D02*
X141732733Y-135815095D01*
X141732733Y-135815095D02*
X141732733Y-135910333D01*
X141732733Y-135910333D02*
X141780352Y-136053190D01*
X141780352Y-136053190D02*
X142351780Y-136624619D01*
X142351780Y-136624619D02*
X141732733Y-136624619D01*
X144816123Y-107358619D02*
X144816123Y-108072904D01*
X144816123Y-108072904D02*
X144863742Y-108215761D01*
X144863742Y-108215761D02*
X144958980Y-108311000D01*
X144958980Y-108311000D02*
X145101837Y-108358619D01*
X145101837Y-108358619D02*
X145197075Y-108358619D01*
X143816123Y-108358619D02*
X144387551Y-108358619D01*
X144101837Y-108358619D02*
X144101837Y-107358619D01*
X144101837Y-107358619D02*
X144197075Y-107501476D01*
X144197075Y-107501476D02*
X144292313Y-107596714D01*
X144292313Y-107596714D02*
X144387551Y-107644333D01*
X142958980Y-107358619D02*
X143149456Y-107358619D01*
X143149456Y-107358619D02*
X143244694Y-107406238D01*
X143244694Y-107406238D02*
X143292313Y-107453857D01*
X143292313Y-107453857D02*
X143387551Y-107596714D01*
X143387551Y-107596714D02*
X143435170Y-107787190D01*
X143435170Y-107787190D02*
X143435170Y-108168142D01*
X143435170Y-108168142D02*
X143387551Y-108263380D01*
X143387551Y-108263380D02*
X143339932Y-108311000D01*
X143339932Y-108311000D02*
X143244694Y-108358619D01*
X143244694Y-108358619D02*
X143054218Y-108358619D01*
X143054218Y-108358619D02*
X142958980Y-108311000D01*
X142958980Y-108311000D02*
X142911361Y-108263380D01*
X142911361Y-108263380D02*
X142863742Y-108168142D01*
X142863742Y-108168142D02*
X142863742Y-107930047D01*
X142863742Y-107930047D02*
X142911361Y-107834809D01*
X142911361Y-107834809D02*
X142958980Y-107787190D01*
X142958980Y-107787190D02*
X143054218Y-107739571D01*
X143054218Y-107739571D02*
X143244694Y-107739571D01*
X143244694Y-107739571D02*
X143339932Y-107787190D01*
X143339932Y-107787190D02*
X143387551Y-107834809D01*
X143387551Y-107834809D02*
X143435170Y-107930047D01*
X100332713Y-79007438D02*
X100418428Y-78959819D01*
X100418428Y-78959819D02*
X100546999Y-78959819D01*
X100546999Y-78959819D02*
X100675570Y-79007438D01*
X100675570Y-79007438D02*
X100761285Y-79102676D01*
X100761285Y-79102676D02*
X100804142Y-79197914D01*
X100804142Y-79197914D02*
X100846999Y-79388390D01*
X100846999Y-79388390D02*
X100846999Y-79531247D01*
X100846999Y-79531247D02*
X100804142Y-79721723D01*
X100804142Y-79721723D02*
X100761285Y-79816961D01*
X100761285Y-79816961D02*
X100675570Y-79912200D01*
X100675570Y-79912200D02*
X100546999Y-79959819D01*
X100546999Y-79959819D02*
X100461285Y-79959819D01*
X100461285Y-79959819D02*
X100332713Y-79912200D01*
X100332713Y-79912200D02*
X100289856Y-79864580D01*
X100289856Y-79864580D02*
X100289856Y-79531247D01*
X100289856Y-79531247D02*
X100461285Y-79531247D01*
X99904142Y-79959819D02*
X99904142Y-78959819D01*
X99904142Y-78959819D02*
X99389856Y-79959819D01*
X99389856Y-79959819D02*
X99389856Y-78959819D01*
X98961285Y-79959819D02*
X98961285Y-78959819D01*
X98961285Y-78959819D02*
X98746999Y-78959819D01*
X98746999Y-78959819D02*
X98618428Y-79007438D01*
X98618428Y-79007438D02*
X98532713Y-79102676D01*
X98532713Y-79102676D02*
X98489856Y-79197914D01*
X98489856Y-79197914D02*
X98446999Y-79388390D01*
X98446999Y-79388390D02*
X98446999Y-79531247D01*
X98446999Y-79531247D02*
X98489856Y-79721723D01*
X98489856Y-79721723D02*
X98532713Y-79816961D01*
X98532713Y-79816961D02*
X98618428Y-79912200D01*
X98618428Y-79912200D02*
X98746999Y-79959819D01*
X98746999Y-79959819D02*
X98961285Y-79959819D01*
D11*
%TO.C,J13*%
X96822600Y-106751400D02*
X98092600Y-106751400D01*
X98092600Y-106751400D02*
X98092600Y-105481400D01*
X93902600Y-104438471D02*
X93902600Y-104041400D01*
X94662600Y-104438471D02*
X94662600Y-104041400D01*
X96442600Y-104371400D02*
X96442600Y-104041400D01*
X97202600Y-104371400D02*
X97202600Y-104041400D01*
X92952600Y-104041400D02*
X92952600Y-101381400D01*
X95552600Y-104041400D02*
X95552600Y-101381400D01*
X98152600Y-104041400D02*
X92952600Y-104041400D01*
X92952600Y-101381400D02*
X98152600Y-101381400D01*
X94662600Y-101381400D02*
X94662600Y-95381400D01*
X96542600Y-101381400D02*
X96542600Y-95381400D01*
X96662600Y-101381400D02*
X96662600Y-95381400D01*
X96782600Y-101381400D02*
X96782600Y-95381400D01*
X96902600Y-101381400D02*
X96902600Y-95381400D01*
X97022600Y-101381400D02*
X97022600Y-95381400D01*
X97142600Y-101381400D02*
X97142600Y-95381400D01*
X97202600Y-101381400D02*
X97202600Y-95381400D01*
X98152600Y-101381400D02*
X98152600Y-104041400D01*
X93902600Y-95381400D02*
X93902600Y-101381400D01*
X94662600Y-95381400D02*
X93902600Y-95381400D01*
X96442600Y-95381400D02*
X96442600Y-101381400D01*
X97202600Y-95381400D02*
X96442600Y-95381400D01*
D12*
%TO.C,J9*%
X51134600Y-137747800D02*
X55134600Y-137747800D01*
X55134600Y-137747800D02*
X55134600Y-119747800D01*
X55134600Y-119747800D02*
X51134600Y-119747800D01*
X51134600Y-119747800D02*
X51134600Y-137747800D01*
D11*
%TO.C,U3*%
X96440000Y-83450000D02*
X149590000Y-83450000D01*
X149590000Y-83450000D02*
X149590000Y-60700000D01*
X97555000Y-81025000D02*
X145875000Y-81025000D01*
X145875000Y-81025000D02*
X145875000Y-78365000D01*
X147145000Y-81025000D02*
X148475000Y-81025000D01*
X148475000Y-81025000D02*
X148475000Y-79695000D01*
X97555000Y-78365000D02*
X97555000Y-81025000D01*
X145875000Y-78365000D02*
X97555000Y-78365000D01*
X141242723Y-77337467D02*
X135442723Y-77337467D01*
X135342723Y-77237467D02*
X135342723Y-73937467D01*
X101365000Y-77215000D02*
X101365000Y-66935000D01*
X104025000Y-77215000D02*
X101365000Y-77215000D01*
X121865053Y-77173093D02*
X122572160Y-76465986D01*
X124127795Y-77173093D02*
X123420688Y-76465986D01*
X121652921Y-76960961D02*
X121865053Y-77173093D01*
X121652921Y-76960961D02*
X122360028Y-76253854D01*
X124339927Y-76960961D02*
X124127795Y-77173093D01*
X124339927Y-76960961D02*
X123632820Y-76253854D01*
X122946424Y-76840250D02*
X123046424Y-76840250D01*
X122946424Y-76840250D02*
X118096676Y-71990502D01*
X121511500Y-76819539D02*
X122218606Y-76112432D01*
X124481348Y-76819539D02*
X123774241Y-76112432D01*
X121299368Y-76607407D02*
X121511500Y-76819539D01*
X121299368Y-76607407D02*
X122006474Y-75900300D01*
X124693480Y-76607407D02*
X124481348Y-76819539D01*
X124693480Y-76607407D02*
X123986373Y-75900300D01*
X135592723Y-76587467D02*
X136242723Y-76587467D01*
X136942723Y-76587467D02*
X139742723Y-76587467D01*
X140442723Y-76587467D02*
X141092723Y-76587467D01*
X136342723Y-76487467D02*
X136342723Y-74687467D01*
X139842723Y-76487467D02*
X139842723Y-74687467D01*
X141192723Y-76487467D02*
X141192723Y-74687467D01*
X121157946Y-76465986D02*
X121865053Y-75758879D01*
X124834901Y-76465986D02*
X124127795Y-75758879D01*
X120945814Y-76253854D02*
X121157946Y-76465986D01*
X120945814Y-76253854D02*
X121652921Y-75546747D01*
X125047033Y-76253854D02*
X124834901Y-76465986D01*
X125047033Y-76253854D02*
X124339927Y-75546747D01*
X149352108Y-76112488D02*
X149035847Y-75833834D01*
X120804393Y-76112432D02*
X121511500Y-75405326D01*
X125188455Y-76112432D02*
X124481348Y-75405326D01*
X110892191Y-75967282D02*
X107592191Y-75967282D01*
X110892810Y-75967280D02*
X110892191Y-75967282D01*
X149164531Y-75947216D02*
X149327422Y-75762341D01*
X149515000Y-75927613D02*
X149352108Y-76112488D01*
X120592261Y-75900300D02*
X120804393Y-76112432D01*
X120592261Y-75900300D02*
X121299368Y-75193194D01*
X125400587Y-75900300D02*
X125188455Y-76112432D01*
X125400587Y-75900300D02*
X124693480Y-75193194D01*
X108601149Y-75883200D02*
X109883233Y-75883200D01*
X107492193Y-75867900D02*
X107492191Y-75867282D01*
X107492191Y-75867282D02*
X107492191Y-68067282D01*
X110992191Y-75867282D02*
X110992189Y-75867900D01*
X110992191Y-75867282D02*
X110992191Y-68067282D01*
X108401149Y-75860812D02*
X108401149Y-75674226D01*
X148873500Y-75771428D02*
X148865331Y-75766487D01*
X148870575Y-75771411D02*
X148873500Y-75771428D01*
X148870575Y-75771411D02*
X143865000Y-75771411D01*
X148865331Y-75766487D02*
X148865000Y-75764897D01*
X148865000Y-75764897D02*
X148865000Y-75275000D01*
X120450839Y-75758879D02*
X121157946Y-75051772D01*
X125542008Y-75758879D02*
X124834901Y-75051772D01*
X110083233Y-75674226D02*
X110083233Y-75860812D01*
X149199759Y-75649858D02*
X149515000Y-75927613D01*
X123034881Y-75587128D02*
X123022879Y-75569259D01*
X123034881Y-75587128D02*
X123022879Y-75569259D01*
X123022879Y-75569259D02*
X123018308Y-75552920D01*
X123022879Y-75569259D02*
X123018308Y-75552920D01*
X123018308Y-75552920D02*
X123018282Y-75474245D01*
X123018308Y-75552920D02*
X123018282Y-75474245D01*
X120238707Y-75546747D02*
X120450839Y-75758879D01*
X120238707Y-75546747D02*
X120945814Y-74839640D01*
X125754140Y-75546747D02*
X125542008Y-75758879D01*
X125754140Y-75546747D02*
X125047033Y-74839640D01*
X148965000Y-75534272D02*
X148965000Y-75789928D01*
X148865000Y-75525012D02*
X148869215Y-75525012D01*
X123018282Y-75474245D02*
X123021920Y-75412476D01*
X123018282Y-75474245D02*
X123021920Y-75412476D01*
X123395977Y-75458689D02*
X123681540Y-75173126D01*
X123270725Y-75442222D02*
X123134424Y-75448278D01*
X123021920Y-75412476D02*
X123026916Y-75340003D01*
X123021920Y-75412476D02*
X123026916Y-75340003D01*
X120097286Y-75405326D02*
X120804393Y-74698219D01*
X125895562Y-75405326D02*
X125188455Y-74698219D01*
X122597826Y-75394841D02*
X122731790Y-75361377D01*
X123300790Y-75363501D02*
X123395977Y-75458689D01*
X122731790Y-75361377D02*
X122721257Y-75270815D01*
X122731790Y-75361377D02*
X122721257Y-75270815D01*
X123026916Y-75340003D02*
X123029038Y-75282974D01*
X123026916Y-75340003D02*
X123029038Y-75282974D01*
X123029038Y-75282974D02*
X123010041Y-75176602D01*
X123029038Y-75282974D02*
X123010041Y-75176602D01*
X148865000Y-75275000D02*
X148865064Y-75271411D01*
X109683233Y-75274226D02*
X108801149Y-75274226D01*
X148865064Y-75271411D02*
X143855000Y-75271411D01*
X122721257Y-75270815D02*
X122730403Y-75236068D01*
X122721257Y-75270815D02*
X122730403Y-75236068D01*
X123395977Y-75268314D02*
X123300790Y-75363501D01*
X122730403Y-75236068D02*
X122750700Y-75206485D01*
X122730403Y-75236068D02*
X122750700Y-75206485D01*
X119885154Y-75193194D02*
X120097286Y-75405326D01*
X119885154Y-75193194D02*
X120592261Y-74486087D01*
X126107694Y-75193194D02*
X125895562Y-75405326D01*
X126107694Y-75193194D02*
X125400587Y-74486087D01*
X111697412Y-75187050D02*
X111697412Y-68887050D01*
X116222412Y-75187050D02*
X116222412Y-68887050D01*
X123010041Y-75176602D02*
X122962216Y-75106517D01*
X123010041Y-75176602D02*
X122962216Y-75106517D01*
X149029569Y-75175000D02*
X149029569Y-68975000D01*
X149310211Y-75175000D02*
X148965000Y-75175000D01*
X123491165Y-75173126D02*
X123056022Y-74737984D01*
X123681540Y-75173126D02*
X123586352Y-75077939D01*
X123586352Y-75077939D02*
X123491165Y-75173126D01*
X123798293Y-75056373D02*
X123897093Y-74957574D01*
X119743733Y-75051772D02*
X120450839Y-74344666D01*
X126249115Y-75051772D02*
X125542008Y-74344666D01*
X123897093Y-74957574D02*
X123648182Y-74466657D01*
X149371605Y-74925000D02*
X149515000Y-74925000D01*
X119531601Y-74839640D02*
X119743733Y-75051772D01*
X119531601Y-74839640D02*
X120238707Y-74132533D01*
X126461247Y-74839640D02*
X126249115Y-75051772D01*
X126461247Y-74839640D02*
X125754140Y-74132533D01*
X122960835Y-74833171D02*
X123395977Y-75268314D01*
X123666348Y-74797582D02*
X123274868Y-74519138D01*
X123056022Y-74737984D02*
X122960835Y-74833171D01*
X124139948Y-74714718D02*
X124237791Y-74616875D01*
X119390179Y-74698219D02*
X120097286Y-73991112D01*
X126602668Y-74698219D02*
X125895562Y-73991112D01*
X135492723Y-74687467D02*
X135492723Y-76487467D01*
X136842723Y-74687467D02*
X136842723Y-76487467D01*
X140342723Y-74687467D02*
X140342723Y-76487467D01*
X124237791Y-74616875D02*
X123797125Y-73996882D01*
X123178406Y-74615600D02*
X123798293Y-75056373D01*
X136242723Y-74587467D02*
X135592723Y-74587467D01*
X139742723Y-74587467D02*
X136942723Y-74587467D01*
X140442723Y-74587467D02*
X140342723Y-74687467D01*
X141092723Y-74587467D02*
X140442723Y-74587467D01*
X123274868Y-74519138D02*
X123178406Y-74615600D01*
X119178047Y-74486087D02*
X119390179Y-74698219D01*
X119178047Y-74486087D02*
X119885154Y-73778980D01*
X126814800Y-74486087D02*
X126602668Y-74698219D01*
X126814800Y-74486087D02*
X126107694Y-73778980D01*
X123979107Y-74484823D02*
X123533872Y-74260134D01*
X111002191Y-74467282D02*
X111002191Y-74967282D01*
X123648182Y-74466657D02*
X124139948Y-74714718D01*
X124407238Y-74376038D02*
X124507905Y-74355541D01*
X124407238Y-74376038D02*
X124507905Y-74355541D01*
X124344168Y-74363729D02*
X124407238Y-74376038D01*
X124344168Y-74363729D02*
X124407238Y-74376038D01*
X124507905Y-74355541D02*
X124573710Y-74308153D01*
X124507905Y-74355541D02*
X124573710Y-74308153D01*
X123441021Y-74352985D02*
X123666348Y-74797582D01*
X119036626Y-74344666D02*
X119743733Y-73637559D01*
X126956222Y-74344666D02*
X126249115Y-73637559D01*
X124273062Y-74323239D02*
X124344168Y-74363729D01*
X124273062Y-74323239D02*
X124344168Y-74363729D01*
X123533872Y-74260134D02*
X123441021Y-74352985D01*
X124368249Y-74228051D02*
X124273062Y-74323239D01*
X121444635Y-74160060D02*
X121703001Y-73901694D01*
X124313856Y-74146462D02*
X124392713Y-74094778D01*
X124313856Y-74146462D02*
X124392713Y-74094778D01*
X118824494Y-74132533D02*
X119036626Y-74344666D01*
X118824494Y-74132533D02*
X119531601Y-73425427D01*
X127168354Y-74132533D02*
X126956222Y-74344666D01*
X127168354Y-74132533D02*
X126461247Y-73425427D01*
X124007897Y-74112466D02*
X124103084Y-74017279D01*
X124462158Y-74096601D02*
X124481497Y-74110129D01*
X124462158Y-74096601D02*
X124481497Y-74110129D01*
X124392713Y-74094778D02*
X124439494Y-74089863D01*
X124392713Y-74094778D02*
X124439494Y-74089863D01*
X123700769Y-74093238D02*
X123979107Y-74484823D01*
X124439494Y-74089863D02*
X124462158Y-74096601D01*
X124439494Y-74089863D02*
X124462158Y-74096601D01*
X124225468Y-74058073D02*
X124313856Y-74146462D01*
X123797125Y-73996882D02*
X123700769Y-74093238D01*
X118683072Y-73991112D02*
X119390179Y-73284005D01*
X127309775Y-73991112D02*
X126602668Y-73284005D01*
X121444635Y-73969685D02*
X121342648Y-73867699D01*
X124291394Y-73956848D02*
X124225468Y-74058073D01*
X124291394Y-73956848D02*
X124225468Y-74058073D01*
X141342723Y-73937467D02*
X141342723Y-77237467D01*
X141342622Y-73932983D02*
X141342723Y-73937467D01*
X121703001Y-73901694D02*
X121607813Y-73806507D01*
X124296249Y-73896549D02*
X124291394Y-73956848D01*
X124296249Y-73896549D02*
X124291394Y-73956848D01*
X121342648Y-73867699D02*
X121505827Y-73704520D01*
X124286869Y-73867668D02*
X124296249Y-73896549D01*
X124286869Y-73867668D02*
X124296249Y-73896549D01*
X124268919Y-73843158D02*
X124286869Y-73867668D01*
X124268919Y-73843158D02*
X124286869Y-73867668D01*
X135442723Y-73837467D02*
X141242723Y-73837467D01*
X124837673Y-73832702D02*
X124785242Y-73829449D01*
X124837673Y-73832702D02*
X124785242Y-73829449D01*
X124785242Y-73829449D02*
X124715004Y-73786109D01*
X124785242Y-73829449D02*
X124715004Y-73786109D01*
X124883600Y-73807888D02*
X124837673Y-73832702D01*
X124883600Y-73807888D02*
X124837673Y-73832702D01*
X121607813Y-73806507D02*
X121444635Y-73969685D01*
X124715004Y-73786109D02*
X124619816Y-73881297D01*
X118470940Y-73778980D02*
X118683072Y-73991112D01*
X118470940Y-73778980D02*
X119178047Y-73071873D01*
X127521907Y-73778980D02*
X127309775Y-73991112D01*
X127521907Y-73778980D02*
X126814800Y-73071873D01*
X121247461Y-73772511D02*
X121009492Y-73534542D01*
X121855024Y-73749670D02*
X122002161Y-73602534D01*
X121709800Y-73718118D02*
X121855024Y-73749670D01*
X121505827Y-73704520D02*
X121410639Y-73609333D01*
X118329519Y-73637559D02*
X119036626Y-72930452D01*
X127663329Y-73637559D02*
X126956222Y-72930452D01*
X120914305Y-73629730D02*
X121444635Y-74160060D01*
X124776522Y-73614950D02*
X124882431Y-73667975D01*
X124776522Y-73614950D02*
X124882431Y-73667975D01*
X121410639Y-73609333D02*
X121247461Y-73772511D01*
X121818585Y-73609333D02*
X121709800Y-73718118D01*
X122002161Y-73602534D02*
X121471831Y-73072203D01*
X124625022Y-73599665D02*
X124776522Y-73614950D01*
X124625022Y-73599665D02*
X124776522Y-73614950D01*
X124300896Y-73589573D02*
X124625022Y-73599665D01*
X124252664Y-73541342D02*
X124300896Y-73589573D01*
X121009492Y-73534542D02*
X120914305Y-73629730D01*
X124634902Y-73462727D02*
X124516130Y-73454653D01*
X124516130Y-73454653D02*
X124694606Y-73276177D01*
X118117387Y-73425427D02*
X118329519Y-73637559D01*
X118117387Y-73425427D02*
X118824494Y-72718320D01*
X127875461Y-73425427D02*
X127663329Y-73637559D01*
X127875461Y-73425427D02*
X127168354Y-72718320D01*
X122157160Y-73330463D02*
X122281990Y-73322224D01*
X122157160Y-73330463D02*
X122281990Y-73322224D01*
X122281990Y-73322224D02*
X122364320Y-73267571D01*
X122281990Y-73322224D02*
X122364320Y-73267571D01*
X117975966Y-73284005D02*
X118683072Y-72576899D01*
X128016882Y-73284005D02*
X127309775Y-72576899D01*
X124694606Y-73276177D02*
X124606218Y-73187788D01*
X122033893Y-73274199D02*
X122157160Y-73330463D01*
X122033893Y-73274199D02*
X122157160Y-73330463D01*
X122364320Y-73267571D02*
X122405428Y-73215267D01*
X122364320Y-73267571D02*
X122405428Y-73215267D01*
X122405428Y-73215267D02*
X122430272Y-73153652D01*
X122405428Y-73215267D02*
X122430272Y-73153652D01*
X122197275Y-73198953D02*
X122121011Y-73171153D01*
X122197275Y-73198953D02*
X122121011Y-73171153D01*
X122237448Y-73192419D02*
X122197275Y-73198953D01*
X122237448Y-73192419D02*
X122197275Y-73198953D01*
X124606218Y-73187788D02*
X124252664Y-73541342D01*
X122121011Y-73171153D02*
X121995893Y-73065936D01*
X122121011Y-73171153D02*
X121995893Y-73065936D01*
X122271469Y-73170047D02*
X122237448Y-73192419D01*
X122271469Y-73170047D02*
X122237448Y-73192419D01*
X121376644Y-73167391D02*
X121818585Y-73609333D01*
X121901768Y-73162185D02*
X122033893Y-73274199D01*
X121901768Y-73162185D02*
X122033893Y-73274199D01*
X122430272Y-73153652D02*
X122434756Y-73087391D01*
X122430272Y-73153652D02*
X122434756Y-73087391D01*
X122292521Y-73136944D02*
X122271469Y-73170047D01*
X122292521Y-73136944D02*
X122271469Y-73170047D01*
X122297191Y-73097911D02*
X122292521Y-73136944D01*
X122297191Y-73097911D02*
X122292521Y-73136944D01*
X122434756Y-73087391D02*
X122420397Y-73022430D01*
X122434756Y-73087391D02*
X122420397Y-73022430D01*
X121471831Y-73072203D02*
X121376644Y-73167391D01*
X117763834Y-73071873D02*
X117975966Y-73284005D01*
X117763834Y-73071873D02*
X118470940Y-72364767D01*
X128229014Y-73071873D02*
X128016882Y-73284005D01*
X128229014Y-73071873D02*
X127521907Y-72364767D01*
X121995893Y-73065936D02*
X121898632Y-72946238D01*
X121995893Y-73065936D02*
X121898632Y-72946238D01*
X121814398Y-73063685D02*
X121901768Y-73162185D01*
X121814398Y-73063685D02*
X121901768Y-73162185D01*
X122272437Y-73023611D02*
X122297191Y-73097911D01*
X122272437Y-73023611D02*
X122297191Y-73097911D01*
X122420397Y-73022430D02*
X122355535Y-72906541D01*
X122420397Y-73022430D02*
X122355535Y-72906541D01*
X121751239Y-72948729D02*
X121814398Y-73063685D01*
X121751239Y-72948729D02*
X121814398Y-73063685D01*
X121898632Y-72946238D02*
X121876791Y-72872879D01*
X121898632Y-72946238D02*
X121876791Y-72872879D01*
X122619074Y-72914231D02*
X122719741Y-72893734D01*
X122619074Y-72914231D02*
X122719741Y-72893734D01*
X122355535Y-72906541D02*
X122267114Y-72806826D01*
X122355535Y-72906541D02*
X122267114Y-72806826D01*
X122171926Y-72902013D02*
X122272437Y-73023611D01*
X122171926Y-72902013D02*
X122272437Y-73023611D01*
X122556004Y-72901921D02*
X122619074Y-72914231D01*
X122556004Y-72901921D02*
X122619074Y-72914231D01*
X122719741Y-72893734D02*
X122785545Y-72846346D01*
X122719741Y-72893734D02*
X122785545Y-72846346D01*
X121737734Y-72884406D02*
X121751239Y-72948729D01*
X121737734Y-72884406D02*
X121751239Y-72948729D01*
X121876791Y-72872879D02*
X121883141Y-72834962D01*
X121876791Y-72872879D02*
X121883141Y-72834962D01*
X122484898Y-72861431D02*
X122556004Y-72901921D01*
X122484898Y-72861431D02*
X122556004Y-72901921D01*
X122102323Y-72839183D02*
X122171926Y-72902013D01*
X122102323Y-72839183D02*
X122171926Y-72902013D01*
X121883141Y-72834962D02*
X121904318Y-72802895D01*
X121883141Y-72834962D02*
X121904318Y-72802895D01*
X121742759Y-72818974D02*
X121737734Y-72884406D01*
X121742759Y-72818974D02*
X121737734Y-72884406D01*
X122267114Y-72806826D02*
X122167916Y-72718780D01*
X122267114Y-72806826D02*
X122167916Y-72718780D01*
X121998868Y-72781223D02*
X122102323Y-72839183D01*
X121998868Y-72781223D02*
X122102323Y-72839183D01*
X122580085Y-72766244D02*
X122484898Y-72861431D01*
X121768443Y-72758582D02*
X121742759Y-72818974D01*
X121768443Y-72758582D02*
X121742759Y-72818974D01*
X122167916Y-72718780D02*
X122052810Y-72653767D01*
X122167916Y-72718780D02*
X122052810Y-72653767D01*
X121809555Y-72707283D02*
X121768443Y-72758582D01*
X121809555Y-72707283D02*
X121768443Y-72758582D01*
X122525692Y-72684655D02*
X122604549Y-72632971D01*
X122525692Y-72684655D02*
X122604549Y-72632971D01*
X121861304Y-72665965D02*
X121809555Y-72707283D01*
X121861304Y-72665965D02*
X121809555Y-72707283D01*
X122052810Y-72653767D02*
X121988461Y-72638116D01*
X122052810Y-72653767D02*
X121988461Y-72638116D01*
X122219733Y-72650659D02*
X122314920Y-72555472D01*
X121922436Y-72640874D02*
X121861304Y-72665965D01*
X121922436Y-72640874D02*
X121861304Y-72665965D01*
X121988461Y-72638116D02*
X121922436Y-72640874D01*
X121988461Y-72638116D02*
X121922436Y-72640874D01*
X122673994Y-72634794D02*
X122693333Y-72648322D01*
X122673994Y-72634794D02*
X122693333Y-72648322D01*
X122604549Y-72632971D02*
X122651330Y-72628056D01*
X122604549Y-72632971D02*
X122651330Y-72628056D01*
X122651330Y-72628056D02*
X122673994Y-72634794D01*
X122651330Y-72628056D02*
X122673994Y-72634794D01*
X122437304Y-72596266D02*
X122525692Y-72684655D01*
X122503230Y-72495041D02*
X122437304Y-72596266D01*
X122503230Y-72495041D02*
X122437304Y-72596266D01*
X139830497Y-72446000D02*
X139785625Y-72446000D01*
X139913830Y-72446000D02*
X139879876Y-72446000D01*
X140642997Y-72446000D02*
X140453894Y-72446000D01*
X133715000Y-72445000D02*
X133415000Y-72145000D01*
X135655000Y-72445000D02*
X133715000Y-72445000D01*
X136055000Y-72445000D02*
X135655000Y-72445000D01*
X136055000Y-72445000D02*
X140935000Y-72445000D01*
X122508084Y-72434742D02*
X122503230Y-72495041D01*
X122508084Y-72434742D02*
X122503230Y-72495041D01*
X122498704Y-72405861D02*
X122508084Y-72434742D01*
X122498704Y-72405861D02*
X122508084Y-72434742D01*
X122480754Y-72381351D02*
X122498704Y-72405861D01*
X122480754Y-72381351D02*
X122498704Y-72405861D01*
X141035000Y-72345000D02*
X141035000Y-67465000D01*
X123305677Y-72326214D02*
X123409432Y-72152824D01*
X123305677Y-72326214D02*
X123409432Y-72152824D01*
X123409432Y-72152824D02*
X123426361Y-71994333D01*
X123409432Y-72152824D02*
X123426361Y-71994333D01*
X133415000Y-72145000D02*
X133415000Y-67665000D01*
X123268766Y-72139997D02*
X123206771Y-72234745D01*
X123268766Y-72139997D02*
X123206771Y-72234745D01*
X123289848Y-71997414D02*
X123268766Y-72139997D01*
X123289848Y-71997414D02*
X123268766Y-72139997D01*
X123426361Y-71994333D02*
X123289848Y-71997414D01*
X118096676Y-71990502D02*
X118096676Y-71890502D01*
X127896171Y-71990502D02*
X123046424Y-76840250D01*
X127896171Y-71890502D02*
X127896171Y-71990502D01*
X123421628Y-71808505D02*
X123464925Y-71869718D01*
X123421628Y-71808505D02*
X123464925Y-71869718D01*
X123076951Y-71784517D02*
X123073551Y-71645773D01*
X136625000Y-71775000D02*
X140365000Y-71775000D01*
X140365000Y-71775000D02*
X140365000Y-70575000D01*
X123399271Y-71715888D02*
X123421628Y-71808505D01*
X123399271Y-71715888D02*
X123421628Y-71808505D01*
X123299969Y-71712392D02*
X123399271Y-71715888D01*
X123299969Y-71712392D02*
X123399271Y-71715888D01*
X122875763Y-71679488D02*
X122746663Y-71770175D01*
X122875763Y-71679488D02*
X122746663Y-71770175D01*
X123190942Y-71650128D02*
X123299969Y-71712392D01*
X123190942Y-71650128D02*
X123299969Y-71712392D01*
X123073551Y-71645773D02*
X122875763Y-71679488D01*
X123073551Y-71645773D02*
X122875763Y-71679488D01*
X123973901Y-71630793D02*
X124259464Y-71345231D01*
X123769397Y-71562271D02*
X123689218Y-71512565D01*
X123769397Y-71562271D02*
X123689218Y-71512565D01*
X123878714Y-71535606D02*
X123973901Y-71630793D01*
X123689218Y-71512565D02*
X123615673Y-71499486D01*
X123689218Y-71512565D02*
X123615673Y-71499486D01*
X134366802Y-71493199D02*
X135003199Y-71493199D01*
X135003199Y-71493199D02*
X135003199Y-70856802D01*
X136906802Y-71493199D02*
X137543199Y-71493199D01*
X137543199Y-71493199D02*
X137543199Y-70856802D01*
X139446802Y-71493199D02*
X140083199Y-71493199D01*
X140083199Y-71493199D02*
X140083199Y-70856802D01*
X123973901Y-71440419D02*
X123878714Y-71535606D01*
X124069089Y-71345231D02*
X123633946Y-70910088D01*
X124259464Y-71345231D02*
X124164276Y-71250044D01*
X124164276Y-71250044D02*
X124069089Y-71345231D01*
X124495308Y-71136584D02*
X124536846Y-71009632D01*
X124536846Y-71009632D02*
X124262757Y-70920393D01*
X124095860Y-71006551D02*
X124495308Y-71136584D01*
X123538759Y-71005276D02*
X123973901Y-71440419D01*
X124017517Y-70977341D02*
X124095860Y-71006551D01*
X124017517Y-70977341D02*
X124095860Y-71006551D01*
X123928963Y-70919543D02*
X124017517Y-70977341D01*
X123928963Y-70919543D02*
X124017517Y-70977341D01*
X123633946Y-70910088D02*
X123538759Y-71005276D01*
X134366802Y-70856802D02*
X134366802Y-71493199D01*
X135003199Y-70856802D02*
X134366802Y-70856802D01*
X136906802Y-70856802D02*
X136906802Y-71493199D01*
X137543199Y-70856802D02*
X136906802Y-70856802D01*
X139446802Y-70856802D02*
X139446802Y-71493199D01*
X140083199Y-70856802D02*
X139446802Y-70856802D01*
X117763834Y-70809132D02*
X118470940Y-71516238D01*
X128229014Y-70809132D02*
X127521907Y-71516238D01*
X117975966Y-70597000D02*
X118683072Y-71304106D01*
X117975966Y-70597000D02*
X117763834Y-70809132D01*
X128016882Y-70597000D02*
X127309775Y-71304106D01*
X128016882Y-70597000D02*
X128229014Y-70809132D01*
X136625000Y-70575000D02*
X136625000Y-71775000D01*
X140365000Y-70575000D02*
X136625000Y-70575000D01*
X118117387Y-70455578D02*
X118824494Y-71162685D01*
X127875461Y-70455578D02*
X127168354Y-71162685D01*
X141036000Y-70363528D02*
X141036000Y-70552631D01*
X118329519Y-70243446D02*
X119036626Y-70950553D01*
X118329519Y-70243446D02*
X118117387Y-70455578D01*
X127663329Y-70243446D02*
X126956222Y-70950553D01*
X127663329Y-70243446D02*
X127875461Y-70455578D01*
X118470940Y-70102025D02*
X119178047Y-70809132D01*
X127521907Y-70102025D02*
X126814800Y-70809132D01*
X135955000Y-70005000D02*
X135955000Y-72345000D01*
X135955000Y-70005000D02*
X141023600Y-70005000D01*
X118683072Y-69889893D02*
X119390179Y-70597000D01*
X118683072Y-69889893D02*
X118470940Y-70102025D01*
X127309775Y-69889893D02*
X126602668Y-70597000D01*
X127309775Y-69889893D02*
X127521907Y-70102025D01*
X141023600Y-69805000D02*
X135955000Y-69805000D01*
X118824494Y-69748471D02*
X119531601Y-70455578D01*
X127168354Y-69748471D02*
X126461247Y-70455578D01*
X119036626Y-69536339D02*
X119743733Y-70243446D01*
X119036626Y-69536339D02*
X118824494Y-69748471D01*
X126956222Y-69536339D02*
X126249115Y-70243446D01*
X126956222Y-69536339D02*
X127168354Y-69748471D01*
X111002191Y-69467282D02*
X111002191Y-68967282D01*
X119178047Y-69394918D02*
X119885154Y-70102025D01*
X126814800Y-69394918D02*
X126107694Y-70102025D01*
X136625000Y-69235000D02*
X140365000Y-69235000D01*
X140365000Y-69235000D02*
X140365000Y-68035000D01*
X149371605Y-69225000D02*
X149371605Y-74925000D01*
X149371605Y-69225000D02*
X149515000Y-69225000D01*
X149515000Y-69225000D02*
X149515000Y-74925000D01*
X119390179Y-69182786D02*
X120097286Y-69889893D01*
X119390179Y-69182786D02*
X119178047Y-69394918D01*
X126602668Y-69182786D02*
X125895562Y-69889893D01*
X126602668Y-69182786D02*
X126814800Y-69394918D01*
X119531601Y-69041365D02*
X120238707Y-69748471D01*
X126461247Y-69041365D02*
X125754140Y-69748471D01*
X149310211Y-68975000D02*
X148965000Y-68975000D01*
X134366802Y-68953199D02*
X135003199Y-68953199D01*
X135003199Y-68953199D02*
X135003199Y-68316802D01*
X136906802Y-68953199D02*
X137543199Y-68953199D01*
X137543199Y-68953199D02*
X137543199Y-68316802D01*
X139446802Y-68953199D02*
X140083199Y-68953199D01*
X140083199Y-68953199D02*
X140083199Y-68316802D01*
X148886175Y-68936536D02*
X148886175Y-75213465D01*
X112122412Y-68887050D02*
X112122412Y-75187050D01*
X116647412Y-68887050D02*
X116647412Y-75187050D01*
X148865064Y-68878590D02*
X143855000Y-68878590D01*
X148865000Y-68875000D02*
X148865064Y-68878590D01*
X119743733Y-68829233D02*
X120450839Y-69536339D01*
X119743733Y-68829233D02*
X119531601Y-69041365D01*
X126249115Y-68829233D02*
X125542008Y-69536339D01*
X126249115Y-68829233D02*
X126461247Y-69041365D01*
X119885154Y-68687811D02*
X120592261Y-69394918D01*
X126107694Y-68687811D02*
X125400587Y-69394918D01*
X143855000Y-68624989D02*
X143855000Y-75525012D01*
X148865000Y-68624989D02*
X148869215Y-68624989D01*
X148965000Y-68615729D02*
X148965000Y-68360073D01*
X149199759Y-68500143D02*
X149515000Y-68222388D01*
X120097286Y-68475679D02*
X120804393Y-69182786D01*
X120097286Y-68475679D02*
X119885154Y-68687811D01*
X125895562Y-68475679D02*
X125188455Y-69182786D01*
X125895562Y-68475679D02*
X126107694Y-68687811D01*
X148865000Y-68385104D02*
X148865000Y-68875000D01*
X148865331Y-68383514D02*
X148865000Y-68385104D01*
X143865000Y-68378590D02*
X143865000Y-75771411D01*
X148870575Y-68378590D02*
X143865000Y-68378590D01*
X148870575Y-68378590D02*
X148873500Y-68378573D01*
X148873500Y-68378573D02*
X148865331Y-68383514D01*
X120238707Y-68334258D02*
X120945814Y-69041365D01*
X125754140Y-68334258D02*
X125047033Y-69041365D01*
X134366802Y-68316802D02*
X134366802Y-68953199D01*
X135003199Y-68316802D02*
X134366802Y-68316802D01*
X136906802Y-68316802D02*
X136906802Y-68953199D01*
X137543199Y-68316802D02*
X136906802Y-68316802D01*
X139446802Y-68316802D02*
X139446802Y-68953199D01*
X140083199Y-68316802D02*
X139446802Y-68316802D01*
X149515000Y-68222388D02*
X149352108Y-68037513D01*
X149164531Y-68202785D02*
X149327422Y-68387660D01*
X120450839Y-68122126D02*
X121157946Y-68829233D01*
X120450839Y-68122126D02*
X120238707Y-68334258D01*
X125542008Y-68122126D02*
X124834901Y-68829233D01*
X125542008Y-68122126D02*
X125754140Y-68334258D01*
X107492191Y-68067282D02*
X107492193Y-68066663D01*
X110992189Y-68066663D02*
X110992191Y-68067282D01*
X107492196Y-68066334D02*
X107492191Y-68067282D01*
X149352108Y-68037513D02*
X149035847Y-68316167D01*
X136625000Y-68035000D02*
X136625000Y-69235000D01*
X140365000Y-68035000D02*
X136625000Y-68035000D01*
X120592261Y-67980704D02*
X121299368Y-68687811D01*
X125400587Y-67980704D02*
X124693480Y-68687811D01*
X110892191Y-67967282D02*
X110892810Y-67967283D01*
X110892191Y-67967282D02*
X107592191Y-67967282D01*
X120804393Y-67768572D02*
X121511500Y-68475679D01*
X120804393Y-67768572D02*
X120592261Y-67980704D01*
X125188455Y-67768572D02*
X124481348Y-68475679D01*
X125188455Y-67768572D02*
X125400587Y-67980704D01*
X133415000Y-67665000D02*
X133715000Y-67365000D01*
X120945814Y-67627151D02*
X121652921Y-68334258D01*
X125047033Y-67627151D02*
X124339927Y-68334258D01*
X135955000Y-67465000D02*
X135955000Y-69805000D01*
X121157946Y-67415019D02*
X121865053Y-68122126D01*
X121157946Y-67415019D02*
X120945814Y-67627151D01*
X124834901Y-67415019D02*
X124127795Y-68122126D01*
X124834901Y-67415019D02*
X125047033Y-67627151D01*
X133715000Y-67365000D02*
X135655000Y-67365000D01*
X135655000Y-67365000D02*
X136055000Y-67365000D01*
X140935000Y-67365000D02*
X136055000Y-67365000D01*
X121299368Y-67273598D02*
X122006474Y-67980704D01*
X124693480Y-67273598D02*
X123986373Y-67980704D01*
X121511500Y-67061466D02*
X122218606Y-67768572D01*
X121511500Y-67061466D02*
X121299368Y-67273598D01*
X124481348Y-67061466D02*
X123774241Y-67768572D01*
X124481348Y-67061466D02*
X124693480Y-67273598D01*
X122946424Y-67040755D02*
X118096676Y-71890502D01*
X123046424Y-67040755D02*
X127896171Y-71890502D01*
X123046424Y-67040755D02*
X122946424Y-67040755D01*
X101365000Y-66935000D02*
X104025000Y-66935000D01*
X104025000Y-66935000D02*
X104025000Y-77215000D01*
X121652921Y-66920044D02*
X122360028Y-67627151D01*
X124339927Y-66920044D02*
X123632820Y-67627151D01*
X121865053Y-66707912D02*
X122572160Y-67415019D01*
X121865053Y-66707912D02*
X121652921Y-66920044D01*
X124127795Y-66707912D02*
X123420688Y-67415019D01*
X124127795Y-66707912D02*
X124339927Y-66920044D01*
X97615000Y-65725000D02*
X148415000Y-65725000D01*
X148415000Y-65725000D02*
X148415000Y-63185000D01*
X97615000Y-63185000D02*
X97615000Y-65725000D01*
X148415000Y-63185000D02*
X97615000Y-63185000D01*
X96440000Y-60700000D02*
X96440000Y-83450000D01*
X149590000Y-60700000D02*
X96440000Y-60700000D01*
X135342733Y-77237467D02*
G75*
G03*
X135442723Y-77337467I99967J-33D01*
G01*
X141242723Y-77337523D02*
G75*
G03*
X141342723Y-77237467I-23J100023D01*
G01*
X135492733Y-76487467D02*
G75*
G03*
X135592723Y-76587467I99967J-33D01*
G01*
X136842733Y-76487467D02*
G75*
G03*
X136942723Y-76587467I99967J-33D01*
G01*
X140342733Y-76487467D02*
G75*
G03*
X140442723Y-76587467I99967J-33D01*
G01*
X136242723Y-76587523D02*
G75*
G03*
X136342723Y-76487467I-23J100023D01*
G01*
X139742723Y-76587523D02*
G75*
G03*
X139842723Y-76487467I-23J100023D01*
G01*
X141092723Y-76587523D02*
G75*
G03*
X141192723Y-76487467I-23J100023D01*
G01*
X107492221Y-75867901D02*
G75*
G03*
X107591572Y-75967279I99979J601D01*
G01*
X108401149Y-75860811D02*
G75*
G03*
X108601149Y-75883200I148601J422951D01*
G01*
X110892811Y-75967288D02*
G75*
G03*
X110992188Y-75867900I-611J99988D01*
G01*
X109883232Y-75883205D02*
G75*
G03*
X110083233Y-75860811I49368J463405D01*
G01*
X149035855Y-75833824D02*
G75*
G03*
X148873500Y-75771429I-165255J-187576D01*
G01*
X122882642Y-75357976D02*
G75*
G03*
X122935127Y-75677746I338558J-108624D01*
G01*
X108801149Y-75274249D02*
G75*
G03*
X108401149Y-75674226I-49J-399951D01*
G01*
X122935131Y-75677743D02*
G75*
G03*
X123208790Y-75673073I134539J136543D01*
G01*
X123034882Y-75587126D02*
G75*
G03*
X123112540Y-75578948I34718J43126D01*
G01*
X149199751Y-75649868D02*
G75*
G03*
X148869215Y-75525012I-330551J-375132D01*
G01*
X123112561Y-75578965D02*
G75*
G03*
X123134424Y-75448278I-105161J84765D01*
G01*
X123208770Y-75673055D02*
G75*
G03*
X123270725Y-75442222I-191970J175255D01*
G01*
X122651992Y-75114786D02*
G75*
G03*
X122597826Y-75394841I175008J-179114D01*
G01*
X110083234Y-75674226D02*
G75*
G03*
X109683233Y-75274226I-400004J-4D01*
G01*
X148964999Y-75175000D02*
G75*
G03*
X148865064Y-75271411I1J-100000D01*
G01*
X122861497Y-75196188D02*
G75*
G03*
X122750700Y-75206485I-50197J-61112D01*
G01*
X122882675Y-75357985D02*
G75*
G03*
X122861504Y-75196180I-204075J55585D01*
G01*
X112122412Y-75187050D02*
G75*
G03*
X116222412Y-75187050I2050000J0D01*
G01*
X111697412Y-75187050D02*
G75*
G03*
X116647412Y-75187050I2475000J0D01*
G01*
X122962211Y-75106521D02*
G75*
G03*
X122652007Y-75114803I-151251J-148379D01*
G01*
X149166824Y-75175055D02*
G75*
G03*
X149371605Y-74925000I-25124J229455D01*
G01*
X149310217Y-75175050D02*
G75*
G03*
X149515000Y-74925000I-25117J229450D01*
G01*
X135592723Y-74587523D02*
G75*
G03*
X135492723Y-74687467I-23J-99977D01*
G01*
X136942723Y-74587523D02*
G75*
G03*
X136842723Y-74687467I-23J-99977D01*
G01*
X136342733Y-74687467D02*
G75*
G03*
X136242723Y-74587467I-100033J-33D01*
G01*
X139842733Y-74687467D02*
G75*
G03*
X139742723Y-74587467I-100033J-33D01*
G01*
X141192733Y-74687467D02*
G75*
G03*
X141092723Y-74587467I-100033J-33D01*
G01*
X124368262Y-74228028D02*
G75*
G03*
X124477885Y-74213603I45138J80728D01*
G01*
X124007583Y-73759236D02*
G75*
G03*
X124007897Y-74112466I169617J-176464D01*
G01*
X124477897Y-74213617D02*
G75*
G03*
X124481497Y-74110129I-46297J53417D01*
G01*
X124573755Y-74308202D02*
G75*
G03*
X124582740Y-74020997I-136155J148002D01*
G01*
X124107929Y-73849170D02*
G75*
G03*
X124103084Y-74017279I83471J-86530D01*
G01*
X124582726Y-74021010D02*
G75*
G03*
X124400651Y-73980840I-122426J-122190D01*
G01*
X135442723Y-73837523D02*
G75*
G03*
X135342723Y-73937467I-23J-99977D01*
G01*
X124619826Y-73881289D02*
G75*
G03*
X124984205Y-73897656I189874J162889D01*
G01*
X124268882Y-73843195D02*
G75*
G03*
X124107972Y-73849215I-77582J-79805D01*
G01*
X141342733Y-73937467D02*
G75*
G03*
X141242723Y-73837467I-100033J-33D01*
G01*
X124363148Y-73747015D02*
G75*
G03*
X124007579Y-73759233I-171918J-176855D01*
G01*
X124400672Y-73980851D02*
G75*
G03*
X124363150Y-73747014I-169372J92751D01*
G01*
X124883627Y-73807915D02*
G75*
G03*
X124882431Y-73667975I-65527J69415D01*
G01*
X124984189Y-73897640D02*
G75*
G03*
X124984312Y-73579480I-155989J159140D01*
G01*
X124984312Y-73579480D02*
G75*
G03*
X124634902Y-73462727I-326762J-396690D01*
G01*
X121998853Y-72781268D02*
G75*
G03*
X121904319Y-72802896I-29853J-86932D01*
G01*
X122580077Y-72766259D02*
G75*
G03*
X122689721Y-72751796I45123J80759D01*
G01*
X122219426Y-72297437D02*
G75*
G03*
X122219734Y-72650658I169674J-176463D01*
G01*
X122689740Y-72751819D02*
G75*
G03*
X122693333Y-72648322I-46340J53419D01*
G01*
X122785502Y-72846298D02*
G75*
G03*
X122794575Y-72559190I-136102J147998D01*
G01*
X122319770Y-72387369D02*
G75*
G03*
X122314920Y-72555472I83530J-86531D01*
G01*
X122794536Y-72559229D02*
G75*
G03*
X122612487Y-72519034I-122436J-122171D01*
G01*
X135955000Y-72345000D02*
G75*
G03*
X136055000Y-72445000I100000J0D01*
G01*
X122480784Y-72381321D02*
G75*
G03*
X122319807Y-72387406I-77584J-79879D01*
G01*
X140935000Y-72445000D02*
G75*
G03*
X141035000Y-72345000I0J100000D01*
G01*
X122750905Y-72325159D02*
G75*
G03*
X123305677Y-72326214I277895J267359D01*
G01*
X122746668Y-71770180D02*
G75*
G03*
X122750912Y-72325152I259132J-275520D01*
G01*
X122574989Y-72285204D02*
G75*
G03*
X122219414Y-72297424I-171919J-176856D01*
G01*
X122612510Y-72519044D02*
G75*
G03*
X122574986Y-72285207I-169410J92744D01*
G01*
X122846311Y-72230178D02*
G75*
G03*
X123206771Y-72234745I182439J172078D01*
G01*
X122841424Y-71865785D02*
G75*
G03*
X122846313Y-72230176I172476J-179915D01*
G01*
X123076947Y-71784554D02*
G75*
G03*
X122841427Y-71865788I-32247J-288546D01*
G01*
X123464901Y-71869740D02*
G75*
G03*
X123767271Y-71864619I148799J143440D01*
G01*
X123553285Y-71767756D02*
G75*
G03*
X123669748Y-71771769I60115J52656D01*
G01*
X123549197Y-71647606D02*
G75*
G03*
X123553313Y-71767732I59503J-58094D01*
G01*
X123669769Y-71771793D02*
G75*
G03*
X123669641Y-71652891I-54169J59393D01*
G01*
X123210262Y-71306541D02*
G75*
G03*
X123190943Y-71650127I137338J-180059D01*
G01*
X123669614Y-71652914D02*
G75*
G03*
X123549170Y-71647579I-62714J-53586D01*
G01*
X123304506Y-71402702D02*
G75*
G03*
X123294736Y-71563545I72094J-85098D01*
G01*
X123767234Y-71864578D02*
G75*
G03*
X123769397Y-71562271I-142134J152178D01*
G01*
X123294772Y-71563503D02*
G75*
G03*
X123455256Y-71551115I74128J85403D01*
G01*
X123462557Y-71391474D02*
G75*
G03*
X123304508Y-71402705I-73957J-76926D01*
G01*
X123455223Y-71551079D02*
G75*
G03*
X123462587Y-71391444I-73523J83379D01*
G01*
X123551299Y-71289771D02*
G75*
G03*
X123210277Y-71306561I-162949J-161979D01*
G01*
X123615680Y-71499486D02*
G75*
G03*
X123551294Y-71289776I-223280J46186D01*
G01*
X123927147Y-70589670D02*
G75*
G03*
X123928963Y-70919543I165553J-164030D01*
G01*
X124028849Y-70829009D02*
G75*
G03*
X124169800Y-70836573I74151J64709D01*
G01*
X124020507Y-70686646D02*
G75*
G03*
X124028825Y-70829030I74993J-67054D01*
G01*
X124169824Y-70836597D02*
G75*
G03*
X124164806Y-70693049I-70524J69397D01*
G01*
X124164849Y-70693012D02*
G75*
G03*
X124020539Y-70686674I-75249J-67288D01*
G01*
X124262759Y-70920395D02*
G75*
G03*
X124254577Y-70592443I-163659J159995D01*
G01*
X124254562Y-70592456D02*
G75*
G03*
X123927157Y-70589681I-165062J-159044D01*
G01*
X148865063Y-68878590D02*
G75*
G03*
X148965000Y-68975001I99937J3590D01*
G01*
X149371548Y-69224995D02*
G75*
G03*
X149166817Y-68975002I-229848J20595D01*
G01*
X149514948Y-69224995D02*
G75*
G03*
X149310211Y-68975001I-229848J20595D01*
G01*
X116647408Y-68887050D02*
G75*
G03*
X111697412Y-68887050I-2474998J0D01*
G01*
X116222408Y-68887050D02*
G75*
G03*
X112122412Y-68887050I-2049998J0D01*
G01*
X148869215Y-68625001D02*
G75*
G03*
X149199759Y-68500143I-15J500001D01*
G01*
X148873500Y-68378558D02*
G75*
G03*
X149035846Y-68316166I-2900J249958D01*
G01*
X107591572Y-67967293D02*
G75*
G03*
X107492193Y-68066663I628J-100007D01*
G01*
X110992216Y-68066663D02*
G75*
G03*
X110892810Y-67967284I-100016J-637D01*
G01*
X136055000Y-67365001D02*
G75*
G03*
X135955001Y-67465000I0J-99999D01*
G01*
X141035000Y-67465000D02*
G75*
G03*
X140935000Y-67365000I-100000J0D01*
G01*
X119246424Y-71940502D02*
G75*
G03*
X118746424Y-71940502I-250000J0D01*
G01*
X118746424Y-71940502D02*
G75*
G03*
X119246424Y-71940502I250000J0D01*
G01*
X109668067Y-68915855D02*
G75*
G03*
X108816315Y-68915855I-425876J0D01*
G01*
X108816315Y-68915855D02*
G75*
G03*
X109668067Y-68915855I425876J0D01*
G01*
D12*
X102849940Y-76131380D02*
X102341940Y-76131380D01*
X102341940Y-75623380D01*
X102849940Y-75623380D01*
X102849940Y-76131380D01*
G36*
X102849940Y-76131380D02*
G01*
X102341940Y-76131380D01*
X102341940Y-75623380D01*
X102849940Y-75623380D01*
X102849940Y-76131380D01*
G37*
X102849940Y-73591380D02*
X102341940Y-73591380D01*
X102341940Y-73083380D01*
X102849940Y-73083380D01*
X102849940Y-73591380D01*
G36*
X102849940Y-73591380D02*
G01*
X102341940Y-73591380D01*
X102341940Y-73083380D01*
X102849940Y-73083380D01*
X102849940Y-73591380D01*
G37*
X102849940Y-71051380D02*
X102341940Y-71051380D01*
X102341940Y-70543380D01*
X102849940Y-70543380D01*
X102849940Y-71051380D01*
G36*
X102849940Y-71051380D02*
G01*
X102341940Y-71051380D01*
X102341940Y-70543380D01*
X102849940Y-70543380D01*
X102849940Y-71051380D01*
G37*
X102849940Y-68511380D02*
X102341940Y-68511380D01*
X102341940Y-68003380D01*
X102849940Y-68003380D01*
X102849940Y-68511380D01*
G36*
X102849940Y-68511380D02*
G01*
X102341940Y-68511380D01*
X102341940Y-68003380D01*
X102849940Y-68003380D01*
X102849940Y-68511380D01*
G37*
D11*
%TO.C,J11*%
X54416200Y-138263600D02*
X66136200Y-138263600D01*
X66136200Y-138263600D02*
X66136200Y-136843600D01*
X66136200Y-136843600D02*
X61636200Y-136843600D01*
X64226200Y-136003600D02*
X64226200Y-135403600D01*
X55026200Y-135953600D02*
X55026200Y-135453600D01*
X60526200Y-135953600D02*
X55026200Y-135953600D01*
X63626200Y-135703600D02*
X64226200Y-136003600D01*
X55026200Y-135453600D02*
X60526200Y-135453600D01*
X60526200Y-135453600D02*
X60526200Y-135953600D01*
X64226200Y-135403600D02*
X63626200Y-135703600D01*
X55026200Y-133453600D02*
X55026200Y-132953600D01*
X60526200Y-133453600D02*
X55026200Y-133453600D01*
X55026200Y-132953600D02*
X60526200Y-132953600D01*
X60526200Y-132953600D02*
X60526200Y-133453600D01*
X55026200Y-130953600D02*
X55026200Y-130453600D01*
X60526200Y-130953600D02*
X55026200Y-130953600D01*
X55026200Y-130453600D02*
X60526200Y-130453600D01*
X60526200Y-130453600D02*
X60526200Y-130953600D01*
X55026200Y-128453600D02*
X55026200Y-127953600D01*
X60526200Y-128453600D02*
X55026200Y-128453600D01*
X55026200Y-127953600D02*
X60526200Y-127953600D01*
X60526200Y-127953600D02*
X60526200Y-128453600D01*
X55026200Y-125953600D02*
X55026200Y-125453600D01*
X60526200Y-125953600D02*
X55026200Y-125953600D01*
X54416200Y-125703600D02*
X54416200Y-138263600D01*
X54416200Y-125703600D02*
X54416200Y-113143600D01*
X55026200Y-125453600D02*
X60526200Y-125453600D01*
X60526200Y-125453600D02*
X60526200Y-125953600D01*
X55026200Y-123453600D02*
X55026200Y-122953600D01*
X60526200Y-123453600D02*
X55026200Y-123453600D01*
X55026200Y-122953600D02*
X60526200Y-122953600D01*
X60526200Y-122953600D02*
X60526200Y-123453600D01*
X55026200Y-120953600D02*
X55026200Y-120453600D01*
X60526200Y-120953600D02*
X55026200Y-120953600D01*
X55026200Y-120453600D02*
X60526200Y-120453600D01*
X60526200Y-120453600D02*
X60526200Y-120953600D01*
X55026200Y-118453600D02*
X55026200Y-117953600D01*
X60526200Y-118453600D02*
X55026200Y-118453600D01*
X55026200Y-117953600D02*
X60526200Y-117953600D01*
X60526200Y-117953600D02*
X60526200Y-118453600D01*
X55026200Y-115953600D02*
X55026200Y-115453600D01*
X60526200Y-115953600D02*
X55026200Y-115953600D01*
X55026200Y-115453600D02*
X60526200Y-115453600D01*
X60526200Y-115453600D02*
X60526200Y-115953600D01*
X66136200Y-114563600D02*
X61636200Y-114563600D01*
X54416200Y-113143600D02*
X66136200Y-113143600D01*
X66136200Y-113143600D02*
X66136200Y-114563600D01*
%TO.C,U1*%
X146905000Y-113145000D02*
X93755000Y-113145000D01*
X93755000Y-113145000D02*
X93755000Y-135895000D01*
X145790000Y-115570000D02*
X97470000Y-115570000D01*
X97470000Y-115570000D02*
X97470000Y-118230000D01*
X96200000Y-115570000D02*
X94870000Y-115570000D01*
X94870000Y-115570000D02*
X94870000Y-116900000D01*
X145790000Y-118230000D02*
X145790000Y-115570000D01*
X97470000Y-118230000D02*
X145790000Y-118230000D01*
X102102277Y-119257533D02*
X107902277Y-119257533D01*
X108002277Y-119357533D02*
X108002277Y-122657533D01*
X141980000Y-119380000D02*
X141980000Y-129660000D01*
X139320000Y-119380000D02*
X141980000Y-119380000D01*
X121479947Y-119421907D02*
X120772840Y-120129014D01*
X119217205Y-119421907D02*
X119924312Y-120129014D01*
X121692079Y-119634039D02*
X121479947Y-119421907D01*
X121692079Y-119634039D02*
X120984972Y-120341146D01*
X119005073Y-119634039D02*
X119217205Y-119421907D01*
X119005073Y-119634039D02*
X119712180Y-120341146D01*
X120398576Y-119754750D02*
X120298576Y-119754750D01*
X120398576Y-119754750D02*
X125248324Y-124604498D01*
X121833500Y-119775461D02*
X121126394Y-120482568D01*
X118863652Y-119775461D02*
X119570759Y-120482568D01*
X122045632Y-119987593D02*
X121833500Y-119775461D01*
X122045632Y-119987593D02*
X121338526Y-120694700D01*
X118651520Y-119987593D02*
X118863652Y-119775461D01*
X118651520Y-119987593D02*
X119358627Y-120694700D01*
X107752277Y-120007533D02*
X107102277Y-120007533D01*
X106402277Y-120007533D02*
X103602277Y-120007533D01*
X102902277Y-120007533D02*
X102252277Y-120007533D01*
X107002277Y-120107533D02*
X107002277Y-121907533D01*
X103502277Y-120107533D02*
X103502277Y-121907533D01*
X102152277Y-120107533D02*
X102152277Y-121907533D01*
X122187054Y-120129014D02*
X121479947Y-120836121D01*
X118510099Y-120129014D02*
X119217205Y-120836121D01*
X122399186Y-120341146D02*
X122187054Y-120129014D01*
X122399186Y-120341146D02*
X121692079Y-121048253D01*
X118297967Y-120341146D02*
X118510099Y-120129014D01*
X118297967Y-120341146D02*
X119005073Y-121048253D01*
X93992892Y-120482512D02*
X94309153Y-120761166D01*
X122540607Y-120482568D02*
X121833500Y-121189674D01*
X118156545Y-120482568D02*
X118863652Y-121189674D01*
X132452809Y-120627718D02*
X135752809Y-120627718D01*
X132452190Y-120627720D02*
X132452809Y-120627718D01*
X94180469Y-120647784D02*
X94017578Y-120832659D01*
X93830000Y-120667387D02*
X93992892Y-120482512D01*
X122752739Y-120694700D02*
X122540607Y-120482568D01*
X122752739Y-120694700D02*
X122045632Y-121401806D01*
X117944413Y-120694700D02*
X118156545Y-120482568D01*
X117944413Y-120694700D02*
X118651520Y-121401806D01*
X134743851Y-120711800D02*
X133461767Y-120711800D01*
X135852807Y-120727100D02*
X135852809Y-120727718D01*
X135852809Y-120727718D02*
X135852809Y-128527718D01*
X132352809Y-120727718D02*
X132352811Y-120727100D01*
X132352809Y-120727718D02*
X132352809Y-128527718D01*
X134943851Y-120734188D02*
X134943851Y-120920774D01*
X94471500Y-120823572D02*
X94479669Y-120828513D01*
X94474425Y-120823589D02*
X94471500Y-120823572D01*
X94474425Y-120823589D02*
X99480000Y-120823589D01*
X94479669Y-120828513D02*
X94480000Y-120830103D01*
X94480000Y-120830103D02*
X94480000Y-121320000D01*
X122894161Y-120836121D02*
X122187054Y-121543228D01*
X117802992Y-120836121D02*
X118510099Y-121543228D01*
X133261767Y-120920774D02*
X133261767Y-120734188D01*
X94145241Y-120945142D02*
X93830000Y-120667387D01*
X120310119Y-121007872D02*
X120322121Y-121025741D01*
X120310119Y-121007872D02*
X120322121Y-121025741D01*
X120322121Y-121025741D02*
X120326692Y-121042080D01*
X120322121Y-121025741D02*
X120326692Y-121042080D01*
X120326692Y-121042080D02*
X120326718Y-121120755D01*
X120326692Y-121042080D02*
X120326718Y-121120755D01*
X123106293Y-121048253D02*
X122894161Y-120836121D01*
X123106293Y-121048253D02*
X122399186Y-121755360D01*
X117590860Y-121048253D02*
X117802992Y-120836121D01*
X117590860Y-121048253D02*
X118297967Y-121755360D01*
X94380000Y-121060728D02*
X94380000Y-120805072D01*
X94480000Y-121069988D02*
X94475785Y-121069988D01*
X120326718Y-121120755D02*
X120323080Y-121182524D01*
X120326718Y-121120755D02*
X120323080Y-121182524D01*
X119949023Y-121136311D02*
X119663460Y-121421874D01*
X120074275Y-121152778D02*
X120210576Y-121146722D01*
X120323080Y-121182524D02*
X120318084Y-121254997D01*
X120323080Y-121182524D02*
X120318084Y-121254997D01*
X123247714Y-121189674D02*
X122540607Y-121896781D01*
X117449438Y-121189674D02*
X118156545Y-121896781D01*
X120747174Y-121200159D02*
X120613210Y-121233623D01*
X120044210Y-121231499D02*
X119949023Y-121136311D01*
X120613210Y-121233623D02*
X120623743Y-121324185D01*
X120613210Y-121233623D02*
X120623743Y-121324185D01*
X120318084Y-121254997D02*
X120315962Y-121312026D01*
X120318084Y-121254997D02*
X120315962Y-121312026D01*
X120315962Y-121312026D02*
X120334959Y-121418398D01*
X120315962Y-121312026D02*
X120334959Y-121418398D01*
X94480000Y-121320000D02*
X94479936Y-121323589D01*
X133661767Y-121320774D02*
X134543851Y-121320774D01*
X94479936Y-121323589D02*
X99490000Y-121323589D01*
X120623743Y-121324185D02*
X120614597Y-121358932D01*
X120623743Y-121324185D02*
X120614597Y-121358932D01*
X119949023Y-121326686D02*
X120044210Y-121231499D01*
X120614597Y-121358932D02*
X120594300Y-121388515D01*
X120614597Y-121358932D02*
X120594300Y-121388515D01*
X123459846Y-121401806D02*
X123247714Y-121189674D01*
X123459846Y-121401806D02*
X122752739Y-122108913D01*
X117237306Y-121401806D02*
X117449438Y-121189674D01*
X117237306Y-121401806D02*
X117944413Y-122108913D01*
X131647588Y-121407950D02*
X131647588Y-127707950D01*
X127122588Y-121407950D02*
X127122588Y-127707950D01*
X120334959Y-121418398D02*
X120382784Y-121488483D01*
X120334959Y-121418398D02*
X120382784Y-121488483D01*
X94315431Y-121420000D02*
X94315431Y-127620000D01*
X94034789Y-121420000D02*
X94380000Y-121420000D01*
X119853835Y-121421874D02*
X120288978Y-121857016D01*
X119663460Y-121421874D02*
X119758648Y-121517061D01*
X119758648Y-121517061D02*
X119853835Y-121421874D01*
X119546707Y-121538627D02*
X119447907Y-121637426D01*
X123601267Y-121543228D02*
X122894161Y-122250334D01*
X117095885Y-121543228D02*
X117802992Y-122250334D01*
X119447907Y-121637426D02*
X119696818Y-122128343D01*
X93973395Y-121670000D02*
X93830000Y-121670000D01*
X123813399Y-121755360D02*
X123601267Y-121543228D01*
X123813399Y-121755360D02*
X123106293Y-122462467D01*
X116883753Y-121755360D02*
X117095885Y-121543228D01*
X116883753Y-121755360D02*
X117590860Y-122462467D01*
X120384165Y-121761829D02*
X119949023Y-121326686D01*
X119678652Y-121797418D02*
X120070132Y-122075862D01*
X120288978Y-121857016D02*
X120384165Y-121761829D01*
X119205052Y-121880282D02*
X119107209Y-121978125D01*
X123954821Y-121896781D02*
X123247714Y-122603888D01*
X116742332Y-121896781D02*
X117449438Y-122603888D01*
X107852277Y-121907533D02*
X107852277Y-120107533D01*
X106502277Y-121907533D02*
X106502277Y-120107533D01*
X103002277Y-121907533D02*
X103002277Y-120107533D01*
X103002277Y-121907533D02*
X102902277Y-122007533D01*
X119107209Y-121978125D02*
X119547875Y-122598118D01*
X120166594Y-121979400D02*
X119546707Y-121538627D01*
X107102277Y-122007533D02*
X107752277Y-122007533D01*
X103602277Y-122007533D02*
X106402277Y-122007533D01*
X102252277Y-122007533D02*
X102902277Y-122007533D01*
X120070132Y-122075862D02*
X120166594Y-121979400D01*
X124166953Y-122108913D02*
X123954821Y-121896781D01*
X124166953Y-122108913D02*
X123459846Y-122816020D01*
X116530200Y-122108913D02*
X116742332Y-121896781D01*
X116530200Y-122108913D02*
X117237306Y-122816020D01*
X119365893Y-122110177D02*
X119811128Y-122334866D01*
X132342809Y-122127718D02*
X132342809Y-121627718D01*
X119696818Y-122128343D02*
X119205052Y-121880282D01*
X118937762Y-122218962D02*
X118837095Y-122239459D01*
X118937762Y-122218962D02*
X118837095Y-122239459D01*
X119000832Y-122231271D02*
X118937762Y-122218962D01*
X119000832Y-122231271D02*
X118937762Y-122218962D01*
X118837095Y-122239459D02*
X118771290Y-122286847D01*
X118837095Y-122239459D02*
X118771290Y-122286847D01*
X119903979Y-122242015D02*
X119678652Y-121797418D01*
X124308374Y-122250334D02*
X123601267Y-122957441D01*
X116388778Y-122250334D02*
X117095885Y-122957441D01*
X119071938Y-122271761D02*
X119000832Y-122231271D01*
X119071938Y-122271761D02*
X119000832Y-122231271D01*
X119811128Y-122334866D02*
X119903979Y-122242015D01*
X118976751Y-122366949D02*
X119071938Y-122271761D01*
X121900365Y-122434940D02*
X121641999Y-122693306D01*
X119031144Y-122448538D02*
X118952287Y-122500222D01*
X119031144Y-122448538D02*
X118952287Y-122500222D01*
X124520506Y-122462467D02*
X124308374Y-122250334D01*
X124520506Y-122462467D02*
X123813399Y-123169573D01*
X116176646Y-122462467D02*
X116388778Y-122250334D01*
X116176646Y-122462467D02*
X116883753Y-123169573D01*
X119337103Y-122482534D02*
X119241916Y-122577721D01*
X118882842Y-122498399D02*
X118863503Y-122484871D01*
X118882842Y-122498399D02*
X118863503Y-122484871D01*
X118952287Y-122500222D02*
X118905506Y-122505137D01*
X118952287Y-122500222D02*
X118905506Y-122505137D01*
X119644231Y-122501762D02*
X119365893Y-122110177D01*
X118905506Y-122505137D02*
X118882842Y-122498399D01*
X118905506Y-122505137D02*
X118882842Y-122498399D01*
X119119532Y-122536927D02*
X119031144Y-122448538D01*
X119547875Y-122598118D02*
X119644231Y-122501762D01*
X124661928Y-122603888D02*
X123954821Y-123310995D01*
X116035225Y-122603888D02*
X116742332Y-123310995D01*
X121900365Y-122625315D02*
X122002352Y-122727301D01*
X119053606Y-122638152D02*
X119119532Y-122536927D01*
X119053606Y-122638152D02*
X119119532Y-122536927D01*
X102002277Y-122657533D02*
X102002277Y-119357533D01*
X102002378Y-122662017D02*
X102002277Y-122657533D01*
X121641999Y-122693306D02*
X121737187Y-122788493D01*
X119048751Y-122698451D02*
X119053606Y-122638152D01*
X119048751Y-122698451D02*
X119053606Y-122638152D01*
X122002352Y-122727301D02*
X121839173Y-122890480D01*
X119058131Y-122727332D02*
X119048751Y-122698451D01*
X119058131Y-122727332D02*
X119048751Y-122698451D01*
X119076081Y-122751842D02*
X119058131Y-122727332D01*
X119076081Y-122751842D02*
X119058131Y-122727332D01*
X107902277Y-122757533D02*
X102102277Y-122757533D01*
X118507327Y-122762298D02*
X118559758Y-122765551D01*
X118507327Y-122762298D02*
X118559758Y-122765551D01*
X118559758Y-122765551D02*
X118629996Y-122808891D01*
X118559758Y-122765551D02*
X118629996Y-122808891D01*
X118461400Y-122787112D02*
X118507327Y-122762298D01*
X118461400Y-122787112D02*
X118507327Y-122762298D01*
X121737187Y-122788493D02*
X121900365Y-122625315D01*
X118629996Y-122808891D02*
X118725184Y-122713703D01*
X124874060Y-122816020D02*
X124661928Y-122603888D01*
X124874060Y-122816020D02*
X124166953Y-123523127D01*
X115823093Y-122816020D02*
X116035225Y-122603888D01*
X115823093Y-122816020D02*
X116530200Y-123523127D01*
X122097539Y-122822489D02*
X122335508Y-123060458D01*
X121489976Y-122845330D02*
X121342839Y-122992466D01*
X121635200Y-122876882D02*
X121489976Y-122845330D01*
X121839173Y-122890480D02*
X121934361Y-122985667D01*
X125015481Y-122957441D02*
X124308374Y-123664548D01*
X115681671Y-122957441D02*
X116388778Y-123664548D01*
X122430695Y-122965270D02*
X121900365Y-122434940D01*
X118568478Y-122980050D02*
X118462569Y-122927025D01*
X118568478Y-122980050D02*
X118462569Y-122927025D01*
X121934361Y-122985667D02*
X122097539Y-122822489D01*
X121526415Y-122985667D02*
X121635200Y-122876882D01*
X121342839Y-122992466D02*
X121873169Y-123522797D01*
X118719978Y-122995335D02*
X118568478Y-122980050D01*
X118719978Y-122995335D02*
X118568478Y-122980050D01*
X119044104Y-123005427D02*
X118719978Y-122995335D01*
X119092336Y-123053658D02*
X119044104Y-123005427D01*
X122335508Y-123060458D02*
X122430695Y-122965270D01*
X118710098Y-123132273D02*
X118828870Y-123140347D01*
X118828870Y-123140347D02*
X118650394Y-123318823D01*
X125227613Y-123169573D02*
X125015481Y-122957441D01*
X125227613Y-123169573D02*
X124520506Y-123876680D01*
X115469539Y-123169573D02*
X115681671Y-122957441D01*
X115469539Y-123169573D02*
X116176646Y-123876680D01*
X121187840Y-123264537D02*
X121063010Y-123272776D01*
X121187840Y-123264537D02*
X121063010Y-123272776D01*
X121063010Y-123272776D02*
X120980680Y-123327429D01*
X121063010Y-123272776D02*
X120980680Y-123327429D01*
X125369034Y-123310995D02*
X124661928Y-124018101D01*
X115328118Y-123310995D02*
X116035225Y-124018101D01*
X118650394Y-123318823D02*
X118738782Y-123407212D01*
X121311107Y-123320801D02*
X121187840Y-123264537D01*
X121311107Y-123320801D02*
X121187840Y-123264537D01*
X120980680Y-123327429D02*
X120939572Y-123379733D01*
X120980680Y-123327429D02*
X120939572Y-123379733D01*
X120939572Y-123379733D02*
X120914728Y-123441348D01*
X120939572Y-123379733D02*
X120914728Y-123441348D01*
X121147725Y-123396047D02*
X121223989Y-123423847D01*
X121147725Y-123396047D02*
X121223989Y-123423847D01*
X121107552Y-123402581D02*
X121147725Y-123396047D01*
X121107552Y-123402581D02*
X121147725Y-123396047D01*
X118738782Y-123407212D02*
X119092336Y-123053658D01*
X121223989Y-123423847D02*
X121349107Y-123529064D01*
X121223989Y-123423847D02*
X121349107Y-123529064D01*
X121073531Y-123424953D02*
X121107552Y-123402581D01*
X121073531Y-123424953D02*
X121107552Y-123402581D01*
X121968356Y-123427609D02*
X121526415Y-122985667D01*
X121443232Y-123432815D02*
X121311107Y-123320801D01*
X121443232Y-123432815D02*
X121311107Y-123320801D01*
X120914728Y-123441348D02*
X120910244Y-123507609D01*
X120914728Y-123441348D02*
X120910244Y-123507609D01*
X121052479Y-123458056D02*
X121073531Y-123424953D01*
X121052479Y-123458056D02*
X121073531Y-123424953D01*
X121047809Y-123497089D02*
X121052479Y-123458056D01*
X121047809Y-123497089D02*
X121052479Y-123458056D01*
X120910244Y-123507609D02*
X120924603Y-123572570D01*
X120910244Y-123507609D02*
X120924603Y-123572570D01*
X121873169Y-123522797D02*
X121968356Y-123427609D01*
X125581166Y-123523127D02*
X125369034Y-123310995D01*
X125581166Y-123523127D02*
X124874060Y-124230233D01*
X115115986Y-123523127D02*
X115328118Y-123310995D01*
X115115986Y-123523127D02*
X115823093Y-124230233D01*
X121349107Y-123529064D02*
X121446368Y-123648762D01*
X121349107Y-123529064D02*
X121446368Y-123648762D01*
X121530602Y-123531315D02*
X121443232Y-123432815D01*
X121530602Y-123531315D02*
X121443232Y-123432815D01*
X121072563Y-123571389D02*
X121047809Y-123497089D01*
X121072563Y-123571389D02*
X121047809Y-123497089D01*
X120924603Y-123572570D02*
X120989465Y-123688459D01*
X120924603Y-123572570D02*
X120989465Y-123688459D01*
X121593761Y-123646271D02*
X121530602Y-123531315D01*
X121593761Y-123646271D02*
X121530602Y-123531315D01*
X121446368Y-123648762D02*
X121468209Y-123722121D01*
X121446368Y-123648762D02*
X121468209Y-123722121D01*
X120725926Y-123680769D02*
X120625259Y-123701266D01*
X120725926Y-123680769D02*
X120625259Y-123701266D01*
X120989465Y-123688459D02*
X121077886Y-123788174D01*
X120989465Y-123688459D02*
X121077886Y-123788174D01*
X121173074Y-123692987D02*
X121072563Y-123571389D01*
X121173074Y-123692987D02*
X121072563Y-123571389D01*
X120788996Y-123693079D02*
X120725926Y-123680769D01*
X120788996Y-123693079D02*
X120725926Y-123680769D01*
X120625259Y-123701266D02*
X120559455Y-123748654D01*
X120625259Y-123701266D02*
X120559455Y-123748654D01*
X121607266Y-123710594D02*
X121593761Y-123646271D01*
X121607266Y-123710594D02*
X121593761Y-123646271D01*
X121468209Y-123722121D02*
X121461859Y-123760038D01*
X121468209Y-123722121D02*
X121461859Y-123760038D01*
X120860102Y-123733569D02*
X120788996Y-123693079D01*
X120860102Y-123733569D02*
X120788996Y-123693079D01*
X121242677Y-123755817D02*
X121173074Y-123692987D01*
X121242677Y-123755817D02*
X121173074Y-123692987D01*
X121461859Y-123760038D02*
X121440682Y-123792105D01*
X121461859Y-123760038D02*
X121440682Y-123792105D01*
X121602241Y-123776026D02*
X121607266Y-123710594D01*
X121602241Y-123776026D02*
X121607266Y-123710594D01*
X121077886Y-123788174D02*
X121177084Y-123876220D01*
X121077886Y-123788174D02*
X121177084Y-123876220D01*
X121346132Y-123813777D02*
X121242677Y-123755817D01*
X121346132Y-123813777D02*
X121242677Y-123755817D01*
X120764915Y-123828756D02*
X120860102Y-123733569D01*
X121576557Y-123836418D02*
X121602241Y-123776026D01*
X121576557Y-123836418D02*
X121602241Y-123776026D01*
X121177084Y-123876220D02*
X121292190Y-123941233D01*
X121177084Y-123876220D02*
X121292190Y-123941233D01*
X121535445Y-123887717D02*
X121576557Y-123836418D01*
X121535445Y-123887717D02*
X121576557Y-123836418D01*
X120819308Y-123910345D02*
X120740451Y-123962029D01*
X120819308Y-123910345D02*
X120740451Y-123962029D01*
X121483696Y-123929035D02*
X121535445Y-123887717D01*
X121483696Y-123929035D02*
X121535445Y-123887717D01*
X121292190Y-123941233D02*
X121356539Y-123956884D01*
X121292190Y-123941233D02*
X121356539Y-123956884D01*
X121125267Y-123944341D02*
X121030080Y-124039528D01*
X121422564Y-123954126D02*
X121483696Y-123929035D01*
X121422564Y-123954126D02*
X121483696Y-123929035D01*
X121356539Y-123956884D02*
X121422564Y-123954126D01*
X121356539Y-123956884D02*
X121422564Y-123954126D01*
X120671006Y-123960206D02*
X120651667Y-123946678D01*
X120671006Y-123960206D02*
X120651667Y-123946678D01*
X120740451Y-123962029D02*
X120693670Y-123966944D01*
X120740451Y-123962029D02*
X120693670Y-123966944D01*
X120693670Y-123966944D02*
X120671006Y-123960206D01*
X120693670Y-123966944D02*
X120671006Y-123960206D01*
X120907696Y-123998734D02*
X120819308Y-123910345D01*
X120841770Y-124099959D02*
X120907696Y-123998734D01*
X120841770Y-124099959D02*
X120907696Y-123998734D01*
X103514503Y-124149000D02*
X103559375Y-124149000D01*
X103431170Y-124149000D02*
X103465124Y-124149000D01*
X102702003Y-124149000D02*
X102891106Y-124149000D01*
X109630000Y-124150000D02*
X109930000Y-124450000D01*
X107690000Y-124150000D02*
X109630000Y-124150000D01*
X107290000Y-124150000D02*
X107690000Y-124150000D01*
X107290000Y-124150000D02*
X102410000Y-124150000D01*
X120836916Y-124160258D02*
X120841770Y-124099959D01*
X120836916Y-124160258D02*
X120841770Y-124099959D01*
X120846296Y-124189139D02*
X120836916Y-124160258D01*
X120846296Y-124189139D02*
X120836916Y-124160258D01*
X120864246Y-124213649D02*
X120846296Y-124189139D01*
X120864246Y-124213649D02*
X120846296Y-124189139D01*
X102310000Y-124250000D02*
X102310000Y-129130000D01*
X120039323Y-124268786D02*
X119935568Y-124442176D01*
X120039323Y-124268786D02*
X119935568Y-124442176D01*
X119935568Y-124442176D02*
X119918639Y-124600667D01*
X119935568Y-124442176D02*
X119918639Y-124600667D01*
X109930000Y-124450000D02*
X109930000Y-128930000D01*
X120076234Y-124455003D02*
X120138229Y-124360255D01*
X120076234Y-124455003D02*
X120138229Y-124360255D01*
X120055152Y-124597586D02*
X120076234Y-124455003D01*
X120055152Y-124597586D02*
X120076234Y-124455003D01*
X119918639Y-124600667D02*
X120055152Y-124597586D01*
X125248324Y-124604498D02*
X125248324Y-124704498D01*
X115448829Y-124604498D02*
X120298576Y-119754750D01*
X115448829Y-124704498D02*
X115448829Y-124604498D01*
X119923372Y-124786495D02*
X119880075Y-124725282D01*
X119923372Y-124786495D02*
X119880075Y-124725282D01*
X120268049Y-124810483D02*
X120271449Y-124949227D01*
X106720000Y-124820000D02*
X102980000Y-124820000D01*
X102980000Y-124820000D02*
X102980000Y-126020000D01*
X119945729Y-124879112D02*
X119923372Y-124786495D01*
X119945729Y-124879112D02*
X119923372Y-124786495D01*
X120045031Y-124882608D02*
X119945729Y-124879112D01*
X120045031Y-124882608D02*
X119945729Y-124879112D01*
X120469237Y-124915512D02*
X120598337Y-124824825D01*
X120469237Y-124915512D02*
X120598337Y-124824825D01*
X120154058Y-124944872D02*
X120045031Y-124882608D01*
X120154058Y-124944872D02*
X120045031Y-124882608D01*
X120271449Y-124949227D02*
X120469237Y-124915512D01*
X120271449Y-124949227D02*
X120469237Y-124915512D01*
X119371099Y-124964207D02*
X119085536Y-125249769D01*
X119575603Y-125032729D02*
X119655782Y-125082435D01*
X119575603Y-125032729D02*
X119655782Y-125082435D01*
X119466286Y-125059394D02*
X119371099Y-124964207D01*
X119655782Y-125082435D02*
X119729327Y-125095514D01*
X119655782Y-125082435D02*
X119729327Y-125095514D01*
X108978198Y-125101801D02*
X108341801Y-125101801D01*
X108341801Y-125101801D02*
X108341801Y-125738198D01*
X106438198Y-125101801D02*
X105801801Y-125101801D01*
X105801801Y-125101801D02*
X105801801Y-125738198D01*
X103898198Y-125101801D02*
X103261801Y-125101801D01*
X103261801Y-125101801D02*
X103261801Y-125738198D01*
X119371099Y-125154581D02*
X119466286Y-125059394D01*
X119275911Y-125249769D02*
X119711054Y-125684912D01*
X119085536Y-125249769D02*
X119180724Y-125344956D01*
X119180724Y-125344956D02*
X119275911Y-125249769D01*
X118849692Y-125458416D02*
X118808154Y-125585368D01*
X118808154Y-125585368D02*
X119082243Y-125674607D01*
X119249140Y-125588449D02*
X118849692Y-125458416D01*
X119806241Y-125589724D02*
X119371099Y-125154581D01*
X119327483Y-125617659D02*
X119249140Y-125588449D01*
X119327483Y-125617659D02*
X119249140Y-125588449D01*
X119416037Y-125675457D02*
X119327483Y-125617659D01*
X119416037Y-125675457D02*
X119327483Y-125617659D01*
X119711054Y-125684912D02*
X119806241Y-125589724D01*
X108978198Y-125738198D02*
X108978198Y-125101801D01*
X108341801Y-125738198D02*
X108978198Y-125738198D01*
X106438198Y-125738198D02*
X106438198Y-125101801D01*
X105801801Y-125738198D02*
X106438198Y-125738198D01*
X103898198Y-125738198D02*
X103898198Y-125101801D01*
X103261801Y-125738198D02*
X103898198Y-125738198D01*
X125581166Y-125785868D02*
X124874060Y-125078762D01*
X115115986Y-125785868D02*
X115823093Y-125078762D01*
X125369034Y-125998000D02*
X124661928Y-125290894D01*
X125369034Y-125998000D02*
X125581166Y-125785868D01*
X115328118Y-125998000D02*
X116035225Y-125290894D01*
X115328118Y-125998000D02*
X115115986Y-125785868D01*
X106720000Y-126020000D02*
X106720000Y-124820000D01*
X102980000Y-126020000D02*
X106720000Y-126020000D01*
X125227613Y-126139422D02*
X124520506Y-125432315D01*
X115469539Y-126139422D02*
X116176646Y-125432315D01*
X102309000Y-126231472D02*
X102309000Y-126042369D01*
X125015481Y-126351554D02*
X124308374Y-125644447D01*
X125015481Y-126351554D02*
X125227613Y-126139422D01*
X115681671Y-126351554D02*
X116388778Y-125644447D01*
X115681671Y-126351554D02*
X115469539Y-126139422D01*
X124874060Y-126492975D02*
X124166953Y-125785868D01*
X115823093Y-126492975D02*
X116530200Y-125785868D01*
X107390000Y-126590000D02*
X107390000Y-124250000D01*
X107390000Y-126590000D02*
X102310000Y-126590000D01*
X124661928Y-126705107D02*
X123954821Y-125998000D01*
X124661928Y-126705107D02*
X124874060Y-126492975D01*
X116035225Y-126705107D02*
X116742332Y-125998000D01*
X116035225Y-126705107D02*
X115823093Y-126492975D01*
X102359500Y-126790000D02*
X107390000Y-126790000D01*
X124520506Y-126846529D02*
X123813399Y-126139422D01*
X116176646Y-126846529D02*
X116883753Y-126139422D01*
X124308374Y-127058661D02*
X123601267Y-126351554D01*
X124308374Y-127058661D02*
X124520506Y-126846529D01*
X116388778Y-127058661D02*
X117095885Y-126351554D01*
X116388778Y-127058661D02*
X116176646Y-126846529D01*
X132342809Y-127127718D02*
X132342809Y-127627718D01*
X124166953Y-127200082D02*
X123459846Y-126492975D01*
X116530200Y-127200082D02*
X117237306Y-126492975D01*
X106720000Y-127360000D02*
X102980000Y-127360000D01*
X102980000Y-127360000D02*
X102980000Y-128560000D01*
X93973395Y-127370000D02*
X93973395Y-121670000D01*
X93973395Y-127370000D02*
X93830000Y-127370000D01*
X93830000Y-127370000D02*
X93830000Y-121670000D01*
X123954821Y-127412214D02*
X123247714Y-126705107D01*
X123954821Y-127412214D02*
X124166953Y-127200082D01*
X116742332Y-127412214D02*
X117449438Y-126705107D01*
X116742332Y-127412214D02*
X116530200Y-127200082D01*
X123813399Y-127553635D02*
X123106293Y-126846529D01*
X116883753Y-127553635D02*
X117590860Y-126846529D01*
X94034789Y-127620000D02*
X94380000Y-127620000D01*
X108978198Y-127641801D02*
X108341801Y-127641801D01*
X108341801Y-127641801D02*
X108341801Y-128278198D01*
X106438198Y-127641801D02*
X105801801Y-127641801D01*
X105801801Y-127641801D02*
X105801801Y-128278198D01*
X103898198Y-127641801D02*
X103261801Y-127641801D01*
X103261801Y-127641801D02*
X103261801Y-128278198D01*
X94458825Y-127658464D02*
X94458825Y-121381535D01*
X131222588Y-127707950D02*
X131222588Y-121407950D01*
X126697588Y-127707950D02*
X126697588Y-121407950D01*
X94479936Y-127716410D02*
X99490000Y-127716410D01*
X94480000Y-127720000D02*
X94479936Y-127716410D01*
X123601267Y-127765767D02*
X122894161Y-127058661D01*
X123601267Y-127765767D02*
X123813399Y-127553635D01*
X117095885Y-127765767D02*
X117802992Y-127058661D01*
X117095885Y-127765767D02*
X116883753Y-127553635D01*
X123459846Y-127907189D02*
X122752739Y-127200082D01*
X117237306Y-127907189D02*
X117944413Y-127200082D01*
X99490000Y-127970011D02*
X99490000Y-121069988D01*
X94480000Y-127970011D02*
X94475785Y-127970011D01*
X94380000Y-127979271D02*
X94380000Y-128234927D01*
X94145241Y-128094857D02*
X93830000Y-128372612D01*
X123247714Y-128119321D02*
X122540607Y-127412214D01*
X123247714Y-128119321D02*
X123459846Y-127907189D01*
X117449438Y-128119321D02*
X118156545Y-127412214D01*
X117449438Y-128119321D02*
X117237306Y-127907189D01*
X94480000Y-128209896D02*
X94480000Y-127720000D01*
X94479669Y-128211486D02*
X94480000Y-128209896D01*
X99480000Y-128216410D02*
X99480000Y-120823589D01*
X94474425Y-128216410D02*
X99480000Y-128216410D01*
X94474425Y-128216410D02*
X94471500Y-128216427D01*
X94471500Y-128216427D02*
X94479669Y-128211486D01*
X123106293Y-128260742D02*
X122399186Y-127553635D01*
X117590860Y-128260742D02*
X118297967Y-127553635D01*
X108978198Y-128278198D02*
X108978198Y-127641801D01*
X108341801Y-128278198D02*
X108978198Y-128278198D01*
X106438198Y-128278198D02*
X106438198Y-127641801D01*
X105801801Y-128278198D02*
X106438198Y-128278198D01*
X103898198Y-128278198D02*
X103898198Y-127641801D01*
X103261801Y-128278198D02*
X103898198Y-128278198D01*
X93830000Y-128372612D02*
X93992892Y-128557487D01*
X94180469Y-128392215D02*
X94017578Y-128207340D01*
X122894161Y-128472874D02*
X122187054Y-127765767D01*
X122894161Y-128472874D02*
X123106293Y-128260742D01*
X117802992Y-128472874D02*
X118510099Y-127765767D01*
X117802992Y-128472874D02*
X117590860Y-128260742D01*
X135852809Y-128527718D02*
X135852807Y-128528337D01*
X132352811Y-128528337D02*
X132352809Y-128527718D01*
X135852804Y-128528666D02*
X135852809Y-128527718D01*
X93992892Y-128557487D02*
X94309153Y-128278833D01*
X106720000Y-128560000D02*
X106720000Y-127360000D01*
X102980000Y-128560000D02*
X106720000Y-128560000D01*
X122752739Y-128614296D02*
X122045632Y-127907189D01*
X117944413Y-128614296D02*
X118651520Y-127907189D01*
X132452809Y-128627718D02*
X132452190Y-128627717D01*
X132452809Y-128627718D02*
X135752809Y-128627718D01*
X122540607Y-128826428D02*
X121833500Y-128119321D01*
X122540607Y-128826428D02*
X122752739Y-128614296D01*
X118156545Y-128826428D02*
X118863652Y-128119321D01*
X118156545Y-128826428D02*
X117944413Y-128614296D01*
X109930000Y-128930000D02*
X109630000Y-129230000D01*
X122399186Y-128967849D02*
X121692079Y-128260742D01*
X118297967Y-128967849D02*
X119005073Y-128260742D01*
X107390000Y-129130000D02*
X107390000Y-126590000D01*
X122187054Y-129179981D02*
X121479947Y-128472874D01*
X122187054Y-129179981D02*
X122399186Y-128967849D01*
X118510099Y-129179981D02*
X119217205Y-128472874D01*
X118510099Y-129179981D02*
X118297967Y-128967849D01*
X109630000Y-129230000D02*
X107690000Y-129230000D01*
X107690000Y-129230000D02*
X107290000Y-129230000D01*
X102410000Y-129230000D02*
X107290000Y-129230000D01*
X122045632Y-129321402D02*
X121338526Y-128614296D01*
X118651520Y-129321402D02*
X119358627Y-128614296D01*
X121833500Y-129533534D02*
X121126394Y-128826428D01*
X121833500Y-129533534D02*
X122045632Y-129321402D01*
X118863652Y-129533534D02*
X119570759Y-128826428D01*
X118863652Y-129533534D02*
X118651520Y-129321402D01*
X120398576Y-129554245D02*
X125248324Y-124704498D01*
X120298576Y-129554245D02*
X115448829Y-124704498D01*
X120298576Y-129554245D02*
X120398576Y-129554245D01*
X141980000Y-129660000D02*
X139320000Y-129660000D01*
X139320000Y-129660000D02*
X139320000Y-119380000D01*
X121692079Y-129674956D02*
X120984972Y-128967849D01*
X119005073Y-129674956D02*
X119712180Y-128967849D01*
X121479947Y-129887088D02*
X120772840Y-129179981D01*
X121479947Y-129887088D02*
X121692079Y-129674956D01*
X119217205Y-129887088D02*
X119924312Y-129179981D01*
X119217205Y-129887088D02*
X119005073Y-129674956D01*
X145730000Y-130870000D02*
X94930000Y-130870000D01*
X94930000Y-130870000D02*
X94930000Y-133410000D01*
X145730000Y-133410000D02*
X145730000Y-130870000D01*
X94930000Y-133410000D02*
X145730000Y-133410000D01*
X146905000Y-135895000D02*
X146905000Y-113145000D01*
X93755000Y-135895000D02*
X146905000Y-135895000D01*
X108002267Y-119357533D02*
G75*
G03*
X107902277Y-119257533I-99967J33D01*
G01*
X102102277Y-119257477D02*
G75*
G03*
X102002277Y-119357533I23J-100023D01*
G01*
X107852267Y-120107533D02*
G75*
G03*
X107752277Y-120007533I-99967J33D01*
G01*
X106502267Y-120107533D02*
G75*
G03*
X106402277Y-120007533I-99967J33D01*
G01*
X103002267Y-120107533D02*
G75*
G03*
X102902277Y-120007533I-99967J33D01*
G01*
X107102277Y-120007477D02*
G75*
G03*
X107002277Y-120107533I23J-100023D01*
G01*
X103602277Y-120007477D02*
G75*
G03*
X103502277Y-120107533I23J-100023D01*
G01*
X102252277Y-120007477D02*
G75*
G03*
X102152277Y-120107533I23J-100023D01*
G01*
X135852779Y-120727099D02*
G75*
G03*
X135753428Y-120627721I-99979J-601D01*
G01*
X134943851Y-120734189D02*
G75*
G03*
X134743851Y-120711800I-148601J-422951D01*
G01*
X132452189Y-120627712D02*
G75*
G03*
X132352812Y-120727100I611J-99988D01*
G01*
X133461768Y-120711795D02*
G75*
G03*
X133261767Y-120734189I-49368J-463405D01*
G01*
X94309145Y-120761176D02*
G75*
G03*
X94471500Y-120823571I165255J187576D01*
G01*
X120462358Y-121237024D02*
G75*
G03*
X120409873Y-120917254I-338558J108624D01*
G01*
X134543851Y-121320751D02*
G75*
G03*
X134943851Y-120920774I49J399951D01*
G01*
X120409869Y-120917257D02*
G75*
G03*
X120136210Y-120921927I-134539J-136543D01*
G01*
X120310118Y-121007874D02*
G75*
G03*
X120232460Y-121016052I-34718J-43126D01*
G01*
X94145249Y-120945132D02*
G75*
G03*
X94475785Y-121069988I330551J375132D01*
G01*
X120232439Y-121016035D02*
G75*
G03*
X120210576Y-121146722I105161J-84765D01*
G01*
X120136230Y-120921945D02*
G75*
G03*
X120074275Y-121152778I191970J-175255D01*
G01*
X120693008Y-121480214D02*
G75*
G03*
X120747174Y-121200159I-175008J179114D01*
G01*
X133261766Y-120920774D02*
G75*
G03*
X133661767Y-121320774I400004J4D01*
G01*
X94380001Y-121420000D02*
G75*
G03*
X94479936Y-121323589I-1J100000D01*
G01*
X120483503Y-121398812D02*
G75*
G03*
X120594300Y-121388515I50197J61112D01*
G01*
X120462325Y-121237015D02*
G75*
G03*
X120483496Y-121398820I204075J-55585D01*
G01*
X131222588Y-121407950D02*
G75*
G03*
X127122588Y-121407950I-2050000J0D01*
G01*
X131647588Y-121407950D02*
G75*
G03*
X126697588Y-121407950I-2475000J0D01*
G01*
X120382789Y-121488479D02*
G75*
G03*
X120692993Y-121480197I151251J148379D01*
G01*
X94178176Y-121419945D02*
G75*
G03*
X93973395Y-121670000I25124J-229455D01*
G01*
X94034783Y-121419950D02*
G75*
G03*
X93830000Y-121670000I25117J-229450D01*
G01*
X107752277Y-122007477D02*
G75*
G03*
X107852277Y-121907533I23J99977D01*
G01*
X106402277Y-122007477D02*
G75*
G03*
X106502277Y-121907533I23J99977D01*
G01*
X107002267Y-121907533D02*
G75*
G03*
X107102277Y-122007533I100033J33D01*
G01*
X103502267Y-121907533D02*
G75*
G03*
X103602277Y-122007533I100033J33D01*
G01*
X102152267Y-121907533D02*
G75*
G03*
X102252277Y-122007533I100033J33D01*
G01*
X118976738Y-122366972D02*
G75*
G03*
X118867115Y-122381397I-45138J-80728D01*
G01*
X119337417Y-122835764D02*
G75*
G03*
X119337103Y-122482534I-169617J176464D01*
G01*
X118867103Y-122381383D02*
G75*
G03*
X118863503Y-122484871I46297J-53417D01*
G01*
X118771245Y-122286798D02*
G75*
G03*
X118762260Y-122574003I136155J-148002D01*
G01*
X119237071Y-122745830D02*
G75*
G03*
X119241916Y-122577721I-83471J86530D01*
G01*
X118762274Y-122573990D02*
G75*
G03*
X118944349Y-122614160I122426J122190D01*
G01*
X107902277Y-122757477D02*
G75*
G03*
X108002277Y-122657533I23J99977D01*
G01*
X118725174Y-122713711D02*
G75*
G03*
X118360795Y-122697344I-189874J-162889D01*
G01*
X119076118Y-122751805D02*
G75*
G03*
X119237028Y-122745785I77582J79805D01*
G01*
X102002267Y-122657533D02*
G75*
G03*
X102102277Y-122757533I100033J33D01*
G01*
X118981852Y-122847985D02*
G75*
G03*
X119337421Y-122835767I171918J176855D01*
G01*
X118944328Y-122614149D02*
G75*
G03*
X118981850Y-122847986I169372J-92751D01*
G01*
X118461373Y-122787085D02*
G75*
G03*
X118462569Y-122927025I65527J-69415D01*
G01*
X118360811Y-122697360D02*
G75*
G03*
X118360688Y-123015520I155989J-159140D01*
G01*
X118360688Y-123015520D02*
G75*
G03*
X118710098Y-123132273I326762J396690D01*
G01*
X121346147Y-123813732D02*
G75*
G03*
X121440681Y-123792104I29853J86932D01*
G01*
X120764923Y-123828741D02*
G75*
G03*
X120655279Y-123843204I-45123J-80759D01*
G01*
X121125574Y-124297563D02*
G75*
G03*
X121125266Y-123944342I-169674J176463D01*
G01*
X120655260Y-123843181D02*
G75*
G03*
X120651667Y-123946678I46340J-53419D01*
G01*
X120559498Y-123748702D02*
G75*
G03*
X120550425Y-124035810I136102J-147998D01*
G01*
X121025230Y-124207631D02*
G75*
G03*
X121030080Y-124039528I-83530J86531D01*
G01*
X120550464Y-124035771D02*
G75*
G03*
X120732513Y-124075966I122436J122171D01*
G01*
X107390000Y-124250000D02*
G75*
G03*
X107290000Y-124150000I-100000J0D01*
G01*
X120864216Y-124213679D02*
G75*
G03*
X121025193Y-124207594I77584J79879D01*
G01*
X102410000Y-124150000D02*
G75*
G03*
X102310000Y-124250000I0J-100000D01*
G01*
X120594095Y-124269841D02*
G75*
G03*
X120039323Y-124268786I-277895J-267359D01*
G01*
X120598332Y-124824820D02*
G75*
G03*
X120594088Y-124269848I-259132J275520D01*
G01*
X120770011Y-124309796D02*
G75*
G03*
X121125586Y-124297576I171919J176856D01*
G01*
X120732490Y-124075956D02*
G75*
G03*
X120770014Y-124309793I169410J-92744D01*
G01*
X120498689Y-124364822D02*
G75*
G03*
X120138229Y-124360255I-182439J-172078D01*
G01*
X120503576Y-124729215D02*
G75*
G03*
X120498687Y-124364824I-172476J179915D01*
G01*
X120268053Y-124810446D02*
G75*
G03*
X120503573Y-124729212I32247J288546D01*
G01*
X119880099Y-124725260D02*
G75*
G03*
X119577729Y-124730381I-148799J-143440D01*
G01*
X119791715Y-124827244D02*
G75*
G03*
X119675252Y-124823231I-60115J-52656D01*
G01*
X119795803Y-124947394D02*
G75*
G03*
X119791687Y-124827268I-59503J58094D01*
G01*
X119675231Y-124823207D02*
G75*
G03*
X119675359Y-124942109I54169J-59393D01*
G01*
X120134738Y-125288459D02*
G75*
G03*
X120154057Y-124944873I-137338J180059D01*
G01*
X119675386Y-124942086D02*
G75*
G03*
X119795830Y-124947421I62714J53586D01*
G01*
X120040494Y-125192298D02*
G75*
G03*
X120050264Y-125031455I-72094J85098D01*
G01*
X119577766Y-124730422D02*
G75*
G03*
X119575603Y-125032729I142134J-152178D01*
G01*
X120050228Y-125031497D02*
G75*
G03*
X119889744Y-125043885I-74128J-85403D01*
G01*
X119882443Y-125203526D02*
G75*
G03*
X120040492Y-125192295I73957J76926D01*
G01*
X119889777Y-125043921D02*
G75*
G03*
X119882413Y-125203556I73523J-83379D01*
G01*
X119793701Y-125305229D02*
G75*
G03*
X120134723Y-125288439I162949J161979D01*
G01*
X119729320Y-125095514D02*
G75*
G03*
X119793706Y-125305224I223280J-46186D01*
G01*
X119417853Y-126005330D02*
G75*
G03*
X119416037Y-125675457I-165553J164030D01*
G01*
X119316151Y-125765991D02*
G75*
G03*
X119175200Y-125758427I-74151J-64709D01*
G01*
X119324493Y-125908354D02*
G75*
G03*
X119316175Y-125765970I-74993J67054D01*
G01*
X119175176Y-125758403D02*
G75*
G03*
X119180194Y-125901951I70524J-69397D01*
G01*
X119180151Y-125901988D02*
G75*
G03*
X119324461Y-125908326I75249J67288D01*
G01*
X119082241Y-125674605D02*
G75*
G03*
X119090423Y-126002557I163659J-159995D01*
G01*
X119090438Y-126002544D02*
G75*
G03*
X119417843Y-126005319I165062J159044D01*
G01*
X94479937Y-127716410D02*
G75*
G03*
X94380000Y-127619999I-99937J-3590D01*
G01*
X93973452Y-127370005D02*
G75*
G03*
X94178183Y-127619998I229848J-20595D01*
G01*
X93830052Y-127370005D02*
G75*
G03*
X94034789Y-127619999I229848J-20595D01*
G01*
X126697592Y-127707950D02*
G75*
G03*
X131647588Y-127707950I2474998J0D01*
G01*
X127122592Y-127707950D02*
G75*
G03*
X131222588Y-127707950I2049998J0D01*
G01*
X94475785Y-127969999D02*
G75*
G03*
X94145241Y-128094857I15J-500001D01*
G01*
X94471500Y-128216442D02*
G75*
G03*
X94309154Y-128278834I2900J-249958D01*
G01*
X135753428Y-128627707D02*
G75*
G03*
X135852807Y-128528337I-628J100007D01*
G01*
X132352784Y-128528337D02*
G75*
G03*
X132452190Y-128627716I100016J637D01*
G01*
X107290000Y-129229999D02*
G75*
G03*
X107389999Y-129130000I0J99999D01*
G01*
X102310000Y-129130000D02*
G75*
G03*
X102410000Y-129230000I100000J0D01*
G01*
X124598576Y-124654498D02*
G75*
G03*
X124098576Y-124654498I-250000J0D01*
G01*
X124098576Y-124654498D02*
G75*
G03*
X124598576Y-124654498I250000J0D01*
G01*
X134528685Y-127679145D02*
G75*
G03*
X133676933Y-127679145I-425876J0D01*
G01*
X133676933Y-127679145D02*
G75*
G03*
X134528685Y-127679145I425876J0D01*
G01*
%TO.C,J2*%
X148709400Y-148979800D02*
X148709400Y-137259800D01*
X148709400Y-137259800D02*
X147289400Y-137259800D01*
X147289400Y-141759800D02*
X142399400Y-141759800D01*
X147289400Y-137259800D02*
X147289400Y-141759800D01*
X146449400Y-137569800D02*
X145849400Y-137569800D01*
X146399400Y-148369800D02*
X145899400Y-148369800D01*
X146399400Y-142869800D02*
X146399400Y-148369800D01*
X146149400Y-138169800D02*
X146449400Y-137569800D01*
X145899400Y-148369800D02*
X145899400Y-142869800D01*
X145899400Y-142869800D02*
X146399400Y-142869800D01*
X145849400Y-137569800D02*
X146149400Y-138169800D01*
X143899400Y-148369800D02*
X143399400Y-148369800D01*
X143899400Y-142869800D02*
X143899400Y-148369800D01*
X143399400Y-148369800D02*
X143399400Y-142869800D01*
X143399400Y-142869800D02*
X143899400Y-142869800D01*
X142399400Y-148979800D02*
X148709400Y-148979800D01*
X142399400Y-148979800D02*
X136089400Y-148979800D01*
X141399400Y-148369800D02*
X140899400Y-148369800D01*
X141399400Y-142869800D02*
X141399400Y-148369800D01*
X140899400Y-148369800D02*
X140899400Y-142869800D01*
X140899400Y-142869800D02*
X141399400Y-142869800D01*
X138899400Y-148369800D02*
X138399400Y-148369800D01*
X138899400Y-142869800D02*
X138899400Y-148369800D01*
X138399400Y-148369800D02*
X138399400Y-142869800D01*
X138399400Y-142869800D02*
X138899400Y-142869800D01*
X137509400Y-141759800D02*
X142399400Y-141759800D01*
X137509400Y-137259800D02*
X137509400Y-141759800D01*
X136089400Y-148979800D02*
X136089400Y-137259800D01*
X136089400Y-137259800D02*
X137509400Y-137259800D01*
%TO.C,J16*%
X138351600Y-105633800D02*
X138351600Y-106903800D01*
X138351600Y-106903800D02*
X139621600Y-106903800D01*
X140664529Y-102713800D02*
X141061600Y-102713800D01*
X140664529Y-103473800D02*
X141061600Y-103473800D01*
X140731600Y-105253800D02*
X141061600Y-105253800D01*
X140731600Y-106013800D02*
X141061600Y-106013800D01*
X141061600Y-101763800D02*
X143721600Y-101763800D01*
X141061600Y-104363800D02*
X143721600Y-104363800D01*
X141061600Y-106963800D02*
X141061600Y-101763800D01*
X143721600Y-101763800D02*
X143721600Y-106963800D01*
X143721600Y-103473800D02*
X149721600Y-103473800D01*
X143721600Y-105353800D02*
X149721600Y-105353800D01*
X143721600Y-105473800D02*
X149721600Y-105473800D01*
X143721600Y-105593800D02*
X149721600Y-105593800D01*
X143721600Y-105713800D02*
X149721600Y-105713800D01*
X143721600Y-105833800D02*
X149721600Y-105833800D01*
X143721600Y-105953800D02*
X149721600Y-105953800D01*
X143721600Y-106013800D02*
X149721600Y-106013800D01*
X143721600Y-106963800D02*
X141061600Y-106963800D01*
X149721600Y-102713800D02*
X143721600Y-102713800D01*
X149721600Y-103473800D02*
X149721600Y-102713800D01*
X149721600Y-105253800D02*
X143721600Y-105253800D01*
X149721600Y-106013800D02*
X149721600Y-105253800D01*
%TO.C,J12*%
X61846800Y-99766400D02*
X61846800Y-98496400D01*
X61846800Y-98496400D02*
X60576800Y-98496400D01*
X59533871Y-102686400D02*
X59136800Y-102686400D01*
X59533871Y-101926400D02*
X59136800Y-101926400D01*
X59466800Y-100146400D02*
X59136800Y-100146400D01*
X59466800Y-99386400D02*
X59136800Y-99386400D01*
X59136800Y-103636400D02*
X56476800Y-103636400D01*
X59136800Y-101036400D02*
X56476800Y-101036400D01*
X59136800Y-98436400D02*
X59136800Y-103636400D01*
X56476800Y-103636400D02*
X56476800Y-98436400D01*
X56476800Y-101926400D02*
X50476800Y-101926400D01*
X56476800Y-100046400D02*
X50476800Y-100046400D01*
X56476800Y-99926400D02*
X50476800Y-99926400D01*
X56476800Y-99806400D02*
X50476800Y-99806400D01*
X56476800Y-99686400D02*
X50476800Y-99686400D01*
X56476800Y-99566400D02*
X50476800Y-99566400D01*
X56476800Y-99446400D02*
X50476800Y-99446400D01*
X56476800Y-99386400D02*
X50476800Y-99386400D01*
X56476800Y-98436400D02*
X59136800Y-98436400D01*
X50476800Y-102686400D02*
X56476800Y-102686400D01*
X50476800Y-101926400D02*
X50476800Y-102686400D01*
X50476800Y-100146400D02*
X56476800Y-100146400D01*
X50476800Y-99386400D02*
X50476800Y-100146400D01*
%TO.C,U8*%
X96440000Y-94690000D02*
X149590000Y-94690000D01*
X149590000Y-94690000D02*
X149590000Y-71940000D01*
X97555000Y-92265000D02*
X145875000Y-92265000D01*
X145875000Y-92265000D02*
X145875000Y-89605000D01*
X147145000Y-92265000D02*
X148475000Y-92265000D01*
X148475000Y-92265000D02*
X148475000Y-90935000D01*
X97555000Y-89605000D02*
X97555000Y-92265000D01*
X145875000Y-89605000D02*
X97555000Y-89605000D01*
X141242723Y-88577467D02*
X135442723Y-88577467D01*
X135342723Y-88477467D02*
X135342723Y-85177467D01*
X101365000Y-88455000D02*
X101365000Y-78175000D01*
X104025000Y-88455000D02*
X101365000Y-88455000D01*
X121865053Y-88413093D02*
X122572160Y-87705986D01*
X124127795Y-88413093D02*
X123420688Y-87705986D01*
X121652921Y-88200961D02*
X121865053Y-88413093D01*
X121652921Y-88200961D02*
X122360028Y-87493854D01*
X124339927Y-88200961D02*
X124127795Y-88413093D01*
X124339927Y-88200961D02*
X123632820Y-87493854D01*
X122946424Y-88080250D02*
X123046424Y-88080250D01*
X122946424Y-88080250D02*
X118096676Y-83230502D01*
X121511500Y-88059539D02*
X122218606Y-87352432D01*
X124481348Y-88059539D02*
X123774241Y-87352432D01*
X121299368Y-87847407D02*
X121511500Y-88059539D01*
X121299368Y-87847407D02*
X122006474Y-87140300D01*
X124693480Y-87847407D02*
X124481348Y-88059539D01*
X124693480Y-87847407D02*
X123986373Y-87140300D01*
X135592723Y-87827467D02*
X136242723Y-87827467D01*
X136942723Y-87827467D02*
X139742723Y-87827467D01*
X140442723Y-87827467D02*
X141092723Y-87827467D01*
X136342723Y-87727467D02*
X136342723Y-85927467D01*
X139842723Y-87727467D02*
X139842723Y-85927467D01*
X141192723Y-87727467D02*
X141192723Y-85927467D01*
X121157946Y-87705986D02*
X121865053Y-86998879D01*
X124834901Y-87705986D02*
X124127795Y-86998879D01*
X120945814Y-87493854D02*
X121157946Y-87705986D01*
X120945814Y-87493854D02*
X121652921Y-86786747D01*
X125047033Y-87493854D02*
X124834901Y-87705986D01*
X125047033Y-87493854D02*
X124339927Y-86786747D01*
X149352108Y-87352488D02*
X149035847Y-87073834D01*
X120804393Y-87352432D02*
X121511500Y-86645326D01*
X125188455Y-87352432D02*
X124481348Y-86645326D01*
X110892191Y-87207282D02*
X107592191Y-87207282D01*
X110892810Y-87207280D02*
X110892191Y-87207282D01*
X149164531Y-87187216D02*
X149327422Y-87002341D01*
X149515000Y-87167613D02*
X149352108Y-87352488D01*
X120592261Y-87140300D02*
X120804393Y-87352432D01*
X120592261Y-87140300D02*
X121299368Y-86433194D01*
X125400587Y-87140300D02*
X125188455Y-87352432D01*
X125400587Y-87140300D02*
X124693480Y-86433194D01*
X108601149Y-87123200D02*
X109883233Y-87123200D01*
X107492193Y-87107900D02*
X107492191Y-87107282D01*
X107492191Y-87107282D02*
X107492191Y-79307282D01*
X110992191Y-87107282D02*
X110992189Y-87107900D01*
X110992191Y-87107282D02*
X110992191Y-79307282D01*
X108401149Y-87100812D02*
X108401149Y-86914226D01*
X148873500Y-87011428D02*
X148865331Y-87006487D01*
X148870575Y-87011411D02*
X148873500Y-87011428D01*
X148870575Y-87011411D02*
X143865000Y-87011411D01*
X148865331Y-87006487D02*
X148865000Y-87004897D01*
X148865000Y-87004897D02*
X148865000Y-86515000D01*
X120450839Y-86998879D02*
X121157946Y-86291772D01*
X125542008Y-86998879D02*
X124834901Y-86291772D01*
X110083233Y-86914226D02*
X110083233Y-87100812D01*
X149199759Y-86889858D02*
X149515000Y-87167613D01*
X123034881Y-86827128D02*
X123022879Y-86809259D01*
X123034881Y-86827128D02*
X123022879Y-86809259D01*
X123022879Y-86809259D02*
X123018308Y-86792920D01*
X123022879Y-86809259D02*
X123018308Y-86792920D01*
X123018308Y-86792920D02*
X123018282Y-86714245D01*
X123018308Y-86792920D02*
X123018282Y-86714245D01*
X120238707Y-86786747D02*
X120450839Y-86998879D01*
X120238707Y-86786747D02*
X120945814Y-86079640D01*
X125754140Y-86786747D02*
X125542008Y-86998879D01*
X125754140Y-86786747D02*
X125047033Y-86079640D01*
X148965000Y-86774272D02*
X148965000Y-87029928D01*
X148865000Y-86765012D02*
X148869215Y-86765012D01*
X123018282Y-86714245D02*
X123021920Y-86652476D01*
X123018282Y-86714245D02*
X123021920Y-86652476D01*
X123395977Y-86698689D02*
X123681540Y-86413126D01*
X123270725Y-86682222D02*
X123134424Y-86688278D01*
X123021920Y-86652476D02*
X123026916Y-86580003D01*
X123021920Y-86652476D02*
X123026916Y-86580003D01*
X120097286Y-86645326D02*
X120804393Y-85938219D01*
X125895562Y-86645326D02*
X125188455Y-85938219D01*
X122597826Y-86634841D02*
X122731790Y-86601377D01*
X123300790Y-86603501D02*
X123395977Y-86698689D01*
X122731790Y-86601377D02*
X122721257Y-86510815D01*
X122731790Y-86601377D02*
X122721257Y-86510815D01*
X123026916Y-86580003D02*
X123029038Y-86522974D01*
X123026916Y-86580003D02*
X123029038Y-86522974D01*
X123029038Y-86522974D02*
X123010041Y-86416602D01*
X123029038Y-86522974D02*
X123010041Y-86416602D01*
X148865000Y-86515000D02*
X148865064Y-86511411D01*
X109683233Y-86514226D02*
X108801149Y-86514226D01*
X148865064Y-86511411D02*
X143855000Y-86511411D01*
X122721257Y-86510815D02*
X122730403Y-86476068D01*
X122721257Y-86510815D02*
X122730403Y-86476068D01*
X123395977Y-86508314D02*
X123300790Y-86603501D01*
X122730403Y-86476068D02*
X122750700Y-86446485D01*
X122730403Y-86476068D02*
X122750700Y-86446485D01*
X119885154Y-86433194D02*
X120097286Y-86645326D01*
X119885154Y-86433194D02*
X120592261Y-85726087D01*
X126107694Y-86433194D02*
X125895562Y-86645326D01*
X126107694Y-86433194D02*
X125400587Y-85726087D01*
X111697412Y-86427050D02*
X111697412Y-80127050D01*
X116222412Y-86427050D02*
X116222412Y-80127050D01*
X123010041Y-86416602D02*
X122962216Y-86346517D01*
X123010041Y-86416602D02*
X122962216Y-86346517D01*
X149029569Y-86415000D02*
X149029569Y-80215000D01*
X149310211Y-86415000D02*
X148965000Y-86415000D01*
X123491165Y-86413126D02*
X123056022Y-85977984D01*
X123681540Y-86413126D02*
X123586352Y-86317939D01*
X123586352Y-86317939D02*
X123491165Y-86413126D01*
X123798293Y-86296373D02*
X123897093Y-86197574D01*
X119743733Y-86291772D02*
X120450839Y-85584666D01*
X126249115Y-86291772D02*
X125542008Y-85584666D01*
X123897093Y-86197574D02*
X123648182Y-85706657D01*
X149371605Y-86165000D02*
X149515000Y-86165000D01*
X119531601Y-86079640D02*
X119743733Y-86291772D01*
X119531601Y-86079640D02*
X120238707Y-85372533D01*
X126461247Y-86079640D02*
X126249115Y-86291772D01*
X126461247Y-86079640D02*
X125754140Y-85372533D01*
X122960835Y-86073171D02*
X123395977Y-86508314D01*
X123666348Y-86037582D02*
X123274868Y-85759138D01*
X123056022Y-85977984D02*
X122960835Y-86073171D01*
X124139948Y-85954718D02*
X124237791Y-85856875D01*
X119390179Y-85938219D02*
X120097286Y-85231112D01*
X126602668Y-85938219D02*
X125895562Y-85231112D01*
X135492723Y-85927467D02*
X135492723Y-87727467D01*
X136842723Y-85927467D02*
X136842723Y-87727467D01*
X140342723Y-85927467D02*
X140342723Y-87727467D01*
X124237791Y-85856875D02*
X123797125Y-85236882D01*
X123178406Y-85855600D02*
X123798293Y-86296373D01*
X136242723Y-85827467D02*
X135592723Y-85827467D01*
X139742723Y-85827467D02*
X136942723Y-85827467D01*
X140442723Y-85827467D02*
X140342723Y-85927467D01*
X141092723Y-85827467D02*
X140442723Y-85827467D01*
X123274868Y-85759138D02*
X123178406Y-85855600D01*
X119178047Y-85726087D02*
X119390179Y-85938219D01*
X119178047Y-85726087D02*
X119885154Y-85018980D01*
X126814800Y-85726087D02*
X126602668Y-85938219D01*
X126814800Y-85726087D02*
X126107694Y-85018980D01*
X123979107Y-85724823D02*
X123533872Y-85500134D01*
X111002191Y-85707282D02*
X111002191Y-86207282D01*
X123648182Y-85706657D02*
X124139948Y-85954718D01*
X124407238Y-85616038D02*
X124507905Y-85595541D01*
X124407238Y-85616038D02*
X124507905Y-85595541D01*
X124344168Y-85603729D02*
X124407238Y-85616038D01*
X124344168Y-85603729D02*
X124407238Y-85616038D01*
X124507905Y-85595541D02*
X124573710Y-85548153D01*
X124507905Y-85595541D02*
X124573710Y-85548153D01*
X123441021Y-85592985D02*
X123666348Y-86037582D01*
X119036626Y-85584666D02*
X119743733Y-84877559D01*
X126956222Y-85584666D02*
X126249115Y-84877559D01*
X124273062Y-85563239D02*
X124344168Y-85603729D01*
X124273062Y-85563239D02*
X124344168Y-85603729D01*
X123533872Y-85500134D02*
X123441021Y-85592985D01*
X124368249Y-85468051D02*
X124273062Y-85563239D01*
X121444635Y-85400060D02*
X121703001Y-85141694D01*
X124313856Y-85386462D02*
X124392713Y-85334778D01*
X124313856Y-85386462D02*
X124392713Y-85334778D01*
X118824494Y-85372533D02*
X119036626Y-85584666D01*
X118824494Y-85372533D02*
X119531601Y-84665427D01*
X127168354Y-85372533D02*
X126956222Y-85584666D01*
X127168354Y-85372533D02*
X126461247Y-84665427D01*
X124007897Y-85352466D02*
X124103084Y-85257279D01*
X124462158Y-85336601D02*
X124481497Y-85350129D01*
X124462158Y-85336601D02*
X124481497Y-85350129D01*
X124392713Y-85334778D02*
X124439494Y-85329863D01*
X124392713Y-85334778D02*
X124439494Y-85329863D01*
X123700769Y-85333238D02*
X123979107Y-85724823D01*
X124439494Y-85329863D02*
X124462158Y-85336601D01*
X124439494Y-85329863D02*
X124462158Y-85336601D01*
X124225468Y-85298073D02*
X124313856Y-85386462D01*
X123797125Y-85236882D02*
X123700769Y-85333238D01*
X118683072Y-85231112D02*
X119390179Y-84524005D01*
X127309775Y-85231112D02*
X126602668Y-84524005D01*
X121444635Y-85209685D02*
X121342648Y-85107699D01*
X124291394Y-85196848D02*
X124225468Y-85298073D01*
X124291394Y-85196848D02*
X124225468Y-85298073D01*
X141342723Y-85177467D02*
X141342723Y-88477467D01*
X141342622Y-85172983D02*
X141342723Y-85177467D01*
X121703001Y-85141694D02*
X121607813Y-85046507D01*
X124296249Y-85136549D02*
X124291394Y-85196848D01*
X124296249Y-85136549D02*
X124291394Y-85196848D01*
X121342648Y-85107699D02*
X121505827Y-84944520D01*
X124286869Y-85107668D02*
X124296249Y-85136549D01*
X124286869Y-85107668D02*
X124296249Y-85136549D01*
X124268919Y-85083158D02*
X124286869Y-85107668D01*
X124268919Y-85083158D02*
X124286869Y-85107668D01*
X135442723Y-85077467D02*
X141242723Y-85077467D01*
X124837673Y-85072702D02*
X124785242Y-85069449D01*
X124837673Y-85072702D02*
X124785242Y-85069449D01*
X124785242Y-85069449D02*
X124715004Y-85026109D01*
X124785242Y-85069449D02*
X124715004Y-85026109D01*
X124883600Y-85047888D02*
X124837673Y-85072702D01*
X124883600Y-85047888D02*
X124837673Y-85072702D01*
X121607813Y-85046507D02*
X121444635Y-85209685D01*
X124715004Y-85026109D02*
X124619816Y-85121297D01*
X118470940Y-85018980D02*
X118683072Y-85231112D01*
X118470940Y-85018980D02*
X119178047Y-84311873D01*
X127521907Y-85018980D02*
X127309775Y-85231112D01*
X127521907Y-85018980D02*
X126814800Y-84311873D01*
X121247461Y-85012511D02*
X121009492Y-84774542D01*
X121855024Y-84989670D02*
X122002161Y-84842534D01*
X121709800Y-84958118D02*
X121855024Y-84989670D01*
X121505827Y-84944520D02*
X121410639Y-84849333D01*
X118329519Y-84877559D02*
X119036626Y-84170452D01*
X127663329Y-84877559D02*
X126956222Y-84170452D01*
X120914305Y-84869730D02*
X121444635Y-85400060D01*
X124776522Y-84854950D02*
X124882431Y-84907975D01*
X124776522Y-84854950D02*
X124882431Y-84907975D01*
X121410639Y-84849333D02*
X121247461Y-85012511D01*
X121818585Y-84849333D02*
X121709800Y-84958118D01*
X122002161Y-84842534D02*
X121471831Y-84312203D01*
X124625022Y-84839665D02*
X124776522Y-84854950D01*
X124625022Y-84839665D02*
X124776522Y-84854950D01*
X124300896Y-84829573D02*
X124625022Y-84839665D01*
X124252664Y-84781342D02*
X124300896Y-84829573D01*
X121009492Y-84774542D02*
X120914305Y-84869730D01*
X124634902Y-84702727D02*
X124516130Y-84694653D01*
X124516130Y-84694653D02*
X124694606Y-84516177D01*
X118117387Y-84665427D02*
X118329519Y-84877559D01*
X118117387Y-84665427D02*
X118824494Y-83958320D01*
X127875461Y-84665427D02*
X127663329Y-84877559D01*
X127875461Y-84665427D02*
X127168354Y-83958320D01*
X122157160Y-84570463D02*
X122281990Y-84562224D01*
X122157160Y-84570463D02*
X122281990Y-84562224D01*
X122281990Y-84562224D02*
X122364320Y-84507571D01*
X122281990Y-84562224D02*
X122364320Y-84507571D01*
X117975966Y-84524005D02*
X118683072Y-83816899D01*
X128016882Y-84524005D02*
X127309775Y-83816899D01*
X124694606Y-84516177D02*
X124606218Y-84427788D01*
X122033893Y-84514199D02*
X122157160Y-84570463D01*
X122033893Y-84514199D02*
X122157160Y-84570463D01*
X122364320Y-84507571D02*
X122405428Y-84455267D01*
X122364320Y-84507571D02*
X122405428Y-84455267D01*
X122405428Y-84455267D02*
X122430272Y-84393652D01*
X122405428Y-84455267D02*
X122430272Y-84393652D01*
X122197275Y-84438953D02*
X122121011Y-84411153D01*
X122197275Y-84438953D02*
X122121011Y-84411153D01*
X122237448Y-84432419D02*
X122197275Y-84438953D01*
X122237448Y-84432419D02*
X122197275Y-84438953D01*
X124606218Y-84427788D02*
X124252664Y-84781342D01*
X122121011Y-84411153D02*
X121995893Y-84305936D01*
X122121011Y-84411153D02*
X121995893Y-84305936D01*
X122271469Y-84410047D02*
X122237448Y-84432419D01*
X122271469Y-84410047D02*
X122237448Y-84432419D01*
X121376644Y-84407391D02*
X121818585Y-84849333D01*
X121901768Y-84402185D02*
X122033893Y-84514199D01*
X121901768Y-84402185D02*
X122033893Y-84514199D01*
X122430272Y-84393652D02*
X122434756Y-84327391D01*
X122430272Y-84393652D02*
X122434756Y-84327391D01*
X122292521Y-84376944D02*
X122271469Y-84410047D01*
X122292521Y-84376944D02*
X122271469Y-84410047D01*
X122297191Y-84337911D02*
X122292521Y-84376944D01*
X122297191Y-84337911D02*
X122292521Y-84376944D01*
X122434756Y-84327391D02*
X122420397Y-84262430D01*
X122434756Y-84327391D02*
X122420397Y-84262430D01*
X121471831Y-84312203D02*
X121376644Y-84407391D01*
X117763834Y-84311873D02*
X117975966Y-84524005D01*
X117763834Y-84311873D02*
X118470940Y-83604767D01*
X128229014Y-84311873D02*
X128016882Y-84524005D01*
X128229014Y-84311873D02*
X127521907Y-83604767D01*
X121995893Y-84305936D02*
X121898632Y-84186238D01*
X121995893Y-84305936D02*
X121898632Y-84186238D01*
X121814398Y-84303685D02*
X121901768Y-84402185D01*
X121814398Y-84303685D02*
X121901768Y-84402185D01*
X122272437Y-84263611D02*
X122297191Y-84337911D01*
X122272437Y-84263611D02*
X122297191Y-84337911D01*
X122420397Y-84262430D02*
X122355535Y-84146541D01*
X122420397Y-84262430D02*
X122355535Y-84146541D01*
X121751239Y-84188729D02*
X121814398Y-84303685D01*
X121751239Y-84188729D02*
X121814398Y-84303685D01*
X121898632Y-84186238D02*
X121876791Y-84112879D01*
X121898632Y-84186238D02*
X121876791Y-84112879D01*
X122619074Y-84154231D02*
X122719741Y-84133734D01*
X122619074Y-84154231D02*
X122719741Y-84133734D01*
X122355535Y-84146541D02*
X122267114Y-84046826D01*
X122355535Y-84146541D02*
X122267114Y-84046826D01*
X122171926Y-84142013D02*
X122272437Y-84263611D01*
X122171926Y-84142013D02*
X122272437Y-84263611D01*
X122556004Y-84141921D02*
X122619074Y-84154231D01*
X122556004Y-84141921D02*
X122619074Y-84154231D01*
X122719741Y-84133734D02*
X122785545Y-84086346D01*
X122719741Y-84133734D02*
X122785545Y-84086346D01*
X121737734Y-84124406D02*
X121751239Y-84188729D01*
X121737734Y-84124406D02*
X121751239Y-84188729D01*
X121876791Y-84112879D02*
X121883141Y-84074962D01*
X121876791Y-84112879D02*
X121883141Y-84074962D01*
X122484898Y-84101431D02*
X122556004Y-84141921D01*
X122484898Y-84101431D02*
X122556004Y-84141921D01*
X122102323Y-84079183D02*
X122171926Y-84142013D01*
X122102323Y-84079183D02*
X122171926Y-84142013D01*
X121883141Y-84074962D02*
X121904318Y-84042895D01*
X121883141Y-84074962D02*
X121904318Y-84042895D01*
X121742759Y-84058974D02*
X121737734Y-84124406D01*
X121742759Y-84058974D02*
X121737734Y-84124406D01*
X122267114Y-84046826D02*
X122167916Y-83958780D01*
X122267114Y-84046826D02*
X122167916Y-83958780D01*
X121998868Y-84021223D02*
X122102323Y-84079183D01*
X121998868Y-84021223D02*
X122102323Y-84079183D01*
X122580085Y-84006244D02*
X122484898Y-84101431D01*
X121768443Y-83998582D02*
X121742759Y-84058974D01*
X121768443Y-83998582D02*
X121742759Y-84058974D01*
X122167916Y-83958780D02*
X122052810Y-83893767D01*
X122167916Y-83958780D02*
X122052810Y-83893767D01*
X121809555Y-83947283D02*
X121768443Y-83998582D01*
X121809555Y-83947283D02*
X121768443Y-83998582D01*
X122525692Y-83924655D02*
X122604549Y-83872971D01*
X122525692Y-83924655D02*
X122604549Y-83872971D01*
X121861304Y-83905965D02*
X121809555Y-83947283D01*
X121861304Y-83905965D02*
X121809555Y-83947283D01*
X122052810Y-83893767D02*
X121988461Y-83878116D01*
X122052810Y-83893767D02*
X121988461Y-83878116D01*
X122219733Y-83890659D02*
X122314920Y-83795472D01*
X121922436Y-83880874D02*
X121861304Y-83905965D01*
X121922436Y-83880874D02*
X121861304Y-83905965D01*
X121988461Y-83878116D02*
X121922436Y-83880874D01*
X121988461Y-83878116D02*
X121922436Y-83880874D01*
X122673994Y-83874794D02*
X122693333Y-83888322D01*
X122673994Y-83874794D02*
X122693333Y-83888322D01*
X122604549Y-83872971D02*
X122651330Y-83868056D01*
X122604549Y-83872971D02*
X122651330Y-83868056D01*
X122651330Y-83868056D02*
X122673994Y-83874794D01*
X122651330Y-83868056D02*
X122673994Y-83874794D01*
X122437304Y-83836266D02*
X122525692Y-83924655D01*
X122503230Y-83735041D02*
X122437304Y-83836266D01*
X122503230Y-83735041D02*
X122437304Y-83836266D01*
X139830497Y-83686000D02*
X139785625Y-83686000D01*
X139913830Y-83686000D02*
X139879876Y-83686000D01*
X140642997Y-83686000D02*
X140453894Y-83686000D01*
X133715000Y-83685000D02*
X133415000Y-83385000D01*
X135655000Y-83685000D02*
X133715000Y-83685000D01*
X136055000Y-83685000D02*
X135655000Y-83685000D01*
X136055000Y-83685000D02*
X140935000Y-83685000D01*
X122508084Y-83674742D02*
X122503230Y-83735041D01*
X122508084Y-83674742D02*
X122503230Y-83735041D01*
X122498704Y-83645861D02*
X122508084Y-83674742D01*
X122498704Y-83645861D02*
X122508084Y-83674742D01*
X122480754Y-83621351D02*
X122498704Y-83645861D01*
X122480754Y-83621351D02*
X122498704Y-83645861D01*
X141035000Y-83585000D02*
X141035000Y-78705000D01*
X123305677Y-83566214D02*
X123409432Y-83392824D01*
X123305677Y-83566214D02*
X123409432Y-83392824D01*
X123409432Y-83392824D02*
X123426361Y-83234333D01*
X123409432Y-83392824D02*
X123426361Y-83234333D01*
X133415000Y-83385000D02*
X133415000Y-78905000D01*
X123268766Y-83379997D02*
X123206771Y-83474745D01*
X123268766Y-83379997D02*
X123206771Y-83474745D01*
X123289848Y-83237414D02*
X123268766Y-83379997D01*
X123289848Y-83237414D02*
X123268766Y-83379997D01*
X123426361Y-83234333D02*
X123289848Y-83237414D01*
X118096676Y-83230502D02*
X118096676Y-83130502D01*
X127896171Y-83230502D02*
X123046424Y-88080250D01*
X127896171Y-83130502D02*
X127896171Y-83230502D01*
X123421628Y-83048505D02*
X123464925Y-83109718D01*
X123421628Y-83048505D02*
X123464925Y-83109718D01*
X123076951Y-83024517D02*
X123073551Y-82885773D01*
X136625000Y-83015000D02*
X140365000Y-83015000D01*
X140365000Y-83015000D02*
X140365000Y-81815000D01*
X123399271Y-82955888D02*
X123421628Y-83048505D01*
X123399271Y-82955888D02*
X123421628Y-83048505D01*
X123299969Y-82952392D02*
X123399271Y-82955888D01*
X123299969Y-82952392D02*
X123399271Y-82955888D01*
X122875763Y-82919488D02*
X122746663Y-83010175D01*
X122875763Y-82919488D02*
X122746663Y-83010175D01*
X123190942Y-82890128D02*
X123299969Y-82952392D01*
X123190942Y-82890128D02*
X123299969Y-82952392D01*
X123073551Y-82885773D02*
X122875763Y-82919488D01*
X123073551Y-82885773D02*
X122875763Y-82919488D01*
X123973901Y-82870793D02*
X124259464Y-82585231D01*
X123769397Y-82802271D02*
X123689218Y-82752565D01*
X123769397Y-82802271D02*
X123689218Y-82752565D01*
X123878714Y-82775606D02*
X123973901Y-82870793D01*
X123689218Y-82752565D02*
X123615673Y-82739486D01*
X123689218Y-82752565D02*
X123615673Y-82739486D01*
X134366802Y-82733199D02*
X135003199Y-82733199D01*
X135003199Y-82733199D02*
X135003199Y-82096802D01*
X136906802Y-82733199D02*
X137543199Y-82733199D01*
X137543199Y-82733199D02*
X137543199Y-82096802D01*
X139446802Y-82733199D02*
X140083199Y-82733199D01*
X140083199Y-82733199D02*
X140083199Y-82096802D01*
X123973901Y-82680419D02*
X123878714Y-82775606D01*
X124069089Y-82585231D02*
X123633946Y-82150088D01*
X124259464Y-82585231D02*
X124164276Y-82490044D01*
X124164276Y-82490044D02*
X124069089Y-82585231D01*
X124495308Y-82376584D02*
X124536846Y-82249632D01*
X124536846Y-82249632D02*
X124262757Y-82160393D01*
X124095860Y-82246551D02*
X124495308Y-82376584D01*
X123538759Y-82245276D02*
X123973901Y-82680419D01*
X124017517Y-82217341D02*
X124095860Y-82246551D01*
X124017517Y-82217341D02*
X124095860Y-82246551D01*
X123928963Y-82159543D02*
X124017517Y-82217341D01*
X123928963Y-82159543D02*
X124017517Y-82217341D01*
X123633946Y-82150088D02*
X123538759Y-82245276D01*
X134366802Y-82096802D02*
X134366802Y-82733199D01*
X135003199Y-82096802D02*
X134366802Y-82096802D01*
X136906802Y-82096802D02*
X136906802Y-82733199D01*
X137543199Y-82096802D02*
X136906802Y-82096802D01*
X139446802Y-82096802D02*
X139446802Y-82733199D01*
X140083199Y-82096802D02*
X139446802Y-82096802D01*
X117763834Y-82049132D02*
X118470940Y-82756238D01*
X128229014Y-82049132D02*
X127521907Y-82756238D01*
X117975966Y-81837000D02*
X118683072Y-82544106D01*
X117975966Y-81837000D02*
X117763834Y-82049132D01*
X128016882Y-81837000D02*
X127309775Y-82544106D01*
X128016882Y-81837000D02*
X128229014Y-82049132D01*
X136625000Y-81815000D02*
X136625000Y-83015000D01*
X140365000Y-81815000D02*
X136625000Y-81815000D01*
X118117387Y-81695578D02*
X118824494Y-82402685D01*
X127875461Y-81695578D02*
X127168354Y-82402685D01*
X141036000Y-81603528D02*
X141036000Y-81792631D01*
X118329519Y-81483446D02*
X119036626Y-82190553D01*
X118329519Y-81483446D02*
X118117387Y-81695578D01*
X127663329Y-81483446D02*
X126956222Y-82190553D01*
X127663329Y-81483446D02*
X127875461Y-81695578D01*
X118470940Y-81342025D02*
X119178047Y-82049132D01*
X127521907Y-81342025D02*
X126814800Y-82049132D01*
X135955000Y-81245000D02*
X135955000Y-83585000D01*
X135955000Y-81245000D02*
X141023600Y-81245000D01*
X118683072Y-81129893D02*
X119390179Y-81837000D01*
X118683072Y-81129893D02*
X118470940Y-81342025D01*
X127309775Y-81129893D02*
X126602668Y-81837000D01*
X127309775Y-81129893D02*
X127521907Y-81342025D01*
X141023600Y-81045000D02*
X135955000Y-81045000D01*
X118824494Y-80988471D02*
X119531601Y-81695578D01*
X127168354Y-80988471D02*
X126461247Y-81695578D01*
X119036626Y-80776339D02*
X119743733Y-81483446D01*
X119036626Y-80776339D02*
X118824494Y-80988471D01*
X126956222Y-80776339D02*
X126249115Y-81483446D01*
X126956222Y-80776339D02*
X127168354Y-80988471D01*
X111002191Y-80707282D02*
X111002191Y-80207282D01*
X119178047Y-80634918D02*
X119885154Y-81342025D01*
X126814800Y-80634918D02*
X126107694Y-81342025D01*
X136625000Y-80475000D02*
X140365000Y-80475000D01*
X140365000Y-80475000D02*
X140365000Y-79275000D01*
X149371605Y-80465000D02*
X149371605Y-86165000D01*
X149371605Y-80465000D02*
X149515000Y-80465000D01*
X149515000Y-80465000D02*
X149515000Y-86165000D01*
X119390179Y-80422786D02*
X120097286Y-81129893D01*
X119390179Y-80422786D02*
X119178047Y-80634918D01*
X126602668Y-80422786D02*
X125895562Y-81129893D01*
X126602668Y-80422786D02*
X126814800Y-80634918D01*
X119531601Y-80281365D02*
X120238707Y-80988471D01*
X126461247Y-80281365D02*
X125754140Y-80988471D01*
X149310211Y-80215000D02*
X148965000Y-80215000D01*
X134366802Y-80193199D02*
X135003199Y-80193199D01*
X135003199Y-80193199D02*
X135003199Y-79556802D01*
X136906802Y-80193199D02*
X137543199Y-80193199D01*
X137543199Y-80193199D02*
X137543199Y-79556802D01*
X139446802Y-80193199D02*
X140083199Y-80193199D01*
X140083199Y-80193199D02*
X140083199Y-79556802D01*
X148886175Y-80176536D02*
X148886175Y-86453465D01*
X112122412Y-80127050D02*
X112122412Y-86427050D01*
X116647412Y-80127050D02*
X116647412Y-86427050D01*
X148865064Y-80118590D02*
X143855000Y-80118590D01*
X148865000Y-80115000D02*
X148865064Y-80118590D01*
X119743733Y-80069233D02*
X120450839Y-80776339D01*
X119743733Y-80069233D02*
X119531601Y-80281365D01*
X126249115Y-80069233D02*
X125542008Y-80776339D01*
X126249115Y-80069233D02*
X126461247Y-80281365D01*
X119885154Y-79927811D02*
X120592261Y-80634918D01*
X126107694Y-79927811D02*
X125400587Y-80634918D01*
X143855000Y-79864989D02*
X143855000Y-86765012D01*
X148865000Y-79864989D02*
X148869215Y-79864989D01*
X148965000Y-79855729D02*
X148965000Y-79600073D01*
X149199759Y-79740143D02*
X149515000Y-79462388D01*
X120097286Y-79715679D02*
X120804393Y-80422786D01*
X120097286Y-79715679D02*
X119885154Y-79927811D01*
X125895562Y-79715679D02*
X125188455Y-80422786D01*
X125895562Y-79715679D02*
X126107694Y-79927811D01*
X148865000Y-79625104D02*
X148865000Y-80115000D01*
X148865331Y-79623514D02*
X148865000Y-79625104D01*
X143865000Y-79618590D02*
X143865000Y-87011411D01*
X148870575Y-79618590D02*
X143865000Y-79618590D01*
X148870575Y-79618590D02*
X148873500Y-79618573D01*
X148873500Y-79618573D02*
X148865331Y-79623514D01*
X120238707Y-79574258D02*
X120945814Y-80281365D01*
X125754140Y-79574258D02*
X125047033Y-80281365D01*
X134366802Y-79556802D02*
X134366802Y-80193199D01*
X135003199Y-79556802D02*
X134366802Y-79556802D01*
X136906802Y-79556802D02*
X136906802Y-80193199D01*
X137543199Y-79556802D02*
X136906802Y-79556802D01*
X139446802Y-79556802D02*
X139446802Y-80193199D01*
X140083199Y-79556802D02*
X139446802Y-79556802D01*
X149515000Y-79462388D02*
X149352108Y-79277513D01*
X149164531Y-79442785D02*
X149327422Y-79627660D01*
X120450839Y-79362126D02*
X121157946Y-80069233D01*
X120450839Y-79362126D02*
X120238707Y-79574258D01*
X125542008Y-79362126D02*
X124834901Y-80069233D01*
X125542008Y-79362126D02*
X125754140Y-79574258D01*
X107492191Y-79307282D02*
X107492193Y-79306663D01*
X110992189Y-79306663D02*
X110992191Y-79307282D01*
X107492196Y-79306334D02*
X107492191Y-79307282D01*
X149352108Y-79277513D02*
X149035847Y-79556167D01*
X136625000Y-79275000D02*
X136625000Y-80475000D01*
X140365000Y-79275000D02*
X136625000Y-79275000D01*
X120592261Y-79220704D02*
X121299368Y-79927811D01*
X125400587Y-79220704D02*
X124693480Y-79927811D01*
X110892191Y-79207282D02*
X110892810Y-79207283D01*
X110892191Y-79207282D02*
X107592191Y-79207282D01*
X120804393Y-79008572D02*
X121511500Y-79715679D01*
X120804393Y-79008572D02*
X120592261Y-79220704D01*
X125188455Y-79008572D02*
X124481348Y-79715679D01*
X125188455Y-79008572D02*
X125400587Y-79220704D01*
X133415000Y-78905000D02*
X133715000Y-78605000D01*
X120945814Y-78867151D02*
X121652921Y-79574258D01*
X125047033Y-78867151D02*
X124339927Y-79574258D01*
X135955000Y-78705000D02*
X135955000Y-81045000D01*
X121157946Y-78655019D02*
X121865053Y-79362126D01*
X121157946Y-78655019D02*
X120945814Y-78867151D01*
X124834901Y-78655019D02*
X124127795Y-79362126D01*
X124834901Y-78655019D02*
X125047033Y-78867151D01*
X133715000Y-78605000D02*
X135655000Y-78605000D01*
X135655000Y-78605000D02*
X136055000Y-78605000D01*
X140935000Y-78605000D02*
X136055000Y-78605000D01*
X121299368Y-78513598D02*
X122006474Y-79220704D01*
X124693480Y-78513598D02*
X123986373Y-79220704D01*
X121511500Y-78301466D02*
X122218606Y-79008572D01*
X121511500Y-78301466D02*
X121299368Y-78513598D01*
X124481348Y-78301466D02*
X123774241Y-79008572D01*
X124481348Y-78301466D02*
X124693480Y-78513598D01*
X122946424Y-78280755D02*
X118096676Y-83130502D01*
X123046424Y-78280755D02*
X127896171Y-83130502D01*
X123046424Y-78280755D02*
X122946424Y-78280755D01*
X101365000Y-78175000D02*
X104025000Y-78175000D01*
X104025000Y-78175000D02*
X104025000Y-88455000D01*
X121652921Y-78160044D02*
X122360028Y-78867151D01*
X124339927Y-78160044D02*
X123632820Y-78867151D01*
X121865053Y-77947912D02*
X122572160Y-78655019D01*
X121865053Y-77947912D02*
X121652921Y-78160044D01*
X124127795Y-77947912D02*
X123420688Y-78655019D01*
X124127795Y-77947912D02*
X124339927Y-78160044D01*
X97615000Y-76965000D02*
X148415000Y-76965000D01*
X148415000Y-76965000D02*
X148415000Y-74425000D01*
X97615000Y-74425000D02*
X97615000Y-76965000D01*
X148415000Y-74425000D02*
X97615000Y-74425000D01*
X96440000Y-71940000D02*
X96440000Y-94690000D01*
X149590000Y-71940000D02*
X96440000Y-71940000D01*
X135342733Y-88477467D02*
G75*
G03*
X135442723Y-88577467I99967J-33D01*
G01*
X141242723Y-88577523D02*
G75*
G03*
X141342723Y-88477467I-23J100023D01*
G01*
X135492733Y-87727467D02*
G75*
G03*
X135592723Y-87827467I99967J-33D01*
G01*
X136842733Y-87727467D02*
G75*
G03*
X136942723Y-87827467I99967J-33D01*
G01*
X140342733Y-87727467D02*
G75*
G03*
X140442723Y-87827467I99967J-33D01*
G01*
X136242723Y-87827523D02*
G75*
G03*
X136342723Y-87727467I-23J100023D01*
G01*
X139742723Y-87827523D02*
G75*
G03*
X139842723Y-87727467I-23J100023D01*
G01*
X141092723Y-87827523D02*
G75*
G03*
X141192723Y-87727467I-23J100023D01*
G01*
X107492221Y-87107901D02*
G75*
G03*
X107591572Y-87207279I99979J601D01*
G01*
X108401149Y-87100811D02*
G75*
G03*
X108601149Y-87123200I148601J422951D01*
G01*
X110892811Y-87207288D02*
G75*
G03*
X110992188Y-87107900I-611J99988D01*
G01*
X109883232Y-87123205D02*
G75*
G03*
X110083233Y-87100811I49368J463405D01*
G01*
X149035855Y-87073824D02*
G75*
G03*
X148873500Y-87011429I-165255J-187576D01*
G01*
X122882642Y-86597976D02*
G75*
G03*
X122935127Y-86917746I338558J-108624D01*
G01*
X108801149Y-86514249D02*
G75*
G03*
X108401149Y-86914226I-49J-399951D01*
G01*
X122935131Y-86917743D02*
G75*
G03*
X123208790Y-86913073I134539J136543D01*
G01*
X123034882Y-86827126D02*
G75*
G03*
X123112540Y-86818948I34718J43126D01*
G01*
X149199751Y-86889868D02*
G75*
G03*
X148869215Y-86765012I-330551J-375132D01*
G01*
X123112561Y-86818965D02*
G75*
G03*
X123134424Y-86688278I-105161J84765D01*
G01*
X123208770Y-86913055D02*
G75*
G03*
X123270725Y-86682222I-191970J175255D01*
G01*
X122651992Y-86354786D02*
G75*
G03*
X122597826Y-86634841I175008J-179114D01*
G01*
X110083234Y-86914226D02*
G75*
G03*
X109683233Y-86514226I-400004J-4D01*
G01*
X148964999Y-86415000D02*
G75*
G03*
X148865064Y-86511411I1J-100000D01*
G01*
X122861497Y-86436188D02*
G75*
G03*
X122750700Y-86446485I-50197J-61112D01*
G01*
X122882675Y-86597985D02*
G75*
G03*
X122861504Y-86436180I-204075J55585D01*
G01*
X112122412Y-86427050D02*
G75*
G03*
X116222412Y-86427050I2050000J0D01*
G01*
X111697412Y-86427050D02*
G75*
G03*
X116647412Y-86427050I2475000J0D01*
G01*
X122962211Y-86346521D02*
G75*
G03*
X122652007Y-86354803I-151251J-148379D01*
G01*
X149166824Y-86415055D02*
G75*
G03*
X149371605Y-86165000I-25124J229455D01*
G01*
X149310217Y-86415050D02*
G75*
G03*
X149515000Y-86165000I-25117J229450D01*
G01*
X135592723Y-85827523D02*
G75*
G03*
X135492723Y-85927467I-23J-99977D01*
G01*
X136942723Y-85827523D02*
G75*
G03*
X136842723Y-85927467I-23J-99977D01*
G01*
X136342733Y-85927467D02*
G75*
G03*
X136242723Y-85827467I-100033J-33D01*
G01*
X139842733Y-85927467D02*
G75*
G03*
X139742723Y-85827467I-100033J-33D01*
G01*
X141192733Y-85927467D02*
G75*
G03*
X141092723Y-85827467I-100033J-33D01*
G01*
X124368262Y-85468028D02*
G75*
G03*
X124477885Y-85453603I45138J80728D01*
G01*
X124007583Y-84999236D02*
G75*
G03*
X124007897Y-85352466I169617J-176464D01*
G01*
X124477897Y-85453617D02*
G75*
G03*
X124481497Y-85350129I-46297J53417D01*
G01*
X124573755Y-85548202D02*
G75*
G03*
X124582740Y-85260997I-136155J148002D01*
G01*
X124107929Y-85089170D02*
G75*
G03*
X124103084Y-85257279I83471J-86530D01*
G01*
X124582726Y-85261010D02*
G75*
G03*
X124400651Y-85220840I-122426J-122190D01*
G01*
X135442723Y-85077523D02*
G75*
G03*
X135342723Y-85177467I-23J-99977D01*
G01*
X124619826Y-85121289D02*
G75*
G03*
X124984205Y-85137656I189874J162889D01*
G01*
X124268882Y-85083195D02*
G75*
G03*
X124107972Y-85089215I-77582J-79805D01*
G01*
X141342733Y-85177467D02*
G75*
G03*
X141242723Y-85077467I-100033J-33D01*
G01*
X124363148Y-84987015D02*
G75*
G03*
X124007579Y-84999233I-171918J-176855D01*
G01*
X124400672Y-85220851D02*
G75*
G03*
X124363150Y-84987014I-169372J92751D01*
G01*
X124883627Y-85047915D02*
G75*
G03*
X124882431Y-84907975I-65527J69415D01*
G01*
X124984189Y-85137640D02*
G75*
G03*
X124984312Y-84819480I-155989J159140D01*
G01*
X124984312Y-84819480D02*
G75*
G03*
X124634902Y-84702727I-326762J-396690D01*
G01*
X121998853Y-84021268D02*
G75*
G03*
X121904319Y-84042896I-29853J-86932D01*
G01*
X122580077Y-84006259D02*
G75*
G03*
X122689721Y-83991796I45123J80759D01*
G01*
X122219426Y-83537437D02*
G75*
G03*
X122219734Y-83890658I169674J-176463D01*
G01*
X122689740Y-83991819D02*
G75*
G03*
X122693333Y-83888322I-46340J53419D01*
G01*
X122785502Y-84086298D02*
G75*
G03*
X122794575Y-83799190I-136102J147998D01*
G01*
X122319770Y-83627369D02*
G75*
G03*
X122314920Y-83795472I83530J-86531D01*
G01*
X122794536Y-83799229D02*
G75*
G03*
X122612487Y-83759034I-122436J-122171D01*
G01*
X135955000Y-83585000D02*
G75*
G03*
X136055000Y-83685000I100000J0D01*
G01*
X122480784Y-83621321D02*
G75*
G03*
X122319807Y-83627406I-77584J-79879D01*
G01*
X140935000Y-83685000D02*
G75*
G03*
X141035000Y-83585000I0J100000D01*
G01*
X122750905Y-83565159D02*
G75*
G03*
X123305677Y-83566214I277895J267359D01*
G01*
X122746668Y-83010180D02*
G75*
G03*
X122750912Y-83565152I259132J-275520D01*
G01*
X122574989Y-83525204D02*
G75*
G03*
X122219414Y-83537424I-171919J-176856D01*
G01*
X122612510Y-83759044D02*
G75*
G03*
X122574986Y-83525207I-169410J92744D01*
G01*
X122846311Y-83470178D02*
G75*
G03*
X123206771Y-83474745I182439J172078D01*
G01*
X122841424Y-83105785D02*
G75*
G03*
X122846313Y-83470176I172476J-179915D01*
G01*
X123076947Y-83024554D02*
G75*
G03*
X122841427Y-83105788I-32247J-288546D01*
G01*
X123464901Y-83109740D02*
G75*
G03*
X123767271Y-83104619I148799J143440D01*
G01*
X123553285Y-83007756D02*
G75*
G03*
X123669748Y-83011769I60115J52656D01*
G01*
X123549197Y-82887606D02*
G75*
G03*
X123553313Y-83007732I59503J-58094D01*
G01*
X123669769Y-83011793D02*
G75*
G03*
X123669641Y-82892891I-54169J59393D01*
G01*
X123210262Y-82546541D02*
G75*
G03*
X123190943Y-82890127I137338J-180059D01*
G01*
X123669614Y-82892914D02*
G75*
G03*
X123549170Y-82887579I-62714J-53586D01*
G01*
X123304506Y-82642702D02*
G75*
G03*
X123294736Y-82803545I72094J-85098D01*
G01*
X123767234Y-83104578D02*
G75*
G03*
X123769397Y-82802271I-142134J152178D01*
G01*
X123294772Y-82803503D02*
G75*
G03*
X123455256Y-82791115I74128J85403D01*
G01*
X123462557Y-82631474D02*
G75*
G03*
X123304508Y-82642705I-73957J-76926D01*
G01*
X123455223Y-82791079D02*
G75*
G03*
X123462587Y-82631444I-73523J83379D01*
G01*
X123551299Y-82529771D02*
G75*
G03*
X123210277Y-82546561I-162949J-161979D01*
G01*
X123615680Y-82739486D02*
G75*
G03*
X123551294Y-82529776I-223280J46186D01*
G01*
X123927147Y-81829670D02*
G75*
G03*
X123928963Y-82159543I165553J-164030D01*
G01*
X124028849Y-82069009D02*
G75*
G03*
X124169800Y-82076573I74151J64709D01*
G01*
X124020507Y-81926646D02*
G75*
G03*
X124028825Y-82069030I74993J-67054D01*
G01*
X124169824Y-82076597D02*
G75*
G03*
X124164806Y-81933049I-70524J69397D01*
G01*
X124164849Y-81933012D02*
G75*
G03*
X124020539Y-81926674I-75249J-67288D01*
G01*
X124262759Y-82160395D02*
G75*
G03*
X124254577Y-81832443I-163659J159995D01*
G01*
X124254562Y-81832456D02*
G75*
G03*
X123927157Y-81829681I-165062J-159044D01*
G01*
X148865063Y-80118590D02*
G75*
G03*
X148965000Y-80215001I99937J3590D01*
G01*
X149371548Y-80464995D02*
G75*
G03*
X149166817Y-80215002I-229848J20595D01*
G01*
X149514948Y-80464995D02*
G75*
G03*
X149310211Y-80215001I-229848J20595D01*
G01*
X116647408Y-80127050D02*
G75*
G03*
X111697412Y-80127050I-2474998J0D01*
G01*
X116222408Y-80127050D02*
G75*
G03*
X112122412Y-80127050I-2049998J0D01*
G01*
X148869215Y-79865001D02*
G75*
G03*
X149199759Y-79740143I-15J500001D01*
G01*
X148873500Y-79618558D02*
G75*
G03*
X149035846Y-79556166I-2900J249958D01*
G01*
X107591572Y-79207293D02*
G75*
G03*
X107492193Y-79306663I628J-100007D01*
G01*
X110992216Y-79306663D02*
G75*
G03*
X110892810Y-79207284I-100016J-637D01*
G01*
X136055000Y-78605001D02*
G75*
G03*
X135955001Y-78705000I0J-99999D01*
G01*
X141035000Y-78705000D02*
G75*
G03*
X140935000Y-78605000I-100000J0D01*
G01*
X119246424Y-83180502D02*
G75*
G03*
X118746424Y-83180502I-250000J0D01*
G01*
X118746424Y-83180502D02*
G75*
G03*
X119246424Y-83180502I250000J0D01*
G01*
X109668067Y-80155855D02*
G75*
G03*
X108816315Y-80155855I-425876J0D01*
G01*
X108816315Y-80155855D02*
G75*
G03*
X109668067Y-80155855I425876J0D01*
G01*
D12*
X102849940Y-87371380D02*
X102341940Y-87371380D01*
X102341940Y-86863380D01*
X102849940Y-86863380D01*
X102849940Y-87371380D01*
G36*
X102849940Y-87371380D02*
G01*
X102341940Y-87371380D01*
X102341940Y-86863380D01*
X102849940Y-86863380D01*
X102849940Y-87371380D01*
G37*
X102849940Y-84831380D02*
X102341940Y-84831380D01*
X102341940Y-84323380D01*
X102849940Y-84323380D01*
X102849940Y-84831380D01*
G36*
X102849940Y-84831380D02*
G01*
X102341940Y-84831380D01*
X102341940Y-84323380D01*
X102849940Y-84323380D01*
X102849940Y-84831380D01*
G37*
X102849940Y-82291380D02*
X102341940Y-82291380D01*
X102341940Y-81783380D01*
X102849940Y-81783380D01*
X102849940Y-82291380D01*
G36*
X102849940Y-82291380D02*
G01*
X102341940Y-82291380D01*
X102341940Y-81783380D01*
X102849940Y-81783380D01*
X102849940Y-82291380D01*
G37*
X102849940Y-79751380D02*
X102341940Y-79751380D01*
X102341940Y-79243380D01*
X102849940Y-79243380D01*
X102849940Y-79751380D01*
G36*
X102849940Y-79751380D02*
G01*
X102341940Y-79751380D01*
X102341940Y-79243380D01*
X102849940Y-79243380D01*
X102849940Y-79751380D01*
G37*
D11*
%TO.C,J10*%
X50889400Y-137917800D02*
X50889400Y-117797800D01*
X57109400Y-137917800D02*
X57109400Y-136997800D01*
X58709400Y-137917800D02*
X50889400Y-137917800D01*
X53149400Y-137157800D02*
X53149400Y-136157800D01*
X54749400Y-137157800D02*
X53149400Y-137157800D01*
X57109400Y-136997800D02*
X58709400Y-136997800D01*
X58709400Y-136997800D02*
X58709400Y-137917800D01*
X57109400Y-136717800D02*
X57109400Y-136997800D01*
X57109400Y-136717800D02*
X58324400Y-136717800D01*
X53149400Y-136657800D02*
X50889400Y-136657800D01*
X53149400Y-136157800D02*
X50889400Y-136157800D01*
X53149400Y-136157800D02*
X54749400Y-136157800D01*
X54749400Y-136157800D02*
X54749400Y-137157800D01*
X50889400Y-135357800D02*
X55249400Y-135357800D01*
X55249400Y-135357800D02*
X55249400Y-120357800D01*
X55249400Y-120357800D02*
X50889400Y-120357800D01*
X53149400Y-119557800D02*
X54749400Y-119557800D01*
X54749400Y-119557800D02*
X54749400Y-118557800D01*
X57109400Y-118717800D02*
X57109400Y-118997800D01*
X58709400Y-118717800D02*
X57109400Y-118717800D01*
X53149400Y-118557800D02*
X53149400Y-119557800D01*
X54749400Y-118557800D02*
X53149400Y-118557800D01*
X50889400Y-117797800D02*
X58709400Y-117797800D01*
X57109400Y-117797800D02*
X57109400Y-118717800D01*
X58709400Y-117797800D02*
X58709400Y-118717800D01*
%TD*%
M02*
