M48
; DRILL file {KiCad 7.0.10} date Mon Feb 26 10:06:16 2024
; FORMAT={-:-/ absolute / inch / decimal}
; #@! TF.CreationDate,2024-02-26T10:06:16+01:00
; #@! TF.GenerationSoftware,Kicad,Pcbnew,7.0.10
; #@! TF.FileFunction,Plated,1,2,PTH
FMAT,2
INCH
; #@! TA.AperFunction,Plated,PTH,ComponentDrill
T1C0.0295
; #@! TA.AperFunction,Plated,PTH,ComponentDrill
T2C0.0315
; #@! TA.AperFunction,Plated,PTH,ComponentDrill
T3C0.0374
; #@! TA.AperFunction,Plated,PTH,ComponentDrill
T4C0.0394
%
G90
G05
T1
X2.2539Y-4.7188
X2.2539Y-4.7976
X2.2539Y-4.8763
X2.2539Y-4.955
X2.2539Y-5.0338
X2.2539Y-5.1125
X2.2539Y-5.1913
X2.2539Y-5.27
X2.2539Y-5.3487
X4.4652Y-3.9958
X4.5439Y-3.9958
X4.8229Y-3.9958
X4.9017Y-3.9958
T2
X2.0919Y-4.7853
X2.0919Y-4.8562
X2.0919Y-4.9271
X2.0919Y-4.9979
X2.0919Y-5.0688
X2.0919Y-5.1397
X2.0919Y-5.2105
X2.0919Y-5.2814
X2.0919Y-5.3523
X4.469Y-3.8988
X4.5399Y-3.8988
X4.826Y-3.8978
X4.8969Y-3.8978
T3
X2.4459Y-4.5553
X2.4459Y-4.6537
X2.4459Y-4.7521
X2.4459Y-4.8505
X2.4459Y-4.949
X2.4459Y-5.0474
X2.4459Y-5.1458
X2.4459Y-5.2442
X2.4459Y-5.3427
X5.4586Y-5.4988
X5.5571Y-5.4988
X5.6555Y-5.4988
X5.7539Y-5.4988
T4
X2.3849Y-3.9278
X2.3849Y-4.0278
X2.6205Y-5.5654
X2.6205Y-5.6654
X2.7205Y-5.5654
X2.7205Y-5.6654
X2.7931Y-5.0318
X2.8205Y-5.5654
X2.8205Y-5.6654
X2.8489Y-3.9298
X2.8931Y-5.0318
X2.9205Y-5.5654
X2.9205Y-5.6654
X2.9489Y-3.9298
X3.0205Y-5.5654
X3.0205Y-5.6654
X3.0489Y-3.9298
X3.1205Y-5.5654
X3.1205Y-5.6654
X3.2205Y-5.5654
X3.2205Y-5.6654
X3.3205Y-5.5654
X3.3205Y-5.6654
X3.3595Y-5.2978
X3.4079Y-4.1528
X3.4205Y-5.5654
X3.4205Y-5.6654
X3.4595Y-5.2978
X3.5079Y-4.1528
X3.5205Y-5.5654
X3.5205Y-5.6654
X3.5595Y-5.2978
X3.6205Y-5.5654
X3.6205Y-5.6654
X3.7119Y-4.1528
X3.7205Y-5.5654
X3.7205Y-5.6654
X3.7874Y-4.6024
X3.7874Y-5.2024
X3.8119Y-4.1528
X3.8205Y-5.5654
X3.8205Y-5.6654
X3.8874Y-4.6024
X3.8874Y-5.2024
X3.8931Y-2.5376
X3.8931Y-2.9801
X3.8931Y-3.1376
X3.8931Y-3.5801
X3.9205Y-5.5654
X3.9205Y-5.6654
X3.9874Y-4.6024
X3.9874Y-5.2024
X3.9931Y-2.5376
X3.9931Y-2.9801
X3.9931Y-3.1376
X3.9931Y-3.5801
X4.0205Y-5.5654
X4.0205Y-5.6654
X4.0309Y-3.9928
X4.0874Y-4.6024
X4.0874Y-5.2024
X4.0931Y-2.5376
X4.0931Y-2.9801
X4.0931Y-3.1376
X4.0931Y-3.5801
X4.1205Y-5.5654
X4.1205Y-5.6654
X4.1309Y-3.9928
X4.1874Y-4.6024
X4.1874Y-5.2024
X4.1931Y-2.5376
X4.1931Y-2.9801
X4.1931Y-3.1376
X4.1931Y-3.5801
X4.2205Y-5.5654
X4.2205Y-5.6654
X4.2309Y-3.9928
X4.2874Y-4.6024
X4.2874Y-5.2024
X4.2931Y-2.5376
X4.2931Y-2.9801
X4.2931Y-3.1376
X4.2931Y-3.5801
X4.3205Y-5.5654
X4.3205Y-5.6654
X4.3874Y-4.6024
X4.3874Y-5.2024
X4.3931Y-2.5376
X4.3931Y-2.9801
X4.3931Y-3.1376
X4.3931Y-3.5801
X4.4205Y-5.5654
X4.4205Y-5.6654
X4.4565Y-4.1018
X4.4874Y-4.6024
X4.4874Y-5.2024
X4.4931Y-2.5376
X4.4931Y-2.9801
X4.4931Y-3.1376
X4.4931Y-3.5801
X4.5205Y-5.5654
X4.5205Y-5.6654
X4.5549Y-4.1018
X4.5874Y-4.6024
X4.5874Y-5.2024
X4.5931Y-2.5376
X4.5931Y-2.9801
X4.5931Y-3.1376
X4.5931Y-3.5801
X4.6874Y-4.6024
X4.6874Y-5.2024
X4.6931Y-2.5376
X4.6931Y-2.9801
X4.6931Y-3.1376
X4.6931Y-3.5801
X4.7874Y-4.6024
X4.7874Y-5.2024
X4.7931Y-2.5376
X4.7931Y-2.9801
X4.7931Y-3.1376
X4.7931Y-3.5801
X4.8145Y-4.1038
X4.8874Y-4.6024
X4.8874Y-5.2024
X4.8931Y-2.5376
X4.8931Y-2.9801
X4.8931Y-3.1376
X4.8931Y-3.5801
X4.9129Y-4.1038
X4.9874Y-4.6024
X4.9874Y-5.2024
X4.9931Y-2.5376
X4.9931Y-2.9801
X4.9931Y-3.1376
X4.9931Y-3.5801
X5.0874Y-4.6024
X5.0874Y-5.2024
X5.0931Y-2.5376
X5.0931Y-2.9801
X5.0931Y-3.1376
X5.0931Y-3.5801
X5.1435Y-3.9958
X5.1874Y-4.6024
X5.1874Y-5.2024
X5.1931Y-2.5376
X5.1931Y-2.9801
X5.1931Y-3.1376
X5.1931Y-3.5801
X5.2435Y-3.9958
X5.2489Y-5.5418
X5.2489Y-5.6418
X5.2489Y-5.7418
X5.2874Y-4.6024
X5.2874Y-5.2024
X5.2931Y-2.5376
X5.2931Y-2.9801
X5.2931Y-3.1376
X5.2931Y-3.5801
X5.3435Y-3.9958
X5.3874Y-4.6024
X5.3874Y-5.2024
X5.3931Y-2.5376
X5.3931Y-2.9801
X5.3931Y-3.1376
X5.3931Y-3.5801
X5.4874Y-4.6024
X5.4874Y-5.2024
X5.4931Y-2.5376
X5.4931Y-2.9801
X5.4931Y-3.1376
X5.4931Y-3.5801
X5.4969Y-4.0588
X5.4969Y-4.1588
X5.5374Y-4.7524
X5.5374Y-4.8524
X5.5374Y-4.9524
X5.5374Y-5.0524
X5.5874Y-4.6024
X5.5874Y-5.2024
X5.5931Y-2.5376
X5.5931Y-2.9801
X5.5931Y-3.1376
X5.5931Y-3.5801
X5.6874Y-4.6024
X5.6874Y-5.2024
X5.6931Y-2.5376
X5.6931Y-2.9801
X5.6931Y-3.1376
X5.6931Y-3.5801
X5.7931Y-2.5376
X5.7931Y-2.9801
X5.7931Y-3.1376
X5.7931Y-3.5801
M30
