M48
; DRILL file {KiCad 9.0.1} date 2025-05-26T12:01:56+0200
; FORMAT={-:-/ absolute / inch / decimal}
; #@! TF.CreationDate,2025-05-26T12:01:56+02:00
; #@! TF.GenerationSoftware,Kicad,Pcbnew,9.0.1
; #@! TF.FileFunction,Plated,1,2,PTH
FMAT,2
INCH
; #@! TA.AperFunction,Plated,PTH,ComponentDrill
T1C0.0295
; #@! TA.AperFunction,Plated,PTH,ComponentDrill
T2C0.0374
; #@! TA.AperFunction,Plated,PTH,ComponentDrill
T3C0.0394
%
G90
G05
T1
X2.2173Y-3.8803
X2.2961Y-3.8803
X2.3748Y-3.8803
X2.4535Y-3.8803
X2.5323Y-3.8803
X2.611Y-3.8803
X2.6898Y-3.8803
X2.6949Y-4.5197
X2.6949Y-4.5984
X2.7004Y-4.8642
X2.7004Y-4.9429
X2.7685Y-3.8803
X2.8472Y-3.8803
T2
X2.1161Y-3.997
X2.2146Y-3.997
X2.313Y-3.997
X2.4114Y-3.997
X2.5098Y-3.997
X2.6083Y-3.997
X2.7067Y-3.997
X2.8051Y-3.997
X2.9035Y-3.997
X5.4587Y-5.498
X5.5571Y-5.498
X5.6555Y-5.498
X5.7539Y-5.498
T3
X2.0913Y-4.9406
X2.0913Y-5.0406
X2.0913Y-5.1406
X2.5427Y-4.489
X2.5427Y-4.5874
X2.5472Y-4.8295
X2.5472Y-4.928
X2.6205Y-5.5654
X2.6205Y-5.6654
X2.7205Y-5.5654
X2.7205Y-5.6654
X2.8205Y-5.5654
X2.8205Y-5.6654
X2.9205Y-5.5654
X2.9205Y-5.6654
X3.0205Y-5.5654
X3.0205Y-5.6654
X3.1205Y-5.5654
X3.1205Y-5.6654
X3.2205Y-5.5654
X3.2205Y-5.6654
X3.3205Y-5.5654
X3.3205Y-5.6654
X3.361Y-4.0654
X3.4205Y-5.5654
X3.4205Y-5.6654
X3.472Y-5.0945
X3.472Y-5.2583
X3.5205Y-5.5654
X3.5205Y-5.6654
X3.572Y-5.0945
X3.572Y-5.2583
X3.6205Y-5.5654
X3.6205Y-5.6654
X3.672Y-5.0945
X3.672Y-5.2583
X3.7205Y-5.5654
X3.7205Y-5.6654
X3.7898Y-3.939
X3.7898Y-4.539
X3.7898Y-4.7366
X3.8205Y-5.5654
X3.8205Y-5.6654
X3.8898Y-3.939
X3.8898Y-4.539
X3.8898Y-4.7366
X3.9205Y-5.5654
X3.9205Y-5.6654
X3.9898Y-3.939
X3.9898Y-4.539
X3.9898Y-4.7366
X4.0205Y-5.5654
X4.0205Y-5.6654
X4.0898Y-3.939
X4.0898Y-4.539
X4.0898Y-4.7366
X4.1205Y-5.5654
X4.1205Y-5.6654
X4.1898Y-3.939
X4.1898Y-4.539
X4.1898Y-4.7366
X4.2205Y-5.5654
X4.2205Y-5.6654
X4.2898Y-3.939
X4.2898Y-4.539
X4.2898Y-4.7366
X4.3205Y-5.5654
X4.3205Y-5.6654
X4.3898Y-3.939
X4.3898Y-4.539
X4.3898Y-4.7366
X4.4205Y-5.5654
X4.4205Y-5.6654
X4.4898Y-3.939
X4.4898Y-4.539
X4.4898Y-4.7366
X4.5205Y-5.5654
X4.5205Y-5.6654
X4.5898Y-3.939
X4.5898Y-4.539
X4.5898Y-4.7366
X4.6898Y-3.939
X4.6898Y-4.539
X4.6898Y-4.7366
X4.7244Y-5.0685
X4.7898Y-3.939
X4.7898Y-4.539
X4.7898Y-4.7366
X4.8244Y-5.0685
X4.8898Y-3.939
X4.8898Y-4.539
X4.8898Y-4.7366
X4.9244Y-5.0685
X4.9898Y-3.939
X4.9898Y-4.539
X4.9898Y-4.7366
X5.0898Y-3.939
X5.0898Y-4.539
X5.0898Y-4.7366
X5.1898Y-3.939
X5.1898Y-4.539
X5.1898Y-4.7366
X5.2489Y-5.5418
X5.2489Y-5.6418
X5.2489Y-5.7418
X5.2898Y-3.939
X5.2898Y-4.539
X5.2898Y-4.7366
X5.3898Y-3.939
X5.3898Y-4.539
X5.3898Y-4.7366
X5.4898Y-3.939
X5.4898Y-4.539
X5.4898Y-4.7366
X5.5397Y-4.0891
X5.5397Y-4.1891
X5.5397Y-4.2891
X5.5397Y-4.3891
X5.5898Y-3.939
X5.5898Y-4.539
X5.5898Y-4.7366
X5.6898Y-3.939
X5.6898Y-4.539
X5.6898Y-4.7366
M30
