%TF.GenerationSoftware,KiCad,Pcbnew,7.0.10*%
%TF.CreationDate,2024-02-26T10:06:05+01:00*%
%TF.ProjectId,Legacy-LedPanel-HAT,4c656761-6379-42d4-9c65-6450616e656c,rev?*%
%TF.SameCoordinates,Original*%
%TF.FileFunction,Copper,L2,Bot*%
%TF.FilePolarity,Positive*%
%FSLAX46Y46*%
G04 Gerber Fmt 4.6, Leading zero omitted, Abs format (unit mm)*
G04 Created by KiCad (PCBNEW 7.0.10) date 2024-02-26 10:06:05*
%MOMM*%
%LPD*%
G01*
G04 APERTURE LIST*
G04 Aperture macros list*
%AMRoundRect*
0 Rectangle with rounded corners*
0 $1 Rounding radius*
0 $2 $3 $4 $5 $6 $7 $8 $9 X,Y pos of 4 corners*
0 Add a 4 corners polygon primitive as box body*
4,1,4,$2,$3,$4,$5,$6,$7,$8,$9,$2,$3,0*
0 Add four circle primitives for the rounded corners*
1,1,$1+$1,$2,$3*
1,1,$1+$1,$4,$5*
1,1,$1+$1,$6,$7*
1,1,$1+$1,$8,$9*
0 Add four rect primitives between the rounded corners*
20,1,$1+$1,$2,$3,$4,$5,0*
20,1,$1+$1,$4,$5,$6,$7,0*
20,1,$1+$1,$6,$7,$8,$9,0*
20,1,$1+$1,$8,$9,$2,$3,0*%
G04 Aperture macros list end*
%TA.AperFunction,ComponentPad*%
%ADD10R,1.700000X1.700000*%
%TD*%
%TA.AperFunction,ComponentPad*%
%ADD11O,1.700000X1.700000*%
%TD*%
%TA.AperFunction,ComponentPad*%
%ADD12RoundRect,0.250000X-0.600000X-0.750000X0.600000X-0.750000X0.600000X0.750000X-0.600000X0.750000X0*%
%TD*%
%TA.AperFunction,ComponentPad*%
%ADD13O,1.700000X2.000000*%
%TD*%
%TA.AperFunction,ComponentPad*%
%ADD14RoundRect,0.250000X-0.350000X-0.625000X0.350000X-0.625000X0.350000X0.625000X-0.350000X0.625000X0*%
%TD*%
%TA.AperFunction,ComponentPad*%
%ADD15O,1.200000X1.750000*%
%TD*%
%TA.AperFunction,ComponentPad*%
%ADD16C,1.600000*%
%TD*%
%TA.AperFunction,ComponentPad*%
%ADD17C,1.700000*%
%TD*%
%TA.AperFunction,ComponentPad*%
%ADD18RoundRect,0.250000X0.725000X-0.600000X0.725000X0.600000X-0.725000X0.600000X-0.725000X-0.600000X0*%
%TD*%
%TA.AperFunction,ComponentPad*%
%ADD19O,1.950000X1.700000*%
%TD*%
%TA.AperFunction,ComponentPad*%
%ADD20RoundRect,0.250000X0.600000X0.725000X-0.600000X0.725000X-0.600000X-0.725000X0.600000X-0.725000X0*%
%TD*%
%TA.AperFunction,ComponentPad*%
%ADD21O,1.700000X1.950000*%
%TD*%
%TA.AperFunction,ComponentPad*%
%ADD22RoundRect,0.250000X0.625000X-0.350000X0.625000X0.350000X-0.625000X0.350000X-0.625000X-0.350000X0*%
%TD*%
%TA.AperFunction,ComponentPad*%
%ADD23O,1.750000X1.200000*%
%TD*%
G04 APERTURE END LIST*
D10*
%TO.P,JP2,1,A*%
%TO.N,Net-(JP1-B)*%
X133322400Y-140762000D03*
D11*
%TO.P,JP2,2,C*%
%TO.N,/VCC*%
X133322400Y-143302000D03*
%TO.P,JP2,3,B*%
%TO.N,Net-(JP2-B)*%
X133322400Y-145842000D03*
%TD*%
D10*
%TO.P,JP7,1,A*%
%TO.N,GND*%
X107465200Y-101417400D03*
D11*
%TO.P,JP7,2,C*%
%TO.N,Net-(J3-Pin_1)*%
X104925200Y-101417400D03*
%TO.P,JP7,3,B*%
%TO.N,+5V*%
X102385200Y-101417400D03*
%TD*%
D10*
%TO.P,JP15,1,A*%
%TO.N,GND*%
X77442400Y-99817200D03*
D11*
%TO.P,JP15,2,C*%
%TO.N,Net-(JP15-C)*%
X74902400Y-99817200D03*
%TO.P,JP15,3,B*%
%TO.N,+5V*%
X72362400Y-99817200D03*
%TD*%
D10*
%TO.P,JP1,1,A*%
%TO.N,Net-(JP1-A)*%
X85331400Y-134564400D03*
D11*
%TO.P,JP1,2,C*%
%TO.N,/VCC*%
X87871400Y-134564400D03*
%TO.P,JP1,3,B*%
%TO.N,Net-(JP1-B)*%
X90411400Y-134564400D03*
%TD*%
D10*
%TO.P,J5,1,Pin_1*%
%TO.N,/SOUT_LS*%
X73485000Y-127808000D03*
D11*
%TO.P,J5,2,Pin_2*%
%TO.N,/JP1-10 LiftX*%
X70945000Y-127808000D03*
%TD*%
D12*
%TO.P,J6_STOP2,1,Pin_1*%
%TO.N,Net-(J6_STOP2-Pin_1)*%
X122288000Y-104236800D03*
D13*
%TO.P,J6_STOP2,2,Pin_2*%
%TO.N,/JP5-2 STOP1*%
X124788000Y-104236800D03*
%TD*%
D14*
%TO.P,J4,1,Pin_1*%
%TO.N,Net-(J3-Pin_1)*%
X113415400Y-101493600D03*
D15*
%TO.P,J4,2,Pin_2*%
%TO.N,/JP6-2 STOP2*%
X115415400Y-101493600D03*
%TD*%
D10*
%TO.P,J14,1,Pin_1*%
%TO.N,/S1_LS*%
X86561000Y-105481400D03*
D11*
%TO.P,J14,2,Pin_2*%
%TO.N,/S2_LS*%
X89101000Y-105481400D03*
%TD*%
D12*
%TO.P,J5_STOP1,1,Pin_1*%
%TO.N,Net-(J3-Pin_1)*%
X113194800Y-104186000D03*
D13*
%TO.P,J5_STOP1,2,Pin_2*%
%TO.N,/JP6-2 STOP2*%
X115694800Y-104186000D03*
%TD*%
D16*
%TO.P,J3,1,Pin_1*%
%TO.N,Net-(J3-Pin_1)*%
X113513800Y-99029800D03*
%TO.P,J3,2,Pin_2*%
%TO.N,/JP6-2 STOP2*%
X115313800Y-99029800D03*
%TD*%
D14*
%TO.P,J7,1,Pin_1*%
%TO.N,Net-(J6_STOP2-Pin_1)*%
X122502000Y-101493600D03*
D15*
%TO.P,J7,2,Pin_2*%
%TO.N,/JP5-2 STOP1*%
X124502000Y-101493600D03*
%TD*%
D10*
%TO.P,J1,1,Pin_1*%
%TO.N,GND*%
X114820000Y-141360000D03*
D11*
%TO.P,J1,2,Pin_2*%
%TO.N,/VCC*%
X114820000Y-143900000D03*
%TO.P,J1,3,Pin_3*%
%TO.N,/LED1 - D1*%
X112280000Y-141360000D03*
%TO.P,J1,4,Pin_4*%
%TO.N,unconnected-(J1-Pin_4-Pad4)*%
X112280000Y-143900000D03*
%TO.P,J1,5,Pin_5*%
%TO.N,/LED2 - D2*%
X109740000Y-141360000D03*
%TO.P,J1,6,Pin_6*%
%TO.N,/LED3 - D3*%
X109740000Y-143900000D03*
%TO.P,J1,7,Pin_7*%
%TO.N,/LED4 - D4*%
X107200000Y-141360000D03*
%TO.P,J1,8,Pin_8*%
%TO.N,/LED5 - D5*%
X107200000Y-143900000D03*
%TO.P,J1,9,Pin_9*%
%TO.N,/S2 (button)*%
X104660000Y-141360000D03*
%TO.P,J1,10,Pin_10*%
%TO.N,/LED6 - D6*%
X104660000Y-143900000D03*
%TO.P,J1,11,Pin_11*%
%TO.N,/S3 (button)*%
X102120000Y-141360000D03*
%TO.P,J1,12,Pin_12*%
%TO.N,/LED7 - D7*%
X102120000Y-143900000D03*
%TO.P,J1,13,Pin_13*%
%TO.N,/S5 (button)*%
X99580000Y-141360000D03*
%TO.P,J1,14,Pin_14*%
%TO.N,/LED8 - D8*%
X99580000Y-143900000D03*
%TO.P,J1,15,Pin_15*%
%TO.N,/LED10 - D10*%
X97040000Y-141360000D03*
%TO.P,J1,16,Pin_16*%
%TO.N,/LED9 - D9*%
X97040000Y-143900000D03*
%TO.P,J1,17,Pin_17*%
%TO.N,/LED11 - D11*%
X94500000Y-141360000D03*
%TO.P,J1,18,Pin_18*%
%TO.N,unconnected-(J1-Pin_18-Pad18)*%
X94500000Y-143900000D03*
%TO.P,J1,19,Pin_19*%
%TO.N,unconnected-(J1-Pin_19-Pad19)*%
X91960000Y-141360000D03*
%TO.P,J1,20,Pin_20*%
%TO.N,unconnected-(J1-Pin_20-Pad20)*%
X91960000Y-143900000D03*
%TO.P,J1,21,Pin_21*%
%TO.N,GND*%
X89420000Y-141360000D03*
%TO.P,J1,22,Pin_22*%
%TO.N,/S1 (button)*%
X89420000Y-143900000D03*
%TO.P,J1,23,Pin_23*%
%TO.N,/VCC*%
X86880000Y-141360000D03*
%TO.P,J1,24,Pin_24*%
%TO.N,unconnected-(J1-Pin_24-Pad24)*%
X86880000Y-143900000D03*
%TO.P,J1,25,Pin_25*%
%TO.N,/S7 (button)*%
X84340000Y-141360000D03*
%TO.P,J1,26,Pin_26*%
%TO.N,unconnected-(J1-Pin_26-Pad26)*%
X84340000Y-143900000D03*
%TO.P,J1,27,Pin_27*%
%TO.N,/S9 (button)*%
X81800000Y-141360000D03*
%TO.P,J1,28,Pin_28*%
%TO.N,/S8 (button)*%
X81800000Y-143900000D03*
%TO.P,J1,29,Pin_29*%
%TO.N,/S4 (button)*%
X79260000Y-141360000D03*
%TO.P,J1,30,Pin_30*%
%TO.N,/JP5-2 STOP1*%
X79260000Y-143900000D03*
%TO.P,J1,31,Pin_31*%
%TO.N,/S6 (button)*%
X76720000Y-141360000D03*
%TO.P,J1,32,Pin_32*%
%TO.N,unconnected-(J1-Pin_32-Pad32)*%
X76720000Y-143900000D03*
%TO.P,J1,33,Pin_33*%
%TO.N,unconnected-(J1-Pin_33-Pad33)*%
X74180000Y-141360000D03*
%TO.P,J1,34,Pin_34*%
%TO.N,/JP1-10 LiftX*%
X74180000Y-143900000D03*
%TO.P,J1,35,Pin_35*%
%TO.N,unconnected-(J1-Pin_35-Pad35)*%
X71640000Y-141360000D03*
%TO.P,J1,36,Pin_36*%
%TO.N,/JP1-7 Left Bumper*%
X71640000Y-143900000D03*
%TO.P,J1,37,Pin_37*%
%TO.N,unconnected-(J1-Pin_37-Pad37)*%
X69100000Y-141360000D03*
%TO.P,J1,38,Pin_38*%
%TO.N,/JP6-2 STOP2*%
X69100000Y-143900000D03*
%TO.P,J1,39,Pin_39*%
%TO.N,/JP1-1 Right Bumper*%
X66560000Y-141360000D03*
%TO.P,J1,40,Pin_40*%
%TO.N,/JP1-4 Lift*%
X66560000Y-143900000D03*
%TD*%
D16*
%TO.P,J8,1,Pin_1*%
%TO.N,Net-(J6_STOP2-Pin_1)*%
X122581600Y-99004400D03*
%TO.P,J8,2,Pin_2*%
%TO.N,/JP5-2 STOP1*%
X124381600Y-99004400D03*
%TD*%
D10*
%TO.P,JP8,1,A*%
%TO.N,GND*%
X130645000Y-101493600D03*
D11*
%TO.P,JP8,2,C*%
%TO.N,Net-(J6_STOP2-Pin_1)*%
X133185000Y-101493600D03*
%TO.P,JP8,3,B*%
%TO.N,+5V*%
X135725000Y-101493600D03*
%TD*%
D10*
%TO.P,J13,1,Pin_1*%
%TO.N,Net-(J13-Pin_1)*%
X96822600Y-105481400D03*
D11*
%TO.P,J13,2,Pin_2*%
%TO.N,Net-(J13-Pin_2)*%
X94282600Y-105481400D03*
%TD*%
D16*
%TO.P,J9,1,Pin_1*%
%TO.N,+5V*%
X53134600Y-135947800D03*
%TO.P,J9,2,Pin_2*%
%TO.N,GND*%
X53134600Y-134147800D03*
%TO.P,J9,3,Pin_3*%
%TO.N,/SOUT_5V*%
X53134600Y-132347800D03*
%TO.P,J9,4,Pin_4*%
%TO.N,/S1_5V*%
X53134600Y-130547800D03*
%TO.P,J9,5,Pin_5*%
%TO.N,/S2_5V*%
X53134600Y-128747800D03*
%TO.P,J9,6,Pin_6*%
%TO.N,GND*%
X53134600Y-126947800D03*
%TO.P,J9,7,Pin_7*%
%TO.N,/RAIN_5V*%
X53134600Y-125147800D03*
%TO.P,J9,8,Pin_8*%
%TO.N,/ESTOP1_5V*%
X53134600Y-123347800D03*
%TO.P,J9,9,Pin_9*%
%TO.N,/ESTOP2_5V*%
X53134600Y-121547800D03*
%TD*%
D10*
%TO.P,U3,1,PB12*%
%TO.N,Net-(U3-PB12)*%
X147145000Y-79695000D03*
D17*
%TO.P,U3,2,PB13*%
%TO.N,Net-(U3-PB13)*%
X144605000Y-79695000D03*
%TO.P,U3,3,PB14*%
%TO.N,Net-(U3-PB14)*%
X142065000Y-79695000D03*
%TO.P,U3,4,PB15*%
%TO.N,Net-(U3-PB15)*%
X139525000Y-79695000D03*
%TO.P,U3,5,PA8*%
%TO.N,Net-(U3-PA8)*%
X136985000Y-79695000D03*
%TO.P,U3,6,PA9*%
%TO.N,Net-(U3-PA9)*%
X134445000Y-79695000D03*
%TO.P,U3,7,PA10*%
%TO.N,Net-(U3-PA10)*%
X131905000Y-79695000D03*
%TO.P,U3,8,PA11*%
%TO.N,Net-(U3-PA11)*%
X129365000Y-79695000D03*
%TO.P,U3,9,PA12*%
%TO.N,Net-(U3-PA12)*%
X126825000Y-79695000D03*
%TO.P,U3,10,PA15*%
%TO.N,Net-(U3-PA15)*%
X124285000Y-79695000D03*
%TO.P,U3,11,PB3*%
%TO.N,Net-(U3-PB3)*%
X121745000Y-79695000D03*
%TO.P,U3,12,PB4*%
%TO.N,Net-(U3-PB4)*%
X119205000Y-79695000D03*
%TO.P,U3,13,PB5*%
%TO.N,Net-(U3-PB5)*%
X116665000Y-79695000D03*
%TO.P,U3,14,PB6*%
%TO.N,Net-(U3-PB6)*%
X114125000Y-79695000D03*
%TO.P,U3,15,PB7*%
%TO.N,Net-(U3-PB7)*%
X111585000Y-79695000D03*
%TO.P,U3,16,PB8*%
%TO.N,Net-(U3-PB8)*%
X109045000Y-79695000D03*
%TO.P,U3,17,PB9*%
%TO.N,Net-(U3-PB9)*%
X106505000Y-79695000D03*
%TO.P,U3,18,5V*%
%TO.N,Net-(U4-REFA)*%
X103965000Y-79695000D03*
%TO.P,U3,19,GND*%
%TO.N,GND*%
X101425000Y-79695000D03*
%TO.P,U3,20,3V3*%
%TO.N,Net-(R1-Pad2)*%
X98885000Y-79695000D03*
%TO.P,U3,21,VBat*%
%TO.N,unconnected-(U3-VBat-Pad21)*%
X98885000Y-64455000D03*
%TO.P,U3,22,PC13*%
%TO.N,Net-(U3-PC13)*%
X101425000Y-64455000D03*
%TO.P,U3,23,PC14*%
%TO.N,Net-(U3-PC14)*%
X103965000Y-64455000D03*
%TO.P,U3,24,PC15*%
%TO.N,Net-(U3-PC15)*%
X106505000Y-64455000D03*
%TO.P,U3,25,RST*%
%TO.N,unconnected-(U3-RST-Pad25)*%
X109045000Y-64455000D03*
%TO.P,U3,26,PA0*%
%TO.N,Net-(U3-PA0)*%
X111585000Y-64455000D03*
%TO.P,U3,27,PA1*%
%TO.N,Net-(U3-PA1)*%
X114125000Y-64455000D03*
%TO.P,U3,28,PA2*%
%TO.N,Net-(U3-PA2)*%
X116665000Y-64455000D03*
%TO.P,U3,29,PA3*%
%TO.N,Net-(U3-PA3)*%
X119205000Y-64455000D03*
%TO.P,U3,30,PA4*%
%TO.N,Net-(U3-PA4)*%
X121745000Y-64455000D03*
%TO.P,U3,31,PA5*%
%TO.N,Net-(U3-PA5)*%
X124285000Y-64455000D03*
%TO.P,U3,32,PA6*%
%TO.N,Net-(U3-PA6)*%
X126825000Y-64455000D03*
%TO.P,U3,33,PA7*%
%TO.N,Net-(U3-PA7)*%
X129365000Y-64455000D03*
%TO.P,U3,34,PB0*%
%TO.N,Net-(U3-PB0)*%
X131905000Y-64455000D03*
%TO.P,U3,35,PB1*%
%TO.N,Net-(U3-PB1)*%
X134445000Y-64455000D03*
%TO.P,U3,36,PB2*%
%TO.N,Net-(U3-PB2)*%
X136985000Y-64455000D03*
%TO.P,U3,37,PB10*%
%TO.N,Net-(U3-PB10)*%
X139525000Y-64455000D03*
%TO.P,U3,38,3V3*%
%TO.N,Net-(R1-Pad2)*%
X142065000Y-64455000D03*
%TO.P,U3,39,GND*%
%TO.N,GND*%
X144605000Y-64455000D03*
%TO.P,U3,40,5V*%
%TO.N,Net-(U4-REFA)*%
X147145000Y-64455000D03*
%TD*%
D18*
%TO.P,J11,1,Pin_1*%
%TO.N,+5V*%
X62126200Y-135703600D03*
D19*
%TO.P,J11,2,Pin_2*%
%TO.N,GND*%
X62126200Y-133203600D03*
%TO.P,J11,3,Pin_3*%
%TO.N,/SOUT_5V*%
X62126200Y-130703600D03*
%TO.P,J11,4,Pin_4*%
%TO.N,/S1_5V*%
X62126200Y-128203600D03*
%TO.P,J11,5,Pin_5*%
%TO.N,/S2_5V*%
X62126200Y-125703600D03*
%TO.P,J11,6,Pin_6*%
%TO.N,GND*%
X62126200Y-123203600D03*
%TO.P,J11,7,Pin_7*%
%TO.N,/RAIN_5V*%
X62126200Y-120703600D03*
%TO.P,J11,8,Pin_8*%
%TO.N,/ESTOP1_5V*%
X62126200Y-118203600D03*
%TO.P,J11,9,Pin_9*%
%TO.N,/ESTOP2_5V*%
X62126200Y-115703600D03*
%TD*%
D10*
%TO.P,U1,1,PB12*%
%TO.N,/ESTOP1*%
X96200000Y-116900000D03*
D17*
%TO.P,U1,2,PB13*%
%TO.N,/ESTOP2*%
X98740000Y-116900000D03*
%TO.P,U1,3,PB14*%
%TO.N,/JP1-1 Right Bumper*%
X101280000Y-116900000D03*
%TO.P,U1,4,PB15*%
%TO.N,/JP1-4 Lift*%
X103820000Y-116900000D03*
%TO.P,U1,5,PA8*%
%TO.N,/JP6-2 STOP2*%
X106360000Y-116900000D03*
%TO.P,U1,6,PA9*%
%TO.N,/JP1-7 Left Bumper*%
X108900000Y-116900000D03*
%TO.P,U1,7,PA10*%
%TO.N,/S6 (button)*%
X111440000Y-116900000D03*
%TO.P,U1,8,PA11*%
%TO.N,/JP5-2 STOP1*%
X113980000Y-116900000D03*
%TO.P,U1,9,PA12*%
%TO.N,/S4 (button)*%
X116520000Y-116900000D03*
%TO.P,U1,10,PA15*%
%TO.N,/S8 (button)*%
X119060000Y-116900000D03*
%TO.P,U1,11,PB3*%
%TO.N,/S9 (button)*%
X121600000Y-116900000D03*
%TO.P,U1,12,PB4*%
%TO.N,/S7 (button)*%
X124140000Y-116900000D03*
%TO.P,U1,13,PB5*%
%TO.N,/S1 (button)*%
X126680000Y-116900000D03*
%TO.P,U1,14,PB6*%
%TO.N,/JP1-10 LiftX*%
X129220000Y-116900000D03*
%TO.P,U1,15,PB7*%
%TO.N,Net-(J16-Pin_2)*%
X131760000Y-116900000D03*
%TO.P,U1,16,PB8*%
%TO.N,/LED10 - D10*%
X134300000Y-116900000D03*
%TO.P,U1,17,PB9*%
%TO.N,/S2 (button)*%
X136840000Y-116900000D03*
%TO.P,U1,18,5V*%
%TO.N,+5V*%
X139380000Y-116900000D03*
%TO.P,U1,19,GND*%
%TO.N,GND*%
X141920000Y-116900000D03*
%TO.P,U1,20,3V3*%
%TO.N,Net-(JP2-B)*%
X144460000Y-116900000D03*
%TO.P,U1,21,VBat*%
%TO.N,unconnected-(U1-VBat-Pad21)*%
X144460000Y-132140000D03*
%TO.P,U1,22,PC13*%
%TO.N,/LED1 - D1*%
X141920000Y-132140000D03*
%TO.P,U1,23,PC14*%
%TO.N,/LED3 - D3*%
X139380000Y-132140000D03*
%TO.P,U1,24,PC15*%
%TO.N,/LED2 - D2*%
X136840000Y-132140000D03*
%TO.P,U1,25,RST*%
%TO.N,unconnected-(U1-RST-Pad25)*%
X134300000Y-132140000D03*
%TO.P,U1,26,PA0*%
%TO.N,/LED5 - D5*%
X131760000Y-132140000D03*
%TO.P,U1,27,PA1*%
%TO.N,/LED4 - D4*%
X129220000Y-132140000D03*
%TO.P,U1,28,PA2*%
%TO.N,/Pico-RX_STM32-TX*%
X126680000Y-132140000D03*
%TO.P,U1,29,PA3*%
%TO.N,/Pico-TX_STM32-RX*%
X124140000Y-132140000D03*
%TO.P,U1,30,PA4*%
%TO.N,/LED6 - D6*%
X121600000Y-132140000D03*
%TO.P,U1,31,PA5*%
%TO.N,/LED7 - D7*%
X119060000Y-132140000D03*
%TO.P,U1,32,PA6*%
%TO.N,/S3 (button)*%
X116520000Y-132140000D03*
%TO.P,U1,33,PA7*%
%TO.N,/LED8 - D8*%
X113980000Y-132140000D03*
%TO.P,U1,34,PB0*%
%TO.N,/S5 (button)*%
X111440000Y-132140000D03*
%TO.P,U1,35,PB1*%
%TO.N,/RAIN*%
X108900000Y-132140000D03*
%TO.P,U1,36,PB2*%
%TO.N,/LED9 - D9*%
X106360000Y-132140000D03*
%TO.P,U1,37,PB10*%
%TO.N,/LED11 - D11*%
X103820000Y-132140000D03*
%TO.P,U1,38,3V3*%
%TO.N,Net-(JP1-A)*%
X101280000Y-132140000D03*
%TO.P,U1,39,GND*%
%TO.N,GND*%
X98740000Y-132140000D03*
%TO.P,U1,40,5V*%
%TO.N,Net-(JP1-B)*%
X96200000Y-132140000D03*
%TO.P,U1,41,GND*%
%TO.N,GND*%
X140650000Y-128330000D03*
%TO.P,U1,42,SWDIO*%
%TO.N,unconnected-(U1-SWDIO-Pad42)*%
X140650000Y-125790000D03*
%TO.P,U1,43,SWDCLK*%
%TO.N,unconnected-(U1-SWDCLK-Pad43)*%
X140650000Y-123250000D03*
%TO.P,U1,44,3V3*%
%TO.N,unconnected-(U1-3V3-Pad44)*%
X140650000Y-120710000D03*
%TD*%
D20*
%TO.P,J2,1,Pin_1*%
%TO.N,GND*%
X146149400Y-139669800D03*
D21*
%TO.P,J2,2,Pin_2*%
%TO.N,/Pico-RX_STM32-TX*%
X143649400Y-139669800D03*
%TO.P,J2,3,Pin_3*%
%TO.N,/Pico-TX_STM32-RX*%
X141149400Y-139669800D03*
%TO.P,J2,4,Pin_4*%
%TO.N,+5V*%
X138649400Y-139669800D03*
%TD*%
D10*
%TO.P,J16,1,Pin_1*%
%TO.N,/JP1-10 LiftX*%
X139621600Y-105633800D03*
D11*
%TO.P,J16,2,Pin_2*%
%TO.N,Net-(J16-Pin_2)*%
X139621600Y-103093800D03*
%TD*%
D10*
%TO.P,J12,1,Pin_1*%
%TO.N,Net-(J12-Pin_1)*%
X60576800Y-99766400D03*
D11*
%TO.P,J12,2,Pin_2*%
%TO.N,Net-(J12-Pin_2)*%
X60576800Y-102306400D03*
%TD*%
D10*
%TO.P,U8,1,PB12*%
%TO.N,Net-(U7-A8)*%
X147145000Y-90935000D03*
D17*
%TO.P,U8,2,PB13*%
%TO.N,Net-(U7-A7)*%
X144605000Y-90935000D03*
%TO.P,U8,3,PB14*%
%TO.N,Net-(U7-A5)*%
X142065000Y-90935000D03*
%TO.P,U8,4,PB15*%
%TO.N,Net-(U7-A6)*%
X139525000Y-90935000D03*
%TO.P,U8,5,PA8*%
%TO.N,Net-(U7-A4)*%
X136985000Y-90935000D03*
%TO.P,U8,6,PA9*%
%TO.N,Net-(U7-A2)*%
X134445000Y-90935000D03*
%TO.P,U8,7,PA10*%
%TO.N,Net-(U7-A3)*%
X131905000Y-90935000D03*
%TO.P,U8,8,PA11*%
%TO.N,Net-(U7-A1)*%
X129365000Y-90935000D03*
%TO.P,U8,9,PA12*%
%TO.N,Net-(U4-A8)*%
X126825000Y-90935000D03*
%TO.P,U8,10,PA15*%
%TO.N,Net-(U4-A7)*%
X124285000Y-90935000D03*
%TO.P,U8,11,PB3*%
%TO.N,Net-(U4-A5)*%
X121745000Y-90935000D03*
%TO.P,U8,12,PB4*%
%TO.N,Net-(U4-A6)*%
X119205000Y-90935000D03*
%TO.P,U8,13,PB5*%
%TO.N,Net-(U4-A4)*%
X116665000Y-90935000D03*
%TO.P,U8,14,PB6*%
%TO.N,Net-(U4-A2)*%
X114125000Y-90935000D03*
%TO.P,U8,15,PB7*%
%TO.N,Net-(U4-A3)*%
X111585000Y-90935000D03*
%TO.P,U8,16,PB8*%
%TO.N,Net-(U4-A1)*%
X109045000Y-90935000D03*
%TO.P,U8,17,PB9*%
%TO.N,Net-(U5-A1)*%
X106505000Y-90935000D03*
%TO.P,U8,18,5V*%
%TO.N,Net-(U4-REFA)*%
X103965000Y-90935000D03*
%TO.P,U8,19,GND*%
%TO.N,GND*%
X101425000Y-90935000D03*
%TO.P,U8,20,3V3*%
%TO.N,Net-(R1-Pad2)*%
X98885000Y-90935000D03*
%TO.P,U8,21,VBat*%
%TO.N,unconnected-(U8-VBat-Pad21)*%
X98885000Y-75695000D03*
%TO.P,U8,22,PC13*%
%TO.N,Net-(U5-A3)*%
X101425000Y-75695000D03*
%TO.P,U8,23,PC14*%
%TO.N,Net-(U5-A2)*%
X103965000Y-75695000D03*
%TO.P,U8,24,PC15*%
%TO.N,Net-(U5-A4)*%
X106505000Y-75695000D03*
%TO.P,U8,25,RST*%
%TO.N,unconnected-(U8-RST-Pad25)*%
X109045000Y-75695000D03*
%TO.P,U8,26,PA0*%
%TO.N,Net-(U5-A6)*%
X111585000Y-75695000D03*
%TO.P,U8,27,PA1*%
%TO.N,Net-(U5-A5)*%
X114125000Y-75695000D03*
%TO.P,U8,28,PA2*%
%TO.N,Net-(U5-A7)*%
X116665000Y-75695000D03*
%TO.P,U8,29,PA3*%
%TO.N,Net-(U5-A8)*%
X119205000Y-75695000D03*
%TO.P,U8,30,PA4*%
%TO.N,Net-(U6-A1)*%
X121745000Y-75695000D03*
%TO.P,U8,31,PA5*%
%TO.N,Net-(U6-A3)*%
X124285000Y-75695000D03*
%TO.P,U8,32,PA6*%
%TO.N,Net-(U6-A2)*%
X126825000Y-75695000D03*
%TO.P,U8,33,PA7*%
%TO.N,Net-(U6-A4)*%
X129365000Y-75695000D03*
%TO.P,U8,34,PB0*%
%TO.N,Net-(U6-A6)*%
X131905000Y-75695000D03*
%TO.P,U8,35,PB1*%
%TO.N,Net-(U6-A5)*%
X134445000Y-75695000D03*
%TO.P,U8,36,PB2*%
%TO.N,Net-(U6-A7)*%
X136985000Y-75695000D03*
%TO.P,U8,37,PB10*%
%TO.N,Net-(U6-A8)*%
X139525000Y-75695000D03*
%TO.P,U8,38,3V3*%
%TO.N,Net-(R1-Pad2)*%
X142065000Y-75695000D03*
%TO.P,U8,39,GND*%
%TO.N,GND*%
X144605000Y-75695000D03*
%TO.P,U8,40,5V*%
%TO.N,Net-(U4-REFA)*%
X147145000Y-75695000D03*
%TD*%
D22*
%TO.P,J10,1,Pin_1*%
%TO.N,+5V*%
X57249400Y-135857800D03*
D23*
%TO.P,J10,2,Pin_2*%
%TO.N,GND*%
X57249400Y-133857800D03*
%TO.P,J10,3,Pin_3*%
%TO.N,/SOUT_5V*%
X57249400Y-131857800D03*
%TO.P,J10,4,Pin_4*%
%TO.N,/S1_5V*%
X57249400Y-129857800D03*
%TO.P,J10,5,Pin_5*%
%TO.N,/S2_5V*%
X57249400Y-127857800D03*
%TO.P,J10,6,Pin_6*%
%TO.N,GND*%
X57249400Y-125857800D03*
%TO.P,J10,7,Pin_7*%
%TO.N,/RAIN_5V*%
X57249400Y-123857800D03*
%TO.P,J10,8,Pin_8*%
%TO.N,/ESTOP1_5V*%
X57249400Y-121857800D03*
%TO.P,J10,9,Pin_9*%
%TO.N,/ESTOP2_5V*%
X57249400Y-119857800D03*
%TD*%
M02*
