%TF.GenerationSoftware,KiCad,Pcbnew,7.0.10*%
%TF.CreationDate,2024-02-26T10:06:05+01:00*%
%TF.ProjectId,Legacy-LedPanel-HAT,4c656761-6379-42d4-9c65-6450616e656c,rev?*%
%TF.SameCoordinates,Original*%
%TF.FileFunction,Legend,Top*%
%TF.FilePolarity,Positive*%
%FSLAX46Y46*%
G04 Gerber Fmt 4.6, Leading zero omitted, Abs format (unit mm)*
G04 Created by KiCad (PCBNEW 7.0.10) date 2024-02-26 10:06:05*
%MOMM*%
%LPD*%
G01*
G04 APERTURE LIST*
%ADD10C,0.150000*%
%ADD11C,0.120000*%
%ADD12C,0.152400*%
%ADD13C,0.100000*%
G04 APERTURE END LIST*
D10*
X129278748Y-142650000D02*
G75*
G03*
X123271252Y-142650000I-3003748J0D01*
G01*
X123271252Y-142650000D02*
G75*
G03*
X129278748Y-142650000I3003748J0D01*
G01*
X124783841Y-142650000D02*
G75*
G03*
X118766159Y-142650000I-3008841J0D01*
G01*
X118766159Y-142650000D02*
G75*
G03*
X124783841Y-142650000I3008841J0D01*
G01*
X121775000Y-139650000D02*
X126250000Y-139650000D01*
X121775000Y-145650000D02*
X126300000Y-145650000D01*
X62500237Y-142637500D02*
G75*
G03*
X56574763Y-142637500I-2962737J0D01*
G01*
X56574763Y-142637500D02*
G75*
G03*
X62500237Y-142637500I2962737J0D01*
G01*
X57992830Y-142637500D02*
G75*
G03*
X52007170Y-142637500I-2992830J0D01*
G01*
X52007170Y-142637500D02*
G75*
G03*
X57992830Y-142637500I2992830J0D01*
G01*
X55000000Y-145625000D02*
X59525000Y-145625000D01*
X55000000Y-139650000D02*
X59550000Y-139650000D01*
X132489066Y-137886819D02*
X132489066Y-138601104D01*
X132489066Y-138601104D02*
X132441447Y-138743961D01*
X132441447Y-138743961D02*
X132346209Y-138839200D01*
X132346209Y-138839200D02*
X132203352Y-138886819D01*
X132203352Y-138886819D02*
X132108114Y-138886819D01*
X132965257Y-138886819D02*
X132965257Y-137886819D01*
X132965257Y-137886819D02*
X133346209Y-137886819D01*
X133346209Y-137886819D02*
X133441447Y-137934438D01*
X133441447Y-137934438D02*
X133489066Y-137982057D01*
X133489066Y-137982057D02*
X133536685Y-138077295D01*
X133536685Y-138077295D02*
X133536685Y-138220152D01*
X133536685Y-138220152D02*
X133489066Y-138315390D01*
X133489066Y-138315390D02*
X133441447Y-138363009D01*
X133441447Y-138363009D02*
X133346209Y-138410628D01*
X133346209Y-138410628D02*
X132965257Y-138410628D01*
X133917638Y-137982057D02*
X133965257Y-137934438D01*
X133965257Y-137934438D02*
X134060495Y-137886819D01*
X134060495Y-137886819D02*
X134298590Y-137886819D01*
X134298590Y-137886819D02*
X134393828Y-137934438D01*
X134393828Y-137934438D02*
X134441447Y-137982057D01*
X134441447Y-137982057D02*
X134489066Y-138077295D01*
X134489066Y-138077295D02*
X134489066Y-138172533D01*
X134489066Y-138172533D02*
X134441447Y-138315390D01*
X134441447Y-138315390D02*
X133870019Y-138886819D01*
X133870019Y-138886819D02*
X134489066Y-138886819D01*
X124054580Y-72761666D02*
X124102200Y-72809285D01*
X124102200Y-72809285D02*
X124149819Y-72952142D01*
X124149819Y-72952142D02*
X124149819Y-73047380D01*
X124149819Y-73047380D02*
X124102200Y-73190237D01*
X124102200Y-73190237D02*
X124006961Y-73285475D01*
X124006961Y-73285475D02*
X123911723Y-73333094D01*
X123911723Y-73333094D02*
X123721247Y-73380713D01*
X123721247Y-73380713D02*
X123578390Y-73380713D01*
X123578390Y-73380713D02*
X123387914Y-73333094D01*
X123387914Y-73333094D02*
X123292676Y-73285475D01*
X123292676Y-73285475D02*
X123197438Y-73190237D01*
X123197438Y-73190237D02*
X123149819Y-73047380D01*
X123149819Y-73047380D02*
X123149819Y-72952142D01*
X123149819Y-72952142D02*
X123197438Y-72809285D01*
X123197438Y-72809285D02*
X123245057Y-72761666D01*
X123245057Y-72380713D02*
X123197438Y-72333094D01*
X123197438Y-72333094D02*
X123149819Y-72237856D01*
X123149819Y-72237856D02*
X123149819Y-71999761D01*
X123149819Y-71999761D02*
X123197438Y-71904523D01*
X123197438Y-71904523D02*
X123245057Y-71856904D01*
X123245057Y-71856904D02*
X123340295Y-71809285D01*
X123340295Y-71809285D02*
X123435533Y-71809285D01*
X123435533Y-71809285D02*
X123578390Y-71856904D01*
X123578390Y-71856904D02*
X124149819Y-72428332D01*
X124149819Y-72428332D02*
X124149819Y-71809285D01*
X133665180Y-70688095D02*
X132855657Y-70688095D01*
X132855657Y-70688095D02*
X132760419Y-70735714D01*
X132760419Y-70735714D02*
X132712800Y-70783333D01*
X132712800Y-70783333D02*
X132665180Y-70878571D01*
X132665180Y-70878571D02*
X132665180Y-71069047D01*
X132665180Y-71069047D02*
X132712800Y-71164285D01*
X132712800Y-71164285D02*
X132760419Y-71211904D01*
X132760419Y-71211904D02*
X132855657Y-71259523D01*
X132855657Y-71259523D02*
X133665180Y-71259523D01*
X133665180Y-72164285D02*
X133665180Y-71973809D01*
X133665180Y-71973809D02*
X133617561Y-71878571D01*
X133617561Y-71878571D02*
X133569942Y-71830952D01*
X133569942Y-71830952D02*
X133427085Y-71735714D01*
X133427085Y-71735714D02*
X133236609Y-71688095D01*
X133236609Y-71688095D02*
X132855657Y-71688095D01*
X132855657Y-71688095D02*
X132760419Y-71735714D01*
X132760419Y-71735714D02*
X132712800Y-71783333D01*
X132712800Y-71783333D02*
X132665180Y-71878571D01*
X132665180Y-71878571D02*
X132665180Y-72069047D01*
X132665180Y-72069047D02*
X132712800Y-72164285D01*
X132712800Y-72164285D02*
X132760419Y-72211904D01*
X132760419Y-72211904D02*
X132855657Y-72259523D01*
X132855657Y-72259523D02*
X133093752Y-72259523D01*
X133093752Y-72259523D02*
X133188990Y-72211904D01*
X133188990Y-72211904D02*
X133236609Y-72164285D01*
X133236609Y-72164285D02*
X133284228Y-72069047D01*
X133284228Y-72069047D02*
X133284228Y-71878571D01*
X133284228Y-71878571D02*
X133236609Y-71783333D01*
X133236609Y-71783333D02*
X133188990Y-71735714D01*
X133188990Y-71735714D02*
X133093752Y-71688095D01*
X72888095Y-107204819D02*
X72888095Y-108014342D01*
X72888095Y-108014342D02*
X72935714Y-108109580D01*
X72935714Y-108109580D02*
X72983333Y-108157200D01*
X72983333Y-108157200D02*
X73078571Y-108204819D01*
X73078571Y-108204819D02*
X73269047Y-108204819D01*
X73269047Y-108204819D02*
X73364285Y-108157200D01*
X73364285Y-108157200D02*
X73411904Y-108109580D01*
X73411904Y-108109580D02*
X73459523Y-108014342D01*
X73459523Y-108014342D02*
X73459523Y-107204819D01*
X73888095Y-107300057D02*
X73935714Y-107252438D01*
X73935714Y-107252438D02*
X74030952Y-107204819D01*
X74030952Y-107204819D02*
X74269047Y-107204819D01*
X74269047Y-107204819D02*
X74364285Y-107252438D01*
X74364285Y-107252438D02*
X74411904Y-107300057D01*
X74411904Y-107300057D02*
X74459523Y-107395295D01*
X74459523Y-107395295D02*
X74459523Y-107490533D01*
X74459523Y-107490533D02*
X74411904Y-107633390D01*
X74411904Y-107633390D02*
X73840476Y-108204819D01*
X73840476Y-108204819D02*
X74459523Y-108204819D01*
X71397200Y-107604019D02*
X71397200Y-107842114D01*
X71159105Y-107746876D02*
X71397200Y-107842114D01*
X71397200Y-107842114D02*
X71635295Y-107746876D01*
X71254343Y-108032590D02*
X71397200Y-107842114D01*
X71397200Y-107842114D02*
X71540057Y-108032590D01*
X71397200Y-107604019D02*
X71397200Y-107842114D01*
X71159105Y-107746876D02*
X71397200Y-107842114D01*
X71397200Y-107842114D02*
X71635295Y-107746876D01*
X71254343Y-108032590D02*
X71397200Y-107842114D01*
X71397200Y-107842114D02*
X71540057Y-108032590D01*
X119149819Y-68011666D02*
X118673628Y-68344999D01*
X119149819Y-68583094D02*
X118149819Y-68583094D01*
X118149819Y-68583094D02*
X118149819Y-68202142D01*
X118149819Y-68202142D02*
X118197438Y-68106904D01*
X118197438Y-68106904D02*
X118245057Y-68059285D01*
X118245057Y-68059285D02*
X118340295Y-68011666D01*
X118340295Y-68011666D02*
X118483152Y-68011666D01*
X118483152Y-68011666D02*
X118578390Y-68059285D01*
X118578390Y-68059285D02*
X118626009Y-68106904D01*
X118626009Y-68106904D02*
X118673628Y-68202142D01*
X118673628Y-68202142D02*
X118673628Y-68583094D01*
X118245057Y-67630713D02*
X118197438Y-67583094D01*
X118197438Y-67583094D02*
X118149819Y-67487856D01*
X118149819Y-67487856D02*
X118149819Y-67249761D01*
X118149819Y-67249761D02*
X118197438Y-67154523D01*
X118197438Y-67154523D02*
X118245057Y-67106904D01*
X118245057Y-67106904D02*
X118340295Y-67059285D01*
X118340295Y-67059285D02*
X118435533Y-67059285D01*
X118435533Y-67059285D02*
X118578390Y-67106904D01*
X118578390Y-67106904D02*
X119149819Y-67678332D01*
X119149819Y-67678332D02*
X119149819Y-67059285D01*
X104091866Y-103767819D02*
X104091866Y-104482104D01*
X104091866Y-104482104D02*
X104044247Y-104624961D01*
X104044247Y-104624961D02*
X103949009Y-104720200D01*
X103949009Y-104720200D02*
X103806152Y-104767819D01*
X103806152Y-104767819D02*
X103710914Y-104767819D01*
X104568057Y-104767819D02*
X104568057Y-103767819D01*
X104568057Y-103767819D02*
X104949009Y-103767819D01*
X104949009Y-103767819D02*
X105044247Y-103815438D01*
X105044247Y-103815438D02*
X105091866Y-103863057D01*
X105091866Y-103863057D02*
X105139485Y-103958295D01*
X105139485Y-103958295D02*
X105139485Y-104101152D01*
X105139485Y-104101152D02*
X105091866Y-104196390D01*
X105091866Y-104196390D02*
X105044247Y-104244009D01*
X105044247Y-104244009D02*
X104949009Y-104291628D01*
X104949009Y-104291628D02*
X104568057Y-104291628D01*
X105472819Y-103767819D02*
X106139485Y-103767819D01*
X106139485Y-103767819D02*
X105710914Y-104767819D01*
X75929676Y-101761219D02*
X75929676Y-102475504D01*
X75929676Y-102475504D02*
X75882057Y-102618361D01*
X75882057Y-102618361D02*
X75786819Y-102713600D01*
X75786819Y-102713600D02*
X75643962Y-102761219D01*
X75643962Y-102761219D02*
X75548724Y-102761219D01*
X76405867Y-102761219D02*
X76405867Y-101761219D01*
X76405867Y-101761219D02*
X76786819Y-101761219D01*
X76786819Y-101761219D02*
X76882057Y-101808838D01*
X76882057Y-101808838D02*
X76929676Y-101856457D01*
X76929676Y-101856457D02*
X76977295Y-101951695D01*
X76977295Y-101951695D02*
X76977295Y-102094552D01*
X76977295Y-102094552D02*
X76929676Y-102189790D01*
X76929676Y-102189790D02*
X76882057Y-102237409D01*
X76882057Y-102237409D02*
X76786819Y-102285028D01*
X76786819Y-102285028D02*
X76405867Y-102285028D01*
X77929676Y-102761219D02*
X77358248Y-102761219D01*
X77643962Y-102761219D02*
X77643962Y-101761219D01*
X77643962Y-101761219D02*
X77548724Y-101904076D01*
X77548724Y-101904076D02*
X77453486Y-101999314D01*
X77453486Y-101999314D02*
X77358248Y-102046933D01*
X78834438Y-101761219D02*
X78358248Y-101761219D01*
X78358248Y-101761219D02*
X78310629Y-102237409D01*
X78310629Y-102237409D02*
X78358248Y-102189790D01*
X78358248Y-102189790D02*
X78453486Y-102142171D01*
X78453486Y-102142171D02*
X78691581Y-102142171D01*
X78691581Y-102142171D02*
X78786819Y-102189790D01*
X78786819Y-102189790D02*
X78834438Y-102237409D01*
X78834438Y-102237409D02*
X78882057Y-102332647D01*
X78882057Y-102332647D02*
X78882057Y-102570742D01*
X78882057Y-102570742D02*
X78834438Y-102665980D01*
X78834438Y-102665980D02*
X78786819Y-102713600D01*
X78786819Y-102713600D02*
X78691581Y-102761219D01*
X78691581Y-102761219D02*
X78453486Y-102761219D01*
X78453486Y-102761219D02*
X78358248Y-102713600D01*
X78358248Y-102713600D02*
X78310629Y-102665980D01*
X82456219Y-135397733D02*
X83170504Y-135397733D01*
X83170504Y-135397733D02*
X83313361Y-135445352D01*
X83313361Y-135445352D02*
X83408600Y-135540590D01*
X83408600Y-135540590D02*
X83456219Y-135683447D01*
X83456219Y-135683447D02*
X83456219Y-135778685D01*
X83456219Y-134921542D02*
X82456219Y-134921542D01*
X82456219Y-134921542D02*
X82456219Y-134540590D01*
X82456219Y-134540590D02*
X82503838Y-134445352D01*
X82503838Y-134445352D02*
X82551457Y-134397733D01*
X82551457Y-134397733D02*
X82646695Y-134350114D01*
X82646695Y-134350114D02*
X82789552Y-134350114D01*
X82789552Y-134350114D02*
X82884790Y-134397733D01*
X82884790Y-134397733D02*
X82932409Y-134445352D01*
X82932409Y-134445352D02*
X82980028Y-134540590D01*
X82980028Y-134540590D02*
X82980028Y-134921542D01*
X83456219Y-133397733D02*
X83456219Y-133969161D01*
X83456219Y-133683447D02*
X82456219Y-133683447D01*
X82456219Y-133683447D02*
X82599076Y-133778685D01*
X82599076Y-133778685D02*
X82694314Y-133873923D01*
X82694314Y-133873923D02*
X82741933Y-133969161D01*
X129199819Y-88416666D02*
X128723628Y-88749999D01*
X129199819Y-88988094D02*
X128199819Y-88988094D01*
X128199819Y-88988094D02*
X128199819Y-88607142D01*
X128199819Y-88607142D02*
X128247438Y-88511904D01*
X128247438Y-88511904D02*
X128295057Y-88464285D01*
X128295057Y-88464285D02*
X128390295Y-88416666D01*
X128390295Y-88416666D02*
X128533152Y-88416666D01*
X128533152Y-88416666D02*
X128628390Y-88464285D01*
X128628390Y-88464285D02*
X128676009Y-88511904D01*
X128676009Y-88511904D02*
X128723628Y-88607142D01*
X128723628Y-88607142D02*
X128723628Y-88988094D01*
X128199819Y-88083332D02*
X128199819Y-87464285D01*
X128199819Y-87464285D02*
X128580771Y-87797618D01*
X128580771Y-87797618D02*
X128580771Y-87654761D01*
X128580771Y-87654761D02*
X128628390Y-87559523D01*
X128628390Y-87559523D02*
X128676009Y-87511904D01*
X128676009Y-87511904D02*
X128771247Y-87464285D01*
X128771247Y-87464285D02*
X129009342Y-87464285D01*
X129009342Y-87464285D02*
X129104580Y-87511904D01*
X129104580Y-87511904D02*
X129152200Y-87559523D01*
X129152200Y-87559523D02*
X129199819Y-87654761D01*
X129199819Y-87654761D02*
X129199819Y-87940475D01*
X129199819Y-87940475D02*
X129152200Y-88035713D01*
X129152200Y-88035713D02*
X129104580Y-88083332D01*
X111004580Y-88211666D02*
X111052200Y-88259285D01*
X111052200Y-88259285D02*
X111099819Y-88402142D01*
X111099819Y-88402142D02*
X111099819Y-88497380D01*
X111099819Y-88497380D02*
X111052200Y-88640237D01*
X111052200Y-88640237D02*
X110956961Y-88735475D01*
X110956961Y-88735475D02*
X110861723Y-88783094D01*
X110861723Y-88783094D02*
X110671247Y-88830713D01*
X110671247Y-88830713D02*
X110528390Y-88830713D01*
X110528390Y-88830713D02*
X110337914Y-88783094D01*
X110337914Y-88783094D02*
X110242676Y-88735475D01*
X110242676Y-88735475D02*
X110147438Y-88640237D01*
X110147438Y-88640237D02*
X110099819Y-88497380D01*
X110099819Y-88497380D02*
X110099819Y-88402142D01*
X110099819Y-88402142D02*
X110147438Y-88259285D01*
X110147438Y-88259285D02*
X110195057Y-88211666D01*
X110433152Y-87354523D02*
X111099819Y-87354523D01*
X110052200Y-87592618D02*
X110766485Y-87830713D01*
X110766485Y-87830713D02*
X110766485Y-87211666D01*
X75269819Y-128141333D02*
X75984104Y-128141333D01*
X75984104Y-128141333D02*
X76126961Y-128188952D01*
X76126961Y-128188952D02*
X76222200Y-128284190D01*
X76222200Y-128284190D02*
X76269819Y-128427047D01*
X76269819Y-128427047D02*
X76269819Y-128522285D01*
X75269819Y-127188952D02*
X75269819Y-127665142D01*
X75269819Y-127665142D02*
X75746009Y-127712761D01*
X75746009Y-127712761D02*
X75698390Y-127665142D01*
X75698390Y-127665142D02*
X75650771Y-127569904D01*
X75650771Y-127569904D02*
X75650771Y-127331809D01*
X75650771Y-127331809D02*
X75698390Y-127236571D01*
X75698390Y-127236571D02*
X75746009Y-127188952D01*
X75746009Y-127188952D02*
X75841247Y-127141333D01*
X75841247Y-127141333D02*
X76079342Y-127141333D01*
X76079342Y-127141333D02*
X76174580Y-127188952D01*
X76174580Y-127188952D02*
X76222200Y-127236571D01*
X76222200Y-127236571D02*
X76269819Y-127331809D01*
X76269819Y-127331809D02*
X76269819Y-127569904D01*
X76269819Y-127569904D02*
X76222200Y-127665142D01*
X76222200Y-127665142D02*
X76174580Y-127712761D01*
X120615180Y-83988095D02*
X119805657Y-83988095D01*
X119805657Y-83988095D02*
X119710419Y-84035714D01*
X119710419Y-84035714D02*
X119662800Y-84083333D01*
X119662800Y-84083333D02*
X119615180Y-84178571D01*
X119615180Y-84178571D02*
X119615180Y-84369047D01*
X119615180Y-84369047D02*
X119662800Y-84464285D01*
X119662800Y-84464285D02*
X119710419Y-84511904D01*
X119710419Y-84511904D02*
X119805657Y-84559523D01*
X119805657Y-84559523D02*
X120615180Y-84559523D01*
X120281847Y-85464285D02*
X119615180Y-85464285D01*
X120662800Y-85226190D02*
X119948514Y-84988095D01*
X119948514Y-84988095D02*
X119948514Y-85607142D01*
X114082066Y-98048419D02*
X114082066Y-98762704D01*
X114082066Y-98762704D02*
X114034447Y-98905561D01*
X114034447Y-98905561D02*
X113939209Y-99000800D01*
X113939209Y-99000800D02*
X113796352Y-99048419D01*
X113796352Y-99048419D02*
X113701114Y-99048419D01*
X114986828Y-98381752D02*
X114986828Y-99048419D01*
X114748733Y-98000800D02*
X114510638Y-98715085D01*
X114510638Y-98715085D02*
X115129685Y-98715085D01*
X112815180Y-68038095D02*
X112005657Y-68038095D01*
X112005657Y-68038095D02*
X111910419Y-68085714D01*
X111910419Y-68085714D02*
X111862800Y-68133333D01*
X111862800Y-68133333D02*
X111815180Y-68228571D01*
X111815180Y-68228571D02*
X111815180Y-68419047D01*
X111815180Y-68419047D02*
X111862800Y-68514285D01*
X111862800Y-68514285D02*
X111910419Y-68561904D01*
X111910419Y-68561904D02*
X112005657Y-68609523D01*
X112005657Y-68609523D02*
X112815180Y-68609523D01*
X112815180Y-69561904D02*
X112815180Y-69085714D01*
X112815180Y-69085714D02*
X112338990Y-69038095D01*
X112338990Y-69038095D02*
X112386609Y-69085714D01*
X112386609Y-69085714D02*
X112434228Y-69180952D01*
X112434228Y-69180952D02*
X112434228Y-69419047D01*
X112434228Y-69419047D02*
X112386609Y-69514285D01*
X112386609Y-69514285D02*
X112338990Y-69561904D01*
X112338990Y-69561904D02*
X112243752Y-69609523D01*
X112243752Y-69609523D02*
X112005657Y-69609523D01*
X112005657Y-69609523D02*
X111910419Y-69561904D01*
X111910419Y-69561904D02*
X111862800Y-69514285D01*
X111862800Y-69514285D02*
X111815180Y-69419047D01*
X111815180Y-69419047D02*
X111815180Y-69180952D01*
X111815180Y-69180952D02*
X111862800Y-69085714D01*
X111862800Y-69085714D02*
X111910419Y-69038095D01*
X83745819Y-101905923D02*
X84460104Y-101905923D01*
X84460104Y-101905923D02*
X84602961Y-101953542D01*
X84602961Y-101953542D02*
X84698200Y-102048780D01*
X84698200Y-102048780D02*
X84745819Y-102191637D01*
X84745819Y-102191637D02*
X84745819Y-102286875D01*
X84745819Y-100905923D02*
X84745819Y-101477351D01*
X84745819Y-101191637D02*
X83745819Y-101191637D01*
X83745819Y-101191637D02*
X83888676Y-101286875D01*
X83888676Y-101286875D02*
X83983914Y-101382113D01*
X83983914Y-101382113D02*
X84031533Y-101477351D01*
X84079152Y-100048780D02*
X84745819Y-100048780D01*
X83698200Y-100286875D02*
X84412485Y-100524970D01*
X84412485Y-100524970D02*
X84412485Y-99905923D01*
X131504580Y-88111666D02*
X131552200Y-88159285D01*
X131552200Y-88159285D02*
X131599819Y-88302142D01*
X131599819Y-88302142D02*
X131599819Y-88397380D01*
X131599819Y-88397380D02*
X131552200Y-88540237D01*
X131552200Y-88540237D02*
X131456961Y-88635475D01*
X131456961Y-88635475D02*
X131361723Y-88683094D01*
X131361723Y-88683094D02*
X131171247Y-88730713D01*
X131171247Y-88730713D02*
X131028390Y-88730713D01*
X131028390Y-88730713D02*
X130837914Y-88683094D01*
X130837914Y-88683094D02*
X130742676Y-88635475D01*
X130742676Y-88635475D02*
X130647438Y-88540237D01*
X130647438Y-88540237D02*
X130599819Y-88397380D01*
X130599819Y-88397380D02*
X130599819Y-88302142D01*
X130599819Y-88302142D02*
X130647438Y-88159285D01*
X130647438Y-88159285D02*
X130695057Y-88111666D01*
X130599819Y-87778332D02*
X130599819Y-87159285D01*
X130599819Y-87159285D02*
X130980771Y-87492618D01*
X130980771Y-87492618D02*
X130980771Y-87349761D01*
X130980771Y-87349761D02*
X131028390Y-87254523D01*
X131028390Y-87254523D02*
X131076009Y-87206904D01*
X131076009Y-87206904D02*
X131171247Y-87159285D01*
X131171247Y-87159285D02*
X131409342Y-87159285D01*
X131409342Y-87159285D02*
X131504580Y-87206904D01*
X131504580Y-87206904D02*
X131552200Y-87254523D01*
X131552200Y-87254523D02*
X131599819Y-87349761D01*
X131599819Y-87349761D02*
X131599819Y-87635475D01*
X131599819Y-87635475D02*
X131552200Y-87730713D01*
X131552200Y-87730713D02*
X131504580Y-87778332D01*
X104899819Y-84061666D02*
X104423628Y-84394999D01*
X104899819Y-84633094D02*
X103899819Y-84633094D01*
X103899819Y-84633094D02*
X103899819Y-84252142D01*
X103899819Y-84252142D02*
X103947438Y-84156904D01*
X103947438Y-84156904D02*
X103995057Y-84109285D01*
X103995057Y-84109285D02*
X104090295Y-84061666D01*
X104090295Y-84061666D02*
X104233152Y-84061666D01*
X104233152Y-84061666D02*
X104328390Y-84109285D01*
X104328390Y-84109285D02*
X104376009Y-84156904D01*
X104376009Y-84156904D02*
X104423628Y-84252142D01*
X104423628Y-84252142D02*
X104423628Y-84633094D01*
X104233152Y-83204523D02*
X104899819Y-83204523D01*
X103852200Y-83442618D02*
X104566485Y-83680713D01*
X104566485Y-83680713D02*
X104566485Y-83061666D01*
X103054580Y-67011666D02*
X103102200Y-67059285D01*
X103102200Y-67059285D02*
X103149819Y-67202142D01*
X103149819Y-67202142D02*
X103149819Y-67297380D01*
X103149819Y-67297380D02*
X103102200Y-67440237D01*
X103102200Y-67440237D02*
X103006961Y-67535475D01*
X103006961Y-67535475D02*
X102911723Y-67583094D01*
X102911723Y-67583094D02*
X102721247Y-67630713D01*
X102721247Y-67630713D02*
X102578390Y-67630713D01*
X102578390Y-67630713D02*
X102387914Y-67583094D01*
X102387914Y-67583094D02*
X102292676Y-67535475D01*
X102292676Y-67535475D02*
X102197438Y-67440237D01*
X102197438Y-67440237D02*
X102149819Y-67297380D01*
X102149819Y-67297380D02*
X102149819Y-67202142D01*
X102149819Y-67202142D02*
X102197438Y-67059285D01*
X102197438Y-67059285D02*
X102245057Y-67011666D01*
X103149819Y-66059285D02*
X103149819Y-66630713D01*
X103149819Y-66344999D02*
X102149819Y-66344999D01*
X102149819Y-66344999D02*
X102292676Y-66440237D01*
X102292676Y-66440237D02*
X102387914Y-66535475D01*
X102387914Y-66535475D02*
X102435533Y-66630713D01*
X123168666Y-98048419D02*
X123168666Y-98762704D01*
X123168666Y-98762704D02*
X123121047Y-98905561D01*
X123121047Y-98905561D02*
X123025809Y-99000800D01*
X123025809Y-99000800D02*
X122882952Y-99048419D01*
X122882952Y-99048419D02*
X122787714Y-99048419D01*
X123549619Y-98048419D02*
X124216285Y-98048419D01*
X124216285Y-98048419D02*
X123787714Y-99048419D01*
X98949819Y-68861666D02*
X98473628Y-69194999D01*
X98949819Y-69433094D02*
X97949819Y-69433094D01*
X97949819Y-69433094D02*
X97949819Y-69052142D01*
X97949819Y-69052142D02*
X97997438Y-68956904D01*
X97997438Y-68956904D02*
X98045057Y-68909285D01*
X98045057Y-68909285D02*
X98140295Y-68861666D01*
X98140295Y-68861666D02*
X98283152Y-68861666D01*
X98283152Y-68861666D02*
X98378390Y-68909285D01*
X98378390Y-68909285D02*
X98426009Y-68956904D01*
X98426009Y-68956904D02*
X98473628Y-69052142D01*
X98473628Y-69052142D02*
X98473628Y-69433094D01*
X98949819Y-67909285D02*
X98949819Y-68480713D01*
X98949819Y-68194999D02*
X97949819Y-68194999D01*
X97949819Y-68194999D02*
X98092676Y-68290237D01*
X98092676Y-68290237D02*
X98187914Y-68385475D01*
X98187914Y-68385475D02*
X98235533Y-68480713D01*
X141215180Y-85988095D02*
X140405657Y-85988095D01*
X140405657Y-85988095D02*
X140310419Y-86035714D01*
X140310419Y-86035714D02*
X140262800Y-86083333D01*
X140262800Y-86083333D02*
X140215180Y-86178571D01*
X140215180Y-86178571D02*
X140215180Y-86369047D01*
X140215180Y-86369047D02*
X140262800Y-86464285D01*
X140262800Y-86464285D02*
X140310419Y-86511904D01*
X140310419Y-86511904D02*
X140405657Y-86559523D01*
X140405657Y-86559523D02*
X141215180Y-86559523D01*
X141215180Y-86940476D02*
X141215180Y-87607142D01*
X141215180Y-87607142D02*
X140215180Y-87178571D01*
X90215466Y-145703219D02*
X90215466Y-146417504D01*
X90215466Y-146417504D02*
X90167847Y-146560361D01*
X90167847Y-146560361D02*
X90072609Y-146655600D01*
X90072609Y-146655600D02*
X89929752Y-146703219D01*
X89929752Y-146703219D02*
X89834514Y-146703219D01*
X91215466Y-146703219D02*
X90644038Y-146703219D01*
X90929752Y-146703219D02*
X90929752Y-145703219D01*
X90929752Y-145703219D02*
X90834514Y-145846076D01*
X90834514Y-145846076D02*
X90739276Y-145941314D01*
X90739276Y-145941314D02*
X90644038Y-145988933D01*
X127769819Y-102326933D02*
X128484104Y-102326933D01*
X128484104Y-102326933D02*
X128626961Y-102374552D01*
X128626961Y-102374552D02*
X128722200Y-102469790D01*
X128722200Y-102469790D02*
X128769819Y-102612647D01*
X128769819Y-102612647D02*
X128769819Y-102707885D01*
X128769819Y-101850742D02*
X127769819Y-101850742D01*
X127769819Y-101850742D02*
X127769819Y-101469790D01*
X127769819Y-101469790D02*
X127817438Y-101374552D01*
X127817438Y-101374552D02*
X127865057Y-101326933D01*
X127865057Y-101326933D02*
X127960295Y-101279314D01*
X127960295Y-101279314D02*
X128103152Y-101279314D01*
X128103152Y-101279314D02*
X128198390Y-101326933D01*
X128198390Y-101326933D02*
X128246009Y-101374552D01*
X128246009Y-101374552D02*
X128293628Y-101469790D01*
X128293628Y-101469790D02*
X128293628Y-101850742D01*
X128198390Y-100707885D02*
X128150771Y-100803123D01*
X128150771Y-100803123D02*
X128103152Y-100850742D01*
X128103152Y-100850742D02*
X128007914Y-100898361D01*
X128007914Y-100898361D02*
X127960295Y-100898361D01*
X127960295Y-100898361D02*
X127865057Y-100850742D01*
X127865057Y-100850742D02*
X127817438Y-100803123D01*
X127817438Y-100803123D02*
X127769819Y-100707885D01*
X127769819Y-100707885D02*
X127769819Y-100517409D01*
X127769819Y-100517409D02*
X127817438Y-100422171D01*
X127817438Y-100422171D02*
X127865057Y-100374552D01*
X127865057Y-100374552D02*
X127960295Y-100326933D01*
X127960295Y-100326933D02*
X128007914Y-100326933D01*
X128007914Y-100326933D02*
X128103152Y-100374552D01*
X128103152Y-100374552D02*
X128150771Y-100422171D01*
X128150771Y-100422171D02*
X128198390Y-100517409D01*
X128198390Y-100517409D02*
X128198390Y-100707885D01*
X128198390Y-100707885D02*
X128246009Y-100803123D01*
X128246009Y-100803123D02*
X128293628Y-100850742D01*
X128293628Y-100850742D02*
X128388866Y-100898361D01*
X128388866Y-100898361D02*
X128579342Y-100898361D01*
X128579342Y-100898361D02*
X128674580Y-100850742D01*
X128674580Y-100850742D02*
X128722200Y-100803123D01*
X128722200Y-100803123D02*
X128769819Y-100707885D01*
X128769819Y-100707885D02*
X128769819Y-100517409D01*
X128769819Y-100517409D02*
X128722200Y-100422171D01*
X128722200Y-100422171D02*
X128674580Y-100374552D01*
X128674580Y-100374552D02*
X128579342Y-100326933D01*
X128579342Y-100326933D02*
X128388866Y-100326933D01*
X128388866Y-100326933D02*
X128293628Y-100374552D01*
X128293628Y-100374552D02*
X128246009Y-100422171D01*
X128246009Y-100422171D02*
X128198390Y-100517409D01*
X99264276Y-106028419D02*
X99264276Y-106742704D01*
X99264276Y-106742704D02*
X99216657Y-106885561D01*
X99216657Y-106885561D02*
X99121419Y-106980800D01*
X99121419Y-106980800D02*
X98978562Y-107028419D01*
X98978562Y-107028419D02*
X98883324Y-107028419D01*
X100264276Y-107028419D02*
X99692848Y-107028419D01*
X99978562Y-107028419D02*
X99978562Y-106028419D01*
X99978562Y-106028419D02*
X99883324Y-106171276D01*
X99883324Y-106171276D02*
X99788086Y-106266514D01*
X99788086Y-106266514D02*
X99692848Y-106314133D01*
X100597610Y-106028419D02*
X101216657Y-106028419D01*
X101216657Y-106028419D02*
X100883324Y-106409371D01*
X100883324Y-106409371D02*
X101026181Y-106409371D01*
X101026181Y-106409371D02*
X101121419Y-106456990D01*
X101121419Y-106456990D02*
X101169038Y-106504609D01*
X101169038Y-106504609D02*
X101216657Y-106599847D01*
X101216657Y-106599847D02*
X101216657Y-106837942D01*
X101216657Y-106837942D02*
X101169038Y-106933180D01*
X101169038Y-106933180D02*
X101121419Y-106980800D01*
X101121419Y-106980800D02*
X101026181Y-107028419D01*
X101026181Y-107028419D02*
X100740467Y-107028419D01*
X100740467Y-107028419D02*
X100645229Y-106980800D01*
X100645229Y-106980800D02*
X100597610Y-106933180D01*
X147449819Y-71556904D02*
X148259342Y-71556904D01*
X148259342Y-71556904D02*
X148354580Y-71509285D01*
X148354580Y-71509285D02*
X148402200Y-71461666D01*
X148402200Y-71461666D02*
X148449819Y-71366428D01*
X148449819Y-71366428D02*
X148449819Y-71175952D01*
X148449819Y-71175952D02*
X148402200Y-71080714D01*
X148402200Y-71080714D02*
X148354580Y-71033095D01*
X148354580Y-71033095D02*
X148259342Y-70985476D01*
X148259342Y-70985476D02*
X147449819Y-70985476D01*
X147449819Y-70604523D02*
X147449819Y-69985476D01*
X147449819Y-69985476D02*
X147830771Y-70318809D01*
X147830771Y-70318809D02*
X147830771Y-70175952D01*
X147830771Y-70175952D02*
X147878390Y-70080714D01*
X147878390Y-70080714D02*
X147926009Y-70033095D01*
X147926009Y-70033095D02*
X148021247Y-69985476D01*
X148021247Y-69985476D02*
X148259342Y-69985476D01*
X148259342Y-69985476D02*
X148354580Y-70033095D01*
X148354580Y-70033095D02*
X148402200Y-70080714D01*
X148402200Y-70080714D02*
X148449819Y-70175952D01*
X148449819Y-70175952D02*
X148449819Y-70461666D01*
X148449819Y-70461666D02*
X148402200Y-70556904D01*
X148402200Y-70556904D02*
X148354580Y-70604523D01*
X94663695Y-111743419D02*
X94663695Y-112552942D01*
X94663695Y-112552942D02*
X94711314Y-112648180D01*
X94711314Y-112648180D02*
X94758933Y-112695800D01*
X94758933Y-112695800D02*
X94854171Y-112743419D01*
X94854171Y-112743419D02*
X95044647Y-112743419D01*
X95044647Y-112743419D02*
X95139885Y-112695800D01*
X95139885Y-112695800D02*
X95187504Y-112648180D01*
X95187504Y-112648180D02*
X95235123Y-112552942D01*
X95235123Y-112552942D02*
X95235123Y-111743419D01*
X96235123Y-112743419D02*
X95663695Y-112743419D01*
X95949409Y-112743419D02*
X95949409Y-111743419D01*
X95949409Y-111743419D02*
X95854171Y-111886276D01*
X95854171Y-111886276D02*
X95758933Y-111981514D01*
X95758933Y-111981514D02*
X95663695Y-112029133D01*
X63170876Y-98103619D02*
X63170876Y-98817904D01*
X63170876Y-98817904D02*
X63123257Y-98960761D01*
X63123257Y-98960761D02*
X63028019Y-99056000D01*
X63028019Y-99056000D02*
X62885162Y-99103619D01*
X62885162Y-99103619D02*
X62789924Y-99103619D01*
X64170876Y-99103619D02*
X63599448Y-99103619D01*
X63885162Y-99103619D02*
X63885162Y-98103619D01*
X63885162Y-98103619D02*
X63789924Y-98246476D01*
X63789924Y-98246476D02*
X63694686Y-98341714D01*
X63694686Y-98341714D02*
X63599448Y-98389333D01*
X64551829Y-98198857D02*
X64599448Y-98151238D01*
X64599448Y-98151238D02*
X64694686Y-98103619D01*
X64694686Y-98103619D02*
X64932781Y-98103619D01*
X64932781Y-98103619D02*
X65028019Y-98151238D01*
X65028019Y-98151238D02*
X65075638Y-98198857D01*
X65075638Y-98198857D02*
X65123257Y-98294095D01*
X65123257Y-98294095D02*
X65123257Y-98389333D01*
X65123257Y-98389333D02*
X65075638Y-98532190D01*
X65075638Y-98532190D02*
X64504210Y-99103619D01*
X64504210Y-99103619D02*
X65123257Y-99103619D01*
X147749819Y-88906904D02*
X148559342Y-88906904D01*
X148559342Y-88906904D02*
X148654580Y-88859285D01*
X148654580Y-88859285D02*
X148702200Y-88811666D01*
X148702200Y-88811666D02*
X148749819Y-88716428D01*
X148749819Y-88716428D02*
X148749819Y-88525952D01*
X148749819Y-88525952D02*
X148702200Y-88430714D01*
X148702200Y-88430714D02*
X148654580Y-88383095D01*
X148654580Y-88383095D02*
X148559342Y-88335476D01*
X148559342Y-88335476D02*
X147749819Y-88335476D01*
X148178390Y-87716428D02*
X148130771Y-87811666D01*
X148130771Y-87811666D02*
X148083152Y-87859285D01*
X148083152Y-87859285D02*
X147987914Y-87906904D01*
X147987914Y-87906904D02*
X147940295Y-87906904D01*
X147940295Y-87906904D02*
X147845057Y-87859285D01*
X147845057Y-87859285D02*
X147797438Y-87811666D01*
X147797438Y-87811666D02*
X147749819Y-87716428D01*
X147749819Y-87716428D02*
X147749819Y-87525952D01*
X147749819Y-87525952D02*
X147797438Y-87430714D01*
X147797438Y-87430714D02*
X147845057Y-87383095D01*
X147845057Y-87383095D02*
X147940295Y-87335476D01*
X147940295Y-87335476D02*
X147987914Y-87335476D01*
X147987914Y-87335476D02*
X148083152Y-87383095D01*
X148083152Y-87383095D02*
X148130771Y-87430714D01*
X148130771Y-87430714D02*
X148178390Y-87525952D01*
X148178390Y-87525952D02*
X148178390Y-87716428D01*
X148178390Y-87716428D02*
X148226009Y-87811666D01*
X148226009Y-87811666D02*
X148273628Y-87859285D01*
X148273628Y-87859285D02*
X148368866Y-87906904D01*
X148368866Y-87906904D02*
X148559342Y-87906904D01*
X148559342Y-87906904D02*
X148654580Y-87859285D01*
X148654580Y-87859285D02*
X148702200Y-87811666D01*
X148702200Y-87811666D02*
X148749819Y-87716428D01*
X148749819Y-87716428D02*
X148749819Y-87525952D01*
X148749819Y-87525952D02*
X148702200Y-87430714D01*
X148702200Y-87430714D02*
X148654580Y-87383095D01*
X148654580Y-87383095D02*
X148559342Y-87335476D01*
X148559342Y-87335476D02*
X148368866Y-87335476D01*
X148368866Y-87335476D02*
X148273628Y-87383095D01*
X148273628Y-87383095D02*
X148226009Y-87430714D01*
X148226009Y-87430714D02*
X148178390Y-87525952D01*
X56338276Y-116188419D02*
X56338276Y-116902704D01*
X56338276Y-116902704D02*
X56290657Y-117045561D01*
X56290657Y-117045561D02*
X56195419Y-117140800D01*
X56195419Y-117140800D02*
X56052562Y-117188419D01*
X56052562Y-117188419D02*
X55957324Y-117188419D01*
X57338276Y-117188419D02*
X56766848Y-117188419D01*
X57052562Y-117188419D02*
X57052562Y-116188419D01*
X57052562Y-116188419D02*
X56957324Y-116331276D01*
X56957324Y-116331276D02*
X56862086Y-116426514D01*
X56862086Y-116426514D02*
X56766848Y-116474133D01*
X57957324Y-116188419D02*
X58052562Y-116188419D01*
X58052562Y-116188419D02*
X58147800Y-116236038D01*
X58147800Y-116236038D02*
X58195419Y-116283657D01*
X58195419Y-116283657D02*
X58243038Y-116378895D01*
X58243038Y-116378895D02*
X58290657Y-116569371D01*
X58290657Y-116569371D02*
X58290657Y-116807466D01*
X58290657Y-116807466D02*
X58243038Y-116997942D01*
X58243038Y-116997942D02*
X58195419Y-117093180D01*
X58195419Y-117093180D02*
X58147800Y-117140800D01*
X58147800Y-117140800D02*
X58052562Y-117188419D01*
X58052562Y-117188419D02*
X57957324Y-117188419D01*
X57957324Y-117188419D02*
X57862086Y-117140800D01*
X57862086Y-117140800D02*
X57814467Y-117093180D01*
X57814467Y-117093180D02*
X57766848Y-116997942D01*
X57766848Y-116997942D02*
X57719229Y-116807466D01*
X57719229Y-116807466D02*
X57719229Y-116569371D01*
X57719229Y-116569371D02*
X57766848Y-116378895D01*
X57766848Y-116378895D02*
X57814467Y-116283657D01*
X57814467Y-116283657D02*
X57862086Y-116236038D01*
X57862086Y-116236038D02*
X57957324Y-116188419D01*
D11*
%TO.C,JP2*%
X131992400Y-139432000D02*
X133322400Y-139432000D01*
X131992400Y-140762000D02*
X131992400Y-139432000D01*
X131992400Y-142032000D02*
X131992400Y-147172000D01*
X131992400Y-142032000D02*
X134652400Y-142032000D01*
X131992400Y-147172000D02*
X134652400Y-147172000D01*
X134652400Y-142032000D02*
X134652400Y-147172000D01*
%TO.C,C2*%
X124555000Y-68233748D02*
X124555000Y-69656252D01*
X122735000Y-68233748D02*
X122735000Y-69656252D01*
D12*
%TO.C,U6*%
X132149002Y-72179335D02*
X132149002Y-67810782D01*
X125291002Y-67810769D02*
X125291002Y-72179322D01*
G36*
X131835500Y-74155051D02*
G01*
X131454500Y-74155051D01*
X131454500Y-73901051D01*
X131835500Y-73901051D01*
X131835500Y-74155051D01*
G37*
G36*
X125985504Y-66089053D02*
G01*
X125604504Y-66089053D01*
X125604504Y-65835053D01*
X125985504Y-65835053D01*
X125985504Y-66089053D01*
G37*
%TO.C,U2*%
X72502100Y-108885000D02*
X72502100Y-109225760D01*
X72502100Y-124393840D02*
X72502100Y-124734600D01*
X72502100Y-124734600D02*
X80350700Y-124734600D01*
X80350700Y-108885000D02*
X72502100Y-108885000D01*
X80350700Y-109225760D02*
X80350700Y-108885000D01*
X80350700Y-124734600D02*
X80350700Y-124393840D01*
G36*
X70501101Y-121445300D02*
G01*
X70247101Y-121445300D01*
X70247101Y-121064300D01*
X70501101Y-121064300D01*
X70501101Y-121445300D01*
G37*
G36*
X82605699Y-115095300D02*
G01*
X82351699Y-115095300D01*
X82351699Y-114714300D01*
X82605699Y-114714300D01*
X82605699Y-115095300D01*
G37*
D11*
%TO.C,R2*%
X119735000Y-69672064D02*
X119735000Y-68217936D01*
X121555000Y-69672064D02*
X121555000Y-68217936D01*
%TO.C,JP7*%
X108795200Y-100087400D02*
X108795200Y-101417400D01*
X107465200Y-100087400D02*
X108795200Y-100087400D01*
X106195200Y-100087400D02*
X101055200Y-100087400D01*
X106195200Y-100087400D02*
X106195200Y-102747400D01*
X101055200Y-100087400D02*
X101055200Y-102747400D01*
X106195200Y-102747400D02*
X101055200Y-102747400D01*
%TO.C,JP15*%
X78772400Y-98487200D02*
X78772400Y-99817200D01*
X77442400Y-98487200D02*
X78772400Y-98487200D01*
X76172400Y-98487200D02*
X71032400Y-98487200D01*
X76172400Y-98487200D02*
X76172400Y-101147200D01*
X71032400Y-98487200D02*
X71032400Y-101147200D01*
X76172400Y-101147200D02*
X71032400Y-101147200D01*
%TO.C,JP1*%
X84001400Y-135894400D02*
X84001400Y-134564400D01*
X85331400Y-135894400D02*
X84001400Y-135894400D01*
X86601400Y-135894400D02*
X91741400Y-135894400D01*
X86601400Y-135894400D02*
X86601400Y-133234400D01*
X91741400Y-135894400D02*
X91741400Y-133234400D01*
X86601400Y-133234400D02*
X91741400Y-133234400D01*
%TO.C,R3*%
X129555000Y-83767936D02*
X129555000Y-85222064D01*
X127735000Y-83767936D02*
X127735000Y-85222064D01*
%TO.C,C4*%
X111555000Y-83796248D02*
X111555000Y-85218752D01*
X109735000Y-83796248D02*
X109735000Y-85218752D01*
%TO.C,J5*%
X74815000Y-126478000D02*
X74815000Y-127808000D01*
X73485000Y-126478000D02*
X74815000Y-126478000D01*
X72215000Y-126478000D02*
X69615000Y-126478000D01*
X72215000Y-126478000D02*
X72215000Y-129138000D01*
X69615000Y-126478000D02*
X69615000Y-129138000D01*
X72215000Y-129138000D02*
X69615000Y-129138000D01*
D12*
%TO.C,U4*%
X119249000Y-87329335D02*
X119249000Y-82960782D01*
X112391000Y-82960769D02*
X112391000Y-87329322D01*
G36*
X118935498Y-89305051D02*
G01*
X118554498Y-89305051D01*
X118554498Y-89051051D01*
X118935498Y-89051051D01*
X118935498Y-89305051D01*
G37*
G36*
X113085502Y-81239053D02*
G01*
X112704502Y-81239053D01*
X112704502Y-80985053D01*
X113085502Y-80985053D01*
X113085502Y-81239053D01*
G37*
D11*
%TO.C,J6_STOP2*%
X119438000Y-101486800D02*
X119438000Y-102736800D01*
X119728000Y-101776800D02*
X119728000Y-107746800D01*
X119728000Y-107746800D02*
X127348000Y-107746800D01*
X119738000Y-101786800D02*
X119738000Y-102536800D01*
X119738000Y-102536800D02*
X121538000Y-102536800D01*
X119738000Y-104036800D02*
X120488000Y-104036800D01*
X120488000Y-104036800D02*
X120488000Y-106986800D01*
X120488000Y-106986800D02*
X123538000Y-106986800D01*
X120688000Y-101486800D02*
X119438000Y-101486800D01*
X121538000Y-101786800D02*
X119738000Y-101786800D01*
X121538000Y-102536800D02*
X121538000Y-101786800D01*
X123038000Y-101786800D02*
X123038000Y-102536800D01*
X123038000Y-102536800D02*
X124038000Y-102536800D01*
X124038000Y-101786800D02*
X123038000Y-101786800D01*
X124038000Y-102536800D02*
X124038000Y-101786800D01*
X125538000Y-101786800D02*
X125538000Y-102536800D01*
X125538000Y-102536800D02*
X127338000Y-102536800D01*
X126588000Y-104036800D02*
X126588000Y-106986800D01*
X126588000Y-106986800D02*
X123538000Y-106986800D01*
X127338000Y-101786800D02*
X125538000Y-101786800D01*
X127338000Y-102536800D02*
X127338000Y-101786800D01*
X127338000Y-104036800D02*
X126588000Y-104036800D01*
X127348000Y-101776800D02*
X119728000Y-101776800D01*
X127348000Y-107746800D02*
X127348000Y-101776800D01*
%TO.C,J4*%
X111055400Y-99383600D02*
X111055400Y-100633600D01*
X111355400Y-99683600D02*
X111355400Y-104403600D01*
X111355400Y-100993600D02*
X111965400Y-100993600D01*
X111355400Y-102293600D02*
X111965400Y-102293600D01*
X111355400Y-104403600D02*
X117475400Y-104403600D01*
X111965400Y-100293600D02*
X111965400Y-103793600D01*
X111965400Y-103793600D02*
X116865400Y-103793600D01*
X112305400Y-99383600D02*
X111055400Y-99383600D01*
X112815400Y-99483600D02*
X112815400Y-99683600D01*
X113115400Y-99483600D02*
X112815400Y-99483600D01*
X113115400Y-99583600D02*
X112815400Y-99583600D01*
X113115400Y-99683600D02*
X113115400Y-99483600D01*
X113915400Y-99683600D02*
X113915400Y-100293600D01*
X113915400Y-100293600D02*
X111965400Y-100293600D01*
X114315400Y-103293600D02*
X114515400Y-103293600D01*
X114315400Y-103793600D02*
X114315400Y-103293600D01*
X114415400Y-103793600D02*
X114415400Y-103293600D01*
X114515400Y-103293600D02*
X114515400Y-103793600D01*
X114915400Y-100293600D02*
X114915400Y-99683600D01*
X116865400Y-100293600D02*
X114915400Y-100293600D01*
X116865400Y-103793600D02*
X116865400Y-100293600D01*
X117475400Y-99683600D02*
X111355400Y-99683600D01*
X117475400Y-100993600D02*
X116865400Y-100993600D01*
X117475400Y-102293600D02*
X116865400Y-102293600D01*
X117475400Y-104403600D02*
X117475400Y-99683600D01*
D12*
%TO.C,U5*%
X111249000Y-72179335D02*
X111249000Y-67810782D01*
X104391000Y-67810769D02*
X104391000Y-72179322D01*
G36*
X110935498Y-74155051D02*
G01*
X110554498Y-74155051D01*
X110554498Y-73901051D01*
X110935498Y-73901051D01*
X110935498Y-74155051D01*
G37*
G36*
X105085502Y-66089053D02*
G01*
X104704502Y-66089053D01*
X104704502Y-65835053D01*
X105085502Y-65835053D01*
X105085502Y-66089053D01*
G37*
D11*
%TO.C,J14*%
X85291000Y-106751400D02*
X85291000Y-105481400D01*
X86561000Y-106751400D02*
X85291000Y-106751400D01*
X88721000Y-104438471D02*
X88721000Y-104041400D01*
X89481000Y-104438471D02*
X89481000Y-104041400D01*
X86181000Y-104371400D02*
X86181000Y-104041400D01*
X86941000Y-104371400D02*
X86941000Y-104041400D01*
X85231000Y-104041400D02*
X90431000Y-104041400D01*
X87831000Y-104041400D02*
X87831000Y-101381400D01*
X90431000Y-104041400D02*
X90431000Y-101381400D01*
X85231000Y-101381400D02*
X85231000Y-104041400D01*
X86181000Y-101381400D02*
X86181000Y-95381400D01*
X86241000Y-101381400D02*
X86241000Y-95381400D01*
X86361000Y-101381400D02*
X86361000Y-95381400D01*
X86481000Y-101381400D02*
X86481000Y-95381400D01*
X86601000Y-101381400D02*
X86601000Y-95381400D01*
X86721000Y-101381400D02*
X86721000Y-95381400D01*
X86841000Y-101381400D02*
X86841000Y-95381400D01*
X88721000Y-101381400D02*
X88721000Y-95381400D01*
X90431000Y-101381400D02*
X85231000Y-101381400D01*
X86181000Y-95381400D02*
X86941000Y-95381400D01*
X86941000Y-95381400D02*
X86941000Y-101381400D01*
X88721000Y-95381400D02*
X89481000Y-95381400D01*
X89481000Y-95381400D02*
X89481000Y-101381400D01*
%TO.C,C3*%
X132055000Y-83733748D02*
X132055000Y-85156252D01*
X130235000Y-83733748D02*
X130235000Y-85156252D01*
%TO.C,R4*%
X108005000Y-83767936D02*
X108005000Y-85222064D01*
X106185000Y-83767936D02*
X106185000Y-85222064D01*
%TO.C,C1*%
X103805000Y-69483748D02*
X103805000Y-70906252D01*
X101985000Y-69483748D02*
X101985000Y-70906252D01*
%TO.C,J5_STOP1*%
X110344800Y-101436000D02*
X110344800Y-102686000D01*
X110634800Y-101726000D02*
X110634800Y-107696000D01*
X110634800Y-107696000D02*
X118254800Y-107696000D01*
X110644800Y-101736000D02*
X110644800Y-102486000D01*
X110644800Y-102486000D02*
X112444800Y-102486000D01*
X110644800Y-103986000D02*
X111394800Y-103986000D01*
X111394800Y-103986000D02*
X111394800Y-106936000D01*
X111394800Y-106936000D02*
X114444800Y-106936000D01*
X111594800Y-101436000D02*
X110344800Y-101436000D01*
X112444800Y-101736000D02*
X110644800Y-101736000D01*
X112444800Y-102486000D02*
X112444800Y-101736000D01*
X113944800Y-101736000D02*
X113944800Y-102486000D01*
X113944800Y-102486000D02*
X114944800Y-102486000D01*
X114944800Y-101736000D02*
X113944800Y-101736000D01*
X114944800Y-102486000D02*
X114944800Y-101736000D01*
X116444800Y-101736000D02*
X116444800Y-102486000D01*
X116444800Y-102486000D02*
X118244800Y-102486000D01*
X117494800Y-103986000D02*
X117494800Y-106936000D01*
X117494800Y-106936000D02*
X114444800Y-106936000D01*
X118244800Y-101736000D02*
X116444800Y-101736000D01*
X118244800Y-102486000D02*
X118244800Y-101736000D01*
X118244800Y-103986000D02*
X117494800Y-103986000D01*
X118254800Y-101726000D02*
X110634800Y-101726000D01*
X118254800Y-107696000D02*
X118254800Y-101726000D01*
D13*
%TO.C,J3*%
X111413800Y-101029800D02*
X117413800Y-101029800D01*
X117413800Y-101029800D02*
X117413800Y-97029800D01*
X117413800Y-97029800D02*
X111413800Y-97029800D01*
X111413800Y-97029800D02*
X111413800Y-101029800D01*
D11*
%TO.C,J7*%
X120142000Y-99383600D02*
X120142000Y-100633600D01*
X120442000Y-99683600D02*
X120442000Y-104403600D01*
X120442000Y-100993600D02*
X121052000Y-100993600D01*
X120442000Y-102293600D02*
X121052000Y-102293600D01*
X120442000Y-104403600D02*
X126562000Y-104403600D01*
X121052000Y-100293600D02*
X121052000Y-103793600D01*
X121052000Y-103793600D02*
X125952000Y-103793600D01*
X121392000Y-99383600D02*
X120142000Y-99383600D01*
X121902000Y-99483600D02*
X121902000Y-99683600D01*
X122202000Y-99483600D02*
X121902000Y-99483600D01*
X122202000Y-99583600D02*
X121902000Y-99583600D01*
X122202000Y-99683600D02*
X122202000Y-99483600D01*
X123002000Y-99683600D02*
X123002000Y-100293600D01*
X123002000Y-100293600D02*
X121052000Y-100293600D01*
X123402000Y-103293600D02*
X123602000Y-103293600D01*
X123402000Y-103793600D02*
X123402000Y-103293600D01*
X123502000Y-103793600D02*
X123502000Y-103293600D01*
X123602000Y-103293600D02*
X123602000Y-103793600D01*
X124002000Y-100293600D02*
X124002000Y-99683600D01*
X125952000Y-100293600D02*
X124002000Y-100293600D01*
X125952000Y-103793600D02*
X125952000Y-100293600D01*
X126562000Y-99683600D02*
X120442000Y-99683600D01*
X126562000Y-100993600D02*
X125952000Y-100993600D01*
X126562000Y-102293600D02*
X125952000Y-102293600D01*
X126562000Y-104403600D02*
X126562000Y-99683600D01*
%TO.C,R1*%
X101305000Y-69467936D02*
X101305000Y-70922064D01*
X99485000Y-69467936D02*
X99485000Y-70922064D01*
D12*
%TO.C,U7*%
X139748998Y-87329231D02*
X139748998Y-82960678D01*
X132890998Y-82960665D02*
X132890998Y-87329218D01*
G36*
X139435496Y-89304947D02*
G01*
X139054496Y-89304947D01*
X139054496Y-89050947D01*
X139435496Y-89050947D01*
X139435496Y-89304947D01*
G37*
G36*
X133585500Y-81238949D02*
G01*
X133204500Y-81238949D01*
X133204500Y-80984949D01*
X133585500Y-80984949D01*
X133585500Y-81238949D01*
G37*
D11*
%TO.C,J1*%
X116150000Y-140030000D02*
X116150000Y-141360000D01*
X114820000Y-140030000D02*
X116150000Y-140030000D01*
X113550000Y-140030000D02*
X65230000Y-140030000D01*
X113550000Y-140030000D02*
X113550000Y-142630000D01*
X65230000Y-140030000D02*
X65230000Y-145230000D01*
X116150000Y-142630000D02*
X116150000Y-145230000D01*
X113550000Y-142630000D02*
X116150000Y-142630000D01*
X116150000Y-145230000D02*
X65230000Y-145230000D01*
D13*
%TO.C,J8*%
X120481600Y-101004400D02*
X126481600Y-101004400D01*
X126481600Y-101004400D02*
X126481600Y-97004400D01*
X126481600Y-97004400D02*
X120481600Y-97004400D01*
X120481600Y-97004400D02*
X120481600Y-101004400D01*
D11*
%TO.C,JP8*%
X129315000Y-102823600D02*
X129315000Y-101493600D01*
X130645000Y-102823600D02*
X129315000Y-102823600D01*
X131915000Y-102823600D02*
X137055000Y-102823600D01*
X131915000Y-102823600D02*
X131915000Y-100163600D01*
X137055000Y-102823600D02*
X137055000Y-100163600D01*
X131915000Y-100163600D02*
X137055000Y-100163600D01*
%TD*%
M02*
