%TF.GenerationSoftware,KiCad,Pcbnew,7.0.10*%
%TF.CreationDate,2024-02-26T10:06:05+01:00*%
%TF.ProjectId,Legacy-LedPanel-HAT,4c656761-6379-42d4-9c65-6450616e656c,rev?*%
%TF.SameCoordinates,Original*%
%TF.FileFunction,Paste,Top*%
%TF.FilePolarity,Positive*%
%FSLAX46Y46*%
G04 Gerber Fmt 4.6, Leading zero omitted, Abs format (unit mm)*
G04 Created by KiCad (PCBNEW 7.0.10) date 2024-02-26 10:06:05*
%MOMM*%
%LPD*%
G01*
G04 APERTURE LIST*
G04 Aperture macros list*
%AMRoundRect*
0 Rectangle with rounded corners*
0 $1 Rounding radius*
0 $2 $3 $4 $5 $6 $7 $8 $9 X,Y pos of 4 corners*
0 Add a 4 corners polygon primitive as box body*
4,1,4,$2,$3,$4,$5,$6,$7,$8,$9,$2,$3,0*
0 Add four circle primitives for the rounded corners*
1,1,$1+$1,$2,$3*
1,1,$1+$1,$4,$5*
1,1,$1+$1,$6,$7*
1,1,$1+$1,$8,$9*
0 Add four rect primitives between the rounded corners*
20,1,$1+$1,$2,$3,$4,$5,0*
20,1,$1+$1,$4,$5,$6,$7,0*
20,1,$1+$1,$6,$7,$8,$9,0*
20,1,$1+$1,$8,$9,$2,$3,0*%
G04 Aperture macros list end*
%ADD10RoundRect,0.250000X-0.650000X0.412500X-0.650000X-0.412500X0.650000X-0.412500X0.650000X0.412500X0*%
%ADD11R,0.354800X1.404099*%
%ADD12R,1.792199X0.532600*%
%ADD13RoundRect,0.250000X0.625000X-0.400000X0.625000X0.400000X-0.625000X0.400000X-0.625000X-0.400000X0*%
%ADD14RoundRect,0.250000X-0.625000X0.400000X-0.625000X-0.400000X0.625000X-0.400000X0.625000X0.400000X0*%
G04 APERTURE END LIST*
D10*
%TO.C,C2*%
X123645000Y-67382500D03*
X123645000Y-70507500D03*
%TD*%
D11*
%TO.C,U6*%
X125795002Y-72945000D03*
X126445003Y-72945000D03*
X127095001Y-72945000D03*
X127745003Y-72945000D03*
X128395001Y-72945000D03*
X129045000Y-72945000D03*
X129695001Y-72945000D03*
X130345000Y-72945000D03*
X130995001Y-72945000D03*
X131645000Y-72945000D03*
X131645002Y-67045104D03*
X130995004Y-67045104D03*
X130345003Y-67045104D03*
X129695004Y-67045104D03*
X129045003Y-67045104D03*
X128395004Y-67045104D03*
X127745003Y-67045104D03*
X127095004Y-67045104D03*
X126445003Y-67045104D03*
X125795004Y-67045104D03*
%TD*%
D12*
%TO.C,U2*%
X71651200Y-109824800D03*
X71651200Y-111094800D03*
X71651200Y-112364800D03*
X71651200Y-113634800D03*
X71651200Y-114904800D03*
X71651200Y-116174800D03*
X71651200Y-117444800D03*
X71651200Y-118714800D03*
X71651200Y-119984800D03*
X71651200Y-121254800D03*
X71651200Y-122524800D03*
X71651200Y-123794800D03*
X81201600Y-123794800D03*
X81201600Y-122524800D03*
X81201600Y-121254800D03*
X81201600Y-119984800D03*
X81201600Y-118714800D03*
X81201600Y-117444800D03*
X81201600Y-116174800D03*
X81201600Y-114904800D03*
X81201600Y-113634800D03*
X81201600Y-112364800D03*
X81201600Y-111094800D03*
X81201600Y-109824800D03*
%TD*%
D13*
%TO.C,R2*%
X120645000Y-70495000D03*
X120645000Y-67395000D03*
%TD*%
D14*
%TO.C,R3*%
X128645000Y-82945000D03*
X128645000Y-86045000D03*
%TD*%
D10*
%TO.C,C4*%
X110645000Y-82945000D03*
X110645000Y-86070000D03*
%TD*%
D11*
%TO.C,U4*%
X112895000Y-88095000D03*
X113545001Y-88095000D03*
X114194999Y-88095000D03*
X114845001Y-88095000D03*
X115494999Y-88095000D03*
X116144998Y-88095000D03*
X116794999Y-88095000D03*
X117444998Y-88095000D03*
X118094999Y-88095000D03*
X118744998Y-88095000D03*
X118745000Y-82195104D03*
X118095002Y-82195104D03*
X117445001Y-82195104D03*
X116795002Y-82195104D03*
X116145001Y-82195104D03*
X115495002Y-82195104D03*
X114845001Y-82195104D03*
X114195002Y-82195104D03*
X113545001Y-82195104D03*
X112895002Y-82195104D03*
%TD*%
%TO.C,U5*%
X104895000Y-72945000D03*
X105545001Y-72945000D03*
X106194999Y-72945000D03*
X106845001Y-72945000D03*
X107494999Y-72945000D03*
X108144998Y-72945000D03*
X108794999Y-72945000D03*
X109444998Y-72945000D03*
X110094999Y-72945000D03*
X110744998Y-72945000D03*
X110745000Y-67045104D03*
X110095002Y-67045104D03*
X109445001Y-67045104D03*
X108795002Y-67045104D03*
X108145001Y-67045104D03*
X107495002Y-67045104D03*
X106845001Y-67045104D03*
X106195002Y-67045104D03*
X105545001Y-67045104D03*
X104895002Y-67045104D03*
%TD*%
D10*
%TO.C,C3*%
X131145000Y-82882500D03*
X131145000Y-86007500D03*
%TD*%
D14*
%TO.C,R4*%
X107095000Y-82945000D03*
X107095000Y-86045000D03*
%TD*%
D10*
%TO.C,C1*%
X102895000Y-68632500D03*
X102895000Y-71757500D03*
%TD*%
D14*
%TO.C,R1*%
X100395000Y-68645000D03*
X100395000Y-71745000D03*
%TD*%
D11*
%TO.C,U7*%
X133394998Y-88094896D03*
X134044999Y-88094896D03*
X134694997Y-88094896D03*
X135344999Y-88094896D03*
X135994997Y-88094896D03*
X136644996Y-88094896D03*
X137294997Y-88094896D03*
X137944996Y-88094896D03*
X138594997Y-88094896D03*
X139244996Y-88094896D03*
X139244998Y-82195000D03*
X138595000Y-82195000D03*
X137944999Y-82195000D03*
X137295000Y-82195000D03*
X136644999Y-82195000D03*
X135995000Y-82195000D03*
X135344999Y-82195000D03*
X134695000Y-82195000D03*
X134044999Y-82195000D03*
X133395000Y-82195000D03*
%TD*%
M02*
